M48
; DRILL file {KiCad 9.0.0} date 2025-03-11T10:04:10+0100
; FORMAT={-:-/ absolute / metric / decimal}
; #@! TF.CreationDate,2025-03-11T10:04:10+01:00
; #@! TF.GenerationSoftware,Kicad,Pcbnew,9.0.0
; #@! TF.FileFunction,MixedPlating,1,2
FMAT,2
METRIC
; #@! TA.AperFunction,Plated,PTH,ComponentDrill
T1C0.750
; #@! TA.AperFunction,Plated,PTH,ComponentDrill
T2C0.950
; #@! TA.AperFunction,Plated,PTH,ComponentDrill
T3C1.000
; #@! TA.AperFunction,Plated,PTH,ComponentDrill
T4C2.500
; #@! TA.AperFunction,NonPlated,NPTH,ComponentDrill
T5C2.200
%
G90
G05
T1
X120.0Y-61.0
X120.0Y-63.0
X120.0Y-65.0
X120.0Y-67.0
X121.5Y-98.0
X121.5Y-100.0
X121.5Y-102.0
X121.5Y-104.0
X121.5Y-109.5
X121.5Y-111.5
X121.5Y-113.5
X121.5Y-115.5
T2
X120.5Y-121.5
X120.5Y-124.0
X120.5Y-126.5
X139.0Y-130.5
X141.5Y-130.5
X144.0Y-130.5
X159.75Y-110.0
X159.75Y-112.5
X159.75Y-115.0
T3
X115.0Y-81.5
X115.0Y-84.04
X120.0Y-75.5
X120.0Y-78.04
X120.0Y-88.0
X120.0Y-90.54
X130.09Y-78.885
X130.09Y-81.425
X130.09Y-83.965
X130.09Y-86.505
X130.09Y-89.045
X130.09Y-91.585
X130.09Y-94.125
X130.09Y-96.665
X130.09Y-99.205
X130.09Y-101.745
X130.09Y-104.285
X130.09Y-106.825
X130.09Y-109.365
X130.09Y-111.905
X150.41Y-78.885
X150.41Y-81.425
X150.41Y-83.965
X150.41Y-86.505
X150.41Y-89.045
X150.41Y-91.585
X150.41Y-94.125
X150.41Y-96.665
X150.41Y-99.205
X150.41Y-101.745
X150.41Y-104.285
X150.41Y-106.825
X150.41Y-109.365
X150.41Y-111.905
X157.92Y-60.5
X158.5Y-76.0
X158.5Y-78.54
X158.5Y-81.08
X158.5Y-83.62
X158.5Y-86.16
X158.5Y-88.7
X160.46Y-60.5
X163.0Y-60.5
X164.0Y-95.0
X164.0Y-97.54
X164.0Y-100.08
X164.0Y-102.62
X165.54Y-60.5
T4
X115.0Y-52.0
X115.5Y-136.5
X165.5Y-51.5
X166.0Y-135.5
T5
X130.0Y-59.0
X130.0Y-116.0
X150.5Y-59.0
X150.5Y-116.0
M30
