%TF.GenerationSoftware,KiCad,Pcbnew,9.0.0*%
%TF.CreationDate,2025-03-11T09:25:04+01:00*%
%TF.ProjectId,farming_project,6661726d-696e-4675-9f70-726f6a656374,rev?*%
%TF.SameCoordinates,Original*%
%TF.FileFunction,Legend,Top*%
%TF.FilePolarity,Positive*%
%FSLAX46Y46*%
G04 Gerber Fmt 4.6, Leading zero omitted, Abs format (unit mm)*
G04 Created by KiCad (PCBNEW 9.0.0) date 2025-03-11 09:25:04*
%MOMM*%
%LPD*%
G01*
G04 APERTURE LIST*
%ADD10C,0.150000*%
%ADD11C,0.300000*%
%ADD12C,0.120000*%
%ADD13C,0.127000*%
G04 APERTURE END LIST*
D10*
X115154692Y-103291792D02*
X115202312Y-103339411D01*
X115202312Y-103339411D02*
X115249931Y-103482268D01*
X115249931Y-103482268D02*
X115249931Y-103577506D01*
X115249931Y-103577506D02*
X115202312Y-103720363D01*
X115202312Y-103720363D02*
X115107073Y-103815601D01*
X115107073Y-103815601D02*
X115011835Y-103863220D01*
X115011835Y-103863220D02*
X114821359Y-103910839D01*
X114821359Y-103910839D02*
X114678502Y-103910839D01*
X114678502Y-103910839D02*
X114488026Y-103863220D01*
X114488026Y-103863220D02*
X114392788Y-103815601D01*
X114392788Y-103815601D02*
X114297550Y-103720363D01*
X114297550Y-103720363D02*
X114249931Y-103577506D01*
X114249931Y-103577506D02*
X114249931Y-103482268D01*
X114249931Y-103482268D02*
X114297550Y-103339411D01*
X114297550Y-103339411D02*
X114345169Y-103291792D01*
X115249931Y-102434649D02*
X114726121Y-102434649D01*
X114726121Y-102434649D02*
X114630883Y-102482268D01*
X114630883Y-102482268D02*
X114583264Y-102577506D01*
X114583264Y-102577506D02*
X114583264Y-102767982D01*
X114583264Y-102767982D02*
X114630883Y-102863220D01*
X115202312Y-102434649D02*
X115249931Y-102529887D01*
X115249931Y-102529887D02*
X115249931Y-102767982D01*
X115249931Y-102767982D02*
X115202312Y-102863220D01*
X115202312Y-102863220D02*
X115107073Y-102910839D01*
X115107073Y-102910839D02*
X115011835Y-102910839D01*
X115011835Y-102910839D02*
X114916597Y-102863220D01*
X114916597Y-102863220D02*
X114868978Y-102767982D01*
X114868978Y-102767982D02*
X114868978Y-102529887D01*
X114868978Y-102529887D02*
X114821359Y-102434649D01*
X114583264Y-101958458D02*
X115583264Y-101958458D01*
X114630883Y-101958458D02*
X114583264Y-101863220D01*
X114583264Y-101863220D02*
X114583264Y-101672744D01*
X114583264Y-101672744D02*
X114630883Y-101577506D01*
X114630883Y-101577506D02*
X114678502Y-101529887D01*
X114678502Y-101529887D02*
X114773740Y-101482268D01*
X114773740Y-101482268D02*
X115059454Y-101482268D01*
X115059454Y-101482268D02*
X115154692Y-101529887D01*
X115154692Y-101529887D02*
X115202312Y-101577506D01*
X115202312Y-101577506D02*
X115249931Y-101672744D01*
X115249931Y-101672744D02*
X115249931Y-101863220D01*
X115249931Y-101863220D02*
X115202312Y-101958458D01*
X114583264Y-101196553D02*
X114583264Y-100815601D01*
X114249931Y-101053696D02*
X115107073Y-101053696D01*
X115107073Y-101053696D02*
X115202312Y-101006077D01*
X115202312Y-101006077D02*
X115249931Y-100910839D01*
X115249931Y-100910839D02*
X115249931Y-100815601D01*
X115202312Y-100101315D02*
X115249931Y-100196553D01*
X115249931Y-100196553D02*
X115249931Y-100387029D01*
X115249931Y-100387029D02*
X115202312Y-100482267D01*
X115202312Y-100482267D02*
X115107073Y-100529886D01*
X115107073Y-100529886D02*
X114726121Y-100529886D01*
X114726121Y-100529886D02*
X114630883Y-100482267D01*
X114630883Y-100482267D02*
X114583264Y-100387029D01*
X114583264Y-100387029D02*
X114583264Y-100196553D01*
X114583264Y-100196553D02*
X114630883Y-100101315D01*
X114630883Y-100101315D02*
X114726121Y-100053696D01*
X114726121Y-100053696D02*
X114821359Y-100053696D01*
X114821359Y-100053696D02*
X114916597Y-100529886D01*
X114583264Y-99196553D02*
X115249931Y-99196553D01*
X114583264Y-99625124D02*
X115107073Y-99625124D01*
X115107073Y-99625124D02*
X115202312Y-99577505D01*
X115202312Y-99577505D02*
X115249931Y-99482267D01*
X115249931Y-99482267D02*
X115249931Y-99339410D01*
X115249931Y-99339410D02*
X115202312Y-99244172D01*
X115202312Y-99244172D02*
X115154692Y-99196553D01*
X115249931Y-98720362D02*
X114583264Y-98720362D01*
X114773740Y-98720362D02*
X114678502Y-98672743D01*
X114678502Y-98672743D02*
X114630883Y-98625124D01*
X114630883Y-98625124D02*
X114583264Y-98529886D01*
X114583264Y-98529886D02*
X114583264Y-98434648D01*
X116193208Y-104006077D02*
X116193208Y-103625125D01*
X115859875Y-103863220D02*
X116717017Y-103863220D01*
X116717017Y-103863220D02*
X116812256Y-103815601D01*
X116812256Y-103815601D02*
X116859875Y-103720363D01*
X116859875Y-103720363D02*
X116859875Y-103625125D01*
X116812256Y-102910839D02*
X116859875Y-103006077D01*
X116859875Y-103006077D02*
X116859875Y-103196553D01*
X116859875Y-103196553D02*
X116812256Y-103291791D01*
X116812256Y-103291791D02*
X116717017Y-103339410D01*
X116717017Y-103339410D02*
X116336065Y-103339410D01*
X116336065Y-103339410D02*
X116240827Y-103291791D01*
X116240827Y-103291791D02*
X116193208Y-103196553D01*
X116193208Y-103196553D02*
X116193208Y-103006077D01*
X116193208Y-103006077D02*
X116240827Y-102910839D01*
X116240827Y-102910839D02*
X116336065Y-102863220D01*
X116336065Y-102863220D02*
X116431303Y-102863220D01*
X116431303Y-102863220D02*
X116526541Y-103339410D01*
X116859875Y-102434648D02*
X116193208Y-102434648D01*
X116288446Y-102434648D02*
X116240827Y-102387029D01*
X116240827Y-102387029D02*
X116193208Y-102291791D01*
X116193208Y-102291791D02*
X116193208Y-102148934D01*
X116193208Y-102148934D02*
X116240827Y-102053696D01*
X116240827Y-102053696D02*
X116336065Y-102006077D01*
X116336065Y-102006077D02*
X116859875Y-102006077D01*
X116336065Y-102006077D02*
X116240827Y-101958458D01*
X116240827Y-101958458D02*
X116193208Y-101863220D01*
X116193208Y-101863220D02*
X116193208Y-101720363D01*
X116193208Y-101720363D02*
X116240827Y-101625124D01*
X116240827Y-101625124D02*
X116336065Y-101577505D01*
X116336065Y-101577505D02*
X116859875Y-101577505D01*
X116193208Y-101101315D02*
X117193208Y-101101315D01*
X116240827Y-101101315D02*
X116193208Y-101006077D01*
X116193208Y-101006077D02*
X116193208Y-100815601D01*
X116193208Y-100815601D02*
X116240827Y-100720363D01*
X116240827Y-100720363D02*
X116288446Y-100672744D01*
X116288446Y-100672744D02*
X116383684Y-100625125D01*
X116383684Y-100625125D02*
X116669398Y-100625125D01*
X116669398Y-100625125D02*
X116764636Y-100672744D01*
X116764636Y-100672744D02*
X116812256Y-100720363D01*
X116812256Y-100720363D02*
X116859875Y-100815601D01*
X116859875Y-100815601D02*
X116859875Y-101006077D01*
X116859875Y-101006077D02*
X116812256Y-101101315D01*
X116812256Y-99815601D02*
X116859875Y-99910839D01*
X116859875Y-99910839D02*
X116859875Y-100101315D01*
X116859875Y-100101315D02*
X116812256Y-100196553D01*
X116812256Y-100196553D02*
X116717017Y-100244172D01*
X116717017Y-100244172D02*
X116336065Y-100244172D01*
X116336065Y-100244172D02*
X116240827Y-100196553D01*
X116240827Y-100196553D02*
X116193208Y-100101315D01*
X116193208Y-100101315D02*
X116193208Y-99910839D01*
X116193208Y-99910839D02*
X116240827Y-99815601D01*
X116240827Y-99815601D02*
X116336065Y-99767982D01*
X116336065Y-99767982D02*
X116431303Y-99767982D01*
X116431303Y-99767982D02*
X116526541Y-100244172D01*
X116859875Y-99339410D02*
X116193208Y-99339410D01*
X116383684Y-99339410D02*
X116288446Y-99291791D01*
X116288446Y-99291791D02*
X116240827Y-99244172D01*
X116240827Y-99244172D02*
X116193208Y-99148934D01*
X116193208Y-99148934D02*
X116193208Y-99053696D01*
X116859875Y-98291791D02*
X116336065Y-98291791D01*
X116336065Y-98291791D02*
X116240827Y-98339410D01*
X116240827Y-98339410D02*
X116193208Y-98434648D01*
X116193208Y-98434648D02*
X116193208Y-98625124D01*
X116193208Y-98625124D02*
X116240827Y-98720362D01*
X116812256Y-98291791D02*
X116859875Y-98387029D01*
X116859875Y-98387029D02*
X116859875Y-98625124D01*
X116859875Y-98625124D02*
X116812256Y-98720362D01*
X116812256Y-98720362D02*
X116717017Y-98767981D01*
X116717017Y-98767981D02*
X116621779Y-98767981D01*
X116621779Y-98767981D02*
X116526541Y-98720362D01*
X116526541Y-98720362D02*
X116478922Y-98625124D01*
X116478922Y-98625124D02*
X116478922Y-98387029D01*
X116478922Y-98387029D02*
X116431303Y-98291791D01*
X116193208Y-97958457D02*
X116193208Y-97577505D01*
X115859875Y-97815600D02*
X116717017Y-97815600D01*
X116717017Y-97815600D02*
X116812256Y-97767981D01*
X116812256Y-97767981D02*
X116859875Y-97672743D01*
X116859875Y-97672743D02*
X116859875Y-97577505D01*
X116193208Y-96815600D02*
X116859875Y-96815600D01*
X116193208Y-97244171D02*
X116717017Y-97244171D01*
X116717017Y-97244171D02*
X116812256Y-97196552D01*
X116812256Y-97196552D02*
X116859875Y-97101314D01*
X116859875Y-97101314D02*
X116859875Y-96958457D01*
X116859875Y-96958457D02*
X116812256Y-96863219D01*
X116812256Y-96863219D02*
X116764636Y-96815600D01*
X116859875Y-96339409D02*
X116193208Y-96339409D01*
X116383684Y-96339409D02*
X116288446Y-96291790D01*
X116288446Y-96291790D02*
X116240827Y-96244171D01*
X116240827Y-96244171D02*
X116193208Y-96148933D01*
X116193208Y-96148933D02*
X116193208Y-96053695D01*
X116812256Y-95339409D02*
X116859875Y-95434647D01*
X116859875Y-95434647D02*
X116859875Y-95625123D01*
X116859875Y-95625123D02*
X116812256Y-95720361D01*
X116812256Y-95720361D02*
X116717017Y-95767980D01*
X116717017Y-95767980D02*
X116336065Y-95767980D01*
X116336065Y-95767980D02*
X116240827Y-95720361D01*
X116240827Y-95720361D02*
X116193208Y-95625123D01*
X116193208Y-95625123D02*
X116193208Y-95434647D01*
X116193208Y-95434647D02*
X116240827Y-95339409D01*
X116240827Y-95339409D02*
X116336065Y-95291790D01*
X116336065Y-95291790D02*
X116431303Y-95291790D01*
X116431303Y-95291790D02*
X116526541Y-95767980D01*
X118422200Y-103910839D02*
X118469819Y-103815601D01*
X118469819Y-103815601D02*
X118469819Y-103625125D01*
X118469819Y-103625125D02*
X118422200Y-103529887D01*
X118422200Y-103529887D02*
X118326961Y-103482268D01*
X118326961Y-103482268D02*
X118279342Y-103482268D01*
X118279342Y-103482268D02*
X118184104Y-103529887D01*
X118184104Y-103529887D02*
X118136485Y-103625125D01*
X118136485Y-103625125D02*
X118136485Y-103767982D01*
X118136485Y-103767982D02*
X118088866Y-103863220D01*
X118088866Y-103863220D02*
X117993628Y-103910839D01*
X117993628Y-103910839D02*
X117946009Y-103910839D01*
X117946009Y-103910839D02*
X117850771Y-103863220D01*
X117850771Y-103863220D02*
X117803152Y-103767982D01*
X117803152Y-103767982D02*
X117803152Y-103625125D01*
X117803152Y-103625125D02*
X117850771Y-103529887D01*
X118469819Y-102910839D02*
X118422200Y-103006077D01*
X118422200Y-103006077D02*
X118374580Y-103053696D01*
X118374580Y-103053696D02*
X118279342Y-103101315D01*
X118279342Y-103101315D02*
X117993628Y-103101315D01*
X117993628Y-103101315D02*
X117898390Y-103053696D01*
X117898390Y-103053696D02*
X117850771Y-103006077D01*
X117850771Y-103006077D02*
X117803152Y-102910839D01*
X117803152Y-102910839D02*
X117803152Y-102767982D01*
X117803152Y-102767982D02*
X117850771Y-102672744D01*
X117850771Y-102672744D02*
X117898390Y-102625125D01*
X117898390Y-102625125D02*
X117993628Y-102577506D01*
X117993628Y-102577506D02*
X118279342Y-102577506D01*
X118279342Y-102577506D02*
X118374580Y-102625125D01*
X118374580Y-102625125D02*
X118422200Y-102672744D01*
X118422200Y-102672744D02*
X118469819Y-102767982D01*
X118469819Y-102767982D02*
X118469819Y-102910839D01*
X117803152Y-101720363D02*
X118469819Y-101720363D01*
X117803152Y-102148934D02*
X118326961Y-102148934D01*
X118326961Y-102148934D02*
X118422200Y-102101315D01*
X118422200Y-102101315D02*
X118469819Y-102006077D01*
X118469819Y-102006077D02*
X118469819Y-101863220D01*
X118469819Y-101863220D02*
X118422200Y-101767982D01*
X118422200Y-101767982D02*
X118374580Y-101720363D01*
X118422200Y-101291791D02*
X118469819Y-101196553D01*
X118469819Y-101196553D02*
X118469819Y-101006077D01*
X118469819Y-101006077D02*
X118422200Y-100910839D01*
X118422200Y-100910839D02*
X118326961Y-100863220D01*
X118326961Y-100863220D02*
X118279342Y-100863220D01*
X118279342Y-100863220D02*
X118184104Y-100910839D01*
X118184104Y-100910839D02*
X118136485Y-101006077D01*
X118136485Y-101006077D02*
X118136485Y-101148934D01*
X118136485Y-101148934D02*
X118088866Y-101244172D01*
X118088866Y-101244172D02*
X117993628Y-101291791D01*
X117993628Y-101291791D02*
X117946009Y-101291791D01*
X117946009Y-101291791D02*
X117850771Y-101244172D01*
X117850771Y-101244172D02*
X117803152Y-101148934D01*
X117803152Y-101148934D02*
X117803152Y-101006077D01*
X117803152Y-101006077D02*
X117850771Y-100910839D01*
X118565057Y-100672744D02*
X118565057Y-99910839D01*
X118422200Y-99720362D02*
X118469819Y-99625124D01*
X118469819Y-99625124D02*
X118469819Y-99434648D01*
X118469819Y-99434648D02*
X118422200Y-99339410D01*
X118422200Y-99339410D02*
X118326961Y-99291791D01*
X118326961Y-99291791D02*
X118279342Y-99291791D01*
X118279342Y-99291791D02*
X118184104Y-99339410D01*
X118184104Y-99339410D02*
X118136485Y-99434648D01*
X118136485Y-99434648D02*
X118136485Y-99577505D01*
X118136485Y-99577505D02*
X118088866Y-99672743D01*
X118088866Y-99672743D02*
X117993628Y-99720362D01*
X117993628Y-99720362D02*
X117946009Y-99720362D01*
X117946009Y-99720362D02*
X117850771Y-99672743D01*
X117850771Y-99672743D02*
X117803152Y-99577505D01*
X117803152Y-99577505D02*
X117803152Y-99434648D01*
X117803152Y-99434648D02*
X117850771Y-99339410D01*
X118469819Y-98720362D02*
X118422200Y-98815600D01*
X118422200Y-98815600D02*
X118374580Y-98863219D01*
X118374580Y-98863219D02*
X118279342Y-98910838D01*
X118279342Y-98910838D02*
X117993628Y-98910838D01*
X117993628Y-98910838D02*
X117898390Y-98863219D01*
X117898390Y-98863219D02*
X117850771Y-98815600D01*
X117850771Y-98815600D02*
X117803152Y-98720362D01*
X117803152Y-98720362D02*
X117803152Y-98577505D01*
X117803152Y-98577505D02*
X117850771Y-98482267D01*
X117850771Y-98482267D02*
X117898390Y-98434648D01*
X117898390Y-98434648D02*
X117993628Y-98387029D01*
X117993628Y-98387029D02*
X118279342Y-98387029D01*
X118279342Y-98387029D02*
X118374580Y-98434648D01*
X118374580Y-98434648D02*
X118422200Y-98482267D01*
X118422200Y-98482267D02*
X118469819Y-98577505D01*
X118469819Y-98577505D02*
X118469819Y-98720362D01*
X118469819Y-97815600D02*
X118422200Y-97910838D01*
X118422200Y-97910838D02*
X118326961Y-97958457D01*
X118326961Y-97958457D02*
X117469819Y-97958457D01*
D11*
X123611653Y-76800828D02*
X123111653Y-76086542D01*
X122754510Y-76800828D02*
X122754510Y-75300828D01*
X122754510Y-75300828D02*
X123325939Y-75300828D01*
X123325939Y-75300828D02*
X123468796Y-75372257D01*
X123468796Y-75372257D02*
X123540225Y-75443685D01*
X123540225Y-75443685D02*
X123611653Y-75586542D01*
X123611653Y-75586542D02*
X123611653Y-75800828D01*
X123611653Y-75800828D02*
X123540225Y-75943685D01*
X123540225Y-75943685D02*
X123468796Y-76015114D01*
X123468796Y-76015114D02*
X123325939Y-76086542D01*
X123325939Y-76086542D02*
X122754510Y-76086542D01*
X125040225Y-76800828D02*
X124183082Y-76800828D01*
X124611653Y-76800828D02*
X124611653Y-75300828D01*
X124611653Y-75300828D02*
X124468796Y-75515114D01*
X124468796Y-75515114D02*
X124325939Y-75657971D01*
X124325939Y-75657971D02*
X124183082Y-75729400D01*
X115011653Y-78857971D02*
X114940225Y-78929400D01*
X114940225Y-78929400D02*
X114725939Y-79000828D01*
X114725939Y-79000828D02*
X114583082Y-79000828D01*
X114583082Y-79000828D02*
X114368796Y-78929400D01*
X114368796Y-78929400D02*
X114225939Y-78786542D01*
X114225939Y-78786542D02*
X114154510Y-78643685D01*
X114154510Y-78643685D02*
X114083082Y-78357971D01*
X114083082Y-78357971D02*
X114083082Y-78143685D01*
X114083082Y-78143685D02*
X114154510Y-77857971D01*
X114154510Y-77857971D02*
X114225939Y-77715114D01*
X114225939Y-77715114D02*
X114368796Y-77572257D01*
X114368796Y-77572257D02*
X114583082Y-77500828D01*
X114583082Y-77500828D02*
X114725939Y-77500828D01*
X114725939Y-77500828D02*
X114940225Y-77572257D01*
X114940225Y-77572257D02*
X115011653Y-77643685D01*
X116440225Y-79000828D02*
X115583082Y-79000828D01*
X116011653Y-79000828D02*
X116011653Y-77500828D01*
X116011653Y-77500828D02*
X115868796Y-77715114D01*
X115868796Y-77715114D02*
X115725939Y-77857971D01*
X115725939Y-77857971D02*
X115583082Y-77929400D01*
X136683082Y-68499568D02*
X136897368Y-68570996D01*
X136897368Y-68570996D02*
X137254510Y-68570996D01*
X137254510Y-68570996D02*
X137397368Y-68499568D01*
X137397368Y-68499568D02*
X137468796Y-68428139D01*
X137468796Y-68428139D02*
X137540225Y-68285282D01*
X137540225Y-68285282D02*
X137540225Y-68142425D01*
X137540225Y-68142425D02*
X137468796Y-67999568D01*
X137468796Y-67999568D02*
X137397368Y-67928139D01*
X137397368Y-67928139D02*
X137254510Y-67856710D01*
X137254510Y-67856710D02*
X136968796Y-67785282D01*
X136968796Y-67785282D02*
X136825939Y-67713853D01*
X136825939Y-67713853D02*
X136754510Y-67642425D01*
X136754510Y-67642425D02*
X136683082Y-67499568D01*
X136683082Y-67499568D02*
X136683082Y-67356710D01*
X136683082Y-67356710D02*
X136754510Y-67213853D01*
X136754510Y-67213853D02*
X136825939Y-67142425D01*
X136825939Y-67142425D02*
X136968796Y-67070996D01*
X136968796Y-67070996D02*
X137325939Y-67070996D01*
X137325939Y-67070996D02*
X137540225Y-67142425D01*
X138183081Y-68570996D02*
X138183081Y-67570996D01*
X138183081Y-67713853D02*
X138254510Y-67642425D01*
X138254510Y-67642425D02*
X138397367Y-67570996D01*
X138397367Y-67570996D02*
X138611653Y-67570996D01*
X138611653Y-67570996D02*
X138754510Y-67642425D01*
X138754510Y-67642425D02*
X138825939Y-67785282D01*
X138825939Y-67785282D02*
X138825939Y-68570996D01*
X138825939Y-67785282D02*
X138897367Y-67642425D01*
X138897367Y-67642425D02*
X139040224Y-67570996D01*
X139040224Y-67570996D02*
X139254510Y-67570996D01*
X139254510Y-67570996D02*
X139397367Y-67642425D01*
X139397367Y-67642425D02*
X139468796Y-67785282D01*
X139468796Y-67785282D02*
X139468796Y-68570996D01*
X140825939Y-68570996D02*
X140825939Y-67785282D01*
X140825939Y-67785282D02*
X140754510Y-67642425D01*
X140754510Y-67642425D02*
X140611653Y-67570996D01*
X140611653Y-67570996D02*
X140325939Y-67570996D01*
X140325939Y-67570996D02*
X140183081Y-67642425D01*
X140825939Y-68499568D02*
X140683081Y-68570996D01*
X140683081Y-68570996D02*
X140325939Y-68570996D01*
X140325939Y-68570996D02*
X140183081Y-68499568D01*
X140183081Y-68499568D02*
X140111653Y-68356710D01*
X140111653Y-68356710D02*
X140111653Y-68213853D01*
X140111653Y-68213853D02*
X140183081Y-68070996D01*
X140183081Y-68070996D02*
X140325939Y-67999568D01*
X140325939Y-67999568D02*
X140683081Y-67999568D01*
X140683081Y-67999568D02*
X140825939Y-67928139D01*
X141540224Y-68570996D02*
X141540224Y-67570996D01*
X141540224Y-67856710D02*
X141611653Y-67713853D01*
X141611653Y-67713853D02*
X141683082Y-67642425D01*
X141683082Y-67642425D02*
X141825939Y-67570996D01*
X141825939Y-67570996D02*
X141968796Y-67570996D01*
X142254510Y-67570996D02*
X142825938Y-67570996D01*
X142468795Y-67070996D02*
X142468795Y-68356710D01*
X142468795Y-68356710D02*
X142540224Y-68499568D01*
X142540224Y-68499568D02*
X142683081Y-68570996D01*
X142683081Y-68570996D02*
X142825938Y-68570996D01*
X137254510Y-70200198D02*
X136754510Y-70200198D01*
X136754510Y-70985912D02*
X136754510Y-69485912D01*
X136754510Y-69485912D02*
X137468796Y-69485912D01*
X138683082Y-70985912D02*
X138683082Y-70200198D01*
X138683082Y-70200198D02*
X138611653Y-70057341D01*
X138611653Y-70057341D02*
X138468796Y-69985912D01*
X138468796Y-69985912D02*
X138183082Y-69985912D01*
X138183082Y-69985912D02*
X138040224Y-70057341D01*
X138683082Y-70914484D02*
X138540224Y-70985912D01*
X138540224Y-70985912D02*
X138183082Y-70985912D01*
X138183082Y-70985912D02*
X138040224Y-70914484D01*
X138040224Y-70914484D02*
X137968796Y-70771626D01*
X137968796Y-70771626D02*
X137968796Y-70628769D01*
X137968796Y-70628769D02*
X138040224Y-70485912D01*
X138040224Y-70485912D02*
X138183082Y-70414484D01*
X138183082Y-70414484D02*
X138540224Y-70414484D01*
X138540224Y-70414484D02*
X138683082Y-70343055D01*
X139397367Y-70985912D02*
X139397367Y-69985912D01*
X139397367Y-70271626D02*
X139468796Y-70128769D01*
X139468796Y-70128769D02*
X139540225Y-70057341D01*
X139540225Y-70057341D02*
X139683082Y-69985912D01*
X139683082Y-69985912D02*
X139825939Y-69985912D01*
X140325938Y-70985912D02*
X140325938Y-69985912D01*
X140325938Y-70128769D02*
X140397367Y-70057341D01*
X140397367Y-70057341D02*
X140540224Y-69985912D01*
X140540224Y-69985912D02*
X140754510Y-69985912D01*
X140754510Y-69985912D02*
X140897367Y-70057341D01*
X140897367Y-70057341D02*
X140968796Y-70200198D01*
X140968796Y-70200198D02*
X140968796Y-70985912D01*
X140968796Y-70200198D02*
X141040224Y-70057341D01*
X141040224Y-70057341D02*
X141183081Y-69985912D01*
X141183081Y-69985912D02*
X141397367Y-69985912D01*
X141397367Y-69985912D02*
X141540224Y-70057341D01*
X141540224Y-70057341D02*
X141611653Y-70200198D01*
X141611653Y-70200198D02*
X141611653Y-70985912D01*
X142325938Y-70985912D02*
X142325938Y-69985912D01*
X142325938Y-69485912D02*
X142254510Y-69557341D01*
X142254510Y-69557341D02*
X142325938Y-69628769D01*
X142325938Y-69628769D02*
X142397367Y-69557341D01*
X142397367Y-69557341D02*
X142325938Y-69485912D01*
X142325938Y-69485912D02*
X142325938Y-69628769D01*
X143040224Y-69985912D02*
X143040224Y-70985912D01*
X143040224Y-70128769D02*
X143111653Y-70057341D01*
X143111653Y-70057341D02*
X143254510Y-69985912D01*
X143254510Y-69985912D02*
X143468796Y-69985912D01*
X143468796Y-69985912D02*
X143611653Y-70057341D01*
X143611653Y-70057341D02*
X143683082Y-70200198D01*
X143683082Y-70200198D02*
X143683082Y-70985912D01*
X145040225Y-69985912D02*
X145040225Y-71200198D01*
X145040225Y-71200198D02*
X144968796Y-71343055D01*
X144968796Y-71343055D02*
X144897367Y-71414484D01*
X144897367Y-71414484D02*
X144754510Y-71485912D01*
X144754510Y-71485912D02*
X144540225Y-71485912D01*
X144540225Y-71485912D02*
X144397367Y-71414484D01*
X145040225Y-70914484D02*
X144897367Y-70985912D01*
X144897367Y-70985912D02*
X144611653Y-70985912D01*
X144611653Y-70985912D02*
X144468796Y-70914484D01*
X144468796Y-70914484D02*
X144397367Y-70843055D01*
X144397367Y-70843055D02*
X144325939Y-70700198D01*
X144325939Y-70700198D02*
X144325939Y-70271626D01*
X144325939Y-70271626D02*
X144397367Y-70128769D01*
X144397367Y-70128769D02*
X144468796Y-70057341D01*
X144468796Y-70057341D02*
X144611653Y-69985912D01*
X144611653Y-69985912D02*
X144897367Y-69985912D01*
X144897367Y-69985912D02*
X145040225Y-70057341D01*
X136754510Y-73400828D02*
X136754510Y-71900828D01*
X136754510Y-71900828D02*
X137325939Y-71900828D01*
X137325939Y-71900828D02*
X137468796Y-71972257D01*
X137468796Y-71972257D02*
X137540225Y-72043685D01*
X137540225Y-72043685D02*
X137611653Y-72186542D01*
X137611653Y-72186542D02*
X137611653Y-72400828D01*
X137611653Y-72400828D02*
X137540225Y-72543685D01*
X137540225Y-72543685D02*
X137468796Y-72615114D01*
X137468796Y-72615114D02*
X137325939Y-72686542D01*
X137325939Y-72686542D02*
X136754510Y-72686542D01*
X138254510Y-73400828D02*
X138254510Y-72400828D01*
X138254510Y-72686542D02*
X138325939Y-72543685D01*
X138325939Y-72543685D02*
X138397368Y-72472257D01*
X138397368Y-72472257D02*
X138540225Y-72400828D01*
X138540225Y-72400828D02*
X138683082Y-72400828D01*
X139397367Y-73400828D02*
X139254510Y-73329400D01*
X139254510Y-73329400D02*
X139183081Y-73257971D01*
X139183081Y-73257971D02*
X139111653Y-73115114D01*
X139111653Y-73115114D02*
X139111653Y-72686542D01*
X139111653Y-72686542D02*
X139183081Y-72543685D01*
X139183081Y-72543685D02*
X139254510Y-72472257D01*
X139254510Y-72472257D02*
X139397367Y-72400828D01*
X139397367Y-72400828D02*
X139611653Y-72400828D01*
X139611653Y-72400828D02*
X139754510Y-72472257D01*
X139754510Y-72472257D02*
X139825939Y-72543685D01*
X139825939Y-72543685D02*
X139897367Y-72686542D01*
X139897367Y-72686542D02*
X139897367Y-73115114D01*
X139897367Y-73115114D02*
X139825939Y-73257971D01*
X139825939Y-73257971D02*
X139754510Y-73329400D01*
X139754510Y-73329400D02*
X139611653Y-73400828D01*
X139611653Y-73400828D02*
X139397367Y-73400828D01*
X140540224Y-72400828D02*
X140540224Y-73686542D01*
X140540224Y-73686542D02*
X140468796Y-73829400D01*
X140468796Y-73829400D02*
X140325939Y-73900828D01*
X140325939Y-73900828D02*
X140254510Y-73900828D01*
X140540224Y-71900828D02*
X140468796Y-71972257D01*
X140468796Y-71972257D02*
X140540224Y-72043685D01*
X140540224Y-72043685D02*
X140611653Y-71972257D01*
X140611653Y-71972257D02*
X140540224Y-71900828D01*
X140540224Y-71900828D02*
X140540224Y-72043685D01*
X141825939Y-73329400D02*
X141683082Y-73400828D01*
X141683082Y-73400828D02*
X141397368Y-73400828D01*
X141397368Y-73400828D02*
X141254510Y-73329400D01*
X141254510Y-73329400D02*
X141183082Y-73186542D01*
X141183082Y-73186542D02*
X141183082Y-72615114D01*
X141183082Y-72615114D02*
X141254510Y-72472257D01*
X141254510Y-72472257D02*
X141397368Y-72400828D01*
X141397368Y-72400828D02*
X141683082Y-72400828D01*
X141683082Y-72400828D02*
X141825939Y-72472257D01*
X141825939Y-72472257D02*
X141897368Y-72615114D01*
X141897368Y-72615114D02*
X141897368Y-72757971D01*
X141897368Y-72757971D02*
X141183082Y-72900828D01*
X143183082Y-73329400D02*
X143040224Y-73400828D01*
X143040224Y-73400828D02*
X142754510Y-73400828D01*
X142754510Y-73400828D02*
X142611653Y-73329400D01*
X142611653Y-73329400D02*
X142540224Y-73257971D01*
X142540224Y-73257971D02*
X142468796Y-73115114D01*
X142468796Y-73115114D02*
X142468796Y-72686542D01*
X142468796Y-72686542D02*
X142540224Y-72543685D01*
X142540224Y-72543685D02*
X142611653Y-72472257D01*
X142611653Y-72472257D02*
X142754510Y-72400828D01*
X142754510Y-72400828D02*
X143040224Y-72400828D01*
X143040224Y-72400828D02*
X143183082Y-72472257D01*
X143611653Y-72400828D02*
X144183081Y-72400828D01*
X143825938Y-71900828D02*
X143825938Y-73186542D01*
X143825938Y-73186542D02*
X143897367Y-73329400D01*
X143897367Y-73329400D02*
X144040224Y-73400828D01*
X144040224Y-73400828D02*
X144183081Y-73400828D01*
D10*
X156908207Y-119564636D02*
X156860588Y-119612256D01*
X156860588Y-119612256D02*
X156717731Y-119659875D01*
X156717731Y-119659875D02*
X156622493Y-119659875D01*
X156622493Y-119659875D02*
X156479636Y-119612256D01*
X156479636Y-119612256D02*
X156384398Y-119517017D01*
X156384398Y-119517017D02*
X156336779Y-119421779D01*
X156336779Y-119421779D02*
X156289160Y-119231303D01*
X156289160Y-119231303D02*
X156289160Y-119088446D01*
X156289160Y-119088446D02*
X156336779Y-118897970D01*
X156336779Y-118897970D02*
X156384398Y-118802732D01*
X156384398Y-118802732D02*
X156479636Y-118707494D01*
X156479636Y-118707494D02*
X156622493Y-118659875D01*
X156622493Y-118659875D02*
X156717731Y-118659875D01*
X156717731Y-118659875D02*
X156860588Y-118707494D01*
X156860588Y-118707494D02*
X156908207Y-118755113D01*
X157765350Y-119659875D02*
X157765350Y-119136065D01*
X157765350Y-119136065D02*
X157717731Y-119040827D01*
X157717731Y-119040827D02*
X157622493Y-118993208D01*
X157622493Y-118993208D02*
X157432017Y-118993208D01*
X157432017Y-118993208D02*
X157336779Y-119040827D01*
X157765350Y-119612256D02*
X157670112Y-119659875D01*
X157670112Y-119659875D02*
X157432017Y-119659875D01*
X157432017Y-119659875D02*
X157336779Y-119612256D01*
X157336779Y-119612256D02*
X157289160Y-119517017D01*
X157289160Y-119517017D02*
X157289160Y-119421779D01*
X157289160Y-119421779D02*
X157336779Y-119326541D01*
X157336779Y-119326541D02*
X157432017Y-119278922D01*
X157432017Y-119278922D02*
X157670112Y-119278922D01*
X157670112Y-119278922D02*
X157765350Y-119231303D01*
X158241541Y-118993208D02*
X158241541Y-119993208D01*
X158241541Y-119040827D02*
X158336779Y-118993208D01*
X158336779Y-118993208D02*
X158527255Y-118993208D01*
X158527255Y-118993208D02*
X158622493Y-119040827D01*
X158622493Y-119040827D02*
X158670112Y-119088446D01*
X158670112Y-119088446D02*
X158717731Y-119183684D01*
X158717731Y-119183684D02*
X158717731Y-119469398D01*
X158717731Y-119469398D02*
X158670112Y-119564636D01*
X158670112Y-119564636D02*
X158622493Y-119612256D01*
X158622493Y-119612256D02*
X158527255Y-119659875D01*
X158527255Y-119659875D02*
X158336779Y-119659875D01*
X158336779Y-119659875D02*
X158241541Y-119612256D01*
X159003446Y-118993208D02*
X159384398Y-118993208D01*
X159146303Y-118659875D02*
X159146303Y-119517017D01*
X159146303Y-119517017D02*
X159193922Y-119612256D01*
X159193922Y-119612256D02*
X159289160Y-119659875D01*
X159289160Y-119659875D02*
X159384398Y-119659875D01*
X160098684Y-119612256D02*
X160003446Y-119659875D01*
X160003446Y-119659875D02*
X159812970Y-119659875D01*
X159812970Y-119659875D02*
X159717732Y-119612256D01*
X159717732Y-119612256D02*
X159670113Y-119517017D01*
X159670113Y-119517017D02*
X159670113Y-119136065D01*
X159670113Y-119136065D02*
X159717732Y-119040827D01*
X159717732Y-119040827D02*
X159812970Y-118993208D01*
X159812970Y-118993208D02*
X160003446Y-118993208D01*
X160003446Y-118993208D02*
X160098684Y-119040827D01*
X160098684Y-119040827D02*
X160146303Y-119136065D01*
X160146303Y-119136065D02*
X160146303Y-119231303D01*
X160146303Y-119231303D02*
X159670113Y-119326541D01*
X161003446Y-118993208D02*
X161003446Y-119659875D01*
X160574875Y-118993208D02*
X160574875Y-119517017D01*
X160574875Y-119517017D02*
X160622494Y-119612256D01*
X160622494Y-119612256D02*
X160717732Y-119659875D01*
X160717732Y-119659875D02*
X160860589Y-119659875D01*
X160860589Y-119659875D02*
X160955827Y-119612256D01*
X160955827Y-119612256D02*
X161003446Y-119564636D01*
X161479637Y-119659875D02*
X161479637Y-118993208D01*
X161479637Y-119183684D02*
X161527256Y-119088446D01*
X161527256Y-119088446D02*
X161574875Y-119040827D01*
X161574875Y-119040827D02*
X161670113Y-118993208D01*
X161670113Y-118993208D02*
X161765351Y-118993208D01*
X161860590Y-119755113D02*
X162622494Y-119755113D01*
X162860590Y-119659875D02*
X162860590Y-118659875D01*
X163289161Y-119659875D02*
X163289161Y-119136065D01*
X163289161Y-119136065D02*
X163241542Y-119040827D01*
X163241542Y-119040827D02*
X163146304Y-118993208D01*
X163146304Y-118993208D02*
X163003447Y-118993208D01*
X163003447Y-118993208D02*
X162908209Y-119040827D01*
X162908209Y-119040827D02*
X162860590Y-119088446D01*
X164193923Y-118993208D02*
X164193923Y-119659875D01*
X163765352Y-118993208D02*
X163765352Y-119517017D01*
X163765352Y-119517017D02*
X163812971Y-119612256D01*
X163812971Y-119612256D02*
X163908209Y-119659875D01*
X163908209Y-119659875D02*
X164051066Y-119659875D01*
X164051066Y-119659875D02*
X164146304Y-119612256D01*
X164146304Y-119612256D02*
X164193923Y-119564636D01*
X164670114Y-119659875D02*
X164670114Y-118993208D01*
X164670114Y-119088446D02*
X164717733Y-119040827D01*
X164717733Y-119040827D02*
X164812971Y-118993208D01*
X164812971Y-118993208D02*
X164955828Y-118993208D01*
X164955828Y-118993208D02*
X165051066Y-119040827D01*
X165051066Y-119040827D02*
X165098685Y-119136065D01*
X165098685Y-119136065D02*
X165098685Y-119659875D01*
X165098685Y-119136065D02*
X165146304Y-119040827D01*
X165146304Y-119040827D02*
X165241542Y-118993208D01*
X165241542Y-118993208D02*
X165384399Y-118993208D01*
X165384399Y-118993208D02*
X165479638Y-119040827D01*
X165479638Y-119040827D02*
X165527257Y-119136065D01*
X165527257Y-119136065D02*
X165527257Y-119659875D01*
X166003447Y-119659875D02*
X166003447Y-118993208D01*
X166003447Y-118659875D02*
X165955828Y-118707494D01*
X165955828Y-118707494D02*
X166003447Y-118755113D01*
X166003447Y-118755113D02*
X166051066Y-118707494D01*
X166051066Y-118707494D02*
X166003447Y-118659875D01*
X166003447Y-118659875D02*
X166003447Y-118755113D01*
X166908208Y-119659875D02*
X166908208Y-118659875D01*
X166908208Y-119612256D02*
X166812970Y-119659875D01*
X166812970Y-119659875D02*
X166622494Y-119659875D01*
X166622494Y-119659875D02*
X166527256Y-119612256D01*
X166527256Y-119612256D02*
X166479637Y-119564636D01*
X166479637Y-119564636D02*
X166432018Y-119469398D01*
X166432018Y-119469398D02*
X166432018Y-119183684D01*
X166432018Y-119183684D02*
X166479637Y-119088446D01*
X166479637Y-119088446D02*
X166527256Y-119040827D01*
X166527256Y-119040827D02*
X166622494Y-118993208D01*
X166622494Y-118993208D02*
X166812970Y-118993208D01*
X166812970Y-118993208D02*
X166908208Y-119040827D01*
X167384399Y-119659875D02*
X167384399Y-118993208D01*
X167384399Y-118659875D02*
X167336780Y-118707494D01*
X167336780Y-118707494D02*
X167384399Y-118755113D01*
X167384399Y-118755113D02*
X167432018Y-118707494D01*
X167432018Y-118707494D02*
X167384399Y-118659875D01*
X167384399Y-118659875D02*
X167384399Y-118755113D01*
X167717732Y-118993208D02*
X168098684Y-118993208D01*
X167860589Y-118659875D02*
X167860589Y-119517017D01*
X167860589Y-119517017D02*
X167908208Y-119612256D01*
X167908208Y-119612256D02*
X168003446Y-119659875D01*
X168003446Y-119659875D02*
X168098684Y-119659875D01*
X168812970Y-119612256D02*
X168717732Y-119659875D01*
X168717732Y-119659875D02*
X168527256Y-119659875D01*
X168527256Y-119659875D02*
X168432018Y-119612256D01*
X168432018Y-119612256D02*
X168384399Y-119517017D01*
X168384399Y-119517017D02*
X168384399Y-119136065D01*
X168384399Y-119136065D02*
X168432018Y-119040827D01*
X168432018Y-119040827D02*
X168527256Y-118993208D01*
X168527256Y-118993208D02*
X168717732Y-118993208D01*
X168717732Y-118993208D02*
X168812970Y-119040827D01*
X168812970Y-119040827D02*
X168860589Y-119136065D01*
X168860589Y-119136065D02*
X168860589Y-119231303D01*
X168860589Y-119231303D02*
X168384399Y-119326541D01*
X156289160Y-121222200D02*
X156384398Y-121269819D01*
X156384398Y-121269819D02*
X156574874Y-121269819D01*
X156574874Y-121269819D02*
X156670112Y-121222200D01*
X156670112Y-121222200D02*
X156717731Y-121126961D01*
X156717731Y-121126961D02*
X156717731Y-121079342D01*
X156717731Y-121079342D02*
X156670112Y-120984104D01*
X156670112Y-120984104D02*
X156574874Y-120936485D01*
X156574874Y-120936485D02*
X156432017Y-120936485D01*
X156432017Y-120936485D02*
X156336779Y-120888866D01*
X156336779Y-120888866D02*
X156289160Y-120793628D01*
X156289160Y-120793628D02*
X156289160Y-120746009D01*
X156289160Y-120746009D02*
X156336779Y-120650771D01*
X156336779Y-120650771D02*
X156432017Y-120603152D01*
X156432017Y-120603152D02*
X156574874Y-120603152D01*
X156574874Y-120603152D02*
X156670112Y-120650771D01*
X157289160Y-121269819D02*
X157193922Y-121222200D01*
X157193922Y-121222200D02*
X157146303Y-121174580D01*
X157146303Y-121174580D02*
X157098684Y-121079342D01*
X157098684Y-121079342D02*
X157098684Y-120793628D01*
X157098684Y-120793628D02*
X157146303Y-120698390D01*
X157146303Y-120698390D02*
X157193922Y-120650771D01*
X157193922Y-120650771D02*
X157289160Y-120603152D01*
X157289160Y-120603152D02*
X157432017Y-120603152D01*
X157432017Y-120603152D02*
X157527255Y-120650771D01*
X157527255Y-120650771D02*
X157574874Y-120698390D01*
X157574874Y-120698390D02*
X157622493Y-120793628D01*
X157622493Y-120793628D02*
X157622493Y-121079342D01*
X157622493Y-121079342D02*
X157574874Y-121174580D01*
X157574874Y-121174580D02*
X157527255Y-121222200D01*
X157527255Y-121222200D02*
X157432017Y-121269819D01*
X157432017Y-121269819D02*
X157289160Y-121269819D01*
X158479636Y-120603152D02*
X158479636Y-121269819D01*
X158051065Y-120603152D02*
X158051065Y-121126961D01*
X158051065Y-121126961D02*
X158098684Y-121222200D01*
X158098684Y-121222200D02*
X158193922Y-121269819D01*
X158193922Y-121269819D02*
X158336779Y-121269819D01*
X158336779Y-121269819D02*
X158432017Y-121222200D01*
X158432017Y-121222200D02*
X158479636Y-121174580D01*
X158908208Y-121222200D02*
X159003446Y-121269819D01*
X159003446Y-121269819D02*
X159193922Y-121269819D01*
X159193922Y-121269819D02*
X159289160Y-121222200D01*
X159289160Y-121222200D02*
X159336779Y-121126961D01*
X159336779Y-121126961D02*
X159336779Y-121079342D01*
X159336779Y-121079342D02*
X159289160Y-120984104D01*
X159289160Y-120984104D02*
X159193922Y-120936485D01*
X159193922Y-120936485D02*
X159051065Y-120936485D01*
X159051065Y-120936485D02*
X158955827Y-120888866D01*
X158955827Y-120888866D02*
X158908208Y-120793628D01*
X158908208Y-120793628D02*
X158908208Y-120746009D01*
X158908208Y-120746009D02*
X158955827Y-120650771D01*
X158955827Y-120650771D02*
X159051065Y-120603152D01*
X159051065Y-120603152D02*
X159193922Y-120603152D01*
X159193922Y-120603152D02*
X159289160Y-120650771D01*
X159527256Y-121365057D02*
X160289160Y-121365057D01*
X160479637Y-121222200D02*
X160574875Y-121269819D01*
X160574875Y-121269819D02*
X160765351Y-121269819D01*
X160765351Y-121269819D02*
X160860589Y-121222200D01*
X160860589Y-121222200D02*
X160908208Y-121126961D01*
X160908208Y-121126961D02*
X160908208Y-121079342D01*
X160908208Y-121079342D02*
X160860589Y-120984104D01*
X160860589Y-120984104D02*
X160765351Y-120936485D01*
X160765351Y-120936485D02*
X160622494Y-120936485D01*
X160622494Y-120936485D02*
X160527256Y-120888866D01*
X160527256Y-120888866D02*
X160479637Y-120793628D01*
X160479637Y-120793628D02*
X160479637Y-120746009D01*
X160479637Y-120746009D02*
X160527256Y-120650771D01*
X160527256Y-120650771D02*
X160622494Y-120603152D01*
X160622494Y-120603152D02*
X160765351Y-120603152D01*
X160765351Y-120603152D02*
X160860589Y-120650771D01*
X161479637Y-121269819D02*
X161384399Y-121222200D01*
X161384399Y-121222200D02*
X161336780Y-121174580D01*
X161336780Y-121174580D02*
X161289161Y-121079342D01*
X161289161Y-121079342D02*
X161289161Y-120793628D01*
X161289161Y-120793628D02*
X161336780Y-120698390D01*
X161336780Y-120698390D02*
X161384399Y-120650771D01*
X161384399Y-120650771D02*
X161479637Y-120603152D01*
X161479637Y-120603152D02*
X161622494Y-120603152D01*
X161622494Y-120603152D02*
X161717732Y-120650771D01*
X161717732Y-120650771D02*
X161765351Y-120698390D01*
X161765351Y-120698390D02*
X161812970Y-120793628D01*
X161812970Y-120793628D02*
X161812970Y-121079342D01*
X161812970Y-121079342D02*
X161765351Y-121174580D01*
X161765351Y-121174580D02*
X161717732Y-121222200D01*
X161717732Y-121222200D02*
X161622494Y-121269819D01*
X161622494Y-121269819D02*
X161479637Y-121269819D01*
X162384399Y-121269819D02*
X162289161Y-121222200D01*
X162289161Y-121222200D02*
X162241542Y-121126961D01*
X162241542Y-121126961D02*
X162241542Y-120269819D01*
X162527257Y-121365057D02*
X163289161Y-121365057D01*
X163432019Y-120269819D02*
X164051066Y-120269819D01*
X164051066Y-120269819D02*
X163717733Y-120650771D01*
X163717733Y-120650771D02*
X163860590Y-120650771D01*
X163860590Y-120650771D02*
X163955828Y-120698390D01*
X163955828Y-120698390D02*
X164003447Y-120746009D01*
X164003447Y-120746009D02*
X164051066Y-120841247D01*
X164051066Y-120841247D02*
X164051066Y-121079342D01*
X164051066Y-121079342D02*
X164003447Y-121174580D01*
X164003447Y-121174580D02*
X163955828Y-121222200D01*
X163955828Y-121222200D02*
X163860590Y-121269819D01*
X163860590Y-121269819D02*
X163574876Y-121269819D01*
X163574876Y-121269819D02*
X163479638Y-121222200D01*
X163479638Y-121222200D02*
X163432019Y-121174580D01*
X164670114Y-120269819D02*
X164765352Y-120269819D01*
X164765352Y-120269819D02*
X164860590Y-120317438D01*
X164860590Y-120317438D02*
X164908209Y-120365057D01*
X164908209Y-120365057D02*
X164955828Y-120460295D01*
X164955828Y-120460295D02*
X165003447Y-120650771D01*
X165003447Y-120650771D02*
X165003447Y-120888866D01*
X165003447Y-120888866D02*
X164955828Y-121079342D01*
X164955828Y-121079342D02*
X164908209Y-121174580D01*
X164908209Y-121174580D02*
X164860590Y-121222200D01*
X164860590Y-121222200D02*
X164765352Y-121269819D01*
X164765352Y-121269819D02*
X164670114Y-121269819D01*
X164670114Y-121269819D02*
X164574876Y-121222200D01*
X164574876Y-121222200D02*
X164527257Y-121174580D01*
X164527257Y-121174580D02*
X164479638Y-121079342D01*
X164479638Y-121079342D02*
X164432019Y-120888866D01*
X164432019Y-120888866D02*
X164432019Y-120650771D01*
X164432019Y-120650771D02*
X164479638Y-120460295D01*
X164479638Y-120460295D02*
X164527257Y-120365057D01*
X164527257Y-120365057D02*
X164574876Y-120317438D01*
X164574876Y-120317438D02*
X164670114Y-120269819D01*
X165860590Y-121222200D02*
X165765352Y-121269819D01*
X165765352Y-121269819D02*
X165574876Y-121269819D01*
X165574876Y-121269819D02*
X165479638Y-121222200D01*
X165479638Y-121222200D02*
X165432019Y-121174580D01*
X165432019Y-121174580D02*
X165384400Y-121079342D01*
X165384400Y-121079342D02*
X165384400Y-120793628D01*
X165384400Y-120793628D02*
X165432019Y-120698390D01*
X165432019Y-120698390D02*
X165479638Y-120650771D01*
X165479638Y-120650771D02*
X165574876Y-120603152D01*
X165574876Y-120603152D02*
X165765352Y-120603152D01*
X165765352Y-120603152D02*
X165860590Y-120650771D01*
X166289162Y-121269819D02*
X166289162Y-120603152D01*
X166289162Y-120698390D02*
X166336781Y-120650771D01*
X166336781Y-120650771D02*
X166432019Y-120603152D01*
X166432019Y-120603152D02*
X166574876Y-120603152D01*
X166574876Y-120603152D02*
X166670114Y-120650771D01*
X166670114Y-120650771D02*
X166717733Y-120746009D01*
X166717733Y-120746009D02*
X166717733Y-121269819D01*
X166717733Y-120746009D02*
X166765352Y-120650771D01*
X166765352Y-120650771D02*
X166860590Y-120603152D01*
X166860590Y-120603152D02*
X167003447Y-120603152D01*
X167003447Y-120603152D02*
X167098686Y-120650771D01*
X167098686Y-120650771D02*
X167146305Y-120746009D01*
X167146305Y-120746009D02*
X167146305Y-121269819D01*
X159664636Y-102091792D02*
X159712256Y-102139411D01*
X159712256Y-102139411D02*
X159759875Y-102282268D01*
X159759875Y-102282268D02*
X159759875Y-102377506D01*
X159759875Y-102377506D02*
X159712256Y-102520363D01*
X159712256Y-102520363D02*
X159617017Y-102615601D01*
X159617017Y-102615601D02*
X159521779Y-102663220D01*
X159521779Y-102663220D02*
X159331303Y-102710839D01*
X159331303Y-102710839D02*
X159188446Y-102710839D01*
X159188446Y-102710839D02*
X158997970Y-102663220D01*
X158997970Y-102663220D02*
X158902732Y-102615601D01*
X158902732Y-102615601D02*
X158807494Y-102520363D01*
X158807494Y-102520363D02*
X158759875Y-102377506D01*
X158759875Y-102377506D02*
X158759875Y-102282268D01*
X158759875Y-102282268D02*
X158807494Y-102139411D01*
X158807494Y-102139411D02*
X158855113Y-102091792D01*
X159759875Y-101234649D02*
X159236065Y-101234649D01*
X159236065Y-101234649D02*
X159140827Y-101282268D01*
X159140827Y-101282268D02*
X159093208Y-101377506D01*
X159093208Y-101377506D02*
X159093208Y-101567982D01*
X159093208Y-101567982D02*
X159140827Y-101663220D01*
X159712256Y-101234649D02*
X159759875Y-101329887D01*
X159759875Y-101329887D02*
X159759875Y-101567982D01*
X159759875Y-101567982D02*
X159712256Y-101663220D01*
X159712256Y-101663220D02*
X159617017Y-101710839D01*
X159617017Y-101710839D02*
X159521779Y-101710839D01*
X159521779Y-101710839D02*
X159426541Y-101663220D01*
X159426541Y-101663220D02*
X159378922Y-101567982D01*
X159378922Y-101567982D02*
X159378922Y-101329887D01*
X159378922Y-101329887D02*
X159331303Y-101234649D01*
X159093208Y-100758458D02*
X160093208Y-100758458D01*
X159140827Y-100758458D02*
X159093208Y-100663220D01*
X159093208Y-100663220D02*
X159093208Y-100472744D01*
X159093208Y-100472744D02*
X159140827Y-100377506D01*
X159140827Y-100377506D02*
X159188446Y-100329887D01*
X159188446Y-100329887D02*
X159283684Y-100282268D01*
X159283684Y-100282268D02*
X159569398Y-100282268D01*
X159569398Y-100282268D02*
X159664636Y-100329887D01*
X159664636Y-100329887D02*
X159712256Y-100377506D01*
X159712256Y-100377506D02*
X159759875Y-100472744D01*
X159759875Y-100472744D02*
X159759875Y-100663220D01*
X159759875Y-100663220D02*
X159712256Y-100758458D01*
X159093208Y-99996553D02*
X159093208Y-99615601D01*
X158759875Y-99853696D02*
X159617017Y-99853696D01*
X159617017Y-99853696D02*
X159712256Y-99806077D01*
X159712256Y-99806077D02*
X159759875Y-99710839D01*
X159759875Y-99710839D02*
X159759875Y-99615601D01*
X159712256Y-98901315D02*
X159759875Y-98996553D01*
X159759875Y-98996553D02*
X159759875Y-99187029D01*
X159759875Y-99187029D02*
X159712256Y-99282267D01*
X159712256Y-99282267D02*
X159617017Y-99329886D01*
X159617017Y-99329886D02*
X159236065Y-99329886D01*
X159236065Y-99329886D02*
X159140827Y-99282267D01*
X159140827Y-99282267D02*
X159093208Y-99187029D01*
X159093208Y-99187029D02*
X159093208Y-98996553D01*
X159093208Y-98996553D02*
X159140827Y-98901315D01*
X159140827Y-98901315D02*
X159236065Y-98853696D01*
X159236065Y-98853696D02*
X159331303Y-98853696D01*
X159331303Y-98853696D02*
X159426541Y-99329886D01*
X159093208Y-97996553D02*
X159759875Y-97996553D01*
X159093208Y-98425124D02*
X159617017Y-98425124D01*
X159617017Y-98425124D02*
X159712256Y-98377505D01*
X159712256Y-98377505D02*
X159759875Y-98282267D01*
X159759875Y-98282267D02*
X159759875Y-98139410D01*
X159759875Y-98139410D02*
X159712256Y-98044172D01*
X159712256Y-98044172D02*
X159664636Y-97996553D01*
X159759875Y-97520362D02*
X159093208Y-97520362D01*
X159283684Y-97520362D02*
X159188446Y-97472743D01*
X159188446Y-97472743D02*
X159140827Y-97425124D01*
X159140827Y-97425124D02*
X159093208Y-97329886D01*
X159093208Y-97329886D02*
X159093208Y-97234648D01*
X159759875Y-95710838D02*
X158759875Y-95710838D01*
X159712256Y-95710838D02*
X159759875Y-95806076D01*
X159759875Y-95806076D02*
X159759875Y-95996552D01*
X159759875Y-95996552D02*
X159712256Y-96091790D01*
X159712256Y-96091790D02*
X159664636Y-96139409D01*
X159664636Y-96139409D02*
X159569398Y-96187028D01*
X159569398Y-96187028D02*
X159283684Y-96187028D01*
X159283684Y-96187028D02*
X159188446Y-96139409D01*
X159188446Y-96139409D02*
X159140827Y-96091790D01*
X159140827Y-96091790D02*
X159093208Y-95996552D01*
X159093208Y-95996552D02*
X159093208Y-95806076D01*
X159093208Y-95806076D02*
X159140827Y-95710838D01*
X159712256Y-94853695D02*
X159759875Y-94948933D01*
X159759875Y-94948933D02*
X159759875Y-95139409D01*
X159759875Y-95139409D02*
X159712256Y-95234647D01*
X159712256Y-95234647D02*
X159617017Y-95282266D01*
X159617017Y-95282266D02*
X159236065Y-95282266D01*
X159236065Y-95282266D02*
X159140827Y-95234647D01*
X159140827Y-95234647D02*
X159093208Y-95139409D01*
X159093208Y-95139409D02*
X159093208Y-94948933D01*
X159093208Y-94948933D02*
X159140827Y-94853695D01*
X159140827Y-94853695D02*
X159236065Y-94806076D01*
X159236065Y-94806076D02*
X159331303Y-94806076D01*
X159331303Y-94806076D02*
X159426541Y-95282266D01*
X161369819Y-102520363D02*
X161322200Y-102615601D01*
X161322200Y-102615601D02*
X161226961Y-102663220D01*
X161226961Y-102663220D02*
X160369819Y-102663220D01*
X160703152Y-101710839D02*
X161369819Y-101710839D01*
X160703152Y-102139410D02*
X161226961Y-102139410D01*
X161226961Y-102139410D02*
X161322200Y-102091791D01*
X161322200Y-102091791D02*
X161369819Y-101996553D01*
X161369819Y-101996553D02*
X161369819Y-101853696D01*
X161369819Y-101853696D02*
X161322200Y-101758458D01*
X161322200Y-101758458D02*
X161274580Y-101710839D01*
X161369819Y-101234648D02*
X160703152Y-101234648D01*
X160798390Y-101234648D02*
X160750771Y-101187029D01*
X160750771Y-101187029D02*
X160703152Y-101091791D01*
X160703152Y-101091791D02*
X160703152Y-100948934D01*
X160703152Y-100948934D02*
X160750771Y-100853696D01*
X160750771Y-100853696D02*
X160846009Y-100806077D01*
X160846009Y-100806077D02*
X161369819Y-100806077D01*
X160846009Y-100806077D02*
X160750771Y-100758458D01*
X160750771Y-100758458D02*
X160703152Y-100663220D01*
X160703152Y-100663220D02*
X160703152Y-100520363D01*
X160703152Y-100520363D02*
X160750771Y-100425124D01*
X160750771Y-100425124D02*
X160846009Y-100377505D01*
X160846009Y-100377505D02*
X161369819Y-100377505D01*
X161369819Y-99901315D02*
X160703152Y-99901315D01*
X160369819Y-99901315D02*
X160417438Y-99948934D01*
X160417438Y-99948934D02*
X160465057Y-99901315D01*
X160465057Y-99901315D02*
X160417438Y-99853696D01*
X160417438Y-99853696D02*
X160369819Y-99901315D01*
X160369819Y-99901315D02*
X160465057Y-99901315D01*
X160703152Y-99425125D02*
X161369819Y-99425125D01*
X160798390Y-99425125D02*
X160750771Y-99377506D01*
X160750771Y-99377506D02*
X160703152Y-99282268D01*
X160703152Y-99282268D02*
X160703152Y-99139411D01*
X160703152Y-99139411D02*
X160750771Y-99044173D01*
X160750771Y-99044173D02*
X160846009Y-98996554D01*
X160846009Y-98996554D02*
X161369819Y-98996554D01*
X161369819Y-98377506D02*
X161322200Y-98472744D01*
X161322200Y-98472744D02*
X161274580Y-98520363D01*
X161274580Y-98520363D02*
X161179342Y-98567982D01*
X161179342Y-98567982D02*
X160893628Y-98567982D01*
X160893628Y-98567982D02*
X160798390Y-98520363D01*
X160798390Y-98520363D02*
X160750771Y-98472744D01*
X160750771Y-98472744D02*
X160703152Y-98377506D01*
X160703152Y-98377506D02*
X160703152Y-98234649D01*
X160703152Y-98234649D02*
X160750771Y-98139411D01*
X160750771Y-98139411D02*
X160798390Y-98091792D01*
X160798390Y-98091792D02*
X160893628Y-98044173D01*
X160893628Y-98044173D02*
X161179342Y-98044173D01*
X161179342Y-98044173D02*
X161274580Y-98091792D01*
X161274580Y-98091792D02*
X161322200Y-98139411D01*
X161322200Y-98139411D02*
X161369819Y-98234649D01*
X161369819Y-98234649D02*
X161369819Y-98377506D01*
X161322200Y-97663220D02*
X161369819Y-97567982D01*
X161369819Y-97567982D02*
X161369819Y-97377506D01*
X161369819Y-97377506D02*
X161322200Y-97282268D01*
X161322200Y-97282268D02*
X161226961Y-97234649D01*
X161226961Y-97234649D02*
X161179342Y-97234649D01*
X161179342Y-97234649D02*
X161084104Y-97282268D01*
X161084104Y-97282268D02*
X161036485Y-97377506D01*
X161036485Y-97377506D02*
X161036485Y-97520363D01*
X161036485Y-97520363D02*
X160988866Y-97615601D01*
X160988866Y-97615601D02*
X160893628Y-97663220D01*
X160893628Y-97663220D02*
X160846009Y-97663220D01*
X160846009Y-97663220D02*
X160750771Y-97615601D01*
X160750771Y-97615601D02*
X160703152Y-97520363D01*
X160703152Y-97520363D02*
X160703152Y-97377506D01*
X160703152Y-97377506D02*
X160750771Y-97282268D01*
X161369819Y-96806077D02*
X160703152Y-96806077D01*
X160369819Y-96806077D02*
X160417438Y-96853696D01*
X160417438Y-96853696D02*
X160465057Y-96806077D01*
X160465057Y-96806077D02*
X160417438Y-96758458D01*
X160417438Y-96758458D02*
X160369819Y-96806077D01*
X160369819Y-96806077D02*
X160465057Y-96806077D01*
X160703152Y-96472744D02*
X160703152Y-96091792D01*
X160369819Y-96329887D02*
X161226961Y-96329887D01*
X161226961Y-96329887D02*
X161322200Y-96282268D01*
X161322200Y-96282268D02*
X161369819Y-96187030D01*
X161369819Y-96187030D02*
X161369819Y-96091792D01*
X161322200Y-95377506D02*
X161369819Y-95472744D01*
X161369819Y-95472744D02*
X161369819Y-95663220D01*
X161369819Y-95663220D02*
X161322200Y-95758458D01*
X161322200Y-95758458D02*
X161226961Y-95806077D01*
X161226961Y-95806077D02*
X160846009Y-95806077D01*
X160846009Y-95806077D02*
X160750771Y-95758458D01*
X160750771Y-95758458D02*
X160703152Y-95663220D01*
X160703152Y-95663220D02*
X160703152Y-95472744D01*
X160703152Y-95472744D02*
X160750771Y-95377506D01*
X160750771Y-95377506D02*
X160846009Y-95329887D01*
X160846009Y-95329887D02*
X160941247Y-95329887D01*
X160941247Y-95329887D02*
X161036485Y-95806077D01*
D11*
X116411653Y-89800828D02*
X115911653Y-89086542D01*
X115554510Y-89800828D02*
X115554510Y-88300828D01*
X115554510Y-88300828D02*
X116125939Y-88300828D01*
X116125939Y-88300828D02*
X116268796Y-88372257D01*
X116268796Y-88372257D02*
X116340225Y-88443685D01*
X116340225Y-88443685D02*
X116411653Y-88586542D01*
X116411653Y-88586542D02*
X116411653Y-88800828D01*
X116411653Y-88800828D02*
X116340225Y-88943685D01*
X116340225Y-88943685D02*
X116268796Y-89015114D01*
X116268796Y-89015114D02*
X116125939Y-89086542D01*
X116125939Y-89086542D02*
X115554510Y-89086542D01*
X116983082Y-88443685D02*
X117054510Y-88372257D01*
X117054510Y-88372257D02*
X117197368Y-88300828D01*
X117197368Y-88300828D02*
X117554510Y-88300828D01*
X117554510Y-88300828D02*
X117697368Y-88372257D01*
X117697368Y-88372257D02*
X117768796Y-88443685D01*
X117768796Y-88443685D02*
X117840225Y-88586542D01*
X117840225Y-88586542D02*
X117840225Y-88729400D01*
X117840225Y-88729400D02*
X117768796Y-88943685D01*
X117768796Y-88943685D02*
X116911653Y-89800828D01*
X116911653Y-89800828D02*
X117840225Y-89800828D01*
D10*
X118066666Y-114454819D02*
X118066666Y-115169104D01*
X118066666Y-115169104D02*
X118019047Y-115311961D01*
X118019047Y-115311961D02*
X117923809Y-115407200D01*
X117923809Y-115407200D02*
X117780952Y-115454819D01*
X117780952Y-115454819D02*
X117685714Y-115454819D01*
X118685714Y-114883390D02*
X118590476Y-114835771D01*
X118590476Y-114835771D02*
X118542857Y-114788152D01*
X118542857Y-114788152D02*
X118495238Y-114692914D01*
X118495238Y-114692914D02*
X118495238Y-114645295D01*
X118495238Y-114645295D02*
X118542857Y-114550057D01*
X118542857Y-114550057D02*
X118590476Y-114502438D01*
X118590476Y-114502438D02*
X118685714Y-114454819D01*
X118685714Y-114454819D02*
X118876190Y-114454819D01*
X118876190Y-114454819D02*
X118971428Y-114502438D01*
X118971428Y-114502438D02*
X119019047Y-114550057D01*
X119019047Y-114550057D02*
X119066666Y-114645295D01*
X119066666Y-114645295D02*
X119066666Y-114692914D01*
X119066666Y-114692914D02*
X119019047Y-114788152D01*
X119019047Y-114788152D02*
X118971428Y-114835771D01*
X118971428Y-114835771D02*
X118876190Y-114883390D01*
X118876190Y-114883390D02*
X118685714Y-114883390D01*
X118685714Y-114883390D02*
X118590476Y-114931009D01*
X118590476Y-114931009D02*
X118542857Y-114978628D01*
X118542857Y-114978628D02*
X118495238Y-115073866D01*
X118495238Y-115073866D02*
X118495238Y-115264342D01*
X118495238Y-115264342D02*
X118542857Y-115359580D01*
X118542857Y-115359580D02*
X118590476Y-115407200D01*
X118590476Y-115407200D02*
X118685714Y-115454819D01*
X118685714Y-115454819D02*
X118876190Y-115454819D01*
X118876190Y-115454819D02*
X118971428Y-115407200D01*
X118971428Y-115407200D02*
X119019047Y-115359580D01*
X119019047Y-115359580D02*
X119066666Y-115264342D01*
X119066666Y-115264342D02*
X119066666Y-115073866D01*
X119066666Y-115073866D02*
X119019047Y-114978628D01*
X119019047Y-114978628D02*
X118971428Y-114931009D01*
X118971428Y-114931009D02*
X118876190Y-114883390D01*
X117654819Y-113719047D02*
X116654819Y-113719047D01*
X116654819Y-113719047D02*
X116654819Y-113480952D01*
X116654819Y-113480952D02*
X116702438Y-113338095D01*
X116702438Y-113338095D02*
X116797676Y-113242857D01*
X116797676Y-113242857D02*
X116892914Y-113195238D01*
X116892914Y-113195238D02*
X117083390Y-113147619D01*
X117083390Y-113147619D02*
X117226247Y-113147619D01*
X117226247Y-113147619D02*
X117416723Y-113195238D01*
X117416723Y-113195238D02*
X117511961Y-113242857D01*
X117511961Y-113242857D02*
X117607200Y-113338095D01*
X117607200Y-113338095D02*
X117654819Y-113480952D01*
X117654819Y-113480952D02*
X117654819Y-113719047D01*
X117654819Y-112719047D02*
X116654819Y-112719047D01*
X117131009Y-112719047D02*
X117131009Y-112147619D01*
X117654819Y-112147619D02*
X116654819Y-112147619D01*
X116654819Y-111814285D02*
X116654819Y-111242857D01*
X117654819Y-111528571D02*
X116654819Y-111528571D01*
X116750057Y-110957142D02*
X116702438Y-110909523D01*
X116702438Y-110909523D02*
X116654819Y-110814285D01*
X116654819Y-110814285D02*
X116654819Y-110576190D01*
X116654819Y-110576190D02*
X116702438Y-110480952D01*
X116702438Y-110480952D02*
X116750057Y-110433333D01*
X116750057Y-110433333D02*
X116845295Y-110385714D01*
X116845295Y-110385714D02*
X116940533Y-110385714D01*
X116940533Y-110385714D02*
X117083390Y-110433333D01*
X117083390Y-110433333D02*
X117654819Y-111004761D01*
X117654819Y-111004761D02*
X117654819Y-110385714D01*
X116750057Y-110004761D02*
X116702438Y-109957142D01*
X116702438Y-109957142D02*
X116654819Y-109861904D01*
X116654819Y-109861904D02*
X116654819Y-109623809D01*
X116654819Y-109623809D02*
X116702438Y-109528571D01*
X116702438Y-109528571D02*
X116750057Y-109480952D01*
X116750057Y-109480952D02*
X116845295Y-109433333D01*
X116845295Y-109433333D02*
X116940533Y-109433333D01*
X116940533Y-109433333D02*
X117083390Y-109480952D01*
X117083390Y-109480952D02*
X117654819Y-110052380D01*
X117654819Y-110052380D02*
X117654819Y-109433333D01*
X119166666Y-129954819D02*
X119166666Y-130669104D01*
X119166666Y-130669104D02*
X119119047Y-130811961D01*
X119119047Y-130811961D02*
X119023809Y-130907200D01*
X119023809Y-130907200D02*
X118880952Y-130954819D01*
X118880952Y-130954819D02*
X118785714Y-130954819D01*
X120119047Y-129954819D02*
X119642857Y-129954819D01*
X119642857Y-129954819D02*
X119595238Y-130431009D01*
X119595238Y-130431009D02*
X119642857Y-130383390D01*
X119642857Y-130383390D02*
X119738095Y-130335771D01*
X119738095Y-130335771D02*
X119976190Y-130335771D01*
X119976190Y-130335771D02*
X120071428Y-130383390D01*
X120071428Y-130383390D02*
X120119047Y-130431009D01*
X120119047Y-130431009D02*
X120166666Y-130526247D01*
X120166666Y-130526247D02*
X120166666Y-130764342D01*
X120166666Y-130764342D02*
X120119047Y-130859580D01*
X120119047Y-130859580D02*
X120071428Y-130907200D01*
X120071428Y-130907200D02*
X119976190Y-130954819D01*
X119976190Y-130954819D02*
X119738095Y-130954819D01*
X119738095Y-130954819D02*
X119642857Y-130907200D01*
X119642857Y-130907200D02*
X119595238Y-130859580D01*
X112059580Y-135690477D02*
X112107200Y-135738096D01*
X112107200Y-135738096D02*
X112154819Y-135880953D01*
X112154819Y-135880953D02*
X112154819Y-135976191D01*
X112154819Y-135976191D02*
X112107200Y-136119048D01*
X112107200Y-136119048D02*
X112011961Y-136214286D01*
X112011961Y-136214286D02*
X111916723Y-136261905D01*
X111916723Y-136261905D02*
X111726247Y-136309524D01*
X111726247Y-136309524D02*
X111583390Y-136309524D01*
X111583390Y-136309524D02*
X111392914Y-136261905D01*
X111392914Y-136261905D02*
X111297676Y-136214286D01*
X111297676Y-136214286D02*
X111202438Y-136119048D01*
X111202438Y-136119048D02*
X111154819Y-135976191D01*
X111154819Y-135976191D02*
X111154819Y-135880953D01*
X111154819Y-135880953D02*
X111202438Y-135738096D01*
X111202438Y-135738096D02*
X111250057Y-135690477D01*
X112154819Y-134833334D02*
X111631009Y-134833334D01*
X111631009Y-134833334D02*
X111535771Y-134880953D01*
X111535771Y-134880953D02*
X111488152Y-134976191D01*
X111488152Y-134976191D02*
X111488152Y-135166667D01*
X111488152Y-135166667D02*
X111535771Y-135261905D01*
X112107200Y-134833334D02*
X112154819Y-134928572D01*
X112154819Y-134928572D02*
X112154819Y-135166667D01*
X112154819Y-135166667D02*
X112107200Y-135261905D01*
X112107200Y-135261905D02*
X112011961Y-135309524D01*
X112011961Y-135309524D02*
X111916723Y-135309524D01*
X111916723Y-135309524D02*
X111821485Y-135261905D01*
X111821485Y-135261905D02*
X111773866Y-135166667D01*
X111773866Y-135166667D02*
X111773866Y-134928572D01*
X111773866Y-134928572D02*
X111726247Y-134833334D01*
X111488152Y-134357143D02*
X112488152Y-134357143D01*
X111535771Y-134357143D02*
X111488152Y-134261905D01*
X111488152Y-134261905D02*
X111488152Y-134071429D01*
X111488152Y-134071429D02*
X111535771Y-133976191D01*
X111535771Y-133976191D02*
X111583390Y-133928572D01*
X111583390Y-133928572D02*
X111678628Y-133880953D01*
X111678628Y-133880953D02*
X111964342Y-133880953D01*
X111964342Y-133880953D02*
X112059580Y-133928572D01*
X112059580Y-133928572D02*
X112107200Y-133976191D01*
X112107200Y-133976191D02*
X112154819Y-134071429D01*
X112154819Y-134071429D02*
X112154819Y-134261905D01*
X112154819Y-134261905D02*
X112107200Y-134357143D01*
X111488152Y-133595238D02*
X111488152Y-133214286D01*
X111154819Y-133452381D02*
X112011961Y-133452381D01*
X112011961Y-133452381D02*
X112107200Y-133404762D01*
X112107200Y-133404762D02*
X112154819Y-133309524D01*
X112154819Y-133309524D02*
X112154819Y-133214286D01*
X112107200Y-132500000D02*
X112154819Y-132595238D01*
X112154819Y-132595238D02*
X112154819Y-132785714D01*
X112154819Y-132785714D02*
X112107200Y-132880952D01*
X112107200Y-132880952D02*
X112011961Y-132928571D01*
X112011961Y-132928571D02*
X111631009Y-132928571D01*
X111631009Y-132928571D02*
X111535771Y-132880952D01*
X111535771Y-132880952D02*
X111488152Y-132785714D01*
X111488152Y-132785714D02*
X111488152Y-132595238D01*
X111488152Y-132595238D02*
X111535771Y-132500000D01*
X111535771Y-132500000D02*
X111631009Y-132452381D01*
X111631009Y-132452381D02*
X111726247Y-132452381D01*
X111726247Y-132452381D02*
X111821485Y-132928571D01*
X111488152Y-131595238D02*
X112154819Y-131595238D01*
X111488152Y-132023809D02*
X112011961Y-132023809D01*
X112011961Y-132023809D02*
X112107200Y-131976190D01*
X112107200Y-131976190D02*
X112154819Y-131880952D01*
X112154819Y-131880952D02*
X112154819Y-131738095D01*
X112154819Y-131738095D02*
X112107200Y-131642857D01*
X112107200Y-131642857D02*
X112059580Y-131595238D01*
X112154819Y-131119047D02*
X111488152Y-131119047D01*
X111678628Y-131119047D02*
X111583390Y-131071428D01*
X111583390Y-131071428D02*
X111535771Y-131023809D01*
X111535771Y-131023809D02*
X111488152Y-130928571D01*
X111488152Y-130928571D02*
X111488152Y-130833333D01*
X112250057Y-130738095D02*
X112250057Y-129976190D01*
X112154819Y-129738094D02*
X111154819Y-129738094D01*
X112154819Y-129309523D02*
X111631009Y-129309523D01*
X111631009Y-129309523D02*
X111535771Y-129357142D01*
X111535771Y-129357142D02*
X111488152Y-129452380D01*
X111488152Y-129452380D02*
X111488152Y-129595237D01*
X111488152Y-129595237D02*
X111535771Y-129690475D01*
X111535771Y-129690475D02*
X111583390Y-129738094D01*
X111488152Y-128404761D02*
X112154819Y-128404761D01*
X111488152Y-128833332D02*
X112011961Y-128833332D01*
X112011961Y-128833332D02*
X112107200Y-128785713D01*
X112107200Y-128785713D02*
X112154819Y-128690475D01*
X112154819Y-128690475D02*
X112154819Y-128547618D01*
X112154819Y-128547618D02*
X112107200Y-128452380D01*
X112107200Y-128452380D02*
X112059580Y-128404761D01*
X112154819Y-127928570D02*
X111488152Y-127928570D01*
X111583390Y-127928570D02*
X111535771Y-127880951D01*
X111535771Y-127880951D02*
X111488152Y-127785713D01*
X111488152Y-127785713D02*
X111488152Y-127642856D01*
X111488152Y-127642856D02*
X111535771Y-127547618D01*
X111535771Y-127547618D02*
X111631009Y-127499999D01*
X111631009Y-127499999D02*
X112154819Y-127499999D01*
X111631009Y-127499999D02*
X111535771Y-127452380D01*
X111535771Y-127452380D02*
X111488152Y-127357142D01*
X111488152Y-127357142D02*
X111488152Y-127214285D01*
X111488152Y-127214285D02*
X111535771Y-127119046D01*
X111535771Y-127119046D02*
X111631009Y-127071427D01*
X111631009Y-127071427D02*
X112154819Y-127071427D01*
X112154819Y-126595237D02*
X111488152Y-126595237D01*
X111154819Y-126595237D02*
X111202438Y-126642856D01*
X111202438Y-126642856D02*
X111250057Y-126595237D01*
X111250057Y-126595237D02*
X111202438Y-126547618D01*
X111202438Y-126547618D02*
X111154819Y-126595237D01*
X111154819Y-126595237D02*
X111250057Y-126595237D01*
X112154819Y-125690476D02*
X111154819Y-125690476D01*
X112107200Y-125690476D02*
X112154819Y-125785714D01*
X112154819Y-125785714D02*
X112154819Y-125976190D01*
X112154819Y-125976190D02*
X112107200Y-126071428D01*
X112107200Y-126071428D02*
X112059580Y-126119047D01*
X112059580Y-126119047D02*
X111964342Y-126166666D01*
X111964342Y-126166666D02*
X111678628Y-126166666D01*
X111678628Y-126166666D02*
X111583390Y-126119047D01*
X111583390Y-126119047D02*
X111535771Y-126071428D01*
X111535771Y-126071428D02*
X111488152Y-125976190D01*
X111488152Y-125976190D02*
X111488152Y-125785714D01*
X111488152Y-125785714D02*
X111535771Y-125690476D01*
X112154819Y-125214285D02*
X111488152Y-125214285D01*
X111154819Y-125214285D02*
X111202438Y-125261904D01*
X111202438Y-125261904D02*
X111250057Y-125214285D01*
X111250057Y-125214285D02*
X111202438Y-125166666D01*
X111202438Y-125166666D02*
X111154819Y-125214285D01*
X111154819Y-125214285D02*
X111250057Y-125214285D01*
X111488152Y-124880952D02*
X111488152Y-124500000D01*
X111154819Y-124738095D02*
X112011961Y-124738095D01*
X112011961Y-124738095D02*
X112107200Y-124690476D01*
X112107200Y-124690476D02*
X112154819Y-124595238D01*
X112154819Y-124595238D02*
X112154819Y-124500000D01*
X112107200Y-123785714D02*
X112154819Y-123880952D01*
X112154819Y-123880952D02*
X112154819Y-124071428D01*
X112154819Y-124071428D02*
X112107200Y-124166666D01*
X112107200Y-124166666D02*
X112011961Y-124214285D01*
X112011961Y-124214285D02*
X111631009Y-124214285D01*
X111631009Y-124214285D02*
X111535771Y-124166666D01*
X111535771Y-124166666D02*
X111488152Y-124071428D01*
X111488152Y-124071428D02*
X111488152Y-123880952D01*
X111488152Y-123880952D02*
X111535771Y-123785714D01*
X111535771Y-123785714D02*
X111631009Y-123738095D01*
X111631009Y-123738095D02*
X111726247Y-123738095D01*
X111726247Y-123738095D02*
X111821485Y-124214285D01*
X112250057Y-123547619D02*
X112250057Y-122785714D01*
X112107200Y-122595237D02*
X112154819Y-122499999D01*
X112154819Y-122499999D02*
X112154819Y-122309523D01*
X112154819Y-122309523D02*
X112107200Y-122214285D01*
X112107200Y-122214285D02*
X112011961Y-122166666D01*
X112011961Y-122166666D02*
X111964342Y-122166666D01*
X111964342Y-122166666D02*
X111869104Y-122214285D01*
X111869104Y-122214285D02*
X111821485Y-122309523D01*
X111821485Y-122309523D02*
X111821485Y-122452380D01*
X111821485Y-122452380D02*
X111773866Y-122547618D01*
X111773866Y-122547618D02*
X111678628Y-122595237D01*
X111678628Y-122595237D02*
X111631009Y-122595237D01*
X111631009Y-122595237D02*
X111535771Y-122547618D01*
X111535771Y-122547618D02*
X111488152Y-122452380D01*
X111488152Y-122452380D02*
X111488152Y-122309523D01*
X111488152Y-122309523D02*
X111535771Y-122214285D01*
X112154819Y-121595237D02*
X112107200Y-121690475D01*
X112107200Y-121690475D02*
X112059580Y-121738094D01*
X112059580Y-121738094D02*
X111964342Y-121785713D01*
X111964342Y-121785713D02*
X111678628Y-121785713D01*
X111678628Y-121785713D02*
X111583390Y-121738094D01*
X111583390Y-121738094D02*
X111535771Y-121690475D01*
X111535771Y-121690475D02*
X111488152Y-121595237D01*
X111488152Y-121595237D02*
X111488152Y-121452380D01*
X111488152Y-121452380D02*
X111535771Y-121357142D01*
X111535771Y-121357142D02*
X111583390Y-121309523D01*
X111583390Y-121309523D02*
X111678628Y-121261904D01*
X111678628Y-121261904D02*
X111964342Y-121261904D01*
X111964342Y-121261904D02*
X112059580Y-121309523D01*
X112059580Y-121309523D02*
X112107200Y-121357142D01*
X112107200Y-121357142D02*
X112154819Y-121452380D01*
X112154819Y-121452380D02*
X112154819Y-121595237D01*
X111488152Y-120404761D02*
X112154819Y-120404761D01*
X111488152Y-120833332D02*
X112011961Y-120833332D01*
X112011961Y-120833332D02*
X112107200Y-120785713D01*
X112107200Y-120785713D02*
X112154819Y-120690475D01*
X112154819Y-120690475D02*
X112154819Y-120547618D01*
X112154819Y-120547618D02*
X112107200Y-120452380D01*
X112107200Y-120452380D02*
X112059580Y-120404761D01*
X112107200Y-119976189D02*
X112154819Y-119880951D01*
X112154819Y-119880951D02*
X112154819Y-119690475D01*
X112154819Y-119690475D02*
X112107200Y-119595237D01*
X112107200Y-119595237D02*
X112011961Y-119547618D01*
X112011961Y-119547618D02*
X111964342Y-119547618D01*
X111964342Y-119547618D02*
X111869104Y-119595237D01*
X111869104Y-119595237D02*
X111821485Y-119690475D01*
X111821485Y-119690475D02*
X111821485Y-119833332D01*
X111821485Y-119833332D02*
X111773866Y-119928570D01*
X111773866Y-119928570D02*
X111678628Y-119976189D01*
X111678628Y-119976189D02*
X111631009Y-119976189D01*
X111631009Y-119976189D02*
X111535771Y-119928570D01*
X111535771Y-119928570D02*
X111488152Y-119833332D01*
X111488152Y-119833332D02*
X111488152Y-119690475D01*
X111488152Y-119690475D02*
X111535771Y-119595237D01*
X112250057Y-119357142D02*
X112250057Y-118595237D01*
X112107200Y-118404760D02*
X112154819Y-118309522D01*
X112154819Y-118309522D02*
X112154819Y-118119046D01*
X112154819Y-118119046D02*
X112107200Y-118023808D01*
X112107200Y-118023808D02*
X112011961Y-117976189D01*
X112011961Y-117976189D02*
X111964342Y-117976189D01*
X111964342Y-117976189D02*
X111869104Y-118023808D01*
X111869104Y-118023808D02*
X111821485Y-118119046D01*
X111821485Y-118119046D02*
X111821485Y-118261903D01*
X111821485Y-118261903D02*
X111773866Y-118357141D01*
X111773866Y-118357141D02*
X111678628Y-118404760D01*
X111678628Y-118404760D02*
X111631009Y-118404760D01*
X111631009Y-118404760D02*
X111535771Y-118357141D01*
X111535771Y-118357141D02*
X111488152Y-118261903D01*
X111488152Y-118261903D02*
X111488152Y-118119046D01*
X111488152Y-118119046D02*
X111535771Y-118023808D01*
X112154819Y-117404760D02*
X112107200Y-117499998D01*
X112107200Y-117499998D02*
X112059580Y-117547617D01*
X112059580Y-117547617D02*
X111964342Y-117595236D01*
X111964342Y-117595236D02*
X111678628Y-117595236D01*
X111678628Y-117595236D02*
X111583390Y-117547617D01*
X111583390Y-117547617D02*
X111535771Y-117499998D01*
X111535771Y-117499998D02*
X111488152Y-117404760D01*
X111488152Y-117404760D02*
X111488152Y-117261903D01*
X111488152Y-117261903D02*
X111535771Y-117166665D01*
X111535771Y-117166665D02*
X111583390Y-117119046D01*
X111583390Y-117119046D02*
X111678628Y-117071427D01*
X111678628Y-117071427D02*
X111964342Y-117071427D01*
X111964342Y-117071427D02*
X112059580Y-117119046D01*
X112059580Y-117119046D02*
X112107200Y-117166665D01*
X112107200Y-117166665D02*
X112154819Y-117261903D01*
X112154819Y-117261903D02*
X112154819Y-117404760D01*
X112154819Y-116499998D02*
X112107200Y-116595236D01*
X112107200Y-116595236D02*
X112011961Y-116642855D01*
X112011961Y-116642855D02*
X111154819Y-116642855D01*
X112250057Y-116357141D02*
X112250057Y-115595236D01*
X112154819Y-114833331D02*
X112154819Y-115404759D01*
X112154819Y-115119045D02*
X111154819Y-115119045D01*
X111154819Y-115119045D02*
X111297676Y-115214283D01*
X111297676Y-115214283D02*
X111392914Y-115309521D01*
X111392914Y-115309521D02*
X111440533Y-115404759D01*
X111154819Y-114214283D02*
X111154819Y-114119045D01*
X111154819Y-114119045D02*
X111202438Y-114023807D01*
X111202438Y-114023807D02*
X111250057Y-113976188D01*
X111250057Y-113976188D02*
X111345295Y-113928569D01*
X111345295Y-113928569D02*
X111535771Y-113880950D01*
X111535771Y-113880950D02*
X111773866Y-113880950D01*
X111773866Y-113880950D02*
X111964342Y-113928569D01*
X111964342Y-113928569D02*
X112059580Y-113976188D01*
X112059580Y-113976188D02*
X112107200Y-114023807D01*
X112107200Y-114023807D02*
X112154819Y-114119045D01*
X112154819Y-114119045D02*
X112154819Y-114214283D01*
X112154819Y-114214283D02*
X112107200Y-114309521D01*
X112107200Y-114309521D02*
X112059580Y-114357140D01*
X112059580Y-114357140D02*
X111964342Y-114404759D01*
X111964342Y-114404759D02*
X111773866Y-114452378D01*
X111773866Y-114452378D02*
X111535771Y-114452378D01*
X111535771Y-114452378D02*
X111345295Y-114404759D01*
X111345295Y-114404759D02*
X111250057Y-114357140D01*
X111250057Y-114357140D02*
X111202438Y-114309521D01*
X111202438Y-114309521D02*
X111154819Y-114214283D01*
X112107200Y-113023807D02*
X112154819Y-113119045D01*
X112154819Y-113119045D02*
X112154819Y-113309521D01*
X112154819Y-113309521D02*
X112107200Y-113404759D01*
X112107200Y-113404759D02*
X112059580Y-113452378D01*
X112059580Y-113452378D02*
X111964342Y-113499997D01*
X111964342Y-113499997D02*
X111678628Y-113499997D01*
X111678628Y-113499997D02*
X111583390Y-113452378D01*
X111583390Y-113452378D02*
X111535771Y-113404759D01*
X111535771Y-113404759D02*
X111488152Y-113309521D01*
X111488152Y-113309521D02*
X111488152Y-113119045D01*
X111488152Y-113119045D02*
X111535771Y-113023807D01*
X112154819Y-112595235D02*
X111488152Y-112595235D01*
X111583390Y-112595235D02*
X111535771Y-112547616D01*
X111535771Y-112547616D02*
X111488152Y-112452378D01*
X111488152Y-112452378D02*
X111488152Y-112309521D01*
X111488152Y-112309521D02*
X111535771Y-112214283D01*
X111535771Y-112214283D02*
X111631009Y-112166664D01*
X111631009Y-112166664D02*
X112154819Y-112166664D01*
X111631009Y-112166664D02*
X111535771Y-112119045D01*
X111535771Y-112119045D02*
X111488152Y-112023807D01*
X111488152Y-112023807D02*
X111488152Y-111880950D01*
X111488152Y-111880950D02*
X111535771Y-111785711D01*
X111535771Y-111785711D02*
X111631009Y-111738092D01*
X111631009Y-111738092D02*
X112154819Y-111738092D01*
X125390476Y-100654819D02*
X125390476Y-101369104D01*
X125390476Y-101369104D02*
X125342857Y-101511961D01*
X125342857Y-101511961D02*
X125247619Y-101607200D01*
X125247619Y-101607200D02*
X125104762Y-101654819D01*
X125104762Y-101654819D02*
X125009524Y-101654819D01*
X126390476Y-101654819D02*
X125819048Y-101654819D01*
X126104762Y-101654819D02*
X126104762Y-100654819D01*
X126104762Y-100654819D02*
X126009524Y-100797676D01*
X126009524Y-100797676D02*
X125914286Y-100892914D01*
X125914286Y-100892914D02*
X125819048Y-100940533D01*
X127009524Y-100654819D02*
X127104762Y-100654819D01*
X127104762Y-100654819D02*
X127200000Y-100702438D01*
X127200000Y-100702438D02*
X127247619Y-100750057D01*
X127247619Y-100750057D02*
X127295238Y-100845295D01*
X127295238Y-100845295D02*
X127342857Y-101035771D01*
X127342857Y-101035771D02*
X127342857Y-101273866D01*
X127342857Y-101273866D02*
X127295238Y-101464342D01*
X127295238Y-101464342D02*
X127247619Y-101559580D01*
X127247619Y-101559580D02*
X127200000Y-101607200D01*
X127200000Y-101607200D02*
X127104762Y-101654819D01*
X127104762Y-101654819D02*
X127009524Y-101654819D01*
X127009524Y-101654819D02*
X126914286Y-101607200D01*
X126914286Y-101607200D02*
X126866667Y-101559580D01*
X126866667Y-101559580D02*
X126819048Y-101464342D01*
X126819048Y-101464342D02*
X126771429Y-101273866D01*
X126771429Y-101273866D02*
X126771429Y-101035771D01*
X126771429Y-101035771D02*
X126819048Y-100845295D01*
X126819048Y-100845295D02*
X126866667Y-100750057D01*
X126866667Y-100750057D02*
X126914286Y-100702438D01*
X126914286Y-100702438D02*
X127009524Y-100654819D01*
X114238095Y-48954819D02*
X114238095Y-47954819D01*
X114238095Y-48431009D02*
X114809523Y-48431009D01*
X114809523Y-48954819D02*
X114809523Y-47954819D01*
X115809523Y-48954819D02*
X115238095Y-48954819D01*
X115523809Y-48954819D02*
X115523809Y-47954819D01*
X115523809Y-47954819D02*
X115428571Y-48097676D01*
X115428571Y-48097676D02*
X115333333Y-48192914D01*
X115333333Y-48192914D02*
X115238095Y-48240533D01*
X133466666Y-131654819D02*
X133466666Y-132369104D01*
X133466666Y-132369104D02*
X133419047Y-132511961D01*
X133419047Y-132511961D02*
X133323809Y-132607200D01*
X133323809Y-132607200D02*
X133180952Y-132654819D01*
X133180952Y-132654819D02*
X133085714Y-132654819D01*
X134371428Y-131654819D02*
X134180952Y-131654819D01*
X134180952Y-131654819D02*
X134085714Y-131702438D01*
X134085714Y-131702438D02*
X134038095Y-131750057D01*
X134038095Y-131750057D02*
X133942857Y-131892914D01*
X133942857Y-131892914D02*
X133895238Y-132083390D01*
X133895238Y-132083390D02*
X133895238Y-132464342D01*
X133895238Y-132464342D02*
X133942857Y-132559580D01*
X133942857Y-132559580D02*
X133990476Y-132607200D01*
X133990476Y-132607200D02*
X134085714Y-132654819D01*
X134085714Y-132654819D02*
X134276190Y-132654819D01*
X134276190Y-132654819D02*
X134371428Y-132607200D01*
X134371428Y-132607200D02*
X134419047Y-132559580D01*
X134419047Y-132559580D02*
X134466666Y-132464342D01*
X134466666Y-132464342D02*
X134466666Y-132226247D01*
X134466666Y-132226247D02*
X134419047Y-132131009D01*
X134419047Y-132131009D02*
X134371428Y-132083390D01*
X134371428Y-132083390D02*
X134276190Y-132035771D01*
X134276190Y-132035771D02*
X134085714Y-132035771D01*
X134085714Y-132035771D02*
X133990476Y-132083390D01*
X133990476Y-132083390D02*
X133942857Y-132131009D01*
X133942857Y-132131009D02*
X133895238Y-132226247D01*
X129809522Y-139659580D02*
X129761903Y-139707200D01*
X129761903Y-139707200D02*
X129619046Y-139754819D01*
X129619046Y-139754819D02*
X129523808Y-139754819D01*
X129523808Y-139754819D02*
X129380951Y-139707200D01*
X129380951Y-139707200D02*
X129285713Y-139611961D01*
X129285713Y-139611961D02*
X129238094Y-139516723D01*
X129238094Y-139516723D02*
X129190475Y-139326247D01*
X129190475Y-139326247D02*
X129190475Y-139183390D01*
X129190475Y-139183390D02*
X129238094Y-138992914D01*
X129238094Y-138992914D02*
X129285713Y-138897676D01*
X129285713Y-138897676D02*
X129380951Y-138802438D01*
X129380951Y-138802438D02*
X129523808Y-138754819D01*
X129523808Y-138754819D02*
X129619046Y-138754819D01*
X129619046Y-138754819D02*
X129761903Y-138802438D01*
X129761903Y-138802438D02*
X129809522Y-138850057D01*
X130666665Y-139754819D02*
X130666665Y-139231009D01*
X130666665Y-139231009D02*
X130619046Y-139135771D01*
X130619046Y-139135771D02*
X130523808Y-139088152D01*
X130523808Y-139088152D02*
X130333332Y-139088152D01*
X130333332Y-139088152D02*
X130238094Y-139135771D01*
X130666665Y-139707200D02*
X130571427Y-139754819D01*
X130571427Y-139754819D02*
X130333332Y-139754819D01*
X130333332Y-139754819D02*
X130238094Y-139707200D01*
X130238094Y-139707200D02*
X130190475Y-139611961D01*
X130190475Y-139611961D02*
X130190475Y-139516723D01*
X130190475Y-139516723D02*
X130238094Y-139421485D01*
X130238094Y-139421485D02*
X130333332Y-139373866D01*
X130333332Y-139373866D02*
X130571427Y-139373866D01*
X130571427Y-139373866D02*
X130666665Y-139326247D01*
X131142856Y-139088152D02*
X131142856Y-140088152D01*
X131142856Y-139135771D02*
X131238094Y-139088152D01*
X131238094Y-139088152D02*
X131428570Y-139088152D01*
X131428570Y-139088152D02*
X131523808Y-139135771D01*
X131523808Y-139135771D02*
X131571427Y-139183390D01*
X131571427Y-139183390D02*
X131619046Y-139278628D01*
X131619046Y-139278628D02*
X131619046Y-139564342D01*
X131619046Y-139564342D02*
X131571427Y-139659580D01*
X131571427Y-139659580D02*
X131523808Y-139707200D01*
X131523808Y-139707200D02*
X131428570Y-139754819D01*
X131428570Y-139754819D02*
X131238094Y-139754819D01*
X131238094Y-139754819D02*
X131142856Y-139707200D01*
X131904761Y-139088152D02*
X132285713Y-139088152D01*
X132047618Y-138754819D02*
X132047618Y-139611961D01*
X132047618Y-139611961D02*
X132095237Y-139707200D01*
X132095237Y-139707200D02*
X132190475Y-139754819D01*
X132190475Y-139754819D02*
X132285713Y-139754819D01*
X132999999Y-139707200D02*
X132904761Y-139754819D01*
X132904761Y-139754819D02*
X132714285Y-139754819D01*
X132714285Y-139754819D02*
X132619047Y-139707200D01*
X132619047Y-139707200D02*
X132571428Y-139611961D01*
X132571428Y-139611961D02*
X132571428Y-139231009D01*
X132571428Y-139231009D02*
X132619047Y-139135771D01*
X132619047Y-139135771D02*
X132714285Y-139088152D01*
X132714285Y-139088152D02*
X132904761Y-139088152D01*
X132904761Y-139088152D02*
X132999999Y-139135771D01*
X132999999Y-139135771D02*
X133047618Y-139231009D01*
X133047618Y-139231009D02*
X133047618Y-139326247D01*
X133047618Y-139326247D02*
X132571428Y-139421485D01*
X133904761Y-139088152D02*
X133904761Y-139754819D01*
X133476190Y-139088152D02*
X133476190Y-139611961D01*
X133476190Y-139611961D02*
X133523809Y-139707200D01*
X133523809Y-139707200D02*
X133619047Y-139754819D01*
X133619047Y-139754819D02*
X133761904Y-139754819D01*
X133761904Y-139754819D02*
X133857142Y-139707200D01*
X133857142Y-139707200D02*
X133904761Y-139659580D01*
X134380952Y-139754819D02*
X134380952Y-139088152D01*
X134380952Y-139278628D02*
X134428571Y-139183390D01*
X134428571Y-139183390D02*
X134476190Y-139135771D01*
X134476190Y-139135771D02*
X134571428Y-139088152D01*
X134571428Y-139088152D02*
X134666666Y-139088152D01*
X134761905Y-139850057D02*
X135523809Y-139850057D01*
X135761905Y-139754819D02*
X135761905Y-138754819D01*
X136190476Y-139754819D02*
X136190476Y-139231009D01*
X136190476Y-139231009D02*
X136142857Y-139135771D01*
X136142857Y-139135771D02*
X136047619Y-139088152D01*
X136047619Y-139088152D02*
X135904762Y-139088152D01*
X135904762Y-139088152D02*
X135809524Y-139135771D01*
X135809524Y-139135771D02*
X135761905Y-139183390D01*
X137095238Y-139088152D02*
X137095238Y-139754819D01*
X136666667Y-139088152D02*
X136666667Y-139611961D01*
X136666667Y-139611961D02*
X136714286Y-139707200D01*
X136714286Y-139707200D02*
X136809524Y-139754819D01*
X136809524Y-139754819D02*
X136952381Y-139754819D01*
X136952381Y-139754819D02*
X137047619Y-139707200D01*
X137047619Y-139707200D02*
X137095238Y-139659580D01*
X137571429Y-139754819D02*
X137571429Y-139088152D01*
X137571429Y-139183390D02*
X137619048Y-139135771D01*
X137619048Y-139135771D02*
X137714286Y-139088152D01*
X137714286Y-139088152D02*
X137857143Y-139088152D01*
X137857143Y-139088152D02*
X137952381Y-139135771D01*
X137952381Y-139135771D02*
X138000000Y-139231009D01*
X138000000Y-139231009D02*
X138000000Y-139754819D01*
X138000000Y-139231009D02*
X138047619Y-139135771D01*
X138047619Y-139135771D02*
X138142857Y-139088152D01*
X138142857Y-139088152D02*
X138285714Y-139088152D01*
X138285714Y-139088152D02*
X138380953Y-139135771D01*
X138380953Y-139135771D02*
X138428572Y-139231009D01*
X138428572Y-139231009D02*
X138428572Y-139754819D01*
X138904762Y-139754819D02*
X138904762Y-139088152D01*
X138904762Y-138754819D02*
X138857143Y-138802438D01*
X138857143Y-138802438D02*
X138904762Y-138850057D01*
X138904762Y-138850057D02*
X138952381Y-138802438D01*
X138952381Y-138802438D02*
X138904762Y-138754819D01*
X138904762Y-138754819D02*
X138904762Y-138850057D01*
X139809523Y-139754819D02*
X139809523Y-138754819D01*
X139809523Y-139707200D02*
X139714285Y-139754819D01*
X139714285Y-139754819D02*
X139523809Y-139754819D01*
X139523809Y-139754819D02*
X139428571Y-139707200D01*
X139428571Y-139707200D02*
X139380952Y-139659580D01*
X139380952Y-139659580D02*
X139333333Y-139564342D01*
X139333333Y-139564342D02*
X139333333Y-139278628D01*
X139333333Y-139278628D02*
X139380952Y-139183390D01*
X139380952Y-139183390D02*
X139428571Y-139135771D01*
X139428571Y-139135771D02*
X139523809Y-139088152D01*
X139523809Y-139088152D02*
X139714285Y-139088152D01*
X139714285Y-139088152D02*
X139809523Y-139135771D01*
X140285714Y-139754819D02*
X140285714Y-139088152D01*
X140285714Y-138754819D02*
X140238095Y-138802438D01*
X140238095Y-138802438D02*
X140285714Y-138850057D01*
X140285714Y-138850057D02*
X140333333Y-138802438D01*
X140333333Y-138802438D02*
X140285714Y-138754819D01*
X140285714Y-138754819D02*
X140285714Y-138850057D01*
X140619047Y-139088152D02*
X140999999Y-139088152D01*
X140761904Y-138754819D02*
X140761904Y-139611961D01*
X140761904Y-139611961D02*
X140809523Y-139707200D01*
X140809523Y-139707200D02*
X140904761Y-139754819D01*
X140904761Y-139754819D02*
X140999999Y-139754819D01*
X141714285Y-139707200D02*
X141619047Y-139754819D01*
X141619047Y-139754819D02*
X141428571Y-139754819D01*
X141428571Y-139754819D02*
X141333333Y-139707200D01*
X141333333Y-139707200D02*
X141285714Y-139611961D01*
X141285714Y-139611961D02*
X141285714Y-139231009D01*
X141285714Y-139231009D02*
X141333333Y-139135771D01*
X141333333Y-139135771D02*
X141428571Y-139088152D01*
X141428571Y-139088152D02*
X141619047Y-139088152D01*
X141619047Y-139088152D02*
X141714285Y-139135771D01*
X141714285Y-139135771D02*
X141761904Y-139231009D01*
X141761904Y-139231009D02*
X141761904Y-139326247D01*
X141761904Y-139326247D02*
X141285714Y-139421485D01*
X141952381Y-139850057D02*
X142714285Y-139850057D01*
X142904762Y-139707200D02*
X143000000Y-139754819D01*
X143000000Y-139754819D02*
X143190476Y-139754819D01*
X143190476Y-139754819D02*
X143285714Y-139707200D01*
X143285714Y-139707200D02*
X143333333Y-139611961D01*
X143333333Y-139611961D02*
X143333333Y-139564342D01*
X143333333Y-139564342D02*
X143285714Y-139469104D01*
X143285714Y-139469104D02*
X143190476Y-139421485D01*
X143190476Y-139421485D02*
X143047619Y-139421485D01*
X143047619Y-139421485D02*
X142952381Y-139373866D01*
X142952381Y-139373866D02*
X142904762Y-139278628D01*
X142904762Y-139278628D02*
X142904762Y-139231009D01*
X142904762Y-139231009D02*
X142952381Y-139135771D01*
X142952381Y-139135771D02*
X143047619Y-139088152D01*
X143047619Y-139088152D02*
X143190476Y-139088152D01*
X143190476Y-139088152D02*
X143285714Y-139135771D01*
X143904762Y-139754819D02*
X143809524Y-139707200D01*
X143809524Y-139707200D02*
X143761905Y-139659580D01*
X143761905Y-139659580D02*
X143714286Y-139564342D01*
X143714286Y-139564342D02*
X143714286Y-139278628D01*
X143714286Y-139278628D02*
X143761905Y-139183390D01*
X143761905Y-139183390D02*
X143809524Y-139135771D01*
X143809524Y-139135771D02*
X143904762Y-139088152D01*
X143904762Y-139088152D02*
X144047619Y-139088152D01*
X144047619Y-139088152D02*
X144142857Y-139135771D01*
X144142857Y-139135771D02*
X144190476Y-139183390D01*
X144190476Y-139183390D02*
X144238095Y-139278628D01*
X144238095Y-139278628D02*
X144238095Y-139564342D01*
X144238095Y-139564342D02*
X144190476Y-139659580D01*
X144190476Y-139659580D02*
X144142857Y-139707200D01*
X144142857Y-139707200D02*
X144047619Y-139754819D01*
X144047619Y-139754819D02*
X143904762Y-139754819D01*
X145095238Y-139088152D02*
X145095238Y-139754819D01*
X144666667Y-139088152D02*
X144666667Y-139611961D01*
X144666667Y-139611961D02*
X144714286Y-139707200D01*
X144714286Y-139707200D02*
X144809524Y-139754819D01*
X144809524Y-139754819D02*
X144952381Y-139754819D01*
X144952381Y-139754819D02*
X145047619Y-139707200D01*
X145047619Y-139707200D02*
X145095238Y-139659580D01*
X145523810Y-139707200D02*
X145619048Y-139754819D01*
X145619048Y-139754819D02*
X145809524Y-139754819D01*
X145809524Y-139754819D02*
X145904762Y-139707200D01*
X145904762Y-139707200D02*
X145952381Y-139611961D01*
X145952381Y-139611961D02*
X145952381Y-139564342D01*
X145952381Y-139564342D02*
X145904762Y-139469104D01*
X145904762Y-139469104D02*
X145809524Y-139421485D01*
X145809524Y-139421485D02*
X145666667Y-139421485D01*
X145666667Y-139421485D02*
X145571429Y-139373866D01*
X145571429Y-139373866D02*
X145523810Y-139278628D01*
X145523810Y-139278628D02*
X145523810Y-139231009D01*
X145523810Y-139231009D02*
X145571429Y-139135771D01*
X145571429Y-139135771D02*
X145666667Y-139088152D01*
X145666667Y-139088152D02*
X145809524Y-139088152D01*
X145809524Y-139088152D02*
X145904762Y-139135771D01*
X146142858Y-139850057D02*
X146904762Y-139850057D01*
X147095239Y-139707200D02*
X147190477Y-139754819D01*
X147190477Y-139754819D02*
X147380953Y-139754819D01*
X147380953Y-139754819D02*
X147476191Y-139707200D01*
X147476191Y-139707200D02*
X147523810Y-139611961D01*
X147523810Y-139611961D02*
X147523810Y-139564342D01*
X147523810Y-139564342D02*
X147476191Y-139469104D01*
X147476191Y-139469104D02*
X147380953Y-139421485D01*
X147380953Y-139421485D02*
X147238096Y-139421485D01*
X147238096Y-139421485D02*
X147142858Y-139373866D01*
X147142858Y-139373866D02*
X147095239Y-139278628D01*
X147095239Y-139278628D02*
X147095239Y-139231009D01*
X147095239Y-139231009D02*
X147142858Y-139135771D01*
X147142858Y-139135771D02*
X147238096Y-139088152D01*
X147238096Y-139088152D02*
X147380953Y-139088152D01*
X147380953Y-139088152D02*
X147476191Y-139135771D01*
X148095239Y-139754819D02*
X148000001Y-139707200D01*
X148000001Y-139707200D02*
X147952382Y-139659580D01*
X147952382Y-139659580D02*
X147904763Y-139564342D01*
X147904763Y-139564342D02*
X147904763Y-139278628D01*
X147904763Y-139278628D02*
X147952382Y-139183390D01*
X147952382Y-139183390D02*
X148000001Y-139135771D01*
X148000001Y-139135771D02*
X148095239Y-139088152D01*
X148095239Y-139088152D02*
X148238096Y-139088152D01*
X148238096Y-139088152D02*
X148333334Y-139135771D01*
X148333334Y-139135771D02*
X148380953Y-139183390D01*
X148380953Y-139183390D02*
X148428572Y-139278628D01*
X148428572Y-139278628D02*
X148428572Y-139564342D01*
X148428572Y-139564342D02*
X148380953Y-139659580D01*
X148380953Y-139659580D02*
X148333334Y-139707200D01*
X148333334Y-139707200D02*
X148238096Y-139754819D01*
X148238096Y-139754819D02*
X148095239Y-139754819D01*
X149000001Y-139754819D02*
X148904763Y-139707200D01*
X148904763Y-139707200D02*
X148857144Y-139611961D01*
X148857144Y-139611961D02*
X148857144Y-138754819D01*
X149142859Y-139850057D02*
X149904763Y-139850057D01*
X150095240Y-138850057D02*
X150142859Y-138802438D01*
X150142859Y-138802438D02*
X150238097Y-138754819D01*
X150238097Y-138754819D02*
X150476192Y-138754819D01*
X150476192Y-138754819D02*
X150571430Y-138802438D01*
X150571430Y-138802438D02*
X150619049Y-138850057D01*
X150619049Y-138850057D02*
X150666668Y-138945295D01*
X150666668Y-138945295D02*
X150666668Y-139040533D01*
X150666668Y-139040533D02*
X150619049Y-139183390D01*
X150619049Y-139183390D02*
X150047621Y-139754819D01*
X150047621Y-139754819D02*
X150666668Y-139754819D01*
X151285716Y-138754819D02*
X151380954Y-138754819D01*
X151380954Y-138754819D02*
X151476192Y-138802438D01*
X151476192Y-138802438D02*
X151523811Y-138850057D01*
X151523811Y-138850057D02*
X151571430Y-138945295D01*
X151571430Y-138945295D02*
X151619049Y-139135771D01*
X151619049Y-139135771D02*
X151619049Y-139373866D01*
X151619049Y-139373866D02*
X151571430Y-139564342D01*
X151571430Y-139564342D02*
X151523811Y-139659580D01*
X151523811Y-139659580D02*
X151476192Y-139707200D01*
X151476192Y-139707200D02*
X151380954Y-139754819D01*
X151380954Y-139754819D02*
X151285716Y-139754819D01*
X151285716Y-139754819D02*
X151190478Y-139707200D01*
X151190478Y-139707200D02*
X151142859Y-139659580D01*
X151142859Y-139659580D02*
X151095240Y-139564342D01*
X151095240Y-139564342D02*
X151047621Y-139373866D01*
X151047621Y-139373866D02*
X151047621Y-139135771D01*
X151047621Y-139135771D02*
X151095240Y-138945295D01*
X151095240Y-138945295D02*
X151142859Y-138850057D01*
X151142859Y-138850057D02*
X151190478Y-138802438D01*
X151190478Y-138802438D02*
X151285716Y-138754819D01*
X152476192Y-139707200D02*
X152380954Y-139754819D01*
X152380954Y-139754819D02*
X152190478Y-139754819D01*
X152190478Y-139754819D02*
X152095240Y-139707200D01*
X152095240Y-139707200D02*
X152047621Y-139659580D01*
X152047621Y-139659580D02*
X152000002Y-139564342D01*
X152000002Y-139564342D02*
X152000002Y-139278628D01*
X152000002Y-139278628D02*
X152047621Y-139183390D01*
X152047621Y-139183390D02*
X152095240Y-139135771D01*
X152095240Y-139135771D02*
X152190478Y-139088152D01*
X152190478Y-139088152D02*
X152380954Y-139088152D01*
X152380954Y-139088152D02*
X152476192Y-139135771D01*
X152904764Y-139754819D02*
X152904764Y-139088152D01*
X152904764Y-139183390D02*
X152952383Y-139135771D01*
X152952383Y-139135771D02*
X153047621Y-139088152D01*
X153047621Y-139088152D02*
X153190478Y-139088152D01*
X153190478Y-139088152D02*
X153285716Y-139135771D01*
X153285716Y-139135771D02*
X153333335Y-139231009D01*
X153333335Y-139231009D02*
X153333335Y-139754819D01*
X153333335Y-139231009D02*
X153380954Y-139135771D01*
X153380954Y-139135771D02*
X153476192Y-139088152D01*
X153476192Y-139088152D02*
X153619049Y-139088152D01*
X153619049Y-139088152D02*
X153714288Y-139135771D01*
X153714288Y-139135771D02*
X153761907Y-139231009D01*
X153761907Y-139231009D02*
X153761907Y-139754819D01*
X139666666Y-57654819D02*
X139666666Y-58369104D01*
X139666666Y-58369104D02*
X139619047Y-58511961D01*
X139619047Y-58511961D02*
X139523809Y-58607200D01*
X139523809Y-58607200D02*
X139380952Y-58654819D01*
X139380952Y-58654819D02*
X139285714Y-58654819D01*
X140666666Y-58654819D02*
X140095238Y-58654819D01*
X140380952Y-58654819D02*
X140380952Y-57654819D01*
X140380952Y-57654819D02*
X140285714Y-57797676D01*
X140285714Y-57797676D02*
X140190476Y-57892914D01*
X140190476Y-57892914D02*
X140095238Y-57940533D01*
X131202381Y-52669104D02*
X131678571Y-52669104D01*
X131107143Y-52954819D02*
X131440476Y-51954819D01*
X131440476Y-51954819D02*
X131773809Y-52954819D01*
X132107143Y-52954819D02*
X132107143Y-52288152D01*
X132107143Y-52478628D02*
X132154762Y-52383390D01*
X132154762Y-52383390D02*
X132202381Y-52335771D01*
X132202381Y-52335771D02*
X132297619Y-52288152D01*
X132297619Y-52288152D02*
X132392857Y-52288152D01*
X133154762Y-52954819D02*
X133154762Y-51954819D01*
X133154762Y-52907200D02*
X133059524Y-52954819D01*
X133059524Y-52954819D02*
X132869048Y-52954819D01*
X132869048Y-52954819D02*
X132773810Y-52907200D01*
X132773810Y-52907200D02*
X132726191Y-52859580D01*
X132726191Y-52859580D02*
X132678572Y-52764342D01*
X132678572Y-52764342D02*
X132678572Y-52478628D01*
X132678572Y-52478628D02*
X132726191Y-52383390D01*
X132726191Y-52383390D02*
X132773810Y-52335771D01*
X132773810Y-52335771D02*
X132869048Y-52288152D01*
X132869048Y-52288152D02*
X133059524Y-52288152D01*
X133059524Y-52288152D02*
X133154762Y-52335771D01*
X134059524Y-52288152D02*
X134059524Y-52954819D01*
X133630953Y-52288152D02*
X133630953Y-52811961D01*
X133630953Y-52811961D02*
X133678572Y-52907200D01*
X133678572Y-52907200D02*
X133773810Y-52954819D01*
X133773810Y-52954819D02*
X133916667Y-52954819D01*
X133916667Y-52954819D02*
X134011905Y-52907200D01*
X134011905Y-52907200D02*
X134059524Y-52859580D01*
X134535715Y-52954819D02*
X134535715Y-52288152D01*
X134535715Y-51954819D02*
X134488096Y-52002438D01*
X134488096Y-52002438D02*
X134535715Y-52050057D01*
X134535715Y-52050057D02*
X134583334Y-52002438D01*
X134583334Y-52002438D02*
X134535715Y-51954819D01*
X134535715Y-51954819D02*
X134535715Y-52050057D01*
X135011905Y-52288152D02*
X135011905Y-52954819D01*
X135011905Y-52383390D02*
X135059524Y-52335771D01*
X135059524Y-52335771D02*
X135154762Y-52288152D01*
X135154762Y-52288152D02*
X135297619Y-52288152D01*
X135297619Y-52288152D02*
X135392857Y-52335771D01*
X135392857Y-52335771D02*
X135440476Y-52431009D01*
X135440476Y-52431009D02*
X135440476Y-52954819D01*
X136059524Y-52954819D02*
X135964286Y-52907200D01*
X135964286Y-52907200D02*
X135916667Y-52859580D01*
X135916667Y-52859580D02*
X135869048Y-52764342D01*
X135869048Y-52764342D02*
X135869048Y-52478628D01*
X135869048Y-52478628D02*
X135916667Y-52383390D01*
X135916667Y-52383390D02*
X135964286Y-52335771D01*
X135964286Y-52335771D02*
X136059524Y-52288152D01*
X136059524Y-52288152D02*
X136202381Y-52288152D01*
X136202381Y-52288152D02*
X136297619Y-52335771D01*
X136297619Y-52335771D02*
X136345238Y-52383390D01*
X136345238Y-52383390D02*
X136392857Y-52478628D01*
X136392857Y-52478628D02*
X136392857Y-52764342D01*
X136392857Y-52764342D02*
X136345238Y-52859580D01*
X136345238Y-52859580D02*
X136297619Y-52907200D01*
X136297619Y-52907200D02*
X136202381Y-52954819D01*
X136202381Y-52954819D02*
X136059524Y-52954819D01*
X136583334Y-53050057D02*
X137345238Y-53050057D01*
X137583334Y-52954819D02*
X137583334Y-51954819D01*
X137583334Y-51954819D02*
X137916667Y-52669104D01*
X137916667Y-52669104D02*
X138250000Y-51954819D01*
X138250000Y-51954819D02*
X138250000Y-52954819D01*
X138726191Y-52954819D02*
X138726191Y-51954819D01*
X139297619Y-52954819D02*
X138869048Y-52383390D01*
X139297619Y-51954819D02*
X138726191Y-52526247D01*
X140297619Y-52954819D02*
X139964286Y-52478628D01*
X139726191Y-52954819D02*
X139726191Y-51954819D01*
X139726191Y-51954819D02*
X140107143Y-51954819D01*
X140107143Y-51954819D02*
X140202381Y-52002438D01*
X140202381Y-52002438D02*
X140250000Y-52050057D01*
X140250000Y-52050057D02*
X140297619Y-52145295D01*
X140297619Y-52145295D02*
X140297619Y-52288152D01*
X140297619Y-52288152D02*
X140250000Y-52383390D01*
X140250000Y-52383390D02*
X140202381Y-52431009D01*
X140202381Y-52431009D02*
X140107143Y-52478628D01*
X140107143Y-52478628D02*
X139726191Y-52478628D01*
X140630953Y-51954819D02*
X140869048Y-52954819D01*
X140869048Y-52954819D02*
X141059524Y-52240533D01*
X141059524Y-52240533D02*
X141250000Y-52954819D01*
X141250000Y-52954819D02*
X141488096Y-51954819D01*
X141821429Y-52669104D02*
X142297619Y-52669104D01*
X141726191Y-52954819D02*
X142059524Y-51954819D01*
X142059524Y-51954819D02*
X142392857Y-52954819D01*
X142726191Y-52954819D02*
X142726191Y-51954819D01*
X142726191Y-51954819D02*
X143297619Y-52954819D01*
X143297619Y-52954819D02*
X143297619Y-51954819D01*
X143535715Y-53050057D02*
X144297619Y-53050057D01*
X144488096Y-52907200D02*
X144630953Y-52954819D01*
X144630953Y-52954819D02*
X144869048Y-52954819D01*
X144869048Y-52954819D02*
X144964286Y-52907200D01*
X144964286Y-52907200D02*
X145011905Y-52859580D01*
X145011905Y-52859580D02*
X145059524Y-52764342D01*
X145059524Y-52764342D02*
X145059524Y-52669104D01*
X145059524Y-52669104D02*
X145011905Y-52573866D01*
X145011905Y-52573866D02*
X144964286Y-52526247D01*
X144964286Y-52526247D02*
X144869048Y-52478628D01*
X144869048Y-52478628D02*
X144678572Y-52431009D01*
X144678572Y-52431009D02*
X144583334Y-52383390D01*
X144583334Y-52383390D02*
X144535715Y-52335771D01*
X144535715Y-52335771D02*
X144488096Y-52240533D01*
X144488096Y-52240533D02*
X144488096Y-52145295D01*
X144488096Y-52145295D02*
X144535715Y-52050057D01*
X144535715Y-52050057D02*
X144583334Y-52002438D01*
X144583334Y-52002438D02*
X144678572Y-51954819D01*
X144678572Y-51954819D02*
X144916667Y-51954819D01*
X144916667Y-51954819D02*
X145059524Y-52002438D01*
X145488096Y-52954819D02*
X145488096Y-51954819D01*
X145488096Y-52431009D02*
X146059524Y-52431009D01*
X146059524Y-52954819D02*
X146059524Y-51954819D01*
X146535715Y-52954819D02*
X146535715Y-51954819D01*
X147011905Y-52431009D02*
X147345238Y-52431009D01*
X147488095Y-52954819D02*
X147011905Y-52954819D01*
X147011905Y-52954819D02*
X147011905Y-51954819D01*
X147011905Y-51954819D02*
X147488095Y-51954819D01*
X148392857Y-52954819D02*
X147916667Y-52954819D01*
X147916667Y-52954819D02*
X147916667Y-51954819D01*
X148726191Y-52954819D02*
X148726191Y-51954819D01*
X148726191Y-51954819D02*
X148964286Y-51954819D01*
X148964286Y-51954819D02*
X149107143Y-52002438D01*
X149107143Y-52002438D02*
X149202381Y-52097676D01*
X149202381Y-52097676D02*
X149250000Y-52192914D01*
X149250000Y-52192914D02*
X149297619Y-52383390D01*
X149297619Y-52383390D02*
X149297619Y-52526247D01*
X149297619Y-52526247D02*
X149250000Y-52716723D01*
X149250000Y-52716723D02*
X149202381Y-52811961D01*
X149202381Y-52811961D02*
X149107143Y-52907200D01*
X149107143Y-52907200D02*
X148964286Y-52954819D01*
X148964286Y-52954819D02*
X148726191Y-52954819D01*
X159166666Y-72684819D02*
X159166666Y-73399104D01*
X159166666Y-73399104D02*
X159119047Y-73541961D01*
X159119047Y-73541961D02*
X159023809Y-73637200D01*
X159023809Y-73637200D02*
X158880952Y-73684819D01*
X158880952Y-73684819D02*
X158785714Y-73684819D01*
X160071428Y-73018152D02*
X160071428Y-73684819D01*
X159833333Y-72637200D02*
X159595238Y-73351485D01*
X159595238Y-73351485D02*
X160214285Y-73351485D01*
X161359580Y-87414286D02*
X161407200Y-87461905D01*
X161407200Y-87461905D02*
X161454819Y-87604762D01*
X161454819Y-87604762D02*
X161454819Y-87700000D01*
X161454819Y-87700000D02*
X161407200Y-87842857D01*
X161407200Y-87842857D02*
X161311961Y-87938095D01*
X161311961Y-87938095D02*
X161216723Y-87985714D01*
X161216723Y-87985714D02*
X161026247Y-88033333D01*
X161026247Y-88033333D02*
X160883390Y-88033333D01*
X160883390Y-88033333D02*
X160692914Y-87985714D01*
X160692914Y-87985714D02*
X160597676Y-87938095D01*
X160597676Y-87938095D02*
X160502438Y-87842857D01*
X160502438Y-87842857D02*
X160454819Y-87700000D01*
X160454819Y-87700000D02*
X160454819Y-87604762D01*
X160454819Y-87604762D02*
X160502438Y-87461905D01*
X160502438Y-87461905D02*
X160550057Y-87414286D01*
X161454819Y-86557143D02*
X160931009Y-86557143D01*
X160931009Y-86557143D02*
X160835771Y-86604762D01*
X160835771Y-86604762D02*
X160788152Y-86700000D01*
X160788152Y-86700000D02*
X160788152Y-86890476D01*
X160788152Y-86890476D02*
X160835771Y-86985714D01*
X161407200Y-86557143D02*
X161454819Y-86652381D01*
X161454819Y-86652381D02*
X161454819Y-86890476D01*
X161454819Y-86890476D02*
X161407200Y-86985714D01*
X161407200Y-86985714D02*
X161311961Y-87033333D01*
X161311961Y-87033333D02*
X161216723Y-87033333D01*
X161216723Y-87033333D02*
X161121485Y-86985714D01*
X161121485Y-86985714D02*
X161073866Y-86890476D01*
X161073866Y-86890476D02*
X161073866Y-86652381D01*
X161073866Y-86652381D02*
X161026247Y-86557143D01*
X160788152Y-86080952D02*
X161788152Y-86080952D01*
X160835771Y-86080952D02*
X160788152Y-85985714D01*
X160788152Y-85985714D02*
X160788152Y-85795238D01*
X160788152Y-85795238D02*
X160835771Y-85700000D01*
X160835771Y-85700000D02*
X160883390Y-85652381D01*
X160883390Y-85652381D02*
X160978628Y-85604762D01*
X160978628Y-85604762D02*
X161264342Y-85604762D01*
X161264342Y-85604762D02*
X161359580Y-85652381D01*
X161359580Y-85652381D02*
X161407200Y-85700000D01*
X161407200Y-85700000D02*
X161454819Y-85795238D01*
X161454819Y-85795238D02*
X161454819Y-85985714D01*
X161454819Y-85985714D02*
X161407200Y-86080952D01*
X160788152Y-85319047D02*
X160788152Y-84938095D01*
X160454819Y-85176190D02*
X161311961Y-85176190D01*
X161311961Y-85176190D02*
X161407200Y-85128571D01*
X161407200Y-85128571D02*
X161454819Y-85033333D01*
X161454819Y-85033333D02*
X161454819Y-84938095D01*
X161407200Y-84223809D02*
X161454819Y-84319047D01*
X161454819Y-84319047D02*
X161454819Y-84509523D01*
X161454819Y-84509523D02*
X161407200Y-84604761D01*
X161407200Y-84604761D02*
X161311961Y-84652380D01*
X161311961Y-84652380D02*
X160931009Y-84652380D01*
X160931009Y-84652380D02*
X160835771Y-84604761D01*
X160835771Y-84604761D02*
X160788152Y-84509523D01*
X160788152Y-84509523D02*
X160788152Y-84319047D01*
X160788152Y-84319047D02*
X160835771Y-84223809D01*
X160835771Y-84223809D02*
X160931009Y-84176190D01*
X160931009Y-84176190D02*
X161026247Y-84176190D01*
X161026247Y-84176190D02*
X161121485Y-84652380D01*
X160788152Y-83319047D02*
X161454819Y-83319047D01*
X160788152Y-83747618D02*
X161311961Y-83747618D01*
X161311961Y-83747618D02*
X161407200Y-83699999D01*
X161407200Y-83699999D02*
X161454819Y-83604761D01*
X161454819Y-83604761D02*
X161454819Y-83461904D01*
X161454819Y-83461904D02*
X161407200Y-83366666D01*
X161407200Y-83366666D02*
X161359580Y-83319047D01*
X161454819Y-82842856D02*
X160788152Y-82842856D01*
X160978628Y-82842856D02*
X160883390Y-82795237D01*
X160883390Y-82795237D02*
X160835771Y-82747618D01*
X160835771Y-82747618D02*
X160788152Y-82652380D01*
X160788152Y-82652380D02*
X160788152Y-82557142D01*
X161550057Y-82461904D02*
X161550057Y-81699999D01*
X161454819Y-81033332D02*
X160454819Y-81033332D01*
X161407200Y-81033332D02*
X161454819Y-81128570D01*
X161454819Y-81128570D02*
X161454819Y-81319046D01*
X161454819Y-81319046D02*
X161407200Y-81414284D01*
X161407200Y-81414284D02*
X161359580Y-81461903D01*
X161359580Y-81461903D02*
X161264342Y-81509522D01*
X161264342Y-81509522D02*
X160978628Y-81509522D01*
X160978628Y-81509522D02*
X160883390Y-81461903D01*
X160883390Y-81461903D02*
X160835771Y-81414284D01*
X160835771Y-81414284D02*
X160788152Y-81319046D01*
X160788152Y-81319046D02*
X160788152Y-81128570D01*
X160788152Y-81128570D02*
X160835771Y-81033332D01*
X161407200Y-80176189D02*
X161454819Y-80271427D01*
X161454819Y-80271427D02*
X161454819Y-80461903D01*
X161454819Y-80461903D02*
X161407200Y-80557141D01*
X161407200Y-80557141D02*
X161311961Y-80604760D01*
X161311961Y-80604760D02*
X160931009Y-80604760D01*
X160931009Y-80604760D02*
X160835771Y-80557141D01*
X160835771Y-80557141D02*
X160788152Y-80461903D01*
X160788152Y-80461903D02*
X160788152Y-80271427D01*
X160788152Y-80271427D02*
X160835771Y-80176189D01*
X160835771Y-80176189D02*
X160931009Y-80128570D01*
X160931009Y-80128570D02*
X161026247Y-80128570D01*
X161026247Y-80128570D02*
X161121485Y-80604760D01*
X161550057Y-79938094D02*
X161550057Y-79176189D01*
X161359580Y-78366665D02*
X161407200Y-78414284D01*
X161407200Y-78414284D02*
X161454819Y-78557141D01*
X161454819Y-78557141D02*
X161454819Y-78652379D01*
X161454819Y-78652379D02*
X161407200Y-78795236D01*
X161407200Y-78795236D02*
X161311961Y-78890474D01*
X161311961Y-78890474D02*
X161216723Y-78938093D01*
X161216723Y-78938093D02*
X161026247Y-78985712D01*
X161026247Y-78985712D02*
X160883390Y-78985712D01*
X160883390Y-78985712D02*
X160692914Y-78938093D01*
X160692914Y-78938093D02*
X160597676Y-78890474D01*
X160597676Y-78890474D02*
X160502438Y-78795236D01*
X160502438Y-78795236D02*
X160454819Y-78652379D01*
X160454819Y-78652379D02*
X160454819Y-78557141D01*
X160454819Y-78557141D02*
X160502438Y-78414284D01*
X160502438Y-78414284D02*
X160550057Y-78366665D01*
X160454819Y-77747617D02*
X160454819Y-77557141D01*
X160454819Y-77557141D02*
X160502438Y-77461903D01*
X160502438Y-77461903D02*
X160597676Y-77366665D01*
X160597676Y-77366665D02*
X160788152Y-77319046D01*
X160788152Y-77319046D02*
X161121485Y-77319046D01*
X161121485Y-77319046D02*
X161311961Y-77366665D01*
X161311961Y-77366665D02*
X161407200Y-77461903D01*
X161407200Y-77461903D02*
X161454819Y-77557141D01*
X161454819Y-77557141D02*
X161454819Y-77747617D01*
X161454819Y-77747617D02*
X161407200Y-77842855D01*
X161407200Y-77842855D02*
X161311961Y-77938093D01*
X161311961Y-77938093D02*
X161121485Y-77985712D01*
X161121485Y-77985712D02*
X160788152Y-77985712D01*
X160788152Y-77985712D02*
X160597676Y-77938093D01*
X160597676Y-77938093D02*
X160502438Y-77842855D01*
X160502438Y-77842855D02*
X160454819Y-77747617D01*
X160550057Y-76938093D02*
X160502438Y-76890474D01*
X160502438Y-76890474D02*
X160454819Y-76795236D01*
X160454819Y-76795236D02*
X160454819Y-76557141D01*
X160454819Y-76557141D02*
X160502438Y-76461903D01*
X160502438Y-76461903D02*
X160550057Y-76414284D01*
X160550057Y-76414284D02*
X160645295Y-76366665D01*
X160645295Y-76366665D02*
X160740533Y-76366665D01*
X160740533Y-76366665D02*
X160883390Y-76414284D01*
X160883390Y-76414284D02*
X161454819Y-76985712D01*
X161454819Y-76985712D02*
X161454819Y-76366665D01*
X114738095Y-133454819D02*
X114738095Y-132454819D01*
X114738095Y-132931009D02*
X115309523Y-132931009D01*
X115309523Y-133454819D02*
X115309523Y-132454819D01*
X115690476Y-132454819D02*
X116309523Y-132454819D01*
X116309523Y-132454819D02*
X115976190Y-132835771D01*
X115976190Y-132835771D02*
X116119047Y-132835771D01*
X116119047Y-132835771D02*
X116214285Y-132883390D01*
X116214285Y-132883390D02*
X116261904Y-132931009D01*
X116261904Y-132931009D02*
X116309523Y-133026247D01*
X116309523Y-133026247D02*
X116309523Y-133264342D01*
X116309523Y-133264342D02*
X116261904Y-133359580D01*
X116261904Y-133359580D02*
X116214285Y-133407200D01*
X116214285Y-133407200D02*
X116119047Y-133454819D01*
X116119047Y-133454819D02*
X115833333Y-133454819D01*
X115833333Y-133454819D02*
X115738095Y-133407200D01*
X115738095Y-133407200D02*
X115690476Y-133359580D01*
X163666666Y-104954819D02*
X163666666Y-105669104D01*
X163666666Y-105669104D02*
X163619047Y-105811961D01*
X163619047Y-105811961D02*
X163523809Y-105907200D01*
X163523809Y-105907200D02*
X163380952Y-105954819D01*
X163380952Y-105954819D02*
X163285714Y-105954819D01*
X164047619Y-104954819D02*
X164666666Y-104954819D01*
X164666666Y-104954819D02*
X164333333Y-105335771D01*
X164333333Y-105335771D02*
X164476190Y-105335771D01*
X164476190Y-105335771D02*
X164571428Y-105383390D01*
X164571428Y-105383390D02*
X164619047Y-105431009D01*
X164619047Y-105431009D02*
X164666666Y-105526247D01*
X164666666Y-105526247D02*
X164666666Y-105764342D01*
X164666666Y-105764342D02*
X164619047Y-105859580D01*
X164619047Y-105859580D02*
X164571428Y-105907200D01*
X164571428Y-105907200D02*
X164476190Y-105954819D01*
X164476190Y-105954819D02*
X164190476Y-105954819D01*
X164190476Y-105954819D02*
X164095238Y-105907200D01*
X164095238Y-105907200D02*
X164047619Y-105859580D01*
X168066666Y-111854819D02*
X168066666Y-112569104D01*
X168066666Y-112569104D02*
X168019047Y-112711961D01*
X168019047Y-112711961D02*
X167923809Y-112807200D01*
X167923809Y-112807200D02*
X167780952Y-112854819D01*
X167780952Y-112854819D02*
X167685714Y-112854819D01*
X168447619Y-111854819D02*
X169114285Y-111854819D01*
X169114285Y-111854819D02*
X168685714Y-112854819D01*
X164738095Y-48454819D02*
X164738095Y-47454819D01*
X164738095Y-47931009D02*
X165309523Y-47931009D01*
X165309523Y-48454819D02*
X165309523Y-47454819D01*
X165738095Y-47550057D02*
X165785714Y-47502438D01*
X165785714Y-47502438D02*
X165880952Y-47454819D01*
X165880952Y-47454819D02*
X166119047Y-47454819D01*
X166119047Y-47454819D02*
X166214285Y-47502438D01*
X166214285Y-47502438D02*
X166261904Y-47550057D01*
X166261904Y-47550057D02*
X166309523Y-47645295D01*
X166309523Y-47645295D02*
X166309523Y-47740533D01*
X166309523Y-47740533D02*
X166261904Y-47883390D01*
X166261904Y-47883390D02*
X165690476Y-48454819D01*
X165690476Y-48454819D02*
X166309523Y-48454819D01*
X154604819Y-60833333D02*
X155319104Y-60833333D01*
X155319104Y-60833333D02*
X155461961Y-60880952D01*
X155461961Y-60880952D02*
X155557200Y-60976190D01*
X155557200Y-60976190D02*
X155604819Y-61119047D01*
X155604819Y-61119047D02*
X155604819Y-61214285D01*
X154700057Y-60404761D02*
X154652438Y-60357142D01*
X154652438Y-60357142D02*
X154604819Y-60261904D01*
X154604819Y-60261904D02*
X154604819Y-60023809D01*
X154604819Y-60023809D02*
X154652438Y-59928571D01*
X154652438Y-59928571D02*
X154700057Y-59880952D01*
X154700057Y-59880952D02*
X154795295Y-59833333D01*
X154795295Y-59833333D02*
X154890533Y-59833333D01*
X154890533Y-59833333D02*
X155033390Y-59880952D01*
X155033390Y-59880952D02*
X155604819Y-60452380D01*
X155604819Y-60452380D02*
X155604819Y-59833333D01*
X154642855Y-63359580D02*
X154595236Y-63407200D01*
X154595236Y-63407200D02*
X154452379Y-63454819D01*
X154452379Y-63454819D02*
X154357141Y-63454819D01*
X154357141Y-63454819D02*
X154214284Y-63407200D01*
X154214284Y-63407200D02*
X154119046Y-63311961D01*
X154119046Y-63311961D02*
X154071427Y-63216723D01*
X154071427Y-63216723D02*
X154023808Y-63026247D01*
X154023808Y-63026247D02*
X154023808Y-62883390D01*
X154023808Y-62883390D02*
X154071427Y-62692914D01*
X154071427Y-62692914D02*
X154119046Y-62597676D01*
X154119046Y-62597676D02*
X154214284Y-62502438D01*
X154214284Y-62502438D02*
X154357141Y-62454819D01*
X154357141Y-62454819D02*
X154452379Y-62454819D01*
X154452379Y-62454819D02*
X154595236Y-62502438D01*
X154595236Y-62502438D02*
X154642855Y-62550057D01*
X155499998Y-63454819D02*
X155499998Y-62931009D01*
X155499998Y-62931009D02*
X155452379Y-62835771D01*
X155452379Y-62835771D02*
X155357141Y-62788152D01*
X155357141Y-62788152D02*
X155166665Y-62788152D01*
X155166665Y-62788152D02*
X155071427Y-62835771D01*
X155499998Y-63407200D02*
X155404760Y-63454819D01*
X155404760Y-63454819D02*
X155166665Y-63454819D01*
X155166665Y-63454819D02*
X155071427Y-63407200D01*
X155071427Y-63407200D02*
X155023808Y-63311961D01*
X155023808Y-63311961D02*
X155023808Y-63216723D01*
X155023808Y-63216723D02*
X155071427Y-63121485D01*
X155071427Y-63121485D02*
X155166665Y-63073866D01*
X155166665Y-63073866D02*
X155404760Y-63073866D01*
X155404760Y-63073866D02*
X155499998Y-63026247D01*
X155976189Y-62788152D02*
X155976189Y-63788152D01*
X155976189Y-62835771D02*
X156071427Y-62788152D01*
X156071427Y-62788152D02*
X156261903Y-62788152D01*
X156261903Y-62788152D02*
X156357141Y-62835771D01*
X156357141Y-62835771D02*
X156404760Y-62883390D01*
X156404760Y-62883390D02*
X156452379Y-62978628D01*
X156452379Y-62978628D02*
X156452379Y-63264342D01*
X156452379Y-63264342D02*
X156404760Y-63359580D01*
X156404760Y-63359580D02*
X156357141Y-63407200D01*
X156357141Y-63407200D02*
X156261903Y-63454819D01*
X156261903Y-63454819D02*
X156071427Y-63454819D01*
X156071427Y-63454819D02*
X155976189Y-63407200D01*
X156738094Y-62788152D02*
X157119046Y-62788152D01*
X156880951Y-62454819D02*
X156880951Y-63311961D01*
X156880951Y-63311961D02*
X156928570Y-63407200D01*
X156928570Y-63407200D02*
X157023808Y-63454819D01*
X157023808Y-63454819D02*
X157119046Y-63454819D01*
X157833332Y-63407200D02*
X157738094Y-63454819D01*
X157738094Y-63454819D02*
X157547618Y-63454819D01*
X157547618Y-63454819D02*
X157452380Y-63407200D01*
X157452380Y-63407200D02*
X157404761Y-63311961D01*
X157404761Y-63311961D02*
X157404761Y-62931009D01*
X157404761Y-62931009D02*
X157452380Y-62835771D01*
X157452380Y-62835771D02*
X157547618Y-62788152D01*
X157547618Y-62788152D02*
X157738094Y-62788152D01*
X157738094Y-62788152D02*
X157833332Y-62835771D01*
X157833332Y-62835771D02*
X157880951Y-62931009D01*
X157880951Y-62931009D02*
X157880951Y-63026247D01*
X157880951Y-63026247D02*
X157404761Y-63121485D01*
X158738094Y-62788152D02*
X158738094Y-63454819D01*
X158309523Y-62788152D02*
X158309523Y-63311961D01*
X158309523Y-63311961D02*
X158357142Y-63407200D01*
X158357142Y-63407200D02*
X158452380Y-63454819D01*
X158452380Y-63454819D02*
X158595237Y-63454819D01*
X158595237Y-63454819D02*
X158690475Y-63407200D01*
X158690475Y-63407200D02*
X158738094Y-63359580D01*
X159214285Y-63454819D02*
X159214285Y-62788152D01*
X159214285Y-62978628D02*
X159261904Y-62883390D01*
X159261904Y-62883390D02*
X159309523Y-62835771D01*
X159309523Y-62835771D02*
X159404761Y-62788152D01*
X159404761Y-62788152D02*
X159499999Y-62788152D01*
X161023809Y-63454819D02*
X161023809Y-62454819D01*
X161023809Y-63407200D02*
X160928571Y-63454819D01*
X160928571Y-63454819D02*
X160738095Y-63454819D01*
X160738095Y-63454819D02*
X160642857Y-63407200D01*
X160642857Y-63407200D02*
X160595238Y-63359580D01*
X160595238Y-63359580D02*
X160547619Y-63264342D01*
X160547619Y-63264342D02*
X160547619Y-62978628D01*
X160547619Y-62978628D02*
X160595238Y-62883390D01*
X160595238Y-62883390D02*
X160642857Y-62835771D01*
X160642857Y-62835771D02*
X160738095Y-62788152D01*
X160738095Y-62788152D02*
X160928571Y-62788152D01*
X160928571Y-62788152D02*
X161023809Y-62835771D01*
X161880952Y-63407200D02*
X161785714Y-63454819D01*
X161785714Y-63454819D02*
X161595238Y-63454819D01*
X161595238Y-63454819D02*
X161500000Y-63407200D01*
X161500000Y-63407200D02*
X161452381Y-63311961D01*
X161452381Y-63311961D02*
X161452381Y-62931009D01*
X161452381Y-62931009D02*
X161500000Y-62835771D01*
X161500000Y-62835771D02*
X161595238Y-62788152D01*
X161595238Y-62788152D02*
X161785714Y-62788152D01*
X161785714Y-62788152D02*
X161880952Y-62835771D01*
X161880952Y-62835771D02*
X161928571Y-62931009D01*
X161928571Y-62931009D02*
X161928571Y-63026247D01*
X161928571Y-63026247D02*
X161452381Y-63121485D01*
X163119048Y-62788152D02*
X163119048Y-63788152D01*
X163119048Y-62835771D02*
X163214286Y-62788152D01*
X163214286Y-62788152D02*
X163404762Y-62788152D01*
X163404762Y-62788152D02*
X163500000Y-62835771D01*
X163500000Y-62835771D02*
X163547619Y-62883390D01*
X163547619Y-62883390D02*
X163595238Y-62978628D01*
X163595238Y-62978628D02*
X163595238Y-63264342D01*
X163595238Y-63264342D02*
X163547619Y-63359580D01*
X163547619Y-63359580D02*
X163500000Y-63407200D01*
X163500000Y-63407200D02*
X163404762Y-63454819D01*
X163404762Y-63454819D02*
X163214286Y-63454819D01*
X163214286Y-63454819D02*
X163119048Y-63407200D01*
X164023810Y-63454819D02*
X164023810Y-62788152D01*
X164023810Y-62978628D02*
X164071429Y-62883390D01*
X164071429Y-62883390D02*
X164119048Y-62835771D01*
X164119048Y-62835771D02*
X164214286Y-62788152D01*
X164214286Y-62788152D02*
X164309524Y-62788152D01*
X165023810Y-63407200D02*
X164928572Y-63454819D01*
X164928572Y-63454819D02*
X164738096Y-63454819D01*
X164738096Y-63454819D02*
X164642858Y-63407200D01*
X164642858Y-63407200D02*
X164595239Y-63311961D01*
X164595239Y-63311961D02*
X164595239Y-62931009D01*
X164595239Y-62931009D02*
X164642858Y-62835771D01*
X164642858Y-62835771D02*
X164738096Y-62788152D01*
X164738096Y-62788152D02*
X164928572Y-62788152D01*
X164928572Y-62788152D02*
X165023810Y-62835771D01*
X165023810Y-62835771D02*
X165071429Y-62931009D01*
X165071429Y-62931009D02*
X165071429Y-63026247D01*
X165071429Y-63026247D02*
X164595239Y-63121485D01*
X165452382Y-63407200D02*
X165547620Y-63454819D01*
X165547620Y-63454819D02*
X165738096Y-63454819D01*
X165738096Y-63454819D02*
X165833334Y-63407200D01*
X165833334Y-63407200D02*
X165880953Y-63311961D01*
X165880953Y-63311961D02*
X165880953Y-63264342D01*
X165880953Y-63264342D02*
X165833334Y-63169104D01*
X165833334Y-63169104D02*
X165738096Y-63121485D01*
X165738096Y-63121485D02*
X165595239Y-63121485D01*
X165595239Y-63121485D02*
X165500001Y-63073866D01*
X165500001Y-63073866D02*
X165452382Y-62978628D01*
X165452382Y-62978628D02*
X165452382Y-62931009D01*
X165452382Y-62931009D02*
X165500001Y-62835771D01*
X165500001Y-62835771D02*
X165595239Y-62788152D01*
X165595239Y-62788152D02*
X165738096Y-62788152D01*
X165738096Y-62788152D02*
X165833334Y-62835771D01*
X166261906Y-63407200D02*
X166357144Y-63454819D01*
X166357144Y-63454819D02*
X166547620Y-63454819D01*
X166547620Y-63454819D02*
X166642858Y-63407200D01*
X166642858Y-63407200D02*
X166690477Y-63311961D01*
X166690477Y-63311961D02*
X166690477Y-63264342D01*
X166690477Y-63264342D02*
X166642858Y-63169104D01*
X166642858Y-63169104D02*
X166547620Y-63121485D01*
X166547620Y-63121485D02*
X166404763Y-63121485D01*
X166404763Y-63121485D02*
X166309525Y-63073866D01*
X166309525Y-63073866D02*
X166261906Y-62978628D01*
X166261906Y-62978628D02*
X166261906Y-62931009D01*
X166261906Y-62931009D02*
X166309525Y-62835771D01*
X166309525Y-62835771D02*
X166404763Y-62788152D01*
X166404763Y-62788152D02*
X166547620Y-62788152D01*
X166547620Y-62788152D02*
X166642858Y-62835771D01*
X167119049Y-63454819D02*
X167119049Y-62788152D01*
X167119049Y-62454819D02*
X167071430Y-62502438D01*
X167071430Y-62502438D02*
X167119049Y-62550057D01*
X167119049Y-62550057D02*
X167166668Y-62502438D01*
X167166668Y-62502438D02*
X167119049Y-62454819D01*
X167119049Y-62454819D02*
X167119049Y-62550057D01*
X167738096Y-63454819D02*
X167642858Y-63407200D01*
X167642858Y-63407200D02*
X167595239Y-63359580D01*
X167595239Y-63359580D02*
X167547620Y-63264342D01*
X167547620Y-63264342D02*
X167547620Y-62978628D01*
X167547620Y-62978628D02*
X167595239Y-62883390D01*
X167595239Y-62883390D02*
X167642858Y-62835771D01*
X167642858Y-62835771D02*
X167738096Y-62788152D01*
X167738096Y-62788152D02*
X167880953Y-62788152D01*
X167880953Y-62788152D02*
X167976191Y-62835771D01*
X167976191Y-62835771D02*
X168023810Y-62883390D01*
X168023810Y-62883390D02*
X168071429Y-62978628D01*
X168071429Y-62978628D02*
X168071429Y-63264342D01*
X168071429Y-63264342D02*
X168023810Y-63359580D01*
X168023810Y-63359580D02*
X167976191Y-63407200D01*
X167976191Y-63407200D02*
X167880953Y-63454819D01*
X167880953Y-63454819D02*
X167738096Y-63454819D01*
X168500001Y-62788152D02*
X168500001Y-63454819D01*
X168500001Y-62883390D02*
X168547620Y-62835771D01*
X168547620Y-62835771D02*
X168642858Y-62788152D01*
X168642858Y-62788152D02*
X168785715Y-62788152D01*
X168785715Y-62788152D02*
X168880953Y-62835771D01*
X168880953Y-62835771D02*
X168928572Y-62931009D01*
X168928572Y-62931009D02*
X168928572Y-63454819D01*
X120216666Y-56454819D02*
X120216666Y-57169104D01*
X120216666Y-57169104D02*
X120169047Y-57311961D01*
X120169047Y-57311961D02*
X120073809Y-57407200D01*
X120073809Y-57407200D02*
X119930952Y-57454819D01*
X119930952Y-57454819D02*
X119835714Y-57454819D01*
X120740476Y-57454819D02*
X120930952Y-57454819D01*
X120930952Y-57454819D02*
X121026190Y-57407200D01*
X121026190Y-57407200D02*
X121073809Y-57359580D01*
X121073809Y-57359580D02*
X121169047Y-57216723D01*
X121169047Y-57216723D02*
X121216666Y-57026247D01*
X121216666Y-57026247D02*
X121216666Y-56645295D01*
X121216666Y-56645295D02*
X121169047Y-56550057D01*
X121169047Y-56550057D02*
X121121428Y-56502438D01*
X121121428Y-56502438D02*
X121026190Y-56454819D01*
X121026190Y-56454819D02*
X120835714Y-56454819D01*
X120835714Y-56454819D02*
X120740476Y-56502438D01*
X120740476Y-56502438D02*
X120692857Y-56550057D01*
X120692857Y-56550057D02*
X120645238Y-56645295D01*
X120645238Y-56645295D02*
X120645238Y-56883390D01*
X120645238Y-56883390D02*
X120692857Y-56978628D01*
X120692857Y-56978628D02*
X120740476Y-57026247D01*
X120740476Y-57026247D02*
X120835714Y-57073866D01*
X120835714Y-57073866D02*
X121026190Y-57073866D01*
X121026190Y-57073866D02*
X121121428Y-57026247D01*
X121121428Y-57026247D02*
X121169047Y-56978628D01*
X121169047Y-56978628D02*
X121216666Y-56883390D01*
X124454819Y-68619048D02*
X123454819Y-68619048D01*
X123835771Y-68619048D02*
X123788152Y-68523810D01*
X123788152Y-68523810D02*
X123788152Y-68333334D01*
X123788152Y-68333334D02*
X123835771Y-68238096D01*
X123835771Y-68238096D02*
X123883390Y-68190477D01*
X123883390Y-68190477D02*
X123978628Y-68142858D01*
X123978628Y-68142858D02*
X124264342Y-68142858D01*
X124264342Y-68142858D02*
X124359580Y-68190477D01*
X124359580Y-68190477D02*
X124407200Y-68238096D01*
X124407200Y-68238096D02*
X124454819Y-68333334D01*
X124454819Y-68333334D02*
X124454819Y-68523810D01*
X124454819Y-68523810D02*
X124407200Y-68619048D01*
X124454819Y-67285715D02*
X123931009Y-67285715D01*
X123931009Y-67285715D02*
X123835771Y-67333334D01*
X123835771Y-67333334D02*
X123788152Y-67428572D01*
X123788152Y-67428572D02*
X123788152Y-67619048D01*
X123788152Y-67619048D02*
X123835771Y-67714286D01*
X124407200Y-67285715D02*
X124454819Y-67380953D01*
X124454819Y-67380953D02*
X124454819Y-67619048D01*
X124454819Y-67619048D02*
X124407200Y-67714286D01*
X124407200Y-67714286D02*
X124311961Y-67761905D01*
X124311961Y-67761905D02*
X124216723Y-67761905D01*
X124216723Y-67761905D02*
X124121485Y-67714286D01*
X124121485Y-67714286D02*
X124073866Y-67619048D01*
X124073866Y-67619048D02*
X124073866Y-67380953D01*
X124073866Y-67380953D02*
X124026247Y-67285715D01*
X123788152Y-66952381D02*
X123788152Y-66571429D01*
X123454819Y-66809524D02*
X124311961Y-66809524D01*
X124311961Y-66809524D02*
X124407200Y-66761905D01*
X124407200Y-66761905D02*
X124454819Y-66666667D01*
X124454819Y-66666667D02*
X124454819Y-66571429D01*
X123788152Y-66380952D02*
X123788152Y-66000000D01*
X123454819Y-66238095D02*
X124311961Y-66238095D01*
X124311961Y-66238095D02*
X124407200Y-66190476D01*
X124407200Y-66190476D02*
X124454819Y-66095238D01*
X124454819Y-66095238D02*
X124454819Y-66000000D01*
X124407200Y-65285714D02*
X124454819Y-65380952D01*
X124454819Y-65380952D02*
X124454819Y-65571428D01*
X124454819Y-65571428D02*
X124407200Y-65666666D01*
X124407200Y-65666666D02*
X124311961Y-65714285D01*
X124311961Y-65714285D02*
X123931009Y-65714285D01*
X123931009Y-65714285D02*
X123835771Y-65666666D01*
X123835771Y-65666666D02*
X123788152Y-65571428D01*
X123788152Y-65571428D02*
X123788152Y-65380952D01*
X123788152Y-65380952D02*
X123835771Y-65285714D01*
X123835771Y-65285714D02*
X123931009Y-65238095D01*
X123931009Y-65238095D02*
X124026247Y-65238095D01*
X124026247Y-65238095D02*
X124121485Y-65714285D01*
X124454819Y-64809523D02*
X123788152Y-64809523D01*
X123978628Y-64809523D02*
X123883390Y-64761904D01*
X123883390Y-64761904D02*
X123835771Y-64714285D01*
X123835771Y-64714285D02*
X123788152Y-64619047D01*
X123788152Y-64619047D02*
X123788152Y-64523809D01*
X123788152Y-64285713D02*
X124454819Y-64047618D01*
X123788152Y-63809523D02*
X124454819Y-64047618D01*
X124454819Y-64047618D02*
X124692914Y-64142856D01*
X124692914Y-64142856D02*
X124740533Y-64190475D01*
X124740533Y-64190475D02*
X124788152Y-64285713D01*
X124550057Y-63666666D02*
X124550057Y-62904761D01*
X124454819Y-62666665D02*
X123788152Y-62666665D01*
X123454819Y-62666665D02*
X123502438Y-62714284D01*
X123502438Y-62714284D02*
X123550057Y-62666665D01*
X123550057Y-62666665D02*
X123502438Y-62619046D01*
X123502438Y-62619046D02*
X123454819Y-62666665D01*
X123454819Y-62666665D02*
X123550057Y-62666665D01*
X123788152Y-62190475D02*
X124454819Y-62190475D01*
X123883390Y-62190475D02*
X123835771Y-62142856D01*
X123835771Y-62142856D02*
X123788152Y-62047618D01*
X123788152Y-62047618D02*
X123788152Y-61904761D01*
X123788152Y-61904761D02*
X123835771Y-61809523D01*
X123835771Y-61809523D02*
X123931009Y-61761904D01*
X123931009Y-61761904D02*
X124454819Y-61761904D01*
X123788152Y-61285713D02*
X124788152Y-61285713D01*
X123835771Y-61285713D02*
X123788152Y-61190475D01*
X123788152Y-61190475D02*
X123788152Y-60999999D01*
X123788152Y-60999999D02*
X123835771Y-60904761D01*
X123835771Y-60904761D02*
X123883390Y-60857142D01*
X123883390Y-60857142D02*
X123978628Y-60809523D01*
X123978628Y-60809523D02*
X124264342Y-60809523D01*
X124264342Y-60809523D02*
X124359580Y-60857142D01*
X124359580Y-60857142D02*
X124407200Y-60904761D01*
X124407200Y-60904761D02*
X124454819Y-60999999D01*
X124454819Y-60999999D02*
X124454819Y-61190475D01*
X124454819Y-61190475D02*
X124407200Y-61285713D01*
X123788152Y-59952380D02*
X124454819Y-59952380D01*
X123788152Y-60380951D02*
X124311961Y-60380951D01*
X124311961Y-60380951D02*
X124407200Y-60333332D01*
X124407200Y-60333332D02*
X124454819Y-60238094D01*
X124454819Y-60238094D02*
X124454819Y-60095237D01*
X124454819Y-60095237D02*
X124407200Y-59999999D01*
X124407200Y-59999999D02*
X124359580Y-59952380D01*
X123788152Y-59619046D02*
X123788152Y-59238094D01*
X123454819Y-59476189D02*
X124311961Y-59476189D01*
X124311961Y-59476189D02*
X124407200Y-59428570D01*
X124407200Y-59428570D02*
X124454819Y-59333332D01*
X124454819Y-59333332D02*
X124454819Y-59238094D01*
X165238095Y-132454819D02*
X165238095Y-131454819D01*
X165238095Y-131931009D02*
X165809523Y-131931009D01*
X165809523Y-132454819D02*
X165809523Y-131454819D01*
X166714285Y-131788152D02*
X166714285Y-132454819D01*
X166476190Y-131407200D02*
X166238095Y-132121485D01*
X166238095Y-132121485D02*
X166857142Y-132121485D01*
D12*
%TO.C,R2*%
X118670000Y-89270000D02*
X118670000Y-91870000D01*
X118670000Y-89270000D02*
X121330000Y-89270000D01*
X118670000Y-91870000D02*
X121330000Y-91870000D01*
X120000000Y-86670000D02*
X121330000Y-86670000D01*
X121330000Y-86670000D02*
X121330000Y-88000000D01*
X121330000Y-89270000D02*
X121330000Y-91870000D01*
%TO.C,J8*%
X119390000Y-116610000D02*
X119390000Y-117860000D01*
X119390000Y-117860000D02*
X120640000Y-117860000D01*
X119490000Y-115800000D02*
X119490000Y-116100000D01*
X119490000Y-116100000D02*
X119690000Y-116100000D01*
X119590000Y-115800000D02*
X119590000Y-116100000D01*
X119690000Y-107440000D02*
X119690000Y-117560000D01*
X119690000Y-115000000D02*
X120300000Y-115000000D01*
X119690000Y-115800000D02*
X119490000Y-115800000D01*
X119690000Y-117560000D02*
X124410000Y-117560000D01*
X120300000Y-108050000D02*
X120300000Y-110000000D01*
X120300000Y-110000000D02*
X119690000Y-110000000D01*
X120300000Y-115000000D02*
X120300000Y-116950000D01*
X120300000Y-116950000D02*
X123800000Y-116950000D01*
X121000000Y-107440000D02*
X121000000Y-108050000D01*
X121000000Y-117560000D02*
X121000000Y-116950000D01*
X122300000Y-107440000D02*
X122300000Y-108050000D01*
X122300000Y-117560000D02*
X122300000Y-116950000D01*
X123300000Y-110400000D02*
X123800000Y-110400000D01*
X123300000Y-110600000D02*
X123300000Y-110400000D01*
X123300000Y-112400000D02*
X123800000Y-112400000D01*
X123300000Y-112600000D02*
X123300000Y-112400000D01*
X123300000Y-114400000D02*
X123800000Y-114400000D01*
X123300000Y-114600000D02*
X123300000Y-114400000D01*
X123800000Y-108050000D02*
X120300000Y-108050000D01*
X123800000Y-110500000D02*
X123300000Y-110500000D01*
X123800000Y-110600000D02*
X123300000Y-110600000D01*
X123800000Y-112500000D02*
X123300000Y-112500000D01*
X123800000Y-112600000D02*
X123300000Y-112600000D01*
X123800000Y-114500000D02*
X123300000Y-114500000D01*
X123800000Y-114600000D02*
X123300000Y-114600000D01*
X123800000Y-116950000D02*
X123800000Y-108050000D01*
X124410000Y-107440000D02*
X119690000Y-107440000D01*
X124410000Y-117560000D02*
X124410000Y-107440000D01*
%TO.C,J5*%
X112790000Y-118940000D02*
X124510000Y-118940000D01*
X112790000Y-124000000D02*
X112790000Y-118940000D01*
X112790000Y-124000000D02*
X112790000Y-129060000D01*
X112790000Y-129060000D02*
X124510000Y-129060000D01*
X113400000Y-121250000D02*
X113400000Y-121750000D01*
X113400000Y-121750000D02*
X118900000Y-121750000D01*
X113400000Y-123750000D02*
X113400000Y-124250000D01*
X113400000Y-124250000D02*
X118900000Y-124250000D01*
X113400000Y-126250000D02*
X113400000Y-126750000D01*
X113400000Y-126750000D02*
X118900000Y-126750000D01*
X118900000Y-121250000D02*
X113400000Y-121250000D01*
X118900000Y-121750000D02*
X118900000Y-121250000D01*
X118900000Y-123750000D02*
X113400000Y-123750000D01*
X118900000Y-124250000D02*
X118900000Y-123750000D01*
X118900000Y-126250000D02*
X113400000Y-126250000D01*
X118900000Y-126750000D02*
X118900000Y-126250000D01*
X122000000Y-121500000D02*
X122600000Y-121200000D01*
X122600000Y-121200000D02*
X122600000Y-121800000D01*
X122600000Y-121800000D02*
X122000000Y-121500000D01*
X124510000Y-118940000D02*
X124510000Y-120360000D01*
X124510000Y-120360000D02*
X120010000Y-120360000D01*
X124510000Y-127640000D02*
X120010000Y-127640000D01*
X124510000Y-129060000D02*
X124510000Y-127640000D01*
%TO.C,J10*%
X119390000Y-105110000D02*
X119390000Y-106360000D01*
X119390000Y-106360000D02*
X120640000Y-106360000D01*
X119490000Y-104300000D02*
X119490000Y-104600000D01*
X119490000Y-104600000D02*
X119690000Y-104600000D01*
X119590000Y-104300000D02*
X119590000Y-104600000D01*
X119690000Y-95940000D02*
X119690000Y-106060000D01*
X119690000Y-103500000D02*
X120300000Y-103500000D01*
X119690000Y-104300000D02*
X119490000Y-104300000D01*
X119690000Y-106060000D02*
X124410000Y-106060000D01*
X120300000Y-96550000D02*
X120300000Y-98500000D01*
X120300000Y-98500000D02*
X119690000Y-98500000D01*
X120300000Y-103500000D02*
X120300000Y-105450000D01*
X120300000Y-105450000D02*
X123800000Y-105450000D01*
X121000000Y-95940000D02*
X121000000Y-96550000D01*
X121000000Y-106060000D02*
X121000000Y-105450000D01*
X122300000Y-95940000D02*
X122300000Y-96550000D01*
X122300000Y-106060000D02*
X122300000Y-105450000D01*
X123300000Y-98900000D02*
X123800000Y-98900000D01*
X123300000Y-99100000D02*
X123300000Y-98900000D01*
X123300000Y-100900000D02*
X123800000Y-100900000D01*
X123300000Y-101100000D02*
X123300000Y-100900000D01*
X123300000Y-102900000D02*
X123800000Y-102900000D01*
X123300000Y-103100000D02*
X123300000Y-102900000D01*
X123800000Y-96550000D02*
X120300000Y-96550000D01*
X123800000Y-99000000D02*
X123300000Y-99000000D01*
X123800000Y-99100000D02*
X123300000Y-99100000D01*
X123800000Y-101000000D02*
X123300000Y-101000000D01*
X123800000Y-101100000D02*
X123300000Y-101100000D01*
X123800000Y-103000000D02*
X123300000Y-103000000D01*
X123800000Y-103100000D02*
X123300000Y-103100000D01*
X123800000Y-105450000D02*
X123800000Y-96550000D01*
X124410000Y-95940000D02*
X119690000Y-95940000D01*
X124410000Y-106060000D02*
X124410000Y-95940000D01*
%TO.C,J6*%
X136440000Y-126490000D02*
X137860000Y-126490000D01*
X136440000Y-138210000D02*
X136440000Y-126490000D01*
X137860000Y-126490000D02*
X137860000Y-130990000D01*
X138700000Y-128400000D02*
X139300000Y-128400000D01*
X138750000Y-132100000D02*
X138750000Y-137600000D01*
X138750000Y-137600000D02*
X139250000Y-137600000D01*
X139000000Y-129000000D02*
X138700000Y-128400000D01*
X139250000Y-132100000D02*
X138750000Y-132100000D01*
X139250000Y-137600000D02*
X139250000Y-132100000D01*
X139300000Y-128400000D02*
X139000000Y-129000000D01*
X141250000Y-132100000D02*
X141250000Y-137600000D01*
X141250000Y-137600000D02*
X141750000Y-137600000D01*
X141500000Y-138210000D02*
X136440000Y-138210000D01*
X141500000Y-138210000D02*
X146560000Y-138210000D01*
X141750000Y-132100000D02*
X141250000Y-132100000D01*
X141750000Y-137600000D02*
X141750000Y-132100000D01*
X143750000Y-132100000D02*
X143750000Y-137600000D01*
X143750000Y-137600000D02*
X144250000Y-137600000D01*
X144250000Y-132100000D02*
X143750000Y-132100000D01*
X144250000Y-137600000D02*
X144250000Y-132100000D01*
X145140000Y-126490000D02*
X145140000Y-130990000D01*
X146560000Y-126490000D02*
X145140000Y-126490000D01*
X146560000Y-138210000D02*
X146560000Y-126490000D01*
%TO.C,C1*%
X113670000Y-82770000D02*
X113670000Y-85370000D01*
X113670000Y-82770000D02*
X116330000Y-82770000D01*
X113670000Y-85370000D02*
X116330000Y-85370000D01*
X115000000Y-80170000D02*
X116330000Y-80170000D01*
X116330000Y-80170000D02*
X116330000Y-81500000D01*
X116330000Y-82770000D02*
X116330000Y-85370000D01*
%TO.C,R1*%
X118670000Y-76770000D02*
X118670000Y-79370000D01*
X118670000Y-76770000D02*
X121330000Y-76770000D01*
X118670000Y-79370000D02*
X121330000Y-79370000D01*
X120000000Y-74170000D02*
X121330000Y-74170000D01*
X121330000Y-74170000D02*
X121330000Y-75500000D01*
X121330000Y-76770000D02*
X121330000Y-79370000D01*
D13*
%TO.C,J1*%
X127750000Y-59000000D02*
X127750000Y-122750000D01*
X130000000Y-124450000D02*
X150500000Y-124450000D01*
X136200000Y-55450000D02*
X136200000Y-56750000D01*
X136200000Y-56750000D02*
X130000000Y-56750000D01*
X144300000Y-55450000D02*
X136200000Y-55450000D01*
X144300000Y-56750000D02*
X144300000Y-55450000D01*
X150500000Y-56750000D02*
X144300000Y-56750000D01*
X150500000Y-56750000D02*
X150550000Y-56750000D01*
X152750000Y-122750000D02*
X152750000Y-59000000D01*
X127750000Y-59000000D02*
G75*
G02*
X130000000Y-56750000I2250001J-1D01*
G01*
X130000000Y-124450000D02*
G75*
G02*
X127750000Y-122750000I-275000J1975000D01*
G01*
X150500000Y-56750000D02*
G75*
G02*
X152750000Y-59000000I0J-2250000D01*
G01*
X152750000Y-122750000D02*
G75*
G02*
X150500000Y-124450000I-1975000J275000D01*
G01*
D12*
%TO.C,J4*%
X157170000Y-77270000D02*
X157170000Y-90030000D01*
X157170000Y-77270000D02*
X159830000Y-77270000D01*
X157170000Y-90030000D02*
X159830000Y-90030000D01*
X158500000Y-74670000D02*
X159830000Y-74670000D01*
X159830000Y-74670000D02*
X159830000Y-76000000D01*
X159830000Y-77270000D02*
X159830000Y-90030000D01*
%TO.C,J3*%
X162670000Y-93670000D02*
X164000000Y-93670000D01*
X162670000Y-95000000D02*
X162670000Y-93670000D01*
X162670000Y-96270000D02*
X162670000Y-103950000D01*
X162670000Y-96270000D02*
X165330000Y-96270000D01*
X162670000Y-103950000D02*
X165330000Y-103950000D01*
X165330000Y-96270000D02*
X165330000Y-103950000D01*
%TO.C,J7*%
X155740000Y-107440000D02*
X155740000Y-108860000D01*
X155740000Y-108860000D02*
X160240000Y-108860000D01*
X155740000Y-116140000D02*
X160240000Y-116140000D01*
X155740000Y-117560000D02*
X155740000Y-116140000D01*
X157650000Y-114700000D02*
X158250000Y-115000000D01*
X157650000Y-115300000D02*
X157650000Y-114700000D01*
X158250000Y-115000000D02*
X157650000Y-115300000D01*
X161350000Y-109750000D02*
X161350000Y-110250000D01*
X161350000Y-110250000D02*
X166850000Y-110250000D01*
X161350000Y-112250000D02*
X161350000Y-112750000D01*
X161350000Y-112750000D02*
X166850000Y-112750000D01*
X161350000Y-114750000D02*
X161350000Y-115250000D01*
X161350000Y-115250000D02*
X166850000Y-115250000D01*
X166850000Y-109750000D02*
X161350000Y-109750000D01*
X166850000Y-110250000D02*
X166850000Y-109750000D01*
X166850000Y-112250000D02*
X161350000Y-112250000D01*
X166850000Y-112750000D02*
X166850000Y-112250000D01*
X166850000Y-114750000D02*
X161350000Y-114750000D01*
X166850000Y-115250000D02*
X166850000Y-114750000D01*
X167460000Y-107440000D02*
X155740000Y-107440000D01*
X167460000Y-112500000D02*
X167460000Y-107440000D01*
X167460000Y-112500000D02*
X167460000Y-117560000D01*
X167460000Y-117560000D02*
X155740000Y-117560000D01*
%TO.C,J2*%
X156590000Y-59170000D02*
X157920000Y-59170000D01*
X156590000Y-60500000D02*
X156590000Y-59170000D01*
X159190000Y-59170000D02*
X166870000Y-59170000D01*
X159190000Y-61830000D02*
X159190000Y-59170000D01*
X159190000Y-61830000D02*
X166870000Y-61830000D01*
X166870000Y-61830000D02*
X166870000Y-59170000D01*
%TO.C,J9*%
X117890000Y-68110000D02*
X117890000Y-69360000D01*
X117890000Y-69360000D02*
X119140000Y-69360000D01*
X117990000Y-67300000D02*
X117990000Y-67600000D01*
X117990000Y-67600000D02*
X118190000Y-67600000D01*
X118090000Y-67300000D02*
X118090000Y-67600000D01*
X118190000Y-58940000D02*
X118190000Y-69060000D01*
X118190000Y-66500000D02*
X118800000Y-66500000D01*
X118190000Y-67300000D02*
X117990000Y-67300000D01*
X118190000Y-69060000D02*
X122910000Y-69060000D01*
X118800000Y-59550000D02*
X118800000Y-61500000D01*
X118800000Y-61500000D02*
X118190000Y-61500000D01*
X118800000Y-66500000D02*
X118800000Y-68450000D01*
X118800000Y-68450000D02*
X122300000Y-68450000D01*
X119500000Y-58940000D02*
X119500000Y-59550000D01*
X119500000Y-69060000D02*
X119500000Y-68450000D01*
X120800000Y-58940000D02*
X120800000Y-59550000D01*
X120800000Y-69060000D02*
X120800000Y-68450000D01*
X121800000Y-61900000D02*
X122300000Y-61900000D01*
X121800000Y-62100000D02*
X121800000Y-61900000D01*
X121800000Y-63900000D02*
X122300000Y-63900000D01*
X121800000Y-64100000D02*
X121800000Y-63900000D01*
X121800000Y-65900000D02*
X122300000Y-65900000D01*
X121800000Y-66100000D02*
X121800000Y-65900000D01*
X122300000Y-59550000D02*
X118800000Y-59550000D01*
X122300000Y-62000000D02*
X121800000Y-62000000D01*
X122300000Y-62100000D02*
X121800000Y-62100000D01*
X122300000Y-64000000D02*
X121800000Y-64000000D01*
X122300000Y-64100000D02*
X121800000Y-64100000D01*
X122300000Y-66000000D02*
X121800000Y-66000000D01*
X122300000Y-66100000D02*
X121800000Y-66100000D01*
X122300000Y-68450000D02*
X122300000Y-59550000D01*
X122910000Y-58940000D02*
X118190000Y-58940000D01*
X122910000Y-69060000D02*
X122910000Y-58940000D01*
%TD*%
M02*
