%TF.GenerationSoftware,KiCad,Pcbnew,9.0.0*%
%TF.CreationDate,2025-03-11T09:25:04+01:00*%
%TF.ProjectId,farming_project,6661726d-696e-4675-9f70-726f6a656374,rev?*%
%TF.SameCoordinates,Original*%
%TF.FileFunction,AssemblyDrawing,Top*%
%FSLAX46Y46*%
G04 Gerber Fmt 4.6, Leading zero omitted, Abs format (unit mm)*
G04 Created by KiCad (PCBNEW 9.0.0) date 2025-03-11 09:25:04*
%MOMM*%
%LPD*%
G01*
G04 APERTURE LIST*
%ADD10C,0.150000*%
%ADD11C,0.100000*%
%ADD12C,0.127000*%
G04 APERTURE END LIST*
D10*
X120454819Y-89436666D02*
X119978628Y-89769999D01*
X120454819Y-90008094D02*
X119454819Y-90008094D01*
X119454819Y-90008094D02*
X119454819Y-89627142D01*
X119454819Y-89627142D02*
X119502438Y-89531904D01*
X119502438Y-89531904D02*
X119550057Y-89484285D01*
X119550057Y-89484285D02*
X119645295Y-89436666D01*
X119645295Y-89436666D02*
X119788152Y-89436666D01*
X119788152Y-89436666D02*
X119883390Y-89484285D01*
X119883390Y-89484285D02*
X119931009Y-89531904D01*
X119931009Y-89531904D02*
X119978628Y-89627142D01*
X119978628Y-89627142D02*
X119978628Y-90008094D01*
X119550057Y-89055713D02*
X119502438Y-89008094D01*
X119502438Y-89008094D02*
X119454819Y-88912856D01*
X119454819Y-88912856D02*
X119454819Y-88674761D01*
X119454819Y-88674761D02*
X119502438Y-88579523D01*
X119502438Y-88579523D02*
X119550057Y-88531904D01*
X119550057Y-88531904D02*
X119645295Y-88484285D01*
X119645295Y-88484285D02*
X119740533Y-88484285D01*
X119740533Y-88484285D02*
X119883390Y-88531904D01*
X119883390Y-88531904D02*
X120454819Y-89103332D01*
X120454819Y-89103332D02*
X120454819Y-88484285D01*
X122454819Y-112833333D02*
X123169104Y-112833333D01*
X123169104Y-112833333D02*
X123311961Y-112880952D01*
X123311961Y-112880952D02*
X123407200Y-112976190D01*
X123407200Y-112976190D02*
X123454819Y-113119047D01*
X123454819Y-113119047D02*
X123454819Y-113214285D01*
X122883390Y-112214285D02*
X122835771Y-112309523D01*
X122835771Y-112309523D02*
X122788152Y-112357142D01*
X122788152Y-112357142D02*
X122692914Y-112404761D01*
X122692914Y-112404761D02*
X122645295Y-112404761D01*
X122645295Y-112404761D02*
X122550057Y-112357142D01*
X122550057Y-112357142D02*
X122502438Y-112309523D01*
X122502438Y-112309523D02*
X122454819Y-112214285D01*
X122454819Y-112214285D02*
X122454819Y-112023809D01*
X122454819Y-112023809D02*
X122502438Y-111928571D01*
X122502438Y-111928571D02*
X122550057Y-111880952D01*
X122550057Y-111880952D02*
X122645295Y-111833333D01*
X122645295Y-111833333D02*
X122692914Y-111833333D01*
X122692914Y-111833333D02*
X122788152Y-111880952D01*
X122788152Y-111880952D02*
X122835771Y-111928571D01*
X122835771Y-111928571D02*
X122883390Y-112023809D01*
X122883390Y-112023809D02*
X122883390Y-112214285D01*
X122883390Y-112214285D02*
X122931009Y-112309523D01*
X122931009Y-112309523D02*
X122978628Y-112357142D01*
X122978628Y-112357142D02*
X123073866Y-112404761D01*
X123073866Y-112404761D02*
X123264342Y-112404761D01*
X123264342Y-112404761D02*
X123359580Y-112357142D01*
X123359580Y-112357142D02*
X123407200Y-112309523D01*
X123407200Y-112309523D02*
X123454819Y-112214285D01*
X123454819Y-112214285D02*
X123454819Y-112023809D01*
X123454819Y-112023809D02*
X123407200Y-111928571D01*
X123407200Y-111928571D02*
X123359580Y-111880952D01*
X123359580Y-111880952D02*
X123264342Y-111833333D01*
X123264342Y-111833333D02*
X123073866Y-111833333D01*
X123073866Y-111833333D02*
X122978628Y-111880952D01*
X122978628Y-111880952D02*
X122931009Y-111928571D01*
X122931009Y-111928571D02*
X122883390Y-112023809D01*
X118104819Y-124333333D02*
X118819104Y-124333333D01*
X118819104Y-124333333D02*
X118961961Y-124380952D01*
X118961961Y-124380952D02*
X119057200Y-124476190D01*
X119057200Y-124476190D02*
X119104819Y-124619047D01*
X119104819Y-124619047D02*
X119104819Y-124714285D01*
X118104819Y-123380952D02*
X118104819Y-123857142D01*
X118104819Y-123857142D02*
X118581009Y-123904761D01*
X118581009Y-123904761D02*
X118533390Y-123857142D01*
X118533390Y-123857142D02*
X118485771Y-123761904D01*
X118485771Y-123761904D02*
X118485771Y-123523809D01*
X118485771Y-123523809D02*
X118533390Y-123428571D01*
X118533390Y-123428571D02*
X118581009Y-123380952D01*
X118581009Y-123380952D02*
X118676247Y-123333333D01*
X118676247Y-123333333D02*
X118914342Y-123333333D01*
X118914342Y-123333333D02*
X119009580Y-123380952D01*
X119009580Y-123380952D02*
X119057200Y-123428571D01*
X119057200Y-123428571D02*
X119104819Y-123523809D01*
X119104819Y-123523809D02*
X119104819Y-123761904D01*
X119104819Y-123761904D02*
X119057200Y-123857142D01*
X119057200Y-123857142D02*
X119009580Y-123904761D01*
X120954819Y-104809523D02*
X121669104Y-104809523D01*
X121669104Y-104809523D02*
X121811961Y-104857142D01*
X121811961Y-104857142D02*
X121907200Y-104952380D01*
X121907200Y-104952380D02*
X121954819Y-105095237D01*
X121954819Y-105095237D02*
X121954819Y-105190475D01*
X121954819Y-103809523D02*
X121954819Y-104380951D01*
X121954819Y-104095237D02*
X120954819Y-104095237D01*
X120954819Y-104095237D02*
X121097676Y-104190475D01*
X121097676Y-104190475D02*
X121192914Y-104285713D01*
X121192914Y-104285713D02*
X121240533Y-104380951D01*
X120954819Y-103190475D02*
X120954819Y-103095237D01*
X120954819Y-103095237D02*
X121002438Y-102999999D01*
X121002438Y-102999999D02*
X121050057Y-102952380D01*
X121050057Y-102952380D02*
X121145295Y-102904761D01*
X121145295Y-102904761D02*
X121335771Y-102857142D01*
X121335771Y-102857142D02*
X121573866Y-102857142D01*
X121573866Y-102857142D02*
X121764342Y-102904761D01*
X121764342Y-102904761D02*
X121859580Y-102952380D01*
X121859580Y-102952380D02*
X121907200Y-102999999D01*
X121907200Y-102999999D02*
X121954819Y-103095237D01*
X121954819Y-103095237D02*
X121954819Y-103190475D01*
X121954819Y-103190475D02*
X121907200Y-103285713D01*
X121907200Y-103285713D02*
X121859580Y-103333332D01*
X121859580Y-103333332D02*
X121764342Y-103380951D01*
X121764342Y-103380951D02*
X121573866Y-103428570D01*
X121573866Y-103428570D02*
X121335771Y-103428570D01*
X121335771Y-103428570D02*
X121145295Y-103380951D01*
X121145295Y-103380951D02*
X121050057Y-103333332D01*
X121050057Y-103333332D02*
X121002438Y-103285713D01*
X121002438Y-103285713D02*
X120954819Y-103190475D01*
X114238095Y-52454819D02*
X114238095Y-51454819D01*
X114238095Y-51931009D02*
X114809523Y-51931009D01*
X114809523Y-52454819D02*
X114809523Y-51454819D01*
X115809523Y-52454819D02*
X115238095Y-52454819D01*
X115523809Y-52454819D02*
X115523809Y-51454819D01*
X115523809Y-51454819D02*
X115428571Y-51597676D01*
X115428571Y-51597676D02*
X115333333Y-51692914D01*
X115333333Y-51692914D02*
X115238095Y-51740533D01*
X141166666Y-131804819D02*
X141166666Y-132519104D01*
X141166666Y-132519104D02*
X141119047Y-132661961D01*
X141119047Y-132661961D02*
X141023809Y-132757200D01*
X141023809Y-132757200D02*
X140880952Y-132804819D01*
X140880952Y-132804819D02*
X140785714Y-132804819D01*
X142071428Y-131804819D02*
X141880952Y-131804819D01*
X141880952Y-131804819D02*
X141785714Y-131852438D01*
X141785714Y-131852438D02*
X141738095Y-131900057D01*
X141738095Y-131900057D02*
X141642857Y-132042914D01*
X141642857Y-132042914D02*
X141595238Y-132233390D01*
X141595238Y-132233390D02*
X141595238Y-132614342D01*
X141595238Y-132614342D02*
X141642857Y-132709580D01*
X141642857Y-132709580D02*
X141690476Y-132757200D01*
X141690476Y-132757200D02*
X141785714Y-132804819D01*
X141785714Y-132804819D02*
X141976190Y-132804819D01*
X141976190Y-132804819D02*
X142071428Y-132757200D01*
X142071428Y-132757200D02*
X142119047Y-132709580D01*
X142119047Y-132709580D02*
X142166666Y-132614342D01*
X142166666Y-132614342D02*
X142166666Y-132376247D01*
X142166666Y-132376247D02*
X142119047Y-132281009D01*
X142119047Y-132281009D02*
X142071428Y-132233390D01*
X142071428Y-132233390D02*
X141976190Y-132185771D01*
X141976190Y-132185771D02*
X141785714Y-132185771D01*
X141785714Y-132185771D02*
X141690476Y-132233390D01*
X141690476Y-132233390D02*
X141642857Y-132281009D01*
X141642857Y-132281009D02*
X141595238Y-132376247D01*
X115359580Y-82936666D02*
X115407200Y-82984285D01*
X115407200Y-82984285D02*
X115454819Y-83127142D01*
X115454819Y-83127142D02*
X115454819Y-83222380D01*
X115454819Y-83222380D02*
X115407200Y-83365237D01*
X115407200Y-83365237D02*
X115311961Y-83460475D01*
X115311961Y-83460475D02*
X115216723Y-83508094D01*
X115216723Y-83508094D02*
X115026247Y-83555713D01*
X115026247Y-83555713D02*
X114883390Y-83555713D01*
X114883390Y-83555713D02*
X114692914Y-83508094D01*
X114692914Y-83508094D02*
X114597676Y-83460475D01*
X114597676Y-83460475D02*
X114502438Y-83365237D01*
X114502438Y-83365237D02*
X114454819Y-83222380D01*
X114454819Y-83222380D02*
X114454819Y-83127142D01*
X114454819Y-83127142D02*
X114502438Y-82984285D01*
X114502438Y-82984285D02*
X114550057Y-82936666D01*
X115454819Y-81984285D02*
X115454819Y-82555713D01*
X115454819Y-82269999D02*
X114454819Y-82269999D01*
X114454819Y-82269999D02*
X114597676Y-82365237D01*
X114597676Y-82365237D02*
X114692914Y-82460475D01*
X114692914Y-82460475D02*
X114740533Y-82555713D01*
X160954819Y-89833333D02*
X161669104Y-89833333D01*
X161669104Y-89833333D02*
X161811961Y-89880952D01*
X161811961Y-89880952D02*
X161907200Y-89976190D01*
X161907200Y-89976190D02*
X161954819Y-90119047D01*
X161954819Y-90119047D02*
X161954819Y-90214285D01*
X161288152Y-88928571D02*
X161954819Y-88928571D01*
X160907200Y-89166666D02*
X161621485Y-89404761D01*
X161621485Y-89404761D02*
X161621485Y-88785714D01*
X114738095Y-136954819D02*
X114738095Y-135954819D01*
X114738095Y-136431009D02*
X115309523Y-136431009D01*
X115309523Y-136954819D02*
X115309523Y-135954819D01*
X115690476Y-135954819D02*
X116309523Y-135954819D01*
X116309523Y-135954819D02*
X115976190Y-136335771D01*
X115976190Y-136335771D02*
X116119047Y-136335771D01*
X116119047Y-136335771D02*
X116214285Y-136383390D01*
X116214285Y-136383390D02*
X116261904Y-136431009D01*
X116261904Y-136431009D02*
X116309523Y-136526247D01*
X116309523Y-136526247D02*
X116309523Y-136764342D01*
X116309523Y-136764342D02*
X116261904Y-136859580D01*
X116261904Y-136859580D02*
X116214285Y-136907200D01*
X116214285Y-136907200D02*
X116119047Y-136954819D01*
X116119047Y-136954819D02*
X115833333Y-136954819D01*
X115833333Y-136954819D02*
X115738095Y-136907200D01*
X115738095Y-136907200D02*
X115690476Y-136859580D01*
X163454819Y-99143333D02*
X164169104Y-99143333D01*
X164169104Y-99143333D02*
X164311961Y-99190952D01*
X164311961Y-99190952D02*
X164407200Y-99286190D01*
X164407200Y-99286190D02*
X164454819Y-99429047D01*
X164454819Y-99429047D02*
X164454819Y-99524285D01*
X163454819Y-98762380D02*
X163454819Y-98143333D01*
X163454819Y-98143333D02*
X163835771Y-98476666D01*
X163835771Y-98476666D02*
X163835771Y-98333809D01*
X163835771Y-98333809D02*
X163883390Y-98238571D01*
X163883390Y-98238571D02*
X163931009Y-98190952D01*
X163931009Y-98190952D02*
X164026247Y-98143333D01*
X164026247Y-98143333D02*
X164264342Y-98143333D01*
X164264342Y-98143333D02*
X164359580Y-98190952D01*
X164359580Y-98190952D02*
X164407200Y-98238571D01*
X164407200Y-98238571D02*
X164454819Y-98333809D01*
X164454819Y-98333809D02*
X164454819Y-98619523D01*
X164454819Y-98619523D02*
X164407200Y-98714761D01*
X164407200Y-98714761D02*
X164359580Y-98762380D01*
X161954819Y-114333333D02*
X162669104Y-114333333D01*
X162669104Y-114333333D02*
X162811961Y-114380952D01*
X162811961Y-114380952D02*
X162907200Y-114476190D01*
X162907200Y-114476190D02*
X162954819Y-114619047D01*
X162954819Y-114619047D02*
X162954819Y-114714285D01*
X161954819Y-113952380D02*
X161954819Y-113285714D01*
X161954819Y-113285714D02*
X162954819Y-113714285D01*
X164738095Y-51954819D02*
X164738095Y-50954819D01*
X164738095Y-51431009D02*
X165309523Y-51431009D01*
X165309523Y-51954819D02*
X165309523Y-50954819D01*
X165738095Y-51050057D02*
X165785714Y-51002438D01*
X165785714Y-51002438D02*
X165880952Y-50954819D01*
X165880952Y-50954819D02*
X166119047Y-50954819D01*
X166119047Y-50954819D02*
X166214285Y-51002438D01*
X166214285Y-51002438D02*
X166261904Y-51050057D01*
X166261904Y-51050057D02*
X166309523Y-51145295D01*
X166309523Y-51145295D02*
X166309523Y-51240533D01*
X166309523Y-51240533D02*
X166261904Y-51383390D01*
X166261904Y-51383390D02*
X165690476Y-51954819D01*
X165690476Y-51954819D02*
X166309523Y-51954819D01*
X161386666Y-56954819D02*
X161386666Y-57669104D01*
X161386666Y-57669104D02*
X161339047Y-57811961D01*
X161339047Y-57811961D02*
X161243809Y-57907200D01*
X161243809Y-57907200D02*
X161100952Y-57954819D01*
X161100952Y-57954819D02*
X161005714Y-57954819D01*
X161815238Y-57050057D02*
X161862857Y-57002438D01*
X161862857Y-57002438D02*
X161958095Y-56954819D01*
X161958095Y-56954819D02*
X162196190Y-56954819D01*
X162196190Y-56954819D02*
X162291428Y-57002438D01*
X162291428Y-57002438D02*
X162339047Y-57050057D01*
X162339047Y-57050057D02*
X162386666Y-57145295D01*
X162386666Y-57145295D02*
X162386666Y-57240533D01*
X162386666Y-57240533D02*
X162339047Y-57383390D01*
X162339047Y-57383390D02*
X161767619Y-57954819D01*
X161767619Y-57954819D02*
X162386666Y-57954819D01*
X120954819Y-64333333D02*
X121669104Y-64333333D01*
X121669104Y-64333333D02*
X121811961Y-64380952D01*
X121811961Y-64380952D02*
X121907200Y-64476190D01*
X121907200Y-64476190D02*
X121954819Y-64619047D01*
X121954819Y-64619047D02*
X121954819Y-64714285D01*
X121954819Y-63809523D02*
X121954819Y-63619047D01*
X121954819Y-63619047D02*
X121907200Y-63523809D01*
X121907200Y-63523809D02*
X121859580Y-63476190D01*
X121859580Y-63476190D02*
X121716723Y-63380952D01*
X121716723Y-63380952D02*
X121526247Y-63333333D01*
X121526247Y-63333333D02*
X121145295Y-63333333D01*
X121145295Y-63333333D02*
X121050057Y-63380952D01*
X121050057Y-63380952D02*
X121002438Y-63428571D01*
X121002438Y-63428571D02*
X120954819Y-63523809D01*
X120954819Y-63523809D02*
X120954819Y-63714285D01*
X120954819Y-63714285D02*
X121002438Y-63809523D01*
X121002438Y-63809523D02*
X121050057Y-63857142D01*
X121050057Y-63857142D02*
X121145295Y-63904761D01*
X121145295Y-63904761D02*
X121383390Y-63904761D01*
X121383390Y-63904761D02*
X121478628Y-63857142D01*
X121478628Y-63857142D02*
X121526247Y-63809523D01*
X121526247Y-63809523D02*
X121573866Y-63714285D01*
X121573866Y-63714285D02*
X121573866Y-63523809D01*
X121573866Y-63523809D02*
X121526247Y-63428571D01*
X121526247Y-63428571D02*
X121478628Y-63380952D01*
X121478628Y-63380952D02*
X121383390Y-63333333D01*
X165238095Y-135954819D02*
X165238095Y-134954819D01*
X165238095Y-135431009D02*
X165809523Y-135431009D01*
X165809523Y-135954819D02*
X165809523Y-134954819D01*
X166714285Y-135288152D02*
X166714285Y-135954819D01*
X166476190Y-134907200D02*
X166238095Y-135621485D01*
X166238095Y-135621485D02*
X166857142Y-135621485D01*
D11*
%TO.C,R2*%
X118730000Y-86730000D02*
X120635000Y-86730000D01*
X118730000Y-91810000D02*
X118730000Y-86730000D01*
X120635000Y-86730000D02*
X121270000Y-87365000D01*
X121270000Y-87365000D02*
X121270000Y-91810000D01*
X121270000Y-91810000D02*
X118730000Y-91810000D01*
%TO.C,J8*%
X119390000Y-116610000D02*
X119390000Y-117860000D01*
X119390000Y-117860000D02*
X120640000Y-117860000D01*
X119800000Y-107550000D02*
X119800000Y-117450000D01*
X119800000Y-117450000D02*
X124300000Y-117450000D01*
X124300000Y-107550000D02*
X119800000Y-107550000D01*
X124300000Y-117450000D02*
X124300000Y-107550000D01*
%TO.C,J5*%
X112900000Y-119050000D02*
X124400000Y-119050000D01*
X112900000Y-124000000D02*
X112900000Y-119050000D01*
X112900000Y-124000000D02*
X112900000Y-128950000D01*
X112900000Y-128950000D02*
X124400000Y-128950000D01*
X119900000Y-120250000D02*
X119900000Y-124000000D01*
X119900000Y-120875000D02*
X120900000Y-121500000D01*
X119900000Y-127750000D02*
X119900000Y-124000000D01*
X120900000Y-121500000D02*
X119900000Y-122125000D01*
X124400000Y-119050000D02*
X124400000Y-120250000D01*
X124400000Y-120250000D02*
X119900000Y-120250000D01*
X124400000Y-127750000D02*
X119900000Y-127750000D01*
X124400000Y-128950000D02*
X124400000Y-127750000D01*
%TO.C,J10*%
X119390000Y-105110000D02*
X119390000Y-106360000D01*
X119390000Y-106360000D02*
X120640000Y-106360000D01*
X119800000Y-96050000D02*
X119800000Y-105950000D01*
X119800000Y-105950000D02*
X124300000Y-105950000D01*
X124300000Y-96050000D02*
X119800000Y-96050000D01*
X124300000Y-105950000D02*
X124300000Y-96050000D01*
%TO.C,J6*%
X136550000Y-126600000D02*
X137750000Y-126600000D01*
X136550000Y-138100000D02*
X136550000Y-126600000D01*
X137750000Y-126600000D02*
X137750000Y-131100000D01*
X137750000Y-131100000D02*
X141500000Y-131100000D01*
X138375000Y-131100000D02*
X139000000Y-130100000D01*
X139000000Y-130100000D02*
X139625000Y-131100000D01*
X141500000Y-138100000D02*
X136550000Y-138100000D01*
X141500000Y-138100000D02*
X146450000Y-138100000D01*
X145250000Y-126600000D02*
X145250000Y-131100000D01*
X145250000Y-131100000D02*
X141500000Y-131100000D01*
X146450000Y-126600000D02*
X145250000Y-126600000D01*
X146450000Y-138100000D02*
X146450000Y-126600000D01*
%TO.C,C1*%
X113730000Y-80230000D02*
X115635000Y-80230000D01*
X113730000Y-85310000D02*
X113730000Y-80230000D01*
X115635000Y-80230000D02*
X116270000Y-80865000D01*
X116270000Y-80865000D02*
X116270000Y-85310000D01*
X116270000Y-85310000D02*
X113730000Y-85310000D01*
%TO.C,R1*%
X118730000Y-74230000D02*
X120635000Y-74230000D01*
X118730000Y-79310000D02*
X118730000Y-74230000D01*
X120635000Y-74230000D02*
X121270000Y-74865000D01*
X121270000Y-74865000D02*
X121270000Y-79310000D01*
X121270000Y-79310000D02*
X118730000Y-79310000D01*
D12*
%TO.C,J1*%
X127750000Y-59000000D02*
X127750000Y-122750000D01*
X130000000Y-56750000D02*
X136200000Y-56750000D01*
X130000000Y-124450000D02*
X150500000Y-124450000D01*
X136200000Y-55450000D02*
X136200000Y-56750000D01*
X144300000Y-55450000D02*
X136200000Y-55450000D01*
X144300000Y-56750000D02*
X144300000Y-55450000D01*
X150500000Y-56750000D02*
X144300000Y-56750000D01*
X150500000Y-56750000D02*
X150550000Y-56750000D01*
X152750000Y-122750000D02*
X152750000Y-59000000D01*
X127750000Y-59000000D02*
G75*
G02*
X130000000Y-56750000I2250001J-1D01*
G01*
X130000000Y-124450000D02*
G75*
G02*
X127750000Y-122750000I-275000J1975000D01*
G01*
X150500000Y-56750000D02*
G75*
G02*
X152750000Y-59000000I0J-2250000D01*
G01*
X152750000Y-122750000D02*
G75*
G02*
X150500000Y-124450000I-1975000J275000D01*
G01*
D11*
%TO.C,J4*%
X157230000Y-74730000D02*
X159135000Y-74730000D01*
X157230000Y-89970000D02*
X157230000Y-74730000D01*
X159135000Y-74730000D02*
X159770000Y-75365000D01*
X159770000Y-75365000D02*
X159770000Y-89970000D01*
X159770000Y-89970000D02*
X157230000Y-89970000D01*
%TO.C,J3*%
X162730000Y-94365000D02*
X163365000Y-93730000D01*
X162730000Y-103890000D02*
X162730000Y-94365000D01*
X163365000Y-93730000D02*
X165270000Y-93730000D01*
X165270000Y-93730000D02*
X165270000Y-103890000D01*
X165270000Y-103890000D02*
X162730000Y-103890000D01*
%TO.C,J7*%
X155850000Y-107550000D02*
X155850000Y-108750000D01*
X155850000Y-108750000D02*
X160350000Y-108750000D01*
X155850000Y-116250000D02*
X160350000Y-116250000D01*
X155850000Y-117450000D02*
X155850000Y-116250000D01*
X159350000Y-115000000D02*
X160350000Y-114375000D01*
X160350000Y-108750000D02*
X160350000Y-112500000D01*
X160350000Y-115625000D02*
X159350000Y-115000000D01*
X160350000Y-116250000D02*
X160350000Y-112500000D01*
X167350000Y-107550000D02*
X155850000Y-107550000D01*
X167350000Y-112500000D02*
X167350000Y-107550000D01*
X167350000Y-112500000D02*
X167350000Y-117450000D01*
X167350000Y-117450000D02*
X155850000Y-117450000D01*
%TO.C,J2*%
X156650000Y-59865000D02*
X157285000Y-59230000D01*
X156650000Y-61770000D02*
X156650000Y-59865000D01*
X157285000Y-59230000D02*
X166810000Y-59230000D01*
X166810000Y-59230000D02*
X166810000Y-61770000D01*
X166810000Y-61770000D02*
X156650000Y-61770000D01*
%TO.C,J9*%
X117890000Y-68110000D02*
X117890000Y-69360000D01*
X117890000Y-69360000D02*
X119140000Y-69360000D01*
X118300000Y-59050000D02*
X118300000Y-68950000D01*
X118300000Y-68950000D02*
X122800000Y-68950000D01*
X122800000Y-59050000D02*
X118300000Y-59050000D01*
X122800000Y-68950000D02*
X122800000Y-59050000D01*
%TD*%
M02*
