%TF.GenerationSoftware,KiCad,Pcbnew,9.0.0*%
%TF.CreationDate,2025-03-11T09:25:04+01:00*%
%TF.ProjectId,farming_project,6661726d-696e-4675-9f70-726f6a656374,rev?*%
%TF.SameCoordinates,Original*%
%TF.FileFunction,Soldermask,Bot*%
%TF.FilePolarity,Negative*%
%FSLAX46Y46*%
G04 Gerber Fmt 4.6, Leading zero omitted, Abs format (unit mm)*
G04 Created by KiCad (PCBNEW 9.0.0) date 2025-03-11 09:25:04*
%MOMM*%
%LPD*%
G01*
G04 APERTURE LIST*
G04 Aperture macros list*
%AMRoundRect*
0 Rectangle with rounded corners*
0 $1 Rounding radius*
0 $2 $3 $4 $5 $6 $7 $8 $9 X,Y pos of 4 corners*
0 Add a 4 corners polygon primitive as box body*
4,1,4,$2,$3,$4,$5,$6,$7,$8,$9,$2,$3,0*
0 Add four circle primitives for the rounded corners*
1,1,$1+$1,$2,$3*
1,1,$1+$1,$4,$5*
1,1,$1+$1,$6,$7*
1,1,$1+$1,$8,$9*
0 Add four rect primitives between the rounded corners*
20,1,$1+$1,$2,$3,$4,$5,0*
20,1,$1+$1,$4,$5,$6,$7,0*
20,1,$1+$1,$6,$7,$8,$9,0*
20,1,$1+$1,$8,$9,$2,$3,0*%
G04 Aperture macros list end*
%ADD10R,1.700000X1.700000*%
%ADD11O,1.700000X1.700000*%
%ADD12RoundRect,0.250000X0.625000X-0.350000X0.625000X0.350000X-0.625000X0.350000X-0.625000X-0.350000X0*%
%ADD13O,1.750000X1.200000*%
%ADD14RoundRect,0.250000X-0.725000X0.600000X-0.725000X-0.600000X0.725000X-0.600000X0.725000X0.600000X0*%
%ADD15O,1.950000X1.700000*%
%ADD16C,5.000000*%
%ADD17RoundRect,0.250000X-0.600000X-0.725000X0.600000X-0.725000X0.600000X0.725000X-0.600000X0.725000X0*%
%ADD18O,1.700000X1.950000*%
%ADD19C,2.200000*%
%ADD20C,1.508000*%
%ADD21RoundRect,0.250000X0.725000X-0.600000X0.725000X0.600000X-0.725000X0.600000X-0.725000X-0.600000X0*%
G04 APERTURE END LIST*
D10*
%TO.C,R2*%
X120000000Y-88000000D03*
D11*
X120000000Y-90540000D03*
%TD*%
D12*
%TO.C,J8*%
X121500000Y-115500000D03*
D13*
X121500000Y-113500000D03*
X121500000Y-111500000D03*
X121500000Y-109500000D03*
%TD*%
D14*
%TO.C,J5*%
X120500000Y-121500000D03*
D15*
X120500000Y-124000000D03*
X120500000Y-126500000D03*
%TD*%
D12*
%TO.C,J10*%
X121500000Y-104000000D03*
D13*
X121500000Y-102000000D03*
X121500000Y-100000000D03*
X121500000Y-98000000D03*
%TD*%
D16*
%TO.C,H1*%
X115000000Y-52000000D03*
%TD*%
D17*
%TO.C,J6*%
X139000000Y-130500000D03*
D18*
X141500000Y-130500000D03*
X144000000Y-130500000D03*
%TD*%
D10*
%TO.C,C1*%
X115000000Y-81500000D03*
D11*
X115000000Y-84040000D03*
%TD*%
D10*
%TO.C,R1*%
X120000000Y-75500000D03*
D11*
X120000000Y-78040000D03*
%TD*%
D19*
%TO.C,J1*%
X130000000Y-59000000D03*
X130000000Y-116000000D03*
X150500000Y-59000000D03*
X150500000Y-116000000D03*
D20*
X130090000Y-78884800D03*
X130090000Y-81424800D03*
X130090000Y-83964800D03*
X130090000Y-86504800D03*
X130090000Y-89044800D03*
X130090000Y-91584800D03*
X130090000Y-94124800D03*
X130090000Y-96664800D03*
X130090000Y-99204800D03*
X130090000Y-101744800D03*
X130090000Y-104284800D03*
X130090000Y-106824800D03*
X130090000Y-109364800D03*
X130090000Y-111904800D03*
X150410000Y-111904800D03*
X150410000Y-109364800D03*
X150410000Y-106824800D03*
X150410000Y-104284800D03*
X150410000Y-101744800D03*
X150410000Y-99204800D03*
X150410000Y-96664800D03*
X150410000Y-94124800D03*
X150410000Y-91584800D03*
X150410000Y-89044800D03*
X150410000Y-86504800D03*
X150410000Y-83964800D03*
X150410000Y-81424800D03*
X150410000Y-78884800D03*
%TD*%
D10*
%TO.C,J4*%
X158500000Y-76000000D03*
D11*
X158500000Y-78540000D03*
X158500000Y-81080000D03*
X158500000Y-83620000D03*
X158500000Y-86160000D03*
X158500000Y-88700000D03*
%TD*%
D16*
%TO.C,H3*%
X115500000Y-136500000D03*
%TD*%
D10*
%TO.C,J3*%
X164000000Y-95000000D03*
D11*
X164000000Y-97540000D03*
X164000000Y-100080000D03*
X164000000Y-102620000D03*
%TD*%
D21*
%TO.C,J7*%
X159750000Y-115000000D03*
D15*
X159750000Y-112500000D03*
X159750000Y-110000000D03*
%TD*%
D16*
%TO.C,H2*%
X165500000Y-51500000D03*
%TD*%
D10*
%TO.C,J2*%
X157920000Y-60500000D03*
D11*
X160460000Y-60500000D03*
X163000000Y-60500000D03*
X165540000Y-60500000D03*
%TD*%
D12*
%TO.C,J9*%
X120000000Y-67000000D03*
D13*
X120000000Y-65000000D03*
X120000000Y-63000000D03*
X120000000Y-61000000D03*
%TD*%
D16*
%TO.C,H4*%
X166000000Y-135500000D03*
%TD*%
M02*
