M48
; DRILL file {KiCad 9.0.0} date 2025-03-15T19:00:16+0100
; FORMAT={-:-/ absolute / metric / decimal}
; #@! TF.CreationDate,2025-03-15T19:00:16+01:00
; #@! TF.GenerationSoftware,Kicad,Pcbnew,9.0.0
; #@! TF.FileFunction,MixedPlating,1,2
FMAT,2
METRIC
; #@! TA.AperFunction,Plated,PTH,ComponentDrill
T1C0.750
; #@! TA.AperFunction,Plated,PTH,ComponentDrill
T2C0.800
; #@! TA.AperFunction,Plated,PTH,ComponentDrill
T3C1.000
; #@! TA.AperFunction,Plated,PTH,ComponentDrill
T4C2.500
; #@! TA.AperFunction,NonPlated,NPTH,ComponentDrill
T5C2.200
%
G90
G05
T1
X111.3Y-107.8
X111.4Y-92.7
X111.4Y-100.2
X111.4Y-115.8
X111.5Y-84.9
X113.3Y-107.8
X113.4Y-92.7
X113.4Y-100.2
X113.4Y-115.8
X113.5Y-84.9
X115.3Y-107.8
X115.4Y-92.7
X115.4Y-100.2
X115.4Y-115.8
X115.5Y-84.9
X117.3Y-107.8
X117.4Y-92.7
X117.4Y-100.2
X117.4Y-115.8
X117.5Y-84.9
X137.9Y-46.5
X137.9Y-48.5
X137.9Y-50.5
X137.9Y-52.5
X186.7Y-62.8
X186.7Y-64.8
X186.7Y-66.8
X186.7Y-68.8
T2
X113.6Y-51.3
X113.6Y-64.0
X113.6Y-67.1
X113.6Y-79.8
T3
X126.59Y-81.165
X126.59Y-83.705
X126.59Y-86.245
X126.59Y-88.785
X126.59Y-91.325
X126.59Y-93.865
X126.59Y-96.405
X126.59Y-98.945
X126.59Y-101.485
X126.59Y-104.025
X126.59Y-106.565
X126.59Y-109.105
X126.59Y-111.645
X126.59Y-114.185
X146.91Y-81.165
X146.91Y-83.705
X146.91Y-86.245
X146.91Y-88.785
X146.91Y-91.325
X146.91Y-93.865
X146.91Y-96.405
X146.91Y-98.945
X146.91Y-101.485
X146.91Y-104.025
X146.91Y-106.565
X146.91Y-109.105
X146.91Y-111.645
X146.91Y-114.185
X155.725Y-131.325
X158.265Y-131.325
X160.38Y-85.3
X160.48Y-104.9
X160.805Y-131.325
X162.92Y-85.3
X163.02Y-104.9
X163.345Y-131.325
X165.46Y-85.3
X165.56Y-104.9
X165.885Y-131.325
X168.0Y-85.3
X168.1Y-104.9
X168.425Y-131.325
T4
X104.6Y-44.5
X105.2Y-136.0
X194.8Y-44.3
X195.3Y-134.1
T5
X126.5Y-61.28
X126.5Y-118.28
X147.0Y-61.28
X147.0Y-118.28
M30
