%TF.GenerationSoftware,KiCad,Pcbnew,9.0.0*%
%TF.CreationDate,2025-03-15T19:00:16+01:00*%
%TF.ProjectId,farming_project,6661726d-696e-4675-9f70-726f6a656374,rev?*%
%TF.SameCoordinates,Original*%
%TF.FileFunction,Drillmap*%
%TF.FilePolarity,Positive*%
%FSLAX45Y45*%
G04 Gerber Fmt 4.5, Leading zero omitted, Abs format (unit mm)*
G04 Created by KiCad (PCBNEW 9.0.0) date 2025-03-15 19:00:16*
%MOMM*%
%LPD*%
G01*
G04 APERTURE LIST*
%ADD10C,0.050000*%
%ADD11C,0.200000*%
%ADD12C,0.100000*%
%ADD13C,0.250000*%
%ADD14C,0.220000*%
G04 APERTURE END LIST*
D10*
X10060000Y-3930000D02*
X10080000Y-3930000D01*
X10060000Y-13950000D02*
X10060000Y-3930000D01*
X19990000Y-13950000D02*
X10060000Y-13950000D01*
X19990000Y-3930000D02*
X19990000Y-13950000D01*
X10080000Y-3930000D02*
X19990000Y-3930000D01*
D11*
D12*
X11092500Y-10742500D02*
X11167500Y-10817500D01*
X11167500Y-10742500D02*
X11092500Y-10817500D01*
X11102500Y-9232500D02*
X11177500Y-9307500D01*
X11177500Y-9232500D02*
X11102500Y-9307500D01*
X11102500Y-9982500D02*
X11177500Y-10057500D01*
X11177500Y-9982500D02*
X11102500Y-10057500D01*
X11102500Y-11542500D02*
X11177500Y-11617500D01*
X11177500Y-11542500D02*
X11102500Y-11617500D01*
X11112500Y-8452500D02*
X11187500Y-8527500D01*
X11187500Y-8452500D02*
X11112500Y-8527500D01*
X11292500Y-10742500D02*
X11367500Y-10817500D01*
X11367500Y-10742500D02*
X11292500Y-10817500D01*
X11302500Y-9232500D02*
X11377500Y-9307500D01*
X11377500Y-9232500D02*
X11302500Y-9307500D01*
X11302500Y-9982500D02*
X11377500Y-10057500D01*
X11377500Y-9982500D02*
X11302500Y-10057500D01*
X11302500Y-11542500D02*
X11377500Y-11617500D01*
X11377500Y-11542500D02*
X11302500Y-11617500D01*
X11312500Y-8452500D02*
X11387500Y-8527500D01*
X11387500Y-8452500D02*
X11312500Y-8527500D01*
X11492500Y-10742500D02*
X11567500Y-10817500D01*
X11567500Y-10742500D02*
X11492500Y-10817500D01*
X11502500Y-9232500D02*
X11577500Y-9307500D01*
X11577500Y-9232500D02*
X11502500Y-9307500D01*
X11502500Y-9982500D02*
X11577500Y-10057500D01*
X11577500Y-9982500D02*
X11502500Y-10057500D01*
X11502500Y-11542500D02*
X11577500Y-11617500D01*
X11577500Y-11542500D02*
X11502500Y-11617500D01*
X11512500Y-8452500D02*
X11587500Y-8527500D01*
X11587500Y-8452500D02*
X11512500Y-8527500D01*
X11692500Y-10742500D02*
X11767500Y-10817500D01*
X11767500Y-10742500D02*
X11692500Y-10817500D01*
X11702500Y-9232500D02*
X11777500Y-9307500D01*
X11777500Y-9232500D02*
X11702500Y-9307500D01*
X11702500Y-9982500D02*
X11777500Y-10057500D01*
X11777500Y-9982500D02*
X11702500Y-10057500D01*
X11702500Y-11542500D02*
X11777500Y-11617500D01*
X11777500Y-11542500D02*
X11702500Y-11617500D01*
X11712500Y-8452500D02*
X11787500Y-8527500D01*
X11787500Y-8452500D02*
X11712500Y-8527500D01*
X13752500Y-4612500D02*
X13827500Y-4687500D01*
X13827500Y-4612500D02*
X13752500Y-4687500D01*
X13752500Y-4812500D02*
X13827500Y-4887500D01*
X13827500Y-4812500D02*
X13752500Y-4887500D01*
X13752500Y-5012500D02*
X13827500Y-5087500D01*
X13827500Y-5012500D02*
X13752500Y-5087500D01*
X13752500Y-5212500D02*
X13827500Y-5287500D01*
X13827500Y-5212500D02*
X13752500Y-5287500D01*
X18632500Y-6242500D02*
X18707500Y-6317500D01*
X18707500Y-6242500D02*
X18632500Y-6317500D01*
X18632500Y-6442500D02*
X18707500Y-6517500D01*
X18707500Y-6442500D02*
X18632500Y-6517500D01*
X18632500Y-6642500D02*
X18707500Y-6717500D01*
X18707500Y-6642500D02*
X18632500Y-6717500D01*
X18632500Y-6842500D02*
X18707500Y-6917500D01*
X18707500Y-6842500D02*
X18632500Y-6917500D01*
X11400000Y-5130000D02*
G75*
G02*
X11320000Y-5130000I-40000J0D01*
G01*
X11320000Y-5130000D02*
G75*
G02*
X11400000Y-5130000I40000J0D01*
G01*
X11400000Y-6400000D02*
G75*
G02*
X11320000Y-6400000I-40000J0D01*
G01*
X11320000Y-6400000D02*
G75*
G02*
X11400000Y-6400000I40000J0D01*
G01*
X11400000Y-6710000D02*
G75*
G02*
X11320000Y-6710000I-40000J0D01*
G01*
X11320000Y-6710000D02*
G75*
G02*
X11400000Y-6710000I40000J0D01*
G01*
X11400000Y-7980000D02*
G75*
G02*
X11320000Y-7980000I-40000J0D01*
G01*
X11320000Y-7980000D02*
G75*
G02*
X11400000Y-7980000I40000J0D01*
G01*
X12659000Y-8066480D02*
X12659000Y-8166480D01*
X12609000Y-8116480D02*
X12709000Y-8116480D01*
X12659000Y-8320480D02*
X12659000Y-8420480D01*
X12609000Y-8370480D02*
X12709000Y-8370480D01*
X12659000Y-8574480D02*
X12659000Y-8674480D01*
X12609000Y-8624480D02*
X12709000Y-8624480D01*
X12659000Y-8828480D02*
X12659000Y-8928480D01*
X12609000Y-8878480D02*
X12709000Y-8878480D01*
X12659000Y-9082480D02*
X12659000Y-9182480D01*
X12609000Y-9132480D02*
X12709000Y-9132480D01*
X12659000Y-9336480D02*
X12659000Y-9436480D01*
X12609000Y-9386480D02*
X12709000Y-9386480D01*
X12659000Y-9590480D02*
X12659000Y-9690480D01*
X12609000Y-9640480D02*
X12709000Y-9640480D01*
X12659000Y-9844480D02*
X12659000Y-9944480D01*
X12609000Y-9894480D02*
X12709000Y-9894480D01*
X12659000Y-10098480D02*
X12659000Y-10198480D01*
X12609000Y-10148480D02*
X12709000Y-10148480D01*
X12659000Y-10352480D02*
X12659000Y-10452480D01*
X12609000Y-10402480D02*
X12709000Y-10402480D01*
X12659000Y-10606480D02*
X12659000Y-10706480D01*
X12609000Y-10656480D02*
X12709000Y-10656480D01*
X12659000Y-10860480D02*
X12659000Y-10960480D01*
X12609000Y-10910480D02*
X12709000Y-10910480D01*
X12659000Y-11114480D02*
X12659000Y-11214480D01*
X12609000Y-11164480D02*
X12709000Y-11164480D01*
X12659000Y-11368480D02*
X12659000Y-11468480D01*
X12609000Y-11418480D02*
X12709000Y-11418480D01*
X14691000Y-8066480D02*
X14691000Y-8166480D01*
X14641000Y-8116480D02*
X14741000Y-8116480D01*
X14691000Y-8320480D02*
X14691000Y-8420480D01*
X14641000Y-8370480D02*
X14741000Y-8370480D01*
X14691000Y-8574480D02*
X14691000Y-8674480D01*
X14641000Y-8624480D02*
X14741000Y-8624480D01*
X14691000Y-8828480D02*
X14691000Y-8928480D01*
X14641000Y-8878480D02*
X14741000Y-8878480D01*
X14691000Y-9082480D02*
X14691000Y-9182480D01*
X14641000Y-9132480D02*
X14741000Y-9132480D01*
X14691000Y-9336480D02*
X14691000Y-9436480D01*
X14641000Y-9386480D02*
X14741000Y-9386480D01*
X14691000Y-9590480D02*
X14691000Y-9690480D01*
X14641000Y-9640480D02*
X14741000Y-9640480D01*
X14691000Y-9844480D02*
X14691000Y-9944480D01*
X14641000Y-9894480D02*
X14741000Y-9894480D01*
X14691000Y-10098480D02*
X14691000Y-10198480D01*
X14641000Y-10148480D02*
X14741000Y-10148480D01*
X14691000Y-10352480D02*
X14691000Y-10452480D01*
X14641000Y-10402480D02*
X14741000Y-10402480D01*
X14691000Y-10606480D02*
X14691000Y-10706480D01*
X14641000Y-10656480D02*
X14741000Y-10656480D01*
X14691000Y-10860480D02*
X14691000Y-10960480D01*
X14641000Y-10910480D02*
X14741000Y-10910480D01*
X14691000Y-11114480D02*
X14691000Y-11214480D01*
X14641000Y-11164480D02*
X14741000Y-11164480D01*
X14691000Y-11368480D02*
X14691000Y-11468480D01*
X14641000Y-11418480D02*
X14741000Y-11418480D01*
X15572500Y-13082500D02*
X15572500Y-13182500D01*
X15522500Y-13132500D02*
X15622500Y-13132500D01*
X15826500Y-13082500D02*
X15826500Y-13182500D01*
X15776500Y-13132500D02*
X15876500Y-13132500D01*
X16038000Y-8480000D02*
X16038000Y-8580000D01*
X15988000Y-8530000D02*
X16088000Y-8530000D01*
X16048000Y-10440000D02*
X16048000Y-10540000D01*
X15998000Y-10490000D02*
X16098000Y-10490000D01*
X16080500Y-13082500D02*
X16080500Y-13182500D01*
X16030500Y-13132500D02*
X16130500Y-13132500D01*
X16292000Y-8480000D02*
X16292000Y-8580000D01*
X16242000Y-8530000D02*
X16342000Y-8530000D01*
X16302000Y-10440000D02*
X16302000Y-10540000D01*
X16252000Y-10490000D02*
X16352000Y-10490000D01*
X16334500Y-13082500D02*
X16334500Y-13182500D01*
X16284500Y-13132500D02*
X16384500Y-13132500D01*
X16546000Y-8480000D02*
X16546000Y-8580000D01*
X16496000Y-8530000D02*
X16596000Y-8530000D01*
X16556000Y-10440000D02*
X16556000Y-10540000D01*
X16506000Y-10490000D02*
X16606000Y-10490000D01*
X16588500Y-13082500D02*
X16588500Y-13182500D01*
X16538500Y-13132500D02*
X16638500Y-13132500D01*
X16800000Y-8480000D02*
X16800000Y-8580000D01*
X16750000Y-8530000D02*
X16850000Y-8530000D01*
X16810000Y-10440000D02*
X16810000Y-10540000D01*
X16760000Y-10490000D02*
X16860000Y-10490000D01*
X16842500Y-13082500D02*
X16842500Y-13182500D01*
X16792500Y-13132500D02*
X16892500Y-13132500D01*
D13*
X10548389Y-4538389D02*
X10548389Y-4361611D01*
X10371611Y-4361611D01*
X10371611Y-4538389D01*
X10548389Y-4538389D01*
X10608389Y-13688389D02*
X10608389Y-13511611D01*
X10431611Y-13511611D01*
X10431611Y-13688389D01*
X10608389Y-13688389D01*
X19568389Y-4518389D02*
X19568389Y-4341611D01*
X19391611Y-4341611D01*
X19391611Y-4518389D01*
X19568389Y-4518389D01*
X19618389Y-13498389D02*
X19618389Y-13321611D01*
X19441611Y-13321611D01*
X19441611Y-13498389D01*
X19618389Y-13498389D01*
D14*
X12650000Y-6238000D02*
X12760000Y-6128000D01*
X12650000Y-6018000D01*
X12540000Y-6128000D01*
X12650000Y-6238000D01*
X12650000Y-11938000D02*
X12760000Y-11828000D01*
X12650000Y-11718000D01*
X12540000Y-11828000D01*
X12650000Y-11938000D01*
X14700000Y-6238000D02*
X14810000Y-6128000D01*
X14700000Y-6018000D01*
X14590000Y-6128000D01*
X14700000Y-6238000D01*
X14700000Y-11938000D02*
X14810000Y-11828000D01*
X14700000Y-11718000D01*
X14590000Y-11828000D01*
X14700000Y-11938000D01*
D11*
X10318277Y-14263984D02*
X10318277Y-14063984D01*
X10318277Y-14063984D02*
X10365896Y-14063984D01*
X10365896Y-14063984D02*
X10394467Y-14073508D01*
X10394467Y-14073508D02*
X10413515Y-14092555D01*
X10413515Y-14092555D02*
X10423039Y-14111603D01*
X10423039Y-14111603D02*
X10432563Y-14149698D01*
X10432563Y-14149698D02*
X10432563Y-14178269D01*
X10432563Y-14178269D02*
X10423039Y-14216365D01*
X10423039Y-14216365D02*
X10413515Y-14235412D01*
X10413515Y-14235412D02*
X10394467Y-14254460D01*
X10394467Y-14254460D02*
X10365896Y-14263984D01*
X10365896Y-14263984D02*
X10318277Y-14263984D01*
X10518277Y-14263984D02*
X10518277Y-14130650D01*
X10518277Y-14168746D02*
X10527801Y-14149698D01*
X10527801Y-14149698D02*
X10537324Y-14140174D01*
X10537324Y-14140174D02*
X10556372Y-14130650D01*
X10556372Y-14130650D02*
X10575420Y-14130650D01*
X10642086Y-14263984D02*
X10642086Y-14130650D01*
X10642086Y-14063984D02*
X10632563Y-14073508D01*
X10632563Y-14073508D02*
X10642086Y-14083031D01*
X10642086Y-14083031D02*
X10651610Y-14073508D01*
X10651610Y-14073508D02*
X10642086Y-14063984D01*
X10642086Y-14063984D02*
X10642086Y-14083031D01*
X10765896Y-14263984D02*
X10746848Y-14254460D01*
X10746848Y-14254460D02*
X10737324Y-14235412D01*
X10737324Y-14235412D02*
X10737324Y-14063984D01*
X10870658Y-14263984D02*
X10851610Y-14254460D01*
X10851610Y-14254460D02*
X10842086Y-14235412D01*
X10842086Y-14235412D02*
X10842086Y-14063984D01*
X11099229Y-14263984D02*
X11099229Y-14063984D01*
X11099229Y-14063984D02*
X11165896Y-14206841D01*
X11165896Y-14206841D02*
X11232562Y-14063984D01*
X11232562Y-14063984D02*
X11232562Y-14263984D01*
X11413515Y-14263984D02*
X11413515Y-14159222D01*
X11413515Y-14159222D02*
X11403991Y-14140174D01*
X11403991Y-14140174D02*
X11384943Y-14130650D01*
X11384943Y-14130650D02*
X11346848Y-14130650D01*
X11346848Y-14130650D02*
X11327801Y-14140174D01*
X11413515Y-14254460D02*
X11394467Y-14263984D01*
X11394467Y-14263984D02*
X11346848Y-14263984D01*
X11346848Y-14263984D02*
X11327801Y-14254460D01*
X11327801Y-14254460D02*
X11318277Y-14235412D01*
X11318277Y-14235412D02*
X11318277Y-14216365D01*
X11318277Y-14216365D02*
X11327801Y-14197317D01*
X11327801Y-14197317D02*
X11346848Y-14187793D01*
X11346848Y-14187793D02*
X11394467Y-14187793D01*
X11394467Y-14187793D02*
X11413515Y-14178269D01*
X11508753Y-14130650D02*
X11508753Y-14330650D01*
X11508753Y-14140174D02*
X11527801Y-14130650D01*
X11527801Y-14130650D02*
X11565896Y-14130650D01*
X11565896Y-14130650D02*
X11584943Y-14140174D01*
X11584943Y-14140174D02*
X11594467Y-14149698D01*
X11594467Y-14149698D02*
X11603991Y-14168746D01*
X11603991Y-14168746D02*
X11603991Y-14225888D01*
X11603991Y-14225888D02*
X11594467Y-14244936D01*
X11594467Y-14244936D02*
X11584943Y-14254460D01*
X11584943Y-14254460D02*
X11565896Y-14263984D01*
X11565896Y-14263984D02*
X11527801Y-14263984D01*
X11527801Y-14263984D02*
X11508753Y-14254460D01*
X11689705Y-14244936D02*
X11699229Y-14254460D01*
X11699229Y-14254460D02*
X11689705Y-14263984D01*
X11689705Y-14263984D02*
X11680182Y-14254460D01*
X11680182Y-14254460D02*
X11689705Y-14244936D01*
X11689705Y-14244936D02*
X11689705Y-14263984D01*
X11689705Y-14140174D02*
X11699229Y-14149698D01*
X11699229Y-14149698D02*
X11689705Y-14159222D01*
X11689705Y-14159222D02*
X11680182Y-14149698D01*
X11680182Y-14149698D02*
X11689705Y-14140174D01*
X11689705Y-14140174D02*
X11689705Y-14159222D01*
D12*
X9982500Y-14555000D02*
X10057500Y-14630000D01*
X10057500Y-14555000D02*
X9982500Y-14630000D01*
D11*
X10356372Y-14483984D02*
X10375420Y-14483984D01*
X10375420Y-14483984D02*
X10394467Y-14493508D01*
X10394467Y-14493508D02*
X10403991Y-14503031D01*
X10403991Y-14503031D02*
X10413515Y-14522079D01*
X10413515Y-14522079D02*
X10423039Y-14560174D01*
X10423039Y-14560174D02*
X10423039Y-14607793D01*
X10423039Y-14607793D02*
X10413515Y-14645888D01*
X10413515Y-14645888D02*
X10403991Y-14664936D01*
X10403991Y-14664936D02*
X10394467Y-14674460D01*
X10394467Y-14674460D02*
X10375420Y-14683984D01*
X10375420Y-14683984D02*
X10356372Y-14683984D01*
X10356372Y-14683984D02*
X10337324Y-14674460D01*
X10337324Y-14674460D02*
X10327801Y-14664936D01*
X10327801Y-14664936D02*
X10318277Y-14645888D01*
X10318277Y-14645888D02*
X10308753Y-14607793D01*
X10308753Y-14607793D02*
X10308753Y-14560174D01*
X10308753Y-14560174D02*
X10318277Y-14522079D01*
X10318277Y-14522079D02*
X10327801Y-14503031D01*
X10327801Y-14503031D02*
X10337324Y-14493508D01*
X10337324Y-14493508D02*
X10356372Y-14483984D01*
X10508753Y-14664936D02*
X10518277Y-14674460D01*
X10518277Y-14674460D02*
X10508753Y-14683984D01*
X10508753Y-14683984D02*
X10499229Y-14674460D01*
X10499229Y-14674460D02*
X10508753Y-14664936D01*
X10508753Y-14664936D02*
X10508753Y-14683984D01*
X10584944Y-14483984D02*
X10718277Y-14483984D01*
X10718277Y-14483984D02*
X10632563Y-14683984D01*
X10889705Y-14483984D02*
X10794467Y-14483984D01*
X10794467Y-14483984D02*
X10784944Y-14579222D01*
X10784944Y-14579222D02*
X10794467Y-14569698D01*
X10794467Y-14569698D02*
X10813515Y-14560174D01*
X10813515Y-14560174D02*
X10861134Y-14560174D01*
X10861134Y-14560174D02*
X10880182Y-14569698D01*
X10880182Y-14569698D02*
X10889705Y-14579222D01*
X10889705Y-14579222D02*
X10899229Y-14598269D01*
X10899229Y-14598269D02*
X10899229Y-14645888D01*
X10899229Y-14645888D02*
X10889705Y-14664936D01*
X10889705Y-14664936D02*
X10880182Y-14674460D01*
X10880182Y-14674460D02*
X10861134Y-14683984D01*
X10861134Y-14683984D02*
X10813515Y-14683984D01*
X10813515Y-14683984D02*
X10794467Y-14674460D01*
X10794467Y-14674460D02*
X10784944Y-14664936D01*
X11023039Y-14483984D02*
X11042086Y-14483984D01*
X11042086Y-14483984D02*
X11061134Y-14493508D01*
X11061134Y-14493508D02*
X11070658Y-14503031D01*
X11070658Y-14503031D02*
X11080182Y-14522079D01*
X11080182Y-14522079D02*
X11089705Y-14560174D01*
X11089705Y-14560174D02*
X11089705Y-14607793D01*
X11089705Y-14607793D02*
X11080182Y-14645888D01*
X11080182Y-14645888D02*
X11070658Y-14664936D01*
X11070658Y-14664936D02*
X11061134Y-14674460D01*
X11061134Y-14674460D02*
X11042086Y-14683984D01*
X11042086Y-14683984D02*
X11023039Y-14683984D01*
X11023039Y-14683984D02*
X11003991Y-14674460D01*
X11003991Y-14674460D02*
X10994467Y-14664936D01*
X10994467Y-14664936D02*
X10984944Y-14645888D01*
X10984944Y-14645888D02*
X10975420Y-14607793D01*
X10975420Y-14607793D02*
X10975420Y-14560174D01*
X10975420Y-14560174D02*
X10984944Y-14522079D01*
X10984944Y-14522079D02*
X10994467Y-14503031D01*
X10994467Y-14503031D02*
X11003991Y-14493508D01*
X11003991Y-14493508D02*
X11023039Y-14483984D01*
X11175420Y-14683984D02*
X11175420Y-14550650D01*
X11175420Y-14569698D02*
X11184943Y-14560174D01*
X11184943Y-14560174D02*
X11203991Y-14550650D01*
X11203991Y-14550650D02*
X11232563Y-14550650D01*
X11232563Y-14550650D02*
X11251610Y-14560174D01*
X11251610Y-14560174D02*
X11261134Y-14579222D01*
X11261134Y-14579222D02*
X11261134Y-14683984D01*
X11261134Y-14579222D02*
X11270658Y-14560174D01*
X11270658Y-14560174D02*
X11289705Y-14550650D01*
X11289705Y-14550650D02*
X11318277Y-14550650D01*
X11318277Y-14550650D02*
X11337324Y-14560174D01*
X11337324Y-14560174D02*
X11346848Y-14579222D01*
X11346848Y-14579222D02*
X11346848Y-14683984D01*
X11442086Y-14683984D02*
X11442086Y-14550650D01*
X11442086Y-14569698D02*
X11451610Y-14560174D01*
X11451610Y-14560174D02*
X11470658Y-14550650D01*
X11470658Y-14550650D02*
X11499229Y-14550650D01*
X11499229Y-14550650D02*
X11518277Y-14560174D01*
X11518277Y-14560174D02*
X11527801Y-14579222D01*
X11527801Y-14579222D02*
X11527801Y-14683984D01*
X11527801Y-14579222D02*
X11537324Y-14560174D01*
X11537324Y-14560174D02*
X11556372Y-14550650D01*
X11556372Y-14550650D02*
X11584943Y-14550650D01*
X11584943Y-14550650D02*
X11603991Y-14560174D01*
X11603991Y-14560174D02*
X11613515Y-14579222D01*
X11613515Y-14579222D02*
X11613515Y-14683984D01*
X12003991Y-14474460D02*
X11832563Y-14731603D01*
X12261134Y-14483984D02*
X12280182Y-14483984D01*
X12280182Y-14483984D02*
X12299229Y-14493508D01*
X12299229Y-14493508D02*
X12308753Y-14503031D01*
X12308753Y-14503031D02*
X12318277Y-14522079D01*
X12318277Y-14522079D02*
X12327801Y-14560174D01*
X12327801Y-14560174D02*
X12327801Y-14607793D01*
X12327801Y-14607793D02*
X12318277Y-14645888D01*
X12318277Y-14645888D02*
X12308753Y-14664936D01*
X12308753Y-14664936D02*
X12299229Y-14674460D01*
X12299229Y-14674460D02*
X12280182Y-14683984D01*
X12280182Y-14683984D02*
X12261134Y-14683984D01*
X12261134Y-14683984D02*
X12242086Y-14674460D01*
X12242086Y-14674460D02*
X12232563Y-14664936D01*
X12232563Y-14664936D02*
X12223039Y-14645888D01*
X12223039Y-14645888D02*
X12213515Y-14607793D01*
X12213515Y-14607793D02*
X12213515Y-14560174D01*
X12213515Y-14560174D02*
X12223039Y-14522079D01*
X12223039Y-14522079D02*
X12232563Y-14503031D01*
X12232563Y-14503031D02*
X12242086Y-14493508D01*
X12242086Y-14493508D02*
X12261134Y-14483984D01*
X12413515Y-14664936D02*
X12423039Y-14674460D01*
X12423039Y-14674460D02*
X12413515Y-14683984D01*
X12413515Y-14683984D02*
X12403991Y-14674460D01*
X12403991Y-14674460D02*
X12413515Y-14664936D01*
X12413515Y-14664936D02*
X12413515Y-14683984D01*
X12546848Y-14483984D02*
X12565896Y-14483984D01*
X12565896Y-14483984D02*
X12584944Y-14493508D01*
X12584944Y-14493508D02*
X12594467Y-14503031D01*
X12594467Y-14503031D02*
X12603991Y-14522079D01*
X12603991Y-14522079D02*
X12613515Y-14560174D01*
X12613515Y-14560174D02*
X12613515Y-14607793D01*
X12613515Y-14607793D02*
X12603991Y-14645888D01*
X12603991Y-14645888D02*
X12594467Y-14664936D01*
X12594467Y-14664936D02*
X12584944Y-14674460D01*
X12584944Y-14674460D02*
X12565896Y-14683984D01*
X12565896Y-14683984D02*
X12546848Y-14683984D01*
X12546848Y-14683984D02*
X12527801Y-14674460D01*
X12527801Y-14674460D02*
X12518277Y-14664936D01*
X12518277Y-14664936D02*
X12508753Y-14645888D01*
X12508753Y-14645888D02*
X12499229Y-14607793D01*
X12499229Y-14607793D02*
X12499229Y-14560174D01*
X12499229Y-14560174D02*
X12508753Y-14522079D01*
X12508753Y-14522079D02*
X12518277Y-14503031D01*
X12518277Y-14503031D02*
X12527801Y-14493508D01*
X12527801Y-14493508D02*
X12546848Y-14483984D01*
X12689706Y-14503031D02*
X12699229Y-14493508D01*
X12699229Y-14493508D02*
X12718277Y-14483984D01*
X12718277Y-14483984D02*
X12765896Y-14483984D01*
X12765896Y-14483984D02*
X12784944Y-14493508D01*
X12784944Y-14493508D02*
X12794467Y-14503031D01*
X12794467Y-14503031D02*
X12803991Y-14522079D01*
X12803991Y-14522079D02*
X12803991Y-14541127D01*
X12803991Y-14541127D02*
X12794467Y-14569698D01*
X12794467Y-14569698D02*
X12680182Y-14683984D01*
X12680182Y-14683984D02*
X12803991Y-14683984D01*
X12899229Y-14683984D02*
X12937325Y-14683984D01*
X12937325Y-14683984D02*
X12956372Y-14674460D01*
X12956372Y-14674460D02*
X12965896Y-14664936D01*
X12965896Y-14664936D02*
X12984944Y-14636365D01*
X12984944Y-14636365D02*
X12994467Y-14598269D01*
X12994467Y-14598269D02*
X12994467Y-14522079D01*
X12994467Y-14522079D02*
X12984944Y-14503031D01*
X12984944Y-14503031D02*
X12975420Y-14493508D01*
X12975420Y-14493508D02*
X12956372Y-14483984D01*
X12956372Y-14483984D02*
X12918277Y-14483984D01*
X12918277Y-14483984D02*
X12899229Y-14493508D01*
X12899229Y-14493508D02*
X12889706Y-14503031D01*
X12889706Y-14503031D02*
X12880182Y-14522079D01*
X12880182Y-14522079D02*
X12880182Y-14569698D01*
X12880182Y-14569698D02*
X12889706Y-14588746D01*
X12889706Y-14588746D02*
X12899229Y-14598269D01*
X12899229Y-14598269D02*
X12918277Y-14607793D01*
X12918277Y-14607793D02*
X12956372Y-14607793D01*
X12956372Y-14607793D02*
X12975420Y-14598269D01*
X12975420Y-14598269D02*
X12984944Y-14588746D01*
X12984944Y-14588746D02*
X12994467Y-14569698D01*
X13175420Y-14483984D02*
X13080182Y-14483984D01*
X13080182Y-14483984D02*
X13070658Y-14579222D01*
X13070658Y-14579222D02*
X13080182Y-14569698D01*
X13080182Y-14569698D02*
X13099229Y-14560174D01*
X13099229Y-14560174D02*
X13146848Y-14560174D01*
X13146848Y-14560174D02*
X13165896Y-14569698D01*
X13165896Y-14569698D02*
X13175420Y-14579222D01*
X13175420Y-14579222D02*
X13184944Y-14598269D01*
X13184944Y-14598269D02*
X13184944Y-14645888D01*
X13184944Y-14645888D02*
X13175420Y-14664936D01*
X13175420Y-14664936D02*
X13165896Y-14674460D01*
X13165896Y-14674460D02*
X13146848Y-14683984D01*
X13146848Y-14683984D02*
X13099229Y-14683984D01*
X13099229Y-14683984D02*
X13080182Y-14674460D01*
X13080182Y-14674460D02*
X13070658Y-14664936D01*
X13261134Y-14483984D02*
X13261134Y-14522079D01*
X13337325Y-14483984D02*
X13337325Y-14522079D01*
X13632563Y-14760174D02*
X13623039Y-14750650D01*
X13623039Y-14750650D02*
X13603991Y-14722079D01*
X13603991Y-14722079D02*
X13594468Y-14703031D01*
X13594468Y-14703031D02*
X13584944Y-14674460D01*
X13584944Y-14674460D02*
X13575420Y-14626841D01*
X13575420Y-14626841D02*
X13575420Y-14588746D01*
X13575420Y-14588746D02*
X13584944Y-14541127D01*
X13584944Y-14541127D02*
X13594468Y-14512555D01*
X13594468Y-14512555D02*
X13603991Y-14493508D01*
X13603991Y-14493508D02*
X13623039Y-14464936D01*
X13623039Y-14464936D02*
X13632563Y-14455412D01*
X13699229Y-14503031D02*
X13708753Y-14493508D01*
X13708753Y-14493508D02*
X13727801Y-14483984D01*
X13727801Y-14483984D02*
X13775420Y-14483984D01*
X13775420Y-14483984D02*
X13794468Y-14493508D01*
X13794468Y-14493508D02*
X13803991Y-14503031D01*
X13803991Y-14503031D02*
X13813515Y-14522079D01*
X13813515Y-14522079D02*
X13813515Y-14541127D01*
X13813515Y-14541127D02*
X13803991Y-14569698D01*
X13803991Y-14569698D02*
X13689706Y-14683984D01*
X13689706Y-14683984D02*
X13813515Y-14683984D01*
X13927801Y-14569698D02*
X13908753Y-14560174D01*
X13908753Y-14560174D02*
X13899229Y-14550650D01*
X13899229Y-14550650D02*
X13889706Y-14531603D01*
X13889706Y-14531603D02*
X13889706Y-14522079D01*
X13889706Y-14522079D02*
X13899229Y-14503031D01*
X13899229Y-14503031D02*
X13908753Y-14493508D01*
X13908753Y-14493508D02*
X13927801Y-14483984D01*
X13927801Y-14483984D02*
X13965896Y-14483984D01*
X13965896Y-14483984D02*
X13984944Y-14493508D01*
X13984944Y-14493508D02*
X13994468Y-14503031D01*
X13994468Y-14503031D02*
X14003991Y-14522079D01*
X14003991Y-14522079D02*
X14003991Y-14531603D01*
X14003991Y-14531603D02*
X13994468Y-14550650D01*
X13994468Y-14550650D02*
X13984944Y-14560174D01*
X13984944Y-14560174D02*
X13965896Y-14569698D01*
X13965896Y-14569698D02*
X13927801Y-14569698D01*
X13927801Y-14569698D02*
X13908753Y-14579222D01*
X13908753Y-14579222D02*
X13899229Y-14588746D01*
X13899229Y-14588746D02*
X13889706Y-14607793D01*
X13889706Y-14607793D02*
X13889706Y-14645888D01*
X13889706Y-14645888D02*
X13899229Y-14664936D01*
X13899229Y-14664936D02*
X13908753Y-14674460D01*
X13908753Y-14674460D02*
X13927801Y-14683984D01*
X13927801Y-14683984D02*
X13965896Y-14683984D01*
X13965896Y-14683984D02*
X13984944Y-14674460D01*
X13984944Y-14674460D02*
X13994468Y-14664936D01*
X13994468Y-14664936D02*
X14003991Y-14645888D01*
X14003991Y-14645888D02*
X14003991Y-14607793D01*
X14003991Y-14607793D02*
X13994468Y-14588746D01*
X13994468Y-14588746D02*
X13984944Y-14579222D01*
X13984944Y-14579222D02*
X13965896Y-14569698D01*
X14242087Y-14683984D02*
X14242087Y-14483984D01*
X14327801Y-14683984D02*
X14327801Y-14579222D01*
X14327801Y-14579222D02*
X14318277Y-14560174D01*
X14318277Y-14560174D02*
X14299230Y-14550650D01*
X14299230Y-14550650D02*
X14270658Y-14550650D01*
X14270658Y-14550650D02*
X14251610Y-14560174D01*
X14251610Y-14560174D02*
X14242087Y-14569698D01*
X14451610Y-14683984D02*
X14432563Y-14674460D01*
X14432563Y-14674460D02*
X14423039Y-14664936D01*
X14423039Y-14664936D02*
X14413515Y-14645888D01*
X14413515Y-14645888D02*
X14413515Y-14588746D01*
X14413515Y-14588746D02*
X14423039Y-14569698D01*
X14423039Y-14569698D02*
X14432563Y-14560174D01*
X14432563Y-14560174D02*
X14451610Y-14550650D01*
X14451610Y-14550650D02*
X14480182Y-14550650D01*
X14480182Y-14550650D02*
X14499230Y-14560174D01*
X14499230Y-14560174D02*
X14508753Y-14569698D01*
X14508753Y-14569698D02*
X14518277Y-14588746D01*
X14518277Y-14588746D02*
X14518277Y-14645888D01*
X14518277Y-14645888D02*
X14508753Y-14664936D01*
X14508753Y-14664936D02*
X14499230Y-14674460D01*
X14499230Y-14674460D02*
X14480182Y-14683984D01*
X14480182Y-14683984D02*
X14451610Y-14683984D01*
X14632563Y-14683984D02*
X14613515Y-14674460D01*
X14613515Y-14674460D02*
X14603991Y-14655412D01*
X14603991Y-14655412D02*
X14603991Y-14483984D01*
X14784944Y-14674460D02*
X14765896Y-14683984D01*
X14765896Y-14683984D02*
X14727801Y-14683984D01*
X14727801Y-14683984D02*
X14708753Y-14674460D01*
X14708753Y-14674460D02*
X14699230Y-14655412D01*
X14699230Y-14655412D02*
X14699230Y-14579222D01*
X14699230Y-14579222D02*
X14708753Y-14560174D01*
X14708753Y-14560174D02*
X14727801Y-14550650D01*
X14727801Y-14550650D02*
X14765896Y-14550650D01*
X14765896Y-14550650D02*
X14784944Y-14560174D01*
X14784944Y-14560174D02*
X14794468Y-14579222D01*
X14794468Y-14579222D02*
X14794468Y-14598269D01*
X14794468Y-14598269D02*
X14699230Y-14617317D01*
X14870658Y-14674460D02*
X14889706Y-14683984D01*
X14889706Y-14683984D02*
X14927801Y-14683984D01*
X14927801Y-14683984D02*
X14946849Y-14674460D01*
X14946849Y-14674460D02*
X14956372Y-14655412D01*
X14956372Y-14655412D02*
X14956372Y-14645888D01*
X14956372Y-14645888D02*
X14946849Y-14626841D01*
X14946849Y-14626841D02*
X14927801Y-14617317D01*
X14927801Y-14617317D02*
X14899230Y-14617317D01*
X14899230Y-14617317D02*
X14880182Y-14607793D01*
X14880182Y-14607793D02*
X14870658Y-14588746D01*
X14870658Y-14588746D02*
X14870658Y-14579222D01*
X14870658Y-14579222D02*
X14880182Y-14560174D01*
X14880182Y-14560174D02*
X14899230Y-14550650D01*
X14899230Y-14550650D02*
X14927801Y-14550650D01*
X14927801Y-14550650D02*
X14946849Y-14560174D01*
X15023039Y-14760174D02*
X15032563Y-14750650D01*
X15032563Y-14750650D02*
X15051611Y-14722079D01*
X15051611Y-14722079D02*
X15061134Y-14703031D01*
X15061134Y-14703031D02*
X15070658Y-14674460D01*
X15070658Y-14674460D02*
X15080182Y-14626841D01*
X15080182Y-14626841D02*
X15080182Y-14588746D01*
X15080182Y-14588746D02*
X15070658Y-14541127D01*
X15070658Y-14541127D02*
X15061134Y-14512555D01*
X15061134Y-14512555D02*
X15051611Y-14493508D01*
X15051611Y-14493508D02*
X15032563Y-14464936D01*
X15032563Y-14464936D02*
X15023039Y-14455412D01*
D12*
X10057500Y-14856500D02*
G75*
G02*
X9977500Y-14856500I-40000J0D01*
G01*
X9977500Y-14856500D02*
G75*
G02*
X10057500Y-14856500I40000J0D01*
G01*
D11*
X10356372Y-14747984D02*
X10375420Y-14747984D01*
X10375420Y-14747984D02*
X10394467Y-14757508D01*
X10394467Y-14757508D02*
X10403991Y-14767031D01*
X10403991Y-14767031D02*
X10413515Y-14786079D01*
X10413515Y-14786079D02*
X10423039Y-14824174D01*
X10423039Y-14824174D02*
X10423039Y-14871793D01*
X10423039Y-14871793D02*
X10413515Y-14909888D01*
X10413515Y-14909888D02*
X10403991Y-14928936D01*
X10403991Y-14928936D02*
X10394467Y-14938460D01*
X10394467Y-14938460D02*
X10375420Y-14947984D01*
X10375420Y-14947984D02*
X10356372Y-14947984D01*
X10356372Y-14947984D02*
X10337324Y-14938460D01*
X10337324Y-14938460D02*
X10327801Y-14928936D01*
X10327801Y-14928936D02*
X10318277Y-14909888D01*
X10318277Y-14909888D02*
X10308753Y-14871793D01*
X10308753Y-14871793D02*
X10308753Y-14824174D01*
X10308753Y-14824174D02*
X10318277Y-14786079D01*
X10318277Y-14786079D02*
X10327801Y-14767031D01*
X10327801Y-14767031D02*
X10337324Y-14757508D01*
X10337324Y-14757508D02*
X10356372Y-14747984D01*
X10508753Y-14928936D02*
X10518277Y-14938460D01*
X10518277Y-14938460D02*
X10508753Y-14947984D01*
X10508753Y-14947984D02*
X10499229Y-14938460D01*
X10499229Y-14938460D02*
X10508753Y-14928936D01*
X10508753Y-14928936D02*
X10508753Y-14947984D01*
X10632563Y-14833698D02*
X10613515Y-14824174D01*
X10613515Y-14824174D02*
X10603991Y-14814650D01*
X10603991Y-14814650D02*
X10594467Y-14795603D01*
X10594467Y-14795603D02*
X10594467Y-14786079D01*
X10594467Y-14786079D02*
X10603991Y-14767031D01*
X10603991Y-14767031D02*
X10613515Y-14757508D01*
X10613515Y-14757508D02*
X10632563Y-14747984D01*
X10632563Y-14747984D02*
X10670658Y-14747984D01*
X10670658Y-14747984D02*
X10689705Y-14757508D01*
X10689705Y-14757508D02*
X10699229Y-14767031D01*
X10699229Y-14767031D02*
X10708753Y-14786079D01*
X10708753Y-14786079D02*
X10708753Y-14795603D01*
X10708753Y-14795603D02*
X10699229Y-14814650D01*
X10699229Y-14814650D02*
X10689705Y-14824174D01*
X10689705Y-14824174D02*
X10670658Y-14833698D01*
X10670658Y-14833698D02*
X10632563Y-14833698D01*
X10632563Y-14833698D02*
X10613515Y-14843222D01*
X10613515Y-14843222D02*
X10603991Y-14852746D01*
X10603991Y-14852746D02*
X10594467Y-14871793D01*
X10594467Y-14871793D02*
X10594467Y-14909888D01*
X10594467Y-14909888D02*
X10603991Y-14928936D01*
X10603991Y-14928936D02*
X10613515Y-14938460D01*
X10613515Y-14938460D02*
X10632563Y-14947984D01*
X10632563Y-14947984D02*
X10670658Y-14947984D01*
X10670658Y-14947984D02*
X10689705Y-14938460D01*
X10689705Y-14938460D02*
X10699229Y-14928936D01*
X10699229Y-14928936D02*
X10708753Y-14909888D01*
X10708753Y-14909888D02*
X10708753Y-14871793D01*
X10708753Y-14871793D02*
X10699229Y-14852746D01*
X10699229Y-14852746D02*
X10689705Y-14843222D01*
X10689705Y-14843222D02*
X10670658Y-14833698D01*
X10832563Y-14747984D02*
X10851610Y-14747984D01*
X10851610Y-14747984D02*
X10870658Y-14757508D01*
X10870658Y-14757508D02*
X10880182Y-14767031D01*
X10880182Y-14767031D02*
X10889705Y-14786079D01*
X10889705Y-14786079D02*
X10899229Y-14824174D01*
X10899229Y-14824174D02*
X10899229Y-14871793D01*
X10899229Y-14871793D02*
X10889705Y-14909888D01*
X10889705Y-14909888D02*
X10880182Y-14928936D01*
X10880182Y-14928936D02*
X10870658Y-14938460D01*
X10870658Y-14938460D02*
X10851610Y-14947984D01*
X10851610Y-14947984D02*
X10832563Y-14947984D01*
X10832563Y-14947984D02*
X10813515Y-14938460D01*
X10813515Y-14938460D02*
X10803991Y-14928936D01*
X10803991Y-14928936D02*
X10794467Y-14909888D01*
X10794467Y-14909888D02*
X10784944Y-14871793D01*
X10784944Y-14871793D02*
X10784944Y-14824174D01*
X10784944Y-14824174D02*
X10794467Y-14786079D01*
X10794467Y-14786079D02*
X10803991Y-14767031D01*
X10803991Y-14767031D02*
X10813515Y-14757508D01*
X10813515Y-14757508D02*
X10832563Y-14747984D01*
X11023039Y-14747984D02*
X11042086Y-14747984D01*
X11042086Y-14747984D02*
X11061134Y-14757508D01*
X11061134Y-14757508D02*
X11070658Y-14767031D01*
X11070658Y-14767031D02*
X11080182Y-14786079D01*
X11080182Y-14786079D02*
X11089705Y-14824174D01*
X11089705Y-14824174D02*
X11089705Y-14871793D01*
X11089705Y-14871793D02*
X11080182Y-14909888D01*
X11080182Y-14909888D02*
X11070658Y-14928936D01*
X11070658Y-14928936D02*
X11061134Y-14938460D01*
X11061134Y-14938460D02*
X11042086Y-14947984D01*
X11042086Y-14947984D02*
X11023039Y-14947984D01*
X11023039Y-14947984D02*
X11003991Y-14938460D01*
X11003991Y-14938460D02*
X10994467Y-14928936D01*
X10994467Y-14928936D02*
X10984944Y-14909888D01*
X10984944Y-14909888D02*
X10975420Y-14871793D01*
X10975420Y-14871793D02*
X10975420Y-14824174D01*
X10975420Y-14824174D02*
X10984944Y-14786079D01*
X10984944Y-14786079D02*
X10994467Y-14767031D01*
X10994467Y-14767031D02*
X11003991Y-14757508D01*
X11003991Y-14757508D02*
X11023039Y-14747984D01*
X11175420Y-14947984D02*
X11175420Y-14814650D01*
X11175420Y-14833698D02*
X11184943Y-14824174D01*
X11184943Y-14824174D02*
X11203991Y-14814650D01*
X11203991Y-14814650D02*
X11232563Y-14814650D01*
X11232563Y-14814650D02*
X11251610Y-14824174D01*
X11251610Y-14824174D02*
X11261134Y-14843222D01*
X11261134Y-14843222D02*
X11261134Y-14947984D01*
X11261134Y-14843222D02*
X11270658Y-14824174D01*
X11270658Y-14824174D02*
X11289705Y-14814650D01*
X11289705Y-14814650D02*
X11318277Y-14814650D01*
X11318277Y-14814650D02*
X11337324Y-14824174D01*
X11337324Y-14824174D02*
X11346848Y-14843222D01*
X11346848Y-14843222D02*
X11346848Y-14947984D01*
X11442086Y-14947984D02*
X11442086Y-14814650D01*
X11442086Y-14833698D02*
X11451610Y-14824174D01*
X11451610Y-14824174D02*
X11470658Y-14814650D01*
X11470658Y-14814650D02*
X11499229Y-14814650D01*
X11499229Y-14814650D02*
X11518277Y-14824174D01*
X11518277Y-14824174D02*
X11527801Y-14843222D01*
X11527801Y-14843222D02*
X11527801Y-14947984D01*
X11527801Y-14843222D02*
X11537324Y-14824174D01*
X11537324Y-14824174D02*
X11556372Y-14814650D01*
X11556372Y-14814650D02*
X11584943Y-14814650D01*
X11584943Y-14814650D02*
X11603991Y-14824174D01*
X11603991Y-14824174D02*
X11613515Y-14843222D01*
X11613515Y-14843222D02*
X11613515Y-14947984D01*
X12003991Y-14738460D02*
X11832563Y-14995603D01*
X12261134Y-14747984D02*
X12280182Y-14747984D01*
X12280182Y-14747984D02*
X12299229Y-14757508D01*
X12299229Y-14757508D02*
X12308753Y-14767031D01*
X12308753Y-14767031D02*
X12318277Y-14786079D01*
X12318277Y-14786079D02*
X12327801Y-14824174D01*
X12327801Y-14824174D02*
X12327801Y-14871793D01*
X12327801Y-14871793D02*
X12318277Y-14909888D01*
X12318277Y-14909888D02*
X12308753Y-14928936D01*
X12308753Y-14928936D02*
X12299229Y-14938460D01*
X12299229Y-14938460D02*
X12280182Y-14947984D01*
X12280182Y-14947984D02*
X12261134Y-14947984D01*
X12261134Y-14947984D02*
X12242086Y-14938460D01*
X12242086Y-14938460D02*
X12232563Y-14928936D01*
X12232563Y-14928936D02*
X12223039Y-14909888D01*
X12223039Y-14909888D02*
X12213515Y-14871793D01*
X12213515Y-14871793D02*
X12213515Y-14824174D01*
X12213515Y-14824174D02*
X12223039Y-14786079D01*
X12223039Y-14786079D02*
X12232563Y-14767031D01*
X12232563Y-14767031D02*
X12242086Y-14757508D01*
X12242086Y-14757508D02*
X12261134Y-14747984D01*
X12413515Y-14928936D02*
X12423039Y-14938460D01*
X12423039Y-14938460D02*
X12413515Y-14947984D01*
X12413515Y-14947984D02*
X12403991Y-14938460D01*
X12403991Y-14938460D02*
X12413515Y-14928936D01*
X12413515Y-14928936D02*
X12413515Y-14947984D01*
X12546848Y-14747984D02*
X12565896Y-14747984D01*
X12565896Y-14747984D02*
X12584944Y-14757508D01*
X12584944Y-14757508D02*
X12594467Y-14767031D01*
X12594467Y-14767031D02*
X12603991Y-14786079D01*
X12603991Y-14786079D02*
X12613515Y-14824174D01*
X12613515Y-14824174D02*
X12613515Y-14871793D01*
X12613515Y-14871793D02*
X12603991Y-14909888D01*
X12603991Y-14909888D02*
X12594467Y-14928936D01*
X12594467Y-14928936D02*
X12584944Y-14938460D01*
X12584944Y-14938460D02*
X12565896Y-14947984D01*
X12565896Y-14947984D02*
X12546848Y-14947984D01*
X12546848Y-14947984D02*
X12527801Y-14938460D01*
X12527801Y-14938460D02*
X12518277Y-14928936D01*
X12518277Y-14928936D02*
X12508753Y-14909888D01*
X12508753Y-14909888D02*
X12499229Y-14871793D01*
X12499229Y-14871793D02*
X12499229Y-14824174D01*
X12499229Y-14824174D02*
X12508753Y-14786079D01*
X12508753Y-14786079D02*
X12518277Y-14767031D01*
X12518277Y-14767031D02*
X12527801Y-14757508D01*
X12527801Y-14757508D02*
X12546848Y-14747984D01*
X12680182Y-14747984D02*
X12803991Y-14747984D01*
X12803991Y-14747984D02*
X12737325Y-14824174D01*
X12737325Y-14824174D02*
X12765896Y-14824174D01*
X12765896Y-14824174D02*
X12784944Y-14833698D01*
X12784944Y-14833698D02*
X12794467Y-14843222D01*
X12794467Y-14843222D02*
X12803991Y-14862269D01*
X12803991Y-14862269D02*
X12803991Y-14909888D01*
X12803991Y-14909888D02*
X12794467Y-14928936D01*
X12794467Y-14928936D02*
X12784944Y-14938460D01*
X12784944Y-14938460D02*
X12765896Y-14947984D01*
X12765896Y-14947984D02*
X12708753Y-14947984D01*
X12708753Y-14947984D02*
X12689706Y-14938460D01*
X12689706Y-14938460D02*
X12680182Y-14928936D01*
X12994467Y-14947984D02*
X12880182Y-14947984D01*
X12937325Y-14947984D02*
X12937325Y-14747984D01*
X12937325Y-14747984D02*
X12918277Y-14776555D01*
X12918277Y-14776555D02*
X12899229Y-14795603D01*
X12899229Y-14795603D02*
X12880182Y-14805127D01*
X13175420Y-14747984D02*
X13080182Y-14747984D01*
X13080182Y-14747984D02*
X13070658Y-14843222D01*
X13070658Y-14843222D02*
X13080182Y-14833698D01*
X13080182Y-14833698D02*
X13099229Y-14824174D01*
X13099229Y-14824174D02*
X13146848Y-14824174D01*
X13146848Y-14824174D02*
X13165896Y-14833698D01*
X13165896Y-14833698D02*
X13175420Y-14843222D01*
X13175420Y-14843222D02*
X13184944Y-14862269D01*
X13184944Y-14862269D02*
X13184944Y-14909888D01*
X13184944Y-14909888D02*
X13175420Y-14928936D01*
X13175420Y-14928936D02*
X13165896Y-14938460D01*
X13165896Y-14938460D02*
X13146848Y-14947984D01*
X13146848Y-14947984D02*
X13099229Y-14947984D01*
X13099229Y-14947984D02*
X13080182Y-14938460D01*
X13080182Y-14938460D02*
X13070658Y-14928936D01*
X13261134Y-14747984D02*
X13261134Y-14786079D01*
X13337325Y-14747984D02*
X13337325Y-14786079D01*
X13632563Y-15024174D02*
X13623039Y-15014650D01*
X13623039Y-15014650D02*
X13603991Y-14986079D01*
X13603991Y-14986079D02*
X13594468Y-14967031D01*
X13594468Y-14967031D02*
X13584944Y-14938460D01*
X13584944Y-14938460D02*
X13575420Y-14890841D01*
X13575420Y-14890841D02*
X13575420Y-14852746D01*
X13575420Y-14852746D02*
X13584944Y-14805127D01*
X13584944Y-14805127D02*
X13594468Y-14776555D01*
X13594468Y-14776555D02*
X13603991Y-14757508D01*
X13603991Y-14757508D02*
X13623039Y-14728936D01*
X13623039Y-14728936D02*
X13632563Y-14719412D01*
X13794468Y-14814650D02*
X13794468Y-14947984D01*
X13746848Y-14738460D02*
X13699229Y-14881317D01*
X13699229Y-14881317D02*
X13823039Y-14881317D01*
X14051610Y-14947984D02*
X14051610Y-14747984D01*
X14137325Y-14947984D02*
X14137325Y-14843222D01*
X14137325Y-14843222D02*
X14127801Y-14824174D01*
X14127801Y-14824174D02*
X14108753Y-14814650D01*
X14108753Y-14814650D02*
X14080182Y-14814650D01*
X14080182Y-14814650D02*
X14061134Y-14824174D01*
X14061134Y-14824174D02*
X14051610Y-14833698D01*
X14261134Y-14947984D02*
X14242087Y-14938460D01*
X14242087Y-14938460D02*
X14232563Y-14928936D01*
X14232563Y-14928936D02*
X14223039Y-14909888D01*
X14223039Y-14909888D02*
X14223039Y-14852746D01*
X14223039Y-14852746D02*
X14232563Y-14833698D01*
X14232563Y-14833698D02*
X14242087Y-14824174D01*
X14242087Y-14824174D02*
X14261134Y-14814650D01*
X14261134Y-14814650D02*
X14289706Y-14814650D01*
X14289706Y-14814650D02*
X14308753Y-14824174D01*
X14308753Y-14824174D02*
X14318277Y-14833698D01*
X14318277Y-14833698D02*
X14327801Y-14852746D01*
X14327801Y-14852746D02*
X14327801Y-14909888D01*
X14327801Y-14909888D02*
X14318277Y-14928936D01*
X14318277Y-14928936D02*
X14308753Y-14938460D01*
X14308753Y-14938460D02*
X14289706Y-14947984D01*
X14289706Y-14947984D02*
X14261134Y-14947984D01*
X14442087Y-14947984D02*
X14423039Y-14938460D01*
X14423039Y-14938460D02*
X14413515Y-14919412D01*
X14413515Y-14919412D02*
X14413515Y-14747984D01*
X14594468Y-14938460D02*
X14575420Y-14947984D01*
X14575420Y-14947984D02*
X14537325Y-14947984D01*
X14537325Y-14947984D02*
X14518277Y-14938460D01*
X14518277Y-14938460D02*
X14508753Y-14919412D01*
X14508753Y-14919412D02*
X14508753Y-14843222D01*
X14508753Y-14843222D02*
X14518277Y-14824174D01*
X14518277Y-14824174D02*
X14537325Y-14814650D01*
X14537325Y-14814650D02*
X14575420Y-14814650D01*
X14575420Y-14814650D02*
X14594468Y-14824174D01*
X14594468Y-14824174D02*
X14603991Y-14843222D01*
X14603991Y-14843222D02*
X14603991Y-14862269D01*
X14603991Y-14862269D02*
X14508753Y-14881317D01*
X14680182Y-14938460D02*
X14699230Y-14947984D01*
X14699230Y-14947984D02*
X14737325Y-14947984D01*
X14737325Y-14947984D02*
X14756372Y-14938460D01*
X14756372Y-14938460D02*
X14765896Y-14919412D01*
X14765896Y-14919412D02*
X14765896Y-14909888D01*
X14765896Y-14909888D02*
X14756372Y-14890841D01*
X14756372Y-14890841D02*
X14737325Y-14881317D01*
X14737325Y-14881317D02*
X14708753Y-14881317D01*
X14708753Y-14881317D02*
X14689706Y-14871793D01*
X14689706Y-14871793D02*
X14680182Y-14852746D01*
X14680182Y-14852746D02*
X14680182Y-14843222D01*
X14680182Y-14843222D02*
X14689706Y-14824174D01*
X14689706Y-14824174D02*
X14708753Y-14814650D01*
X14708753Y-14814650D02*
X14737325Y-14814650D01*
X14737325Y-14814650D02*
X14756372Y-14824174D01*
X14832563Y-15024174D02*
X14842087Y-15014650D01*
X14842087Y-15014650D02*
X14861134Y-14986079D01*
X14861134Y-14986079D02*
X14870658Y-14967031D01*
X14870658Y-14967031D02*
X14880182Y-14938460D01*
X14880182Y-14938460D02*
X14889706Y-14890841D01*
X14889706Y-14890841D02*
X14889706Y-14852746D01*
X14889706Y-14852746D02*
X14880182Y-14805127D01*
X14880182Y-14805127D02*
X14870658Y-14776555D01*
X14870658Y-14776555D02*
X14861134Y-14757508D01*
X14861134Y-14757508D02*
X14842087Y-14728936D01*
X14842087Y-14728936D02*
X14832563Y-14719412D01*
D12*
X10007500Y-15070500D02*
X10007500Y-15170500D01*
X9957500Y-15120500D02*
X10057500Y-15120500D01*
D11*
X10423039Y-15211984D02*
X10308753Y-15211984D01*
X10365896Y-15211984D02*
X10365896Y-15011984D01*
X10365896Y-15011984D02*
X10346848Y-15040555D01*
X10346848Y-15040555D02*
X10327801Y-15059603D01*
X10327801Y-15059603D02*
X10308753Y-15069127D01*
X10508753Y-15192936D02*
X10518277Y-15202460D01*
X10518277Y-15202460D02*
X10508753Y-15211984D01*
X10508753Y-15211984D02*
X10499229Y-15202460D01*
X10499229Y-15202460D02*
X10508753Y-15192936D01*
X10508753Y-15192936D02*
X10508753Y-15211984D01*
X10642086Y-15011984D02*
X10661134Y-15011984D01*
X10661134Y-15011984D02*
X10680182Y-15021508D01*
X10680182Y-15021508D02*
X10689705Y-15031031D01*
X10689705Y-15031031D02*
X10699229Y-15050079D01*
X10699229Y-15050079D02*
X10708753Y-15088174D01*
X10708753Y-15088174D02*
X10708753Y-15135793D01*
X10708753Y-15135793D02*
X10699229Y-15173888D01*
X10699229Y-15173888D02*
X10689705Y-15192936D01*
X10689705Y-15192936D02*
X10680182Y-15202460D01*
X10680182Y-15202460D02*
X10661134Y-15211984D01*
X10661134Y-15211984D02*
X10642086Y-15211984D01*
X10642086Y-15211984D02*
X10623039Y-15202460D01*
X10623039Y-15202460D02*
X10613515Y-15192936D01*
X10613515Y-15192936D02*
X10603991Y-15173888D01*
X10603991Y-15173888D02*
X10594467Y-15135793D01*
X10594467Y-15135793D02*
X10594467Y-15088174D01*
X10594467Y-15088174D02*
X10603991Y-15050079D01*
X10603991Y-15050079D02*
X10613515Y-15031031D01*
X10613515Y-15031031D02*
X10623039Y-15021508D01*
X10623039Y-15021508D02*
X10642086Y-15011984D01*
X10832563Y-15011984D02*
X10851610Y-15011984D01*
X10851610Y-15011984D02*
X10870658Y-15021508D01*
X10870658Y-15021508D02*
X10880182Y-15031031D01*
X10880182Y-15031031D02*
X10889705Y-15050079D01*
X10889705Y-15050079D02*
X10899229Y-15088174D01*
X10899229Y-15088174D02*
X10899229Y-15135793D01*
X10899229Y-15135793D02*
X10889705Y-15173888D01*
X10889705Y-15173888D02*
X10880182Y-15192936D01*
X10880182Y-15192936D02*
X10870658Y-15202460D01*
X10870658Y-15202460D02*
X10851610Y-15211984D01*
X10851610Y-15211984D02*
X10832563Y-15211984D01*
X10832563Y-15211984D02*
X10813515Y-15202460D01*
X10813515Y-15202460D02*
X10803991Y-15192936D01*
X10803991Y-15192936D02*
X10794467Y-15173888D01*
X10794467Y-15173888D02*
X10784944Y-15135793D01*
X10784944Y-15135793D02*
X10784944Y-15088174D01*
X10784944Y-15088174D02*
X10794467Y-15050079D01*
X10794467Y-15050079D02*
X10803991Y-15031031D01*
X10803991Y-15031031D02*
X10813515Y-15021508D01*
X10813515Y-15021508D02*
X10832563Y-15011984D01*
X11023039Y-15011984D02*
X11042086Y-15011984D01*
X11042086Y-15011984D02*
X11061134Y-15021508D01*
X11061134Y-15021508D02*
X11070658Y-15031031D01*
X11070658Y-15031031D02*
X11080182Y-15050079D01*
X11080182Y-15050079D02*
X11089705Y-15088174D01*
X11089705Y-15088174D02*
X11089705Y-15135793D01*
X11089705Y-15135793D02*
X11080182Y-15173888D01*
X11080182Y-15173888D02*
X11070658Y-15192936D01*
X11070658Y-15192936D02*
X11061134Y-15202460D01*
X11061134Y-15202460D02*
X11042086Y-15211984D01*
X11042086Y-15211984D02*
X11023039Y-15211984D01*
X11023039Y-15211984D02*
X11003991Y-15202460D01*
X11003991Y-15202460D02*
X10994467Y-15192936D01*
X10994467Y-15192936D02*
X10984944Y-15173888D01*
X10984944Y-15173888D02*
X10975420Y-15135793D01*
X10975420Y-15135793D02*
X10975420Y-15088174D01*
X10975420Y-15088174D02*
X10984944Y-15050079D01*
X10984944Y-15050079D02*
X10994467Y-15031031D01*
X10994467Y-15031031D02*
X11003991Y-15021508D01*
X11003991Y-15021508D02*
X11023039Y-15011984D01*
X11175420Y-15211984D02*
X11175420Y-15078650D01*
X11175420Y-15097698D02*
X11184943Y-15088174D01*
X11184943Y-15088174D02*
X11203991Y-15078650D01*
X11203991Y-15078650D02*
X11232563Y-15078650D01*
X11232563Y-15078650D02*
X11251610Y-15088174D01*
X11251610Y-15088174D02*
X11261134Y-15107222D01*
X11261134Y-15107222D02*
X11261134Y-15211984D01*
X11261134Y-15107222D02*
X11270658Y-15088174D01*
X11270658Y-15088174D02*
X11289705Y-15078650D01*
X11289705Y-15078650D02*
X11318277Y-15078650D01*
X11318277Y-15078650D02*
X11337324Y-15088174D01*
X11337324Y-15088174D02*
X11346848Y-15107222D01*
X11346848Y-15107222D02*
X11346848Y-15211984D01*
X11442086Y-15211984D02*
X11442086Y-15078650D01*
X11442086Y-15097698D02*
X11451610Y-15088174D01*
X11451610Y-15088174D02*
X11470658Y-15078650D01*
X11470658Y-15078650D02*
X11499229Y-15078650D01*
X11499229Y-15078650D02*
X11518277Y-15088174D01*
X11518277Y-15088174D02*
X11527801Y-15107222D01*
X11527801Y-15107222D02*
X11527801Y-15211984D01*
X11527801Y-15107222D02*
X11537324Y-15088174D01*
X11537324Y-15088174D02*
X11556372Y-15078650D01*
X11556372Y-15078650D02*
X11584943Y-15078650D01*
X11584943Y-15078650D02*
X11603991Y-15088174D01*
X11603991Y-15088174D02*
X11613515Y-15107222D01*
X11613515Y-15107222D02*
X11613515Y-15211984D01*
X12003991Y-15002460D02*
X11832563Y-15259603D01*
X12261134Y-15011984D02*
X12280182Y-15011984D01*
X12280182Y-15011984D02*
X12299229Y-15021508D01*
X12299229Y-15021508D02*
X12308753Y-15031031D01*
X12308753Y-15031031D02*
X12318277Y-15050079D01*
X12318277Y-15050079D02*
X12327801Y-15088174D01*
X12327801Y-15088174D02*
X12327801Y-15135793D01*
X12327801Y-15135793D02*
X12318277Y-15173888D01*
X12318277Y-15173888D02*
X12308753Y-15192936D01*
X12308753Y-15192936D02*
X12299229Y-15202460D01*
X12299229Y-15202460D02*
X12280182Y-15211984D01*
X12280182Y-15211984D02*
X12261134Y-15211984D01*
X12261134Y-15211984D02*
X12242086Y-15202460D01*
X12242086Y-15202460D02*
X12232563Y-15192936D01*
X12232563Y-15192936D02*
X12223039Y-15173888D01*
X12223039Y-15173888D02*
X12213515Y-15135793D01*
X12213515Y-15135793D02*
X12213515Y-15088174D01*
X12213515Y-15088174D02*
X12223039Y-15050079D01*
X12223039Y-15050079D02*
X12232563Y-15031031D01*
X12232563Y-15031031D02*
X12242086Y-15021508D01*
X12242086Y-15021508D02*
X12261134Y-15011984D01*
X12413515Y-15192936D02*
X12423039Y-15202460D01*
X12423039Y-15202460D02*
X12413515Y-15211984D01*
X12413515Y-15211984D02*
X12403991Y-15202460D01*
X12403991Y-15202460D02*
X12413515Y-15192936D01*
X12413515Y-15192936D02*
X12413515Y-15211984D01*
X12546848Y-15011984D02*
X12565896Y-15011984D01*
X12565896Y-15011984D02*
X12584944Y-15021508D01*
X12584944Y-15021508D02*
X12594467Y-15031031D01*
X12594467Y-15031031D02*
X12603991Y-15050079D01*
X12603991Y-15050079D02*
X12613515Y-15088174D01*
X12613515Y-15088174D02*
X12613515Y-15135793D01*
X12613515Y-15135793D02*
X12603991Y-15173888D01*
X12603991Y-15173888D02*
X12594467Y-15192936D01*
X12594467Y-15192936D02*
X12584944Y-15202460D01*
X12584944Y-15202460D02*
X12565896Y-15211984D01*
X12565896Y-15211984D02*
X12546848Y-15211984D01*
X12546848Y-15211984D02*
X12527801Y-15202460D01*
X12527801Y-15202460D02*
X12518277Y-15192936D01*
X12518277Y-15192936D02*
X12508753Y-15173888D01*
X12508753Y-15173888D02*
X12499229Y-15135793D01*
X12499229Y-15135793D02*
X12499229Y-15088174D01*
X12499229Y-15088174D02*
X12508753Y-15050079D01*
X12508753Y-15050079D02*
X12518277Y-15031031D01*
X12518277Y-15031031D02*
X12527801Y-15021508D01*
X12527801Y-15021508D02*
X12546848Y-15011984D01*
X12680182Y-15011984D02*
X12803991Y-15011984D01*
X12803991Y-15011984D02*
X12737325Y-15088174D01*
X12737325Y-15088174D02*
X12765896Y-15088174D01*
X12765896Y-15088174D02*
X12784944Y-15097698D01*
X12784944Y-15097698D02*
X12794467Y-15107222D01*
X12794467Y-15107222D02*
X12803991Y-15126269D01*
X12803991Y-15126269D02*
X12803991Y-15173888D01*
X12803991Y-15173888D02*
X12794467Y-15192936D01*
X12794467Y-15192936D02*
X12784944Y-15202460D01*
X12784944Y-15202460D02*
X12765896Y-15211984D01*
X12765896Y-15211984D02*
X12708753Y-15211984D01*
X12708753Y-15211984D02*
X12689706Y-15202460D01*
X12689706Y-15202460D02*
X12680182Y-15192936D01*
X12899229Y-15211984D02*
X12937325Y-15211984D01*
X12937325Y-15211984D02*
X12956372Y-15202460D01*
X12956372Y-15202460D02*
X12965896Y-15192936D01*
X12965896Y-15192936D02*
X12984944Y-15164365D01*
X12984944Y-15164365D02*
X12994467Y-15126269D01*
X12994467Y-15126269D02*
X12994467Y-15050079D01*
X12994467Y-15050079D02*
X12984944Y-15031031D01*
X12984944Y-15031031D02*
X12975420Y-15021508D01*
X12975420Y-15021508D02*
X12956372Y-15011984D01*
X12956372Y-15011984D02*
X12918277Y-15011984D01*
X12918277Y-15011984D02*
X12899229Y-15021508D01*
X12899229Y-15021508D02*
X12889706Y-15031031D01*
X12889706Y-15031031D02*
X12880182Y-15050079D01*
X12880182Y-15050079D02*
X12880182Y-15097698D01*
X12880182Y-15097698D02*
X12889706Y-15116746D01*
X12889706Y-15116746D02*
X12899229Y-15126269D01*
X12899229Y-15126269D02*
X12918277Y-15135793D01*
X12918277Y-15135793D02*
X12956372Y-15135793D01*
X12956372Y-15135793D02*
X12975420Y-15126269D01*
X12975420Y-15126269D02*
X12984944Y-15116746D01*
X12984944Y-15116746D02*
X12994467Y-15097698D01*
X13165896Y-15078650D02*
X13165896Y-15211984D01*
X13118277Y-15002460D02*
X13070658Y-15145317D01*
X13070658Y-15145317D02*
X13194467Y-15145317D01*
X13261134Y-15011984D02*
X13261134Y-15050079D01*
X13337325Y-15011984D02*
X13337325Y-15050079D01*
X13632563Y-15288174D02*
X13623039Y-15278650D01*
X13623039Y-15278650D02*
X13603991Y-15250079D01*
X13603991Y-15250079D02*
X13594468Y-15231031D01*
X13594468Y-15231031D02*
X13584944Y-15202460D01*
X13584944Y-15202460D02*
X13575420Y-15154841D01*
X13575420Y-15154841D02*
X13575420Y-15116746D01*
X13575420Y-15116746D02*
X13584944Y-15069127D01*
X13584944Y-15069127D02*
X13594468Y-15040555D01*
X13594468Y-15040555D02*
X13603991Y-15021508D01*
X13603991Y-15021508D02*
X13623039Y-14992936D01*
X13623039Y-14992936D02*
X13632563Y-14983412D01*
X13794468Y-15078650D02*
X13794468Y-15211984D01*
X13746848Y-15002460D02*
X13699229Y-15145317D01*
X13699229Y-15145317D02*
X13823039Y-15145317D01*
X13889706Y-15031031D02*
X13899229Y-15021508D01*
X13899229Y-15021508D02*
X13918277Y-15011984D01*
X13918277Y-15011984D02*
X13965896Y-15011984D01*
X13965896Y-15011984D02*
X13984944Y-15021508D01*
X13984944Y-15021508D02*
X13994468Y-15031031D01*
X13994468Y-15031031D02*
X14003991Y-15050079D01*
X14003991Y-15050079D02*
X14003991Y-15069127D01*
X14003991Y-15069127D02*
X13994468Y-15097698D01*
X13994468Y-15097698D02*
X13880182Y-15211984D01*
X13880182Y-15211984D02*
X14003991Y-15211984D01*
X14242087Y-15211984D02*
X14242087Y-15011984D01*
X14327801Y-15211984D02*
X14327801Y-15107222D01*
X14327801Y-15107222D02*
X14318277Y-15088174D01*
X14318277Y-15088174D02*
X14299230Y-15078650D01*
X14299230Y-15078650D02*
X14270658Y-15078650D01*
X14270658Y-15078650D02*
X14251610Y-15088174D01*
X14251610Y-15088174D02*
X14242087Y-15097698D01*
X14451610Y-15211984D02*
X14432563Y-15202460D01*
X14432563Y-15202460D02*
X14423039Y-15192936D01*
X14423039Y-15192936D02*
X14413515Y-15173888D01*
X14413515Y-15173888D02*
X14413515Y-15116746D01*
X14413515Y-15116746D02*
X14423039Y-15097698D01*
X14423039Y-15097698D02*
X14432563Y-15088174D01*
X14432563Y-15088174D02*
X14451610Y-15078650D01*
X14451610Y-15078650D02*
X14480182Y-15078650D01*
X14480182Y-15078650D02*
X14499230Y-15088174D01*
X14499230Y-15088174D02*
X14508753Y-15097698D01*
X14508753Y-15097698D02*
X14518277Y-15116746D01*
X14518277Y-15116746D02*
X14518277Y-15173888D01*
X14518277Y-15173888D02*
X14508753Y-15192936D01*
X14508753Y-15192936D02*
X14499230Y-15202460D01*
X14499230Y-15202460D02*
X14480182Y-15211984D01*
X14480182Y-15211984D02*
X14451610Y-15211984D01*
X14632563Y-15211984D02*
X14613515Y-15202460D01*
X14613515Y-15202460D02*
X14603991Y-15183412D01*
X14603991Y-15183412D02*
X14603991Y-15011984D01*
X14784944Y-15202460D02*
X14765896Y-15211984D01*
X14765896Y-15211984D02*
X14727801Y-15211984D01*
X14727801Y-15211984D02*
X14708753Y-15202460D01*
X14708753Y-15202460D02*
X14699230Y-15183412D01*
X14699230Y-15183412D02*
X14699230Y-15107222D01*
X14699230Y-15107222D02*
X14708753Y-15088174D01*
X14708753Y-15088174D02*
X14727801Y-15078650D01*
X14727801Y-15078650D02*
X14765896Y-15078650D01*
X14765896Y-15078650D02*
X14784944Y-15088174D01*
X14784944Y-15088174D02*
X14794468Y-15107222D01*
X14794468Y-15107222D02*
X14794468Y-15126269D01*
X14794468Y-15126269D02*
X14699230Y-15145317D01*
X14870658Y-15202460D02*
X14889706Y-15211984D01*
X14889706Y-15211984D02*
X14927801Y-15211984D01*
X14927801Y-15211984D02*
X14946849Y-15202460D01*
X14946849Y-15202460D02*
X14956372Y-15183412D01*
X14956372Y-15183412D02*
X14956372Y-15173888D01*
X14956372Y-15173888D02*
X14946849Y-15154841D01*
X14946849Y-15154841D02*
X14927801Y-15145317D01*
X14927801Y-15145317D02*
X14899230Y-15145317D01*
X14899230Y-15145317D02*
X14880182Y-15135793D01*
X14880182Y-15135793D02*
X14870658Y-15116746D01*
X14870658Y-15116746D02*
X14870658Y-15107222D01*
X14870658Y-15107222D02*
X14880182Y-15088174D01*
X14880182Y-15088174D02*
X14899230Y-15078650D01*
X14899230Y-15078650D02*
X14927801Y-15078650D01*
X14927801Y-15078650D02*
X14946849Y-15088174D01*
X15023039Y-15288174D02*
X15032563Y-15278650D01*
X15032563Y-15278650D02*
X15051611Y-15250079D01*
X15051611Y-15250079D02*
X15061134Y-15231031D01*
X15061134Y-15231031D02*
X15070658Y-15202460D01*
X15070658Y-15202460D02*
X15080182Y-15154841D01*
X15080182Y-15154841D02*
X15080182Y-15116746D01*
X15080182Y-15116746D02*
X15070658Y-15069127D01*
X15070658Y-15069127D02*
X15061134Y-15040555D01*
X15061134Y-15040555D02*
X15051611Y-15021508D01*
X15051611Y-15021508D02*
X15032563Y-14992936D01*
X15032563Y-14992936D02*
X15023039Y-14983412D01*
X10028211Y-15455211D02*
X10028211Y-15313789D01*
X9886789Y-15313789D01*
X9886789Y-15455211D01*
X10028211Y-15455211D01*
X10308753Y-15295031D02*
X10318277Y-15285508D01*
X10318277Y-15285508D02*
X10337324Y-15275984D01*
X10337324Y-15275984D02*
X10384944Y-15275984D01*
X10384944Y-15275984D02*
X10403991Y-15285508D01*
X10403991Y-15285508D02*
X10413515Y-15295031D01*
X10413515Y-15295031D02*
X10423039Y-15314079D01*
X10423039Y-15314079D02*
X10423039Y-15333127D01*
X10423039Y-15333127D02*
X10413515Y-15361698D01*
X10413515Y-15361698D02*
X10299229Y-15475984D01*
X10299229Y-15475984D02*
X10423039Y-15475984D01*
X10508753Y-15456936D02*
X10518277Y-15466460D01*
X10518277Y-15466460D02*
X10508753Y-15475984D01*
X10508753Y-15475984D02*
X10499229Y-15466460D01*
X10499229Y-15466460D02*
X10508753Y-15456936D01*
X10508753Y-15456936D02*
X10508753Y-15475984D01*
X10699229Y-15275984D02*
X10603991Y-15275984D01*
X10603991Y-15275984D02*
X10594467Y-15371222D01*
X10594467Y-15371222D02*
X10603991Y-15361698D01*
X10603991Y-15361698D02*
X10623039Y-15352174D01*
X10623039Y-15352174D02*
X10670658Y-15352174D01*
X10670658Y-15352174D02*
X10689705Y-15361698D01*
X10689705Y-15361698D02*
X10699229Y-15371222D01*
X10699229Y-15371222D02*
X10708753Y-15390269D01*
X10708753Y-15390269D02*
X10708753Y-15437888D01*
X10708753Y-15437888D02*
X10699229Y-15456936D01*
X10699229Y-15456936D02*
X10689705Y-15466460D01*
X10689705Y-15466460D02*
X10670658Y-15475984D01*
X10670658Y-15475984D02*
X10623039Y-15475984D01*
X10623039Y-15475984D02*
X10603991Y-15466460D01*
X10603991Y-15466460D02*
X10594467Y-15456936D01*
X10832563Y-15275984D02*
X10851610Y-15275984D01*
X10851610Y-15275984D02*
X10870658Y-15285508D01*
X10870658Y-15285508D02*
X10880182Y-15295031D01*
X10880182Y-15295031D02*
X10889705Y-15314079D01*
X10889705Y-15314079D02*
X10899229Y-15352174D01*
X10899229Y-15352174D02*
X10899229Y-15399793D01*
X10899229Y-15399793D02*
X10889705Y-15437888D01*
X10889705Y-15437888D02*
X10880182Y-15456936D01*
X10880182Y-15456936D02*
X10870658Y-15466460D01*
X10870658Y-15466460D02*
X10851610Y-15475984D01*
X10851610Y-15475984D02*
X10832563Y-15475984D01*
X10832563Y-15475984D02*
X10813515Y-15466460D01*
X10813515Y-15466460D02*
X10803991Y-15456936D01*
X10803991Y-15456936D02*
X10794467Y-15437888D01*
X10794467Y-15437888D02*
X10784944Y-15399793D01*
X10784944Y-15399793D02*
X10784944Y-15352174D01*
X10784944Y-15352174D02*
X10794467Y-15314079D01*
X10794467Y-15314079D02*
X10803991Y-15295031D01*
X10803991Y-15295031D02*
X10813515Y-15285508D01*
X10813515Y-15285508D02*
X10832563Y-15275984D01*
X11023039Y-15275984D02*
X11042086Y-15275984D01*
X11042086Y-15275984D02*
X11061134Y-15285508D01*
X11061134Y-15285508D02*
X11070658Y-15295031D01*
X11070658Y-15295031D02*
X11080182Y-15314079D01*
X11080182Y-15314079D02*
X11089705Y-15352174D01*
X11089705Y-15352174D02*
X11089705Y-15399793D01*
X11089705Y-15399793D02*
X11080182Y-15437888D01*
X11080182Y-15437888D02*
X11070658Y-15456936D01*
X11070658Y-15456936D02*
X11061134Y-15466460D01*
X11061134Y-15466460D02*
X11042086Y-15475984D01*
X11042086Y-15475984D02*
X11023039Y-15475984D01*
X11023039Y-15475984D02*
X11003991Y-15466460D01*
X11003991Y-15466460D02*
X10994467Y-15456936D01*
X10994467Y-15456936D02*
X10984944Y-15437888D01*
X10984944Y-15437888D02*
X10975420Y-15399793D01*
X10975420Y-15399793D02*
X10975420Y-15352174D01*
X10975420Y-15352174D02*
X10984944Y-15314079D01*
X10984944Y-15314079D02*
X10994467Y-15295031D01*
X10994467Y-15295031D02*
X11003991Y-15285508D01*
X11003991Y-15285508D02*
X11023039Y-15275984D01*
X11175420Y-15475984D02*
X11175420Y-15342650D01*
X11175420Y-15361698D02*
X11184943Y-15352174D01*
X11184943Y-15352174D02*
X11203991Y-15342650D01*
X11203991Y-15342650D02*
X11232563Y-15342650D01*
X11232563Y-15342650D02*
X11251610Y-15352174D01*
X11251610Y-15352174D02*
X11261134Y-15371222D01*
X11261134Y-15371222D02*
X11261134Y-15475984D01*
X11261134Y-15371222D02*
X11270658Y-15352174D01*
X11270658Y-15352174D02*
X11289705Y-15342650D01*
X11289705Y-15342650D02*
X11318277Y-15342650D01*
X11318277Y-15342650D02*
X11337324Y-15352174D01*
X11337324Y-15352174D02*
X11346848Y-15371222D01*
X11346848Y-15371222D02*
X11346848Y-15475984D01*
X11442086Y-15475984D02*
X11442086Y-15342650D01*
X11442086Y-15361698D02*
X11451610Y-15352174D01*
X11451610Y-15352174D02*
X11470658Y-15342650D01*
X11470658Y-15342650D02*
X11499229Y-15342650D01*
X11499229Y-15342650D02*
X11518277Y-15352174D01*
X11518277Y-15352174D02*
X11527801Y-15371222D01*
X11527801Y-15371222D02*
X11527801Y-15475984D01*
X11527801Y-15371222D02*
X11537324Y-15352174D01*
X11537324Y-15352174D02*
X11556372Y-15342650D01*
X11556372Y-15342650D02*
X11584943Y-15342650D01*
X11584943Y-15342650D02*
X11603991Y-15352174D01*
X11603991Y-15352174D02*
X11613515Y-15371222D01*
X11613515Y-15371222D02*
X11613515Y-15475984D01*
X12003991Y-15266460D02*
X11832563Y-15523603D01*
X12261134Y-15275984D02*
X12280182Y-15275984D01*
X12280182Y-15275984D02*
X12299229Y-15285508D01*
X12299229Y-15285508D02*
X12308753Y-15295031D01*
X12308753Y-15295031D02*
X12318277Y-15314079D01*
X12318277Y-15314079D02*
X12327801Y-15352174D01*
X12327801Y-15352174D02*
X12327801Y-15399793D01*
X12327801Y-15399793D02*
X12318277Y-15437888D01*
X12318277Y-15437888D02*
X12308753Y-15456936D01*
X12308753Y-15456936D02*
X12299229Y-15466460D01*
X12299229Y-15466460D02*
X12280182Y-15475984D01*
X12280182Y-15475984D02*
X12261134Y-15475984D01*
X12261134Y-15475984D02*
X12242086Y-15466460D01*
X12242086Y-15466460D02*
X12232563Y-15456936D01*
X12232563Y-15456936D02*
X12223039Y-15437888D01*
X12223039Y-15437888D02*
X12213515Y-15399793D01*
X12213515Y-15399793D02*
X12213515Y-15352174D01*
X12213515Y-15352174D02*
X12223039Y-15314079D01*
X12223039Y-15314079D02*
X12232563Y-15295031D01*
X12232563Y-15295031D02*
X12242086Y-15285508D01*
X12242086Y-15285508D02*
X12261134Y-15275984D01*
X12413515Y-15456936D02*
X12423039Y-15466460D01*
X12423039Y-15466460D02*
X12413515Y-15475984D01*
X12413515Y-15475984D02*
X12403991Y-15466460D01*
X12403991Y-15466460D02*
X12413515Y-15456936D01*
X12413515Y-15456936D02*
X12413515Y-15475984D01*
X12546848Y-15275984D02*
X12565896Y-15275984D01*
X12565896Y-15275984D02*
X12584944Y-15285508D01*
X12584944Y-15285508D02*
X12594467Y-15295031D01*
X12594467Y-15295031D02*
X12603991Y-15314079D01*
X12603991Y-15314079D02*
X12613515Y-15352174D01*
X12613515Y-15352174D02*
X12613515Y-15399793D01*
X12613515Y-15399793D02*
X12603991Y-15437888D01*
X12603991Y-15437888D02*
X12594467Y-15456936D01*
X12594467Y-15456936D02*
X12584944Y-15466460D01*
X12584944Y-15466460D02*
X12565896Y-15475984D01*
X12565896Y-15475984D02*
X12546848Y-15475984D01*
X12546848Y-15475984D02*
X12527801Y-15466460D01*
X12527801Y-15466460D02*
X12518277Y-15456936D01*
X12518277Y-15456936D02*
X12508753Y-15437888D01*
X12508753Y-15437888D02*
X12499229Y-15399793D01*
X12499229Y-15399793D02*
X12499229Y-15352174D01*
X12499229Y-15352174D02*
X12508753Y-15314079D01*
X12508753Y-15314079D02*
X12518277Y-15295031D01*
X12518277Y-15295031D02*
X12527801Y-15285508D01*
X12527801Y-15285508D02*
X12546848Y-15275984D01*
X12708753Y-15475984D02*
X12746848Y-15475984D01*
X12746848Y-15475984D02*
X12765896Y-15466460D01*
X12765896Y-15466460D02*
X12775420Y-15456936D01*
X12775420Y-15456936D02*
X12794467Y-15428365D01*
X12794467Y-15428365D02*
X12803991Y-15390269D01*
X12803991Y-15390269D02*
X12803991Y-15314079D01*
X12803991Y-15314079D02*
X12794467Y-15295031D01*
X12794467Y-15295031D02*
X12784944Y-15285508D01*
X12784944Y-15285508D02*
X12765896Y-15275984D01*
X12765896Y-15275984D02*
X12727801Y-15275984D01*
X12727801Y-15275984D02*
X12708753Y-15285508D01*
X12708753Y-15285508D02*
X12699229Y-15295031D01*
X12699229Y-15295031D02*
X12689706Y-15314079D01*
X12689706Y-15314079D02*
X12689706Y-15361698D01*
X12689706Y-15361698D02*
X12699229Y-15380746D01*
X12699229Y-15380746D02*
X12708753Y-15390269D01*
X12708753Y-15390269D02*
X12727801Y-15399793D01*
X12727801Y-15399793D02*
X12765896Y-15399793D01*
X12765896Y-15399793D02*
X12784944Y-15390269D01*
X12784944Y-15390269D02*
X12794467Y-15380746D01*
X12794467Y-15380746D02*
X12803991Y-15361698D01*
X12918277Y-15361698D02*
X12899229Y-15352174D01*
X12899229Y-15352174D02*
X12889706Y-15342650D01*
X12889706Y-15342650D02*
X12880182Y-15323603D01*
X12880182Y-15323603D02*
X12880182Y-15314079D01*
X12880182Y-15314079D02*
X12889706Y-15295031D01*
X12889706Y-15295031D02*
X12899229Y-15285508D01*
X12899229Y-15285508D02*
X12918277Y-15275984D01*
X12918277Y-15275984D02*
X12956372Y-15275984D01*
X12956372Y-15275984D02*
X12975420Y-15285508D01*
X12975420Y-15285508D02*
X12984944Y-15295031D01*
X12984944Y-15295031D02*
X12994467Y-15314079D01*
X12994467Y-15314079D02*
X12994467Y-15323603D01*
X12994467Y-15323603D02*
X12984944Y-15342650D01*
X12984944Y-15342650D02*
X12975420Y-15352174D01*
X12975420Y-15352174D02*
X12956372Y-15361698D01*
X12956372Y-15361698D02*
X12918277Y-15361698D01*
X12918277Y-15361698D02*
X12899229Y-15371222D01*
X12899229Y-15371222D02*
X12889706Y-15380746D01*
X12889706Y-15380746D02*
X12880182Y-15399793D01*
X12880182Y-15399793D02*
X12880182Y-15437888D01*
X12880182Y-15437888D02*
X12889706Y-15456936D01*
X12889706Y-15456936D02*
X12899229Y-15466460D01*
X12899229Y-15466460D02*
X12918277Y-15475984D01*
X12918277Y-15475984D02*
X12956372Y-15475984D01*
X12956372Y-15475984D02*
X12975420Y-15466460D01*
X12975420Y-15466460D02*
X12984944Y-15456936D01*
X12984944Y-15456936D02*
X12994467Y-15437888D01*
X12994467Y-15437888D02*
X12994467Y-15399793D01*
X12994467Y-15399793D02*
X12984944Y-15380746D01*
X12984944Y-15380746D02*
X12975420Y-15371222D01*
X12975420Y-15371222D02*
X12956372Y-15361698D01*
X13165896Y-15342650D02*
X13165896Y-15475984D01*
X13118277Y-15266460D02*
X13070658Y-15409317D01*
X13070658Y-15409317D02*
X13194467Y-15409317D01*
X13261134Y-15275984D02*
X13261134Y-15314079D01*
X13337325Y-15275984D02*
X13337325Y-15314079D01*
X13632563Y-15552174D02*
X13623039Y-15542650D01*
X13623039Y-15542650D02*
X13603991Y-15514079D01*
X13603991Y-15514079D02*
X13594468Y-15495031D01*
X13594468Y-15495031D02*
X13584944Y-15466460D01*
X13584944Y-15466460D02*
X13575420Y-15418841D01*
X13575420Y-15418841D02*
X13575420Y-15380746D01*
X13575420Y-15380746D02*
X13584944Y-15333127D01*
X13584944Y-15333127D02*
X13594468Y-15304555D01*
X13594468Y-15304555D02*
X13603991Y-15285508D01*
X13603991Y-15285508D02*
X13623039Y-15256936D01*
X13623039Y-15256936D02*
X13632563Y-15247412D01*
X13794468Y-15342650D02*
X13794468Y-15475984D01*
X13746848Y-15266460D02*
X13699229Y-15409317D01*
X13699229Y-15409317D02*
X13823039Y-15409317D01*
X14051610Y-15475984D02*
X14051610Y-15275984D01*
X14137325Y-15475984D02*
X14137325Y-15371222D01*
X14137325Y-15371222D02*
X14127801Y-15352174D01*
X14127801Y-15352174D02*
X14108753Y-15342650D01*
X14108753Y-15342650D02*
X14080182Y-15342650D01*
X14080182Y-15342650D02*
X14061134Y-15352174D01*
X14061134Y-15352174D02*
X14051610Y-15361698D01*
X14261134Y-15475984D02*
X14242087Y-15466460D01*
X14242087Y-15466460D02*
X14232563Y-15456936D01*
X14232563Y-15456936D02*
X14223039Y-15437888D01*
X14223039Y-15437888D02*
X14223039Y-15380746D01*
X14223039Y-15380746D02*
X14232563Y-15361698D01*
X14232563Y-15361698D02*
X14242087Y-15352174D01*
X14242087Y-15352174D02*
X14261134Y-15342650D01*
X14261134Y-15342650D02*
X14289706Y-15342650D01*
X14289706Y-15342650D02*
X14308753Y-15352174D01*
X14308753Y-15352174D02*
X14318277Y-15361698D01*
X14318277Y-15361698D02*
X14327801Y-15380746D01*
X14327801Y-15380746D02*
X14327801Y-15437888D01*
X14327801Y-15437888D02*
X14318277Y-15456936D01*
X14318277Y-15456936D02*
X14308753Y-15466460D01*
X14308753Y-15466460D02*
X14289706Y-15475984D01*
X14289706Y-15475984D02*
X14261134Y-15475984D01*
X14442087Y-15475984D02*
X14423039Y-15466460D01*
X14423039Y-15466460D02*
X14413515Y-15447412D01*
X14413515Y-15447412D02*
X14413515Y-15275984D01*
X14594468Y-15466460D02*
X14575420Y-15475984D01*
X14575420Y-15475984D02*
X14537325Y-15475984D01*
X14537325Y-15475984D02*
X14518277Y-15466460D01*
X14518277Y-15466460D02*
X14508753Y-15447412D01*
X14508753Y-15447412D02*
X14508753Y-15371222D01*
X14508753Y-15371222D02*
X14518277Y-15352174D01*
X14518277Y-15352174D02*
X14537325Y-15342650D01*
X14537325Y-15342650D02*
X14575420Y-15342650D01*
X14575420Y-15342650D02*
X14594468Y-15352174D01*
X14594468Y-15352174D02*
X14603991Y-15371222D01*
X14603991Y-15371222D02*
X14603991Y-15390269D01*
X14603991Y-15390269D02*
X14508753Y-15409317D01*
X14680182Y-15466460D02*
X14699230Y-15475984D01*
X14699230Y-15475984D02*
X14737325Y-15475984D01*
X14737325Y-15475984D02*
X14756372Y-15466460D01*
X14756372Y-15466460D02*
X14765896Y-15447412D01*
X14765896Y-15447412D02*
X14765896Y-15437888D01*
X14765896Y-15437888D02*
X14756372Y-15418841D01*
X14756372Y-15418841D02*
X14737325Y-15409317D01*
X14737325Y-15409317D02*
X14708753Y-15409317D01*
X14708753Y-15409317D02*
X14689706Y-15399793D01*
X14689706Y-15399793D02*
X14680182Y-15380746D01*
X14680182Y-15380746D02*
X14680182Y-15371222D01*
X14680182Y-15371222D02*
X14689706Y-15352174D01*
X14689706Y-15352174D02*
X14708753Y-15342650D01*
X14708753Y-15342650D02*
X14737325Y-15342650D01*
X14737325Y-15342650D02*
X14756372Y-15352174D01*
X14832563Y-15552174D02*
X14842087Y-15542650D01*
X14842087Y-15542650D02*
X14861134Y-15514079D01*
X14861134Y-15514079D02*
X14870658Y-15495031D01*
X14870658Y-15495031D02*
X14880182Y-15466460D01*
X14880182Y-15466460D02*
X14889706Y-15418841D01*
X14889706Y-15418841D02*
X14889706Y-15380746D01*
X14889706Y-15380746D02*
X14880182Y-15333127D01*
X14880182Y-15333127D02*
X14870658Y-15304555D01*
X14870658Y-15304555D02*
X14861134Y-15285508D01*
X14861134Y-15285508D02*
X14842087Y-15256936D01*
X14842087Y-15256936D02*
X14832563Y-15247412D01*
X9957500Y-15804500D02*
X10057500Y-15704500D01*
X9957500Y-15604500D01*
X9857500Y-15704500D01*
X9957500Y-15804500D01*
X10308753Y-15615031D02*
X10318277Y-15605508D01*
X10318277Y-15605508D02*
X10337324Y-15595984D01*
X10337324Y-15595984D02*
X10384944Y-15595984D01*
X10384944Y-15595984D02*
X10403991Y-15605508D01*
X10403991Y-15605508D02*
X10413515Y-15615031D01*
X10413515Y-15615031D02*
X10423039Y-15634079D01*
X10423039Y-15634079D02*
X10423039Y-15653127D01*
X10423039Y-15653127D02*
X10413515Y-15681698D01*
X10413515Y-15681698D02*
X10299229Y-15795984D01*
X10299229Y-15795984D02*
X10423039Y-15795984D01*
X10508753Y-15776936D02*
X10518277Y-15786460D01*
X10518277Y-15786460D02*
X10508753Y-15795984D01*
X10508753Y-15795984D02*
X10499229Y-15786460D01*
X10499229Y-15786460D02*
X10508753Y-15776936D01*
X10508753Y-15776936D02*
X10508753Y-15795984D01*
X10594467Y-15615031D02*
X10603991Y-15605508D01*
X10603991Y-15605508D02*
X10623039Y-15595984D01*
X10623039Y-15595984D02*
X10670658Y-15595984D01*
X10670658Y-15595984D02*
X10689705Y-15605508D01*
X10689705Y-15605508D02*
X10699229Y-15615031D01*
X10699229Y-15615031D02*
X10708753Y-15634079D01*
X10708753Y-15634079D02*
X10708753Y-15653127D01*
X10708753Y-15653127D02*
X10699229Y-15681698D01*
X10699229Y-15681698D02*
X10584944Y-15795984D01*
X10584944Y-15795984D02*
X10708753Y-15795984D01*
X10832563Y-15595984D02*
X10851610Y-15595984D01*
X10851610Y-15595984D02*
X10870658Y-15605508D01*
X10870658Y-15605508D02*
X10880182Y-15615031D01*
X10880182Y-15615031D02*
X10889705Y-15634079D01*
X10889705Y-15634079D02*
X10899229Y-15672174D01*
X10899229Y-15672174D02*
X10899229Y-15719793D01*
X10899229Y-15719793D02*
X10889705Y-15757888D01*
X10889705Y-15757888D02*
X10880182Y-15776936D01*
X10880182Y-15776936D02*
X10870658Y-15786460D01*
X10870658Y-15786460D02*
X10851610Y-15795984D01*
X10851610Y-15795984D02*
X10832563Y-15795984D01*
X10832563Y-15795984D02*
X10813515Y-15786460D01*
X10813515Y-15786460D02*
X10803991Y-15776936D01*
X10803991Y-15776936D02*
X10794467Y-15757888D01*
X10794467Y-15757888D02*
X10784944Y-15719793D01*
X10784944Y-15719793D02*
X10784944Y-15672174D01*
X10784944Y-15672174D02*
X10794467Y-15634079D01*
X10794467Y-15634079D02*
X10803991Y-15615031D01*
X10803991Y-15615031D02*
X10813515Y-15605508D01*
X10813515Y-15605508D02*
X10832563Y-15595984D01*
X11023039Y-15595984D02*
X11042086Y-15595984D01*
X11042086Y-15595984D02*
X11061134Y-15605508D01*
X11061134Y-15605508D02*
X11070658Y-15615031D01*
X11070658Y-15615031D02*
X11080182Y-15634079D01*
X11080182Y-15634079D02*
X11089705Y-15672174D01*
X11089705Y-15672174D02*
X11089705Y-15719793D01*
X11089705Y-15719793D02*
X11080182Y-15757888D01*
X11080182Y-15757888D02*
X11070658Y-15776936D01*
X11070658Y-15776936D02*
X11061134Y-15786460D01*
X11061134Y-15786460D02*
X11042086Y-15795984D01*
X11042086Y-15795984D02*
X11023039Y-15795984D01*
X11023039Y-15795984D02*
X11003991Y-15786460D01*
X11003991Y-15786460D02*
X10994467Y-15776936D01*
X10994467Y-15776936D02*
X10984944Y-15757888D01*
X10984944Y-15757888D02*
X10975420Y-15719793D01*
X10975420Y-15719793D02*
X10975420Y-15672174D01*
X10975420Y-15672174D02*
X10984944Y-15634079D01*
X10984944Y-15634079D02*
X10994467Y-15615031D01*
X10994467Y-15615031D02*
X11003991Y-15605508D01*
X11003991Y-15605508D02*
X11023039Y-15595984D01*
X11175420Y-15795984D02*
X11175420Y-15662650D01*
X11175420Y-15681698D02*
X11184943Y-15672174D01*
X11184943Y-15672174D02*
X11203991Y-15662650D01*
X11203991Y-15662650D02*
X11232563Y-15662650D01*
X11232563Y-15662650D02*
X11251610Y-15672174D01*
X11251610Y-15672174D02*
X11261134Y-15691222D01*
X11261134Y-15691222D02*
X11261134Y-15795984D01*
X11261134Y-15691222D02*
X11270658Y-15672174D01*
X11270658Y-15672174D02*
X11289705Y-15662650D01*
X11289705Y-15662650D02*
X11318277Y-15662650D01*
X11318277Y-15662650D02*
X11337324Y-15672174D01*
X11337324Y-15672174D02*
X11346848Y-15691222D01*
X11346848Y-15691222D02*
X11346848Y-15795984D01*
X11442086Y-15795984D02*
X11442086Y-15662650D01*
X11442086Y-15681698D02*
X11451610Y-15672174D01*
X11451610Y-15672174D02*
X11470658Y-15662650D01*
X11470658Y-15662650D02*
X11499229Y-15662650D01*
X11499229Y-15662650D02*
X11518277Y-15672174D01*
X11518277Y-15672174D02*
X11527801Y-15691222D01*
X11527801Y-15691222D02*
X11527801Y-15795984D01*
X11527801Y-15691222D02*
X11537324Y-15672174D01*
X11537324Y-15672174D02*
X11556372Y-15662650D01*
X11556372Y-15662650D02*
X11584943Y-15662650D01*
X11584943Y-15662650D02*
X11603991Y-15672174D01*
X11603991Y-15672174D02*
X11613515Y-15691222D01*
X11613515Y-15691222D02*
X11613515Y-15795984D01*
X12003991Y-15586460D02*
X11832563Y-15843603D01*
X12261134Y-15595984D02*
X12280182Y-15595984D01*
X12280182Y-15595984D02*
X12299229Y-15605508D01*
X12299229Y-15605508D02*
X12308753Y-15615031D01*
X12308753Y-15615031D02*
X12318277Y-15634079D01*
X12318277Y-15634079D02*
X12327801Y-15672174D01*
X12327801Y-15672174D02*
X12327801Y-15719793D01*
X12327801Y-15719793D02*
X12318277Y-15757888D01*
X12318277Y-15757888D02*
X12308753Y-15776936D01*
X12308753Y-15776936D02*
X12299229Y-15786460D01*
X12299229Y-15786460D02*
X12280182Y-15795984D01*
X12280182Y-15795984D02*
X12261134Y-15795984D01*
X12261134Y-15795984D02*
X12242086Y-15786460D01*
X12242086Y-15786460D02*
X12232563Y-15776936D01*
X12232563Y-15776936D02*
X12223039Y-15757888D01*
X12223039Y-15757888D02*
X12213515Y-15719793D01*
X12213515Y-15719793D02*
X12213515Y-15672174D01*
X12213515Y-15672174D02*
X12223039Y-15634079D01*
X12223039Y-15634079D02*
X12232563Y-15615031D01*
X12232563Y-15615031D02*
X12242086Y-15605508D01*
X12242086Y-15605508D02*
X12261134Y-15595984D01*
X12413515Y-15776936D02*
X12423039Y-15786460D01*
X12423039Y-15786460D02*
X12413515Y-15795984D01*
X12413515Y-15795984D02*
X12403991Y-15786460D01*
X12403991Y-15786460D02*
X12413515Y-15776936D01*
X12413515Y-15776936D02*
X12413515Y-15795984D01*
X12546848Y-15595984D02*
X12565896Y-15595984D01*
X12565896Y-15595984D02*
X12584944Y-15605508D01*
X12584944Y-15605508D02*
X12594467Y-15615031D01*
X12594467Y-15615031D02*
X12603991Y-15634079D01*
X12603991Y-15634079D02*
X12613515Y-15672174D01*
X12613515Y-15672174D02*
X12613515Y-15719793D01*
X12613515Y-15719793D02*
X12603991Y-15757888D01*
X12603991Y-15757888D02*
X12594467Y-15776936D01*
X12594467Y-15776936D02*
X12584944Y-15786460D01*
X12584944Y-15786460D02*
X12565896Y-15795984D01*
X12565896Y-15795984D02*
X12546848Y-15795984D01*
X12546848Y-15795984D02*
X12527801Y-15786460D01*
X12527801Y-15786460D02*
X12518277Y-15776936D01*
X12518277Y-15776936D02*
X12508753Y-15757888D01*
X12508753Y-15757888D02*
X12499229Y-15719793D01*
X12499229Y-15719793D02*
X12499229Y-15672174D01*
X12499229Y-15672174D02*
X12508753Y-15634079D01*
X12508753Y-15634079D02*
X12518277Y-15615031D01*
X12518277Y-15615031D02*
X12527801Y-15605508D01*
X12527801Y-15605508D02*
X12546848Y-15595984D01*
X12727801Y-15681698D02*
X12708753Y-15672174D01*
X12708753Y-15672174D02*
X12699229Y-15662650D01*
X12699229Y-15662650D02*
X12689706Y-15643603D01*
X12689706Y-15643603D02*
X12689706Y-15634079D01*
X12689706Y-15634079D02*
X12699229Y-15615031D01*
X12699229Y-15615031D02*
X12708753Y-15605508D01*
X12708753Y-15605508D02*
X12727801Y-15595984D01*
X12727801Y-15595984D02*
X12765896Y-15595984D01*
X12765896Y-15595984D02*
X12784944Y-15605508D01*
X12784944Y-15605508D02*
X12794467Y-15615031D01*
X12794467Y-15615031D02*
X12803991Y-15634079D01*
X12803991Y-15634079D02*
X12803991Y-15643603D01*
X12803991Y-15643603D02*
X12794467Y-15662650D01*
X12794467Y-15662650D02*
X12784944Y-15672174D01*
X12784944Y-15672174D02*
X12765896Y-15681698D01*
X12765896Y-15681698D02*
X12727801Y-15681698D01*
X12727801Y-15681698D02*
X12708753Y-15691222D01*
X12708753Y-15691222D02*
X12699229Y-15700746D01*
X12699229Y-15700746D02*
X12689706Y-15719793D01*
X12689706Y-15719793D02*
X12689706Y-15757888D01*
X12689706Y-15757888D02*
X12699229Y-15776936D01*
X12699229Y-15776936D02*
X12708753Y-15786460D01*
X12708753Y-15786460D02*
X12727801Y-15795984D01*
X12727801Y-15795984D02*
X12765896Y-15795984D01*
X12765896Y-15795984D02*
X12784944Y-15786460D01*
X12784944Y-15786460D02*
X12794467Y-15776936D01*
X12794467Y-15776936D02*
X12803991Y-15757888D01*
X12803991Y-15757888D02*
X12803991Y-15719793D01*
X12803991Y-15719793D02*
X12794467Y-15700746D01*
X12794467Y-15700746D02*
X12784944Y-15691222D01*
X12784944Y-15691222D02*
X12765896Y-15681698D01*
X12975420Y-15595984D02*
X12937325Y-15595984D01*
X12937325Y-15595984D02*
X12918277Y-15605508D01*
X12918277Y-15605508D02*
X12908753Y-15615031D01*
X12908753Y-15615031D02*
X12889706Y-15643603D01*
X12889706Y-15643603D02*
X12880182Y-15681698D01*
X12880182Y-15681698D02*
X12880182Y-15757888D01*
X12880182Y-15757888D02*
X12889706Y-15776936D01*
X12889706Y-15776936D02*
X12899229Y-15786460D01*
X12899229Y-15786460D02*
X12918277Y-15795984D01*
X12918277Y-15795984D02*
X12956372Y-15795984D01*
X12956372Y-15795984D02*
X12975420Y-15786460D01*
X12975420Y-15786460D02*
X12984944Y-15776936D01*
X12984944Y-15776936D02*
X12994467Y-15757888D01*
X12994467Y-15757888D02*
X12994467Y-15710269D01*
X12994467Y-15710269D02*
X12984944Y-15691222D01*
X12984944Y-15691222D02*
X12975420Y-15681698D01*
X12975420Y-15681698D02*
X12956372Y-15672174D01*
X12956372Y-15672174D02*
X12918277Y-15672174D01*
X12918277Y-15672174D02*
X12899229Y-15681698D01*
X12899229Y-15681698D02*
X12889706Y-15691222D01*
X12889706Y-15691222D02*
X12880182Y-15710269D01*
X13165896Y-15595984D02*
X13127801Y-15595984D01*
X13127801Y-15595984D02*
X13108753Y-15605508D01*
X13108753Y-15605508D02*
X13099229Y-15615031D01*
X13099229Y-15615031D02*
X13080182Y-15643603D01*
X13080182Y-15643603D02*
X13070658Y-15681698D01*
X13070658Y-15681698D02*
X13070658Y-15757888D01*
X13070658Y-15757888D02*
X13080182Y-15776936D01*
X13080182Y-15776936D02*
X13089706Y-15786460D01*
X13089706Y-15786460D02*
X13108753Y-15795984D01*
X13108753Y-15795984D02*
X13146848Y-15795984D01*
X13146848Y-15795984D02*
X13165896Y-15786460D01*
X13165896Y-15786460D02*
X13175420Y-15776936D01*
X13175420Y-15776936D02*
X13184944Y-15757888D01*
X13184944Y-15757888D02*
X13184944Y-15710269D01*
X13184944Y-15710269D02*
X13175420Y-15691222D01*
X13175420Y-15691222D02*
X13165896Y-15681698D01*
X13165896Y-15681698D02*
X13146848Y-15672174D01*
X13146848Y-15672174D02*
X13108753Y-15672174D01*
X13108753Y-15672174D02*
X13089706Y-15681698D01*
X13089706Y-15681698D02*
X13080182Y-15691222D01*
X13080182Y-15691222D02*
X13070658Y-15710269D01*
X13261134Y-15595984D02*
X13261134Y-15634079D01*
X13337325Y-15595984D02*
X13337325Y-15634079D01*
X13632563Y-15872174D02*
X13623039Y-15862650D01*
X13623039Y-15862650D02*
X13603991Y-15834079D01*
X13603991Y-15834079D02*
X13594468Y-15815031D01*
X13594468Y-15815031D02*
X13584944Y-15786460D01*
X13584944Y-15786460D02*
X13575420Y-15738841D01*
X13575420Y-15738841D02*
X13575420Y-15700746D01*
X13575420Y-15700746D02*
X13584944Y-15653127D01*
X13584944Y-15653127D02*
X13594468Y-15624555D01*
X13594468Y-15624555D02*
X13603991Y-15605508D01*
X13603991Y-15605508D02*
X13623039Y-15576936D01*
X13623039Y-15576936D02*
X13632563Y-15567412D01*
X13794468Y-15662650D02*
X13794468Y-15795984D01*
X13746848Y-15586460D02*
X13699229Y-15729317D01*
X13699229Y-15729317D02*
X13823039Y-15729317D01*
X14051610Y-15795984D02*
X14051610Y-15595984D01*
X14137325Y-15795984D02*
X14137325Y-15691222D01*
X14137325Y-15691222D02*
X14127801Y-15672174D01*
X14127801Y-15672174D02*
X14108753Y-15662650D01*
X14108753Y-15662650D02*
X14080182Y-15662650D01*
X14080182Y-15662650D02*
X14061134Y-15672174D01*
X14061134Y-15672174D02*
X14051610Y-15681698D01*
X14261134Y-15795984D02*
X14242087Y-15786460D01*
X14242087Y-15786460D02*
X14232563Y-15776936D01*
X14232563Y-15776936D02*
X14223039Y-15757888D01*
X14223039Y-15757888D02*
X14223039Y-15700746D01*
X14223039Y-15700746D02*
X14232563Y-15681698D01*
X14232563Y-15681698D02*
X14242087Y-15672174D01*
X14242087Y-15672174D02*
X14261134Y-15662650D01*
X14261134Y-15662650D02*
X14289706Y-15662650D01*
X14289706Y-15662650D02*
X14308753Y-15672174D01*
X14308753Y-15672174D02*
X14318277Y-15681698D01*
X14318277Y-15681698D02*
X14327801Y-15700746D01*
X14327801Y-15700746D02*
X14327801Y-15757888D01*
X14327801Y-15757888D02*
X14318277Y-15776936D01*
X14318277Y-15776936D02*
X14308753Y-15786460D01*
X14308753Y-15786460D02*
X14289706Y-15795984D01*
X14289706Y-15795984D02*
X14261134Y-15795984D01*
X14442087Y-15795984D02*
X14423039Y-15786460D01*
X14423039Y-15786460D02*
X14413515Y-15767412D01*
X14413515Y-15767412D02*
X14413515Y-15595984D01*
X14594468Y-15786460D02*
X14575420Y-15795984D01*
X14575420Y-15795984D02*
X14537325Y-15795984D01*
X14537325Y-15795984D02*
X14518277Y-15786460D01*
X14518277Y-15786460D02*
X14508753Y-15767412D01*
X14508753Y-15767412D02*
X14508753Y-15691222D01*
X14508753Y-15691222D02*
X14518277Y-15672174D01*
X14518277Y-15672174D02*
X14537325Y-15662650D01*
X14537325Y-15662650D02*
X14575420Y-15662650D01*
X14575420Y-15662650D02*
X14594468Y-15672174D01*
X14594468Y-15672174D02*
X14603991Y-15691222D01*
X14603991Y-15691222D02*
X14603991Y-15710269D01*
X14603991Y-15710269D02*
X14508753Y-15729317D01*
X14680182Y-15786460D02*
X14699230Y-15795984D01*
X14699230Y-15795984D02*
X14737325Y-15795984D01*
X14737325Y-15795984D02*
X14756372Y-15786460D01*
X14756372Y-15786460D02*
X14765896Y-15767412D01*
X14765896Y-15767412D02*
X14765896Y-15757888D01*
X14765896Y-15757888D02*
X14756372Y-15738841D01*
X14756372Y-15738841D02*
X14737325Y-15729317D01*
X14737325Y-15729317D02*
X14708753Y-15729317D01*
X14708753Y-15729317D02*
X14689706Y-15719793D01*
X14689706Y-15719793D02*
X14680182Y-15700746D01*
X14680182Y-15700746D02*
X14680182Y-15691222D01*
X14680182Y-15691222D02*
X14689706Y-15672174D01*
X14689706Y-15672174D02*
X14708753Y-15662650D01*
X14708753Y-15662650D02*
X14737325Y-15662650D01*
X14737325Y-15662650D02*
X14756372Y-15672174D01*
X14832563Y-15872174D02*
X14842087Y-15862650D01*
X14842087Y-15862650D02*
X14861134Y-15834079D01*
X14861134Y-15834079D02*
X14870658Y-15815031D01*
X14870658Y-15815031D02*
X14880182Y-15786460D01*
X14880182Y-15786460D02*
X14889706Y-15738841D01*
X14889706Y-15738841D02*
X14889706Y-15700746D01*
X14889706Y-15700746D02*
X14880182Y-15653127D01*
X14880182Y-15653127D02*
X14870658Y-15624555D01*
X14870658Y-15624555D02*
X14861134Y-15605508D01*
X14861134Y-15605508D02*
X14842087Y-15576936D01*
X14842087Y-15576936D02*
X14832563Y-15567412D01*
X15194468Y-15872174D02*
X15184944Y-15862650D01*
X15184944Y-15862650D02*
X15165896Y-15834079D01*
X15165896Y-15834079D02*
X15156372Y-15815031D01*
X15156372Y-15815031D02*
X15146849Y-15786460D01*
X15146849Y-15786460D02*
X15137325Y-15738841D01*
X15137325Y-15738841D02*
X15137325Y-15700746D01*
X15137325Y-15700746D02*
X15146849Y-15653127D01*
X15146849Y-15653127D02*
X15156372Y-15624555D01*
X15156372Y-15624555D02*
X15165896Y-15605508D01*
X15165896Y-15605508D02*
X15184944Y-15576936D01*
X15184944Y-15576936D02*
X15194468Y-15567412D01*
X15270658Y-15662650D02*
X15270658Y-15795984D01*
X15270658Y-15681698D02*
X15280182Y-15672174D01*
X15280182Y-15672174D02*
X15299230Y-15662650D01*
X15299230Y-15662650D02*
X15327801Y-15662650D01*
X15327801Y-15662650D02*
X15346849Y-15672174D01*
X15346849Y-15672174D02*
X15356372Y-15691222D01*
X15356372Y-15691222D02*
X15356372Y-15795984D01*
X15480182Y-15795984D02*
X15461134Y-15786460D01*
X15461134Y-15786460D02*
X15451611Y-15776936D01*
X15451611Y-15776936D02*
X15442087Y-15757888D01*
X15442087Y-15757888D02*
X15442087Y-15700746D01*
X15442087Y-15700746D02*
X15451611Y-15681698D01*
X15451611Y-15681698D02*
X15461134Y-15672174D01*
X15461134Y-15672174D02*
X15480182Y-15662650D01*
X15480182Y-15662650D02*
X15508753Y-15662650D01*
X15508753Y-15662650D02*
X15527801Y-15672174D01*
X15527801Y-15672174D02*
X15537325Y-15681698D01*
X15537325Y-15681698D02*
X15546849Y-15700746D01*
X15546849Y-15700746D02*
X15546849Y-15757888D01*
X15546849Y-15757888D02*
X15537325Y-15776936D01*
X15537325Y-15776936D02*
X15527801Y-15786460D01*
X15527801Y-15786460D02*
X15508753Y-15795984D01*
X15508753Y-15795984D02*
X15480182Y-15795984D01*
X15603992Y-15662650D02*
X15680182Y-15662650D01*
X15632563Y-15595984D02*
X15632563Y-15767412D01*
X15632563Y-15767412D02*
X15642087Y-15786460D01*
X15642087Y-15786460D02*
X15661134Y-15795984D01*
X15661134Y-15795984D02*
X15680182Y-15795984D01*
X15899230Y-15662650D02*
X15899230Y-15862650D01*
X15899230Y-15672174D02*
X15918277Y-15662650D01*
X15918277Y-15662650D02*
X15956373Y-15662650D01*
X15956373Y-15662650D02*
X15975420Y-15672174D01*
X15975420Y-15672174D02*
X15984944Y-15681698D01*
X15984944Y-15681698D02*
X15994468Y-15700746D01*
X15994468Y-15700746D02*
X15994468Y-15757888D01*
X15994468Y-15757888D02*
X15984944Y-15776936D01*
X15984944Y-15776936D02*
X15975420Y-15786460D01*
X15975420Y-15786460D02*
X15956373Y-15795984D01*
X15956373Y-15795984D02*
X15918277Y-15795984D01*
X15918277Y-15795984D02*
X15899230Y-15786460D01*
X16108753Y-15795984D02*
X16089706Y-15786460D01*
X16089706Y-15786460D02*
X16080182Y-15767412D01*
X16080182Y-15767412D02*
X16080182Y-15595984D01*
X16270658Y-15795984D02*
X16270658Y-15691222D01*
X16270658Y-15691222D02*
X16261134Y-15672174D01*
X16261134Y-15672174D02*
X16242087Y-15662650D01*
X16242087Y-15662650D02*
X16203992Y-15662650D01*
X16203992Y-15662650D02*
X16184944Y-15672174D01*
X16270658Y-15786460D02*
X16251611Y-15795984D01*
X16251611Y-15795984D02*
X16203992Y-15795984D01*
X16203992Y-15795984D02*
X16184944Y-15786460D01*
X16184944Y-15786460D02*
X16175420Y-15767412D01*
X16175420Y-15767412D02*
X16175420Y-15748365D01*
X16175420Y-15748365D02*
X16184944Y-15729317D01*
X16184944Y-15729317D02*
X16203992Y-15719793D01*
X16203992Y-15719793D02*
X16251611Y-15719793D01*
X16251611Y-15719793D02*
X16270658Y-15710269D01*
X16337325Y-15662650D02*
X16413515Y-15662650D01*
X16365896Y-15595984D02*
X16365896Y-15767412D01*
X16365896Y-15767412D02*
X16375420Y-15786460D01*
X16375420Y-15786460D02*
X16394468Y-15795984D01*
X16394468Y-15795984D02*
X16413515Y-15795984D01*
X16556373Y-15786460D02*
X16537325Y-15795984D01*
X16537325Y-15795984D02*
X16499230Y-15795984D01*
X16499230Y-15795984D02*
X16480182Y-15786460D01*
X16480182Y-15786460D02*
X16470658Y-15767412D01*
X16470658Y-15767412D02*
X16470658Y-15691222D01*
X16470658Y-15691222D02*
X16480182Y-15672174D01*
X16480182Y-15672174D02*
X16499230Y-15662650D01*
X16499230Y-15662650D02*
X16537325Y-15662650D01*
X16537325Y-15662650D02*
X16556373Y-15672174D01*
X16556373Y-15672174D02*
X16565896Y-15691222D01*
X16565896Y-15691222D02*
X16565896Y-15710269D01*
X16565896Y-15710269D02*
X16470658Y-15729317D01*
X16737325Y-15795984D02*
X16737325Y-15595984D01*
X16737325Y-15786460D02*
X16718277Y-15795984D01*
X16718277Y-15795984D02*
X16680182Y-15795984D01*
X16680182Y-15795984D02*
X16661134Y-15786460D01*
X16661134Y-15786460D02*
X16651611Y-15776936D01*
X16651611Y-15776936D02*
X16642087Y-15757888D01*
X16642087Y-15757888D02*
X16642087Y-15700746D01*
X16642087Y-15700746D02*
X16651611Y-15681698D01*
X16651611Y-15681698D02*
X16661134Y-15672174D01*
X16661134Y-15672174D02*
X16680182Y-15662650D01*
X16680182Y-15662650D02*
X16718277Y-15662650D01*
X16718277Y-15662650D02*
X16737325Y-15672174D01*
X16813516Y-15872174D02*
X16823039Y-15862650D01*
X16823039Y-15862650D02*
X16842087Y-15834079D01*
X16842087Y-15834079D02*
X16851611Y-15815031D01*
X16851611Y-15815031D02*
X16861135Y-15786460D01*
X16861135Y-15786460D02*
X16870658Y-15738841D01*
X16870658Y-15738841D02*
X16870658Y-15700746D01*
X16870658Y-15700746D02*
X16861135Y-15653127D01*
X16861135Y-15653127D02*
X16851611Y-15624555D01*
X16851611Y-15624555D02*
X16842087Y-15605508D01*
X16842087Y-15605508D02*
X16823039Y-15576936D01*
X16823039Y-15576936D02*
X16813516Y-15567412D01*
M02*
