%TF.GenerationSoftware,KiCad,Pcbnew,9.0.0*%
%TF.CreationDate,2025-03-17T10:49:29+01:00*%
%TF.ProjectId,farming_project,6661726d-696e-4675-9f70-726f6a656374,rev?*%
%TF.SameCoordinates,Original*%
%TF.FileFunction,Copper,L2,Bot*%
%TF.FilePolarity,Positive*%
%FSLAX46Y46*%
G04 Gerber Fmt 4.6, Leading zero omitted, Abs format (unit mm)*
G04 Created by KiCad (PCBNEW 9.0.0) date 2025-03-17 10:49:29*
%MOMM*%
%LPD*%
G01*
G04 APERTURE LIST*
G04 Aperture macros list*
%AMRoundRect*
0 Rectangle with rounded corners*
0 $1 Rounding radius*
0 $2 $3 $4 $5 $6 $7 $8 $9 X,Y pos of 4 corners*
0 Add a 4 corners polygon primitive as box body*
4,1,4,$2,$3,$4,$5,$6,$7,$8,$9,$2,$3,0*
0 Add four circle primitives for the rounded corners*
1,1,$1+$1,$2,$3*
1,1,$1+$1,$4,$5*
1,1,$1+$1,$6,$7*
1,1,$1+$1,$8,$9*
0 Add four rect primitives between the rounded corners*
20,1,$1+$1,$2,$3,$4,$5,0*
20,1,$1+$1,$4,$5,$6,$7,0*
20,1,$1+$1,$6,$7,$8,$9,0*
20,1,$1+$1,$8,$9,$2,$3,0*%
G04 Aperture macros list end*
%TA.AperFunction,ComponentPad*%
%ADD10C,5.000000*%
%TD*%
%TA.AperFunction,ComponentPad*%
%ADD11R,1.700000X1.700000*%
%TD*%
%TA.AperFunction,ComponentPad*%
%ADD12O,1.700000X1.700000*%
%TD*%
%TA.AperFunction,ComponentPad*%
%ADD13C,1.600000*%
%TD*%
%TA.AperFunction,ComponentPad*%
%ADD14O,1.600000X1.600000*%
%TD*%
%TA.AperFunction,ComponentPad*%
%ADD15RoundRect,0.250000X-0.350000X-0.625000X0.350000X-0.625000X0.350000X0.625000X-0.350000X0.625000X0*%
%TD*%
%TA.AperFunction,ComponentPad*%
%ADD16O,1.200000X1.750000*%
%TD*%
%TA.AperFunction,ComponentPad*%
%ADD17RoundRect,0.250000X-0.625000X0.350000X-0.625000X-0.350000X0.625000X-0.350000X0.625000X0.350000X0*%
%TD*%
%TA.AperFunction,ComponentPad*%
%ADD18O,1.750000X1.200000*%
%TD*%
%TA.AperFunction,ComponentPad*%
%ADD19C,1.508000*%
%TD*%
%TA.AperFunction,Conductor*%
%ADD20C,0.500000*%
%TD*%
%TA.AperFunction,Conductor*%
%ADD21C,0.800000*%
%TD*%
G04 APERTURE END LIST*
D10*
%TO.P,H2,1*%
%TO.N,N/C*%
X167500000Y-44000000D03*
%TD*%
D11*
%TO.P,J11,1,Pin_1*%
%TO.N,VOUT*%
X165800000Y-62160000D03*
D12*
%TO.P,J11,2,Pin_2*%
%TO.N,GND*%
X165800000Y-64700000D03*
%TO.P,J11,3,Pin_3*%
%TO.N,VCC*%
X165800000Y-67240000D03*
%TO.P,J11,4,Pin_4*%
%TO.N,/D14*%
X165800000Y-69780000D03*
%TD*%
D10*
%TO.P,H3,1*%
%TO.N,N/C*%
X105200000Y-136000000D03*
%TD*%
D13*
%TO.P,R2,1*%
%TO.N,/A0*%
X113600000Y-67100000D03*
D14*
%TO.P,R2,2*%
%TO.N,GND*%
X113600000Y-79800000D03*
%TD*%
D15*
%TO.P,J10,1,Pin_1*%
%TO.N,GND*%
X111400000Y-115800000D03*
D16*
%TO.P,J10,2,Pin_2*%
%TO.N,VOUT*%
X113400000Y-115800000D03*
%TO.P,J10,3,Pin_3*%
%TO.N,unconnected-(J10-Pin_3-Pad3)*%
X115400000Y-115800000D03*
%TO.P,J10,4,Pin_4*%
%TO.N,/D5*%
X117400000Y-115800000D03*
%TD*%
D15*
%TO.P,J6,1,Pin_1*%
%TO.N,GND*%
X111400000Y-92700000D03*
D16*
%TO.P,J6,2,Pin_2*%
%TO.N,VOUT*%
X113400000Y-92700000D03*
%TO.P,J6,3,Pin_3*%
%TO.N,unconnected-(J6-Pin_3-Pad3)*%
X115400000Y-92700000D03*
%TO.P,J6,4,Pin_4*%
%TO.N,/A2*%
X117400000Y-92700000D03*
%TD*%
D15*
%TO.P,J8,1,Pin_1*%
%TO.N,GND*%
X111300000Y-107800000D03*
D16*
%TO.P,J8,2,Pin_2*%
%TO.N,VOUT*%
X113300000Y-107800000D03*
%TO.P,J8,3,Pin_3*%
%TO.N,unconnected-(J8-Pin_3-Pad3)*%
X115300000Y-107800000D03*
%TO.P,J8,4,Pin_4*%
%TO.N,/D2*%
X117300000Y-107800000D03*
%TD*%
D17*
%TO.P,J9,1,Pin_1*%
%TO.N,GND*%
X137900000Y-46500000D03*
D18*
%TO.P,J9,2,Pin_2*%
%TO.N,Vbat*%
X137900000Y-48500000D03*
%TO.P,J9,3,Pin_3*%
%TO.N,unconnected-(J9-Pin_3-Pad3)*%
X137900000Y-50500000D03*
%TO.P,J9,4,Pin_4*%
%TO.N,unconnected-(J9-Pin_4-Pad4)*%
X137900000Y-52500000D03*
%TD*%
D15*
%TO.P,J7,1,Pin_1*%
%TO.N,GND*%
X111400000Y-100200000D03*
D16*
%TO.P,J7,2,Pin_2*%
%TO.N,VOUT*%
X113400000Y-100200000D03*
%TO.P,J7,3,Pin_3*%
%TO.N,unconnected-(J7-Pin_3-Pad3)*%
X115400000Y-100200000D03*
%TO.P,J7,4,Pin_4*%
%TO.N,/A3*%
X117400000Y-100200000D03*
%TD*%
D11*
%TO.P,J3,1,Pin_1*%
%TO.N,VOUT*%
X168000000Y-85300000D03*
D12*
%TO.P,J3,2,Pin_2*%
%TO.N,GND*%
X165460000Y-85300000D03*
%TO.P,J3,3,Pin_3*%
%TO.N,/SCL*%
X162920000Y-85300000D03*
%TO.P,J3,4,Pin_4*%
%TO.N,/SDA*%
X160380000Y-85300000D03*
%TD*%
D10*
%TO.P,H1,1*%
%TO.N,N/C*%
X104600000Y-44500000D03*
%TD*%
D15*
%TO.P,J5,1,Pin_1*%
%TO.N,GND*%
X111500000Y-84900000D03*
D16*
%TO.P,J5,2,Pin_2*%
%TO.N,VOUT*%
X113500000Y-84900000D03*
%TO.P,J5,3,Pin_3*%
%TO.N,unconnected-(J5-Pin_3-Pad3)*%
X115500000Y-84900000D03*
%TO.P,J5,4,Pin_4*%
%TO.N,/A1*%
X117500000Y-84900000D03*
%TD*%
D11*
%TO.P,J2,1,Pin_1*%
%TO.N,VOUT*%
X168100000Y-104900000D03*
D12*
%TO.P,J2,2,Pin_2*%
%TO.N,GND*%
X165560000Y-104900000D03*
%TO.P,J2,3,Pin_3*%
%TO.N,/SCL*%
X163020000Y-104900000D03*
%TO.P,J2,4,Pin_4*%
%TO.N,/SDA*%
X160480000Y-104900000D03*
%TD*%
D19*
%TO.P,J1,1,Pin_1*%
%TO.N,/AREF*%
X126590000Y-81164800D03*
%TO.P,J1,2,Pin_2*%
%TO.N,/A0*%
X126590000Y-83704800D03*
%TO.P,J1,3,Pin_3*%
%TO.N,/A1*%
X126590000Y-86244800D03*
%TO.P,J1,4,Pin_4*%
%TO.N,/A2*%
X126590000Y-88784800D03*
%TO.P,J1,5,Pin_5*%
%TO.N,/A3*%
X126590000Y-91324800D03*
%TO.P,J1,6,Pin_6*%
%TO.N,/A4*%
X126590000Y-93864800D03*
%TO.P,J1,7,Pin_7*%
%TO.N,/A5*%
X126590000Y-96404800D03*
%TO.P,J1,8,Pin_8*%
%TO.N,/A6*%
X126590000Y-98944800D03*
%TO.P,J1,9,Pin_9*%
%TO.N,/D0*%
X126590000Y-101484800D03*
%TO.P,J1,10,Pin_10*%
%TO.N,/D1*%
X126590000Y-104024800D03*
%TO.P,J1,11,Pin_11*%
%TO.N,/D2*%
X126590000Y-106564800D03*
%TO.P,J1,12,Pin_12*%
%TO.N,/D3*%
X126590000Y-109104800D03*
%TO.P,J1,13,Pin_13*%
%TO.N,/D4*%
X126590000Y-111644800D03*
%TO.P,J1,14,Pin_14*%
%TO.N,/D5*%
X126590000Y-114184800D03*
%TO.P,J1,15,Pin_15*%
%TO.N,/D6*%
X146910000Y-114184800D03*
%TO.P,J1,16,Pin_16*%
%TO.N,/D7*%
X146910000Y-111644800D03*
%TO.P,J1,17,Pin_17*%
%TO.N,/MOSI*%
X146910000Y-109104800D03*
%TO.P,J1,18,Pin_18*%
%TO.N,/SCK*%
X146910000Y-106564800D03*
%TO.P,J1,19,Pin_19*%
%TO.N,/MISO*%
X146910000Y-104024800D03*
%TO.P,J1,20,Pin_20*%
%TO.N,/SDA*%
X146910000Y-101484800D03*
%TO.P,J1,21,Pin_21*%
%TO.N,/SCL*%
X146910000Y-98944800D03*
%TO.P,J1,22,Pin_22*%
%TO.N,/RX*%
X146910000Y-96404800D03*
%TO.P,J1,23,Pin_23*%
%TO.N,/D14*%
X146910000Y-93864800D03*
%TO.P,J1,24,Pin_24*%
%TO.N,/RESET*%
X146910000Y-91324800D03*
%TO.P,J1,25,Pin_25*%
%TO.N,GND*%
X146910000Y-88784800D03*
%TO.P,J1,26,Pin_26*%
%TO.N,VCC*%
X146910000Y-86244800D03*
%TO.P,J1,27,Pin_27*%
%TO.N,/VIN*%
X146910000Y-83704800D03*
%TO.P,J1,28,Pin_28*%
%TO.N,/5V*%
X146910000Y-81164800D03*
%TD*%
D10*
%TO.P,H4,1*%
%TO.N,N/C*%
X167900000Y-134400000D03*
%TD*%
D11*
%TO.P,J4,1,Pin_1*%
%TO.N,VOUT*%
X168300000Y-122200000D03*
D12*
%TO.P,J4,2,Pin_2*%
%TO.N,GND*%
X165760000Y-122200000D03*
%TO.P,J4,3,Pin_3*%
%TO.N,/SCL*%
X163220000Y-122200000D03*
%TO.P,J4,4,Pin_4*%
%TO.N,/SDA*%
X160680000Y-122200000D03*
%TO.P,J4,5,Pin_5*%
%TO.N,unconnected-(J4-Pin_5-Pad5)*%
X158140000Y-122200000D03*
%TO.P,J4,6,Pin_6*%
%TO.N,unconnected-(J4-Pin_6-Pad6)*%
X155600000Y-122200000D03*
%TD*%
D13*
%TO.P,R1,1*%
%TO.N,Vbat*%
X113600000Y-51300000D03*
D14*
%TO.P,R1,2*%
%TO.N,/A0*%
X113600000Y-64000000D03*
%TD*%
D20*
%TO.N,VOUT*%
X168000000Y-104800000D02*
X168100000Y-104900000D01*
X168000000Y-85300000D02*
X168000000Y-104800000D01*
%TO.N,/SDA*%
X160380000Y-101000000D02*
X160480000Y-101100000D01*
X160480000Y-101100000D02*
X160480000Y-104900000D01*
X160480000Y-122000000D02*
X160680000Y-122200000D01*
X160480000Y-104900000D02*
X160480000Y-122000000D01*
%TO.N,/SCL*%
X162920000Y-104800000D02*
X163020000Y-104900000D01*
X162920000Y-85300000D02*
X162920000Y-104800000D01*
X163020000Y-122000000D02*
X163220000Y-122200000D01*
X163020000Y-104900000D02*
X163020000Y-122000000D01*
%TO.N,VOUT*%
X168100000Y-122000000D02*
X168300000Y-122200000D01*
X168100000Y-104900000D02*
X168100000Y-122000000D01*
X167240000Y-62160000D02*
X168400000Y-63320000D01*
X165800000Y-62160000D02*
X167240000Y-62160000D01*
X168400000Y-84900000D02*
X168400000Y-63320000D01*
X168000000Y-85300000D02*
X168400000Y-84900000D01*
X165800000Y-48200000D02*
X159000000Y-41400000D01*
X165800000Y-62160000D02*
X165800000Y-48200000D01*
D21*
%TO.N,VCC*%
X154840000Y-67240000D02*
X165800000Y-67240000D01*
X154400000Y-66800000D02*
X154840000Y-67240000D01*
D20*
%TO.N,/D14*%
X164280000Y-71300000D02*
X165800000Y-69780000D01*
X156300000Y-71300000D02*
X164280000Y-71300000D01*
X151500000Y-76100000D02*
X156300000Y-71300000D01*
X151500000Y-93500000D02*
X151500000Y-76100000D01*
X151135200Y-93864800D02*
X151500000Y-93500000D01*
X146910000Y-93864800D02*
X151135200Y-93864800D01*
%TO.N,/A2*%
X117400000Y-92700000D02*
X121315200Y-88784800D01*
X121315200Y-88784800D02*
X126590000Y-88784800D01*
%TO.N,/D5*%
X117400000Y-115800000D02*
X124974800Y-115800000D01*
X124974800Y-115800000D02*
X126590000Y-114184800D01*
%TO.N,/D2*%
X125354800Y-107800000D02*
X126590000Y-106564800D01*
X117300000Y-107800000D02*
X125354800Y-107800000D01*
D21*
%TO.N,VCC*%
X143644800Y-86244800D02*
X146910000Y-86244800D01*
X154400000Y-66800000D02*
X141600000Y-79600000D01*
X141600000Y-79600000D02*
X141600000Y-84200000D01*
X141600000Y-84200000D02*
X143644800Y-86244800D01*
D20*
%TO.N,/SDA*%
X160380000Y-85300000D02*
X160380000Y-101000000D01*
X160380000Y-101000000D02*
X147394800Y-101000000D01*
X147394800Y-101000000D02*
X146910000Y-101484800D01*
%TO.N,/SCL*%
X161500000Y-79800000D02*
X162920000Y-81220000D01*
X155900000Y-93000000D02*
X155900000Y-79800000D01*
X162920000Y-81220000D02*
X162920000Y-85300000D01*
X146910000Y-98944800D02*
X149955200Y-98944800D01*
X155900000Y-79800000D02*
X161500000Y-79800000D01*
X149955200Y-98944800D02*
X155900000Y-93000000D01*
%TO.N,Vbat*%
X113600000Y-51300000D02*
X113600000Y-49700000D01*
X113600000Y-49700000D02*
X114800000Y-48500000D01*
X114800000Y-48500000D02*
X137900000Y-48500000D01*
%TO.N,/A3*%
X117714800Y-100200000D02*
X126590000Y-91324800D01*
X117400000Y-100200000D02*
X117714800Y-100200000D01*
%TO.N,/A1*%
X117500000Y-84900000D02*
X125245200Y-84900000D01*
X125245200Y-84900000D02*
X126590000Y-86244800D01*
%TO.N,/A0*%
X113600000Y-64000000D02*
X113600000Y-67100000D01*
X122200000Y-68200000D02*
X121100000Y-67100000D01*
X126590000Y-83704800D02*
X122200000Y-79314800D01*
X122200000Y-79314800D02*
X122200000Y-68200000D01*
X121100000Y-67100000D02*
X113600000Y-67100000D01*
%TO.N,VOUT*%
X113500000Y-82500000D02*
X113500000Y-84900000D01*
X113400000Y-100200000D02*
X113400000Y-107700000D01*
X113500000Y-84900000D02*
X113500000Y-92600000D01*
X114200000Y-41400000D02*
X108800000Y-46800000D01*
X108800000Y-77800000D02*
X113500000Y-82500000D01*
X113300000Y-115700000D02*
X113400000Y-115800000D01*
X113400000Y-92700000D02*
X113400000Y-100200000D01*
X113300000Y-107800000D02*
X113300000Y-115700000D01*
X113400000Y-107700000D02*
X113300000Y-107800000D01*
X113500000Y-92600000D02*
X113400000Y-92700000D01*
X108800000Y-46800000D02*
X108800000Y-77800000D01*
X113300000Y-115400000D02*
X113000000Y-115700000D01*
X159000000Y-41400000D02*
X114200000Y-41400000D01*
%TD*%
%TA.AperFunction,Conductor*%
%TO.N,GND*%
G36*
X165810000Y-106227230D02*
G01*
X165876126Y-106216757D01*
X165876129Y-106216757D01*
X166078217Y-106151095D01*
X166267557Y-106054620D01*
X166439458Y-105929728D01*
X166553133Y-105816053D01*
X166614456Y-105782568D01*
X166684148Y-105787552D01*
X166740082Y-105829423D01*
X166756997Y-105860401D01*
X166806202Y-105992328D01*
X166806206Y-105992335D01*
X166892452Y-106107544D01*
X166892455Y-106107547D01*
X167007664Y-106193793D01*
X167007671Y-106193797D01*
X167052618Y-106210561D01*
X167142517Y-106244091D01*
X167202127Y-106250500D01*
X167225497Y-106250499D01*
X167292536Y-106270181D01*
X167338292Y-106322983D01*
X167349500Y-106374499D01*
X167349500Y-120767209D01*
X167329815Y-120834248D01*
X167277011Y-120880003D01*
X167268833Y-120883391D01*
X167207671Y-120906202D01*
X167207664Y-120906206D01*
X167092455Y-120992452D01*
X167092452Y-120992455D01*
X167006206Y-121107664D01*
X167006202Y-121107671D01*
X166956997Y-121239598D01*
X166915126Y-121295532D01*
X166849661Y-121319949D01*
X166781388Y-121305097D01*
X166753134Y-121283946D01*
X166639464Y-121170276D01*
X166639459Y-121170272D01*
X166467557Y-121045379D01*
X166278215Y-120948903D01*
X166076124Y-120883241D01*
X166010000Y-120872768D01*
X166010000Y-121766988D01*
X165952993Y-121734075D01*
X165825826Y-121700000D01*
X165694174Y-121700000D01*
X165567007Y-121734075D01*
X165510000Y-121766988D01*
X165510000Y-120872768D01*
X165509999Y-120872768D01*
X165443875Y-120883241D01*
X165241784Y-120948903D01*
X165052442Y-121045379D01*
X164880540Y-121170272D01*
X164880535Y-121170276D01*
X164730276Y-121320535D01*
X164730272Y-121320540D01*
X164605378Y-121492443D01*
X164600762Y-121501502D01*
X164552784Y-121552295D01*
X164484963Y-121569087D01*
X164418829Y-121546546D01*
X164379794Y-121501493D01*
X164375051Y-121492184D01*
X164375049Y-121492181D01*
X164375048Y-121492179D01*
X164250109Y-121320213D01*
X164099786Y-121169890D01*
X163927817Y-121044949D01*
X163838204Y-120999288D01*
X163787409Y-120951313D01*
X163770500Y-120888804D01*
X163770500Y-106087220D01*
X163790185Y-106020181D01*
X163821614Y-105986902D01*
X163899792Y-105930104D01*
X164050104Y-105779792D01*
X164050106Y-105779788D01*
X164050109Y-105779786D01*
X164117515Y-105687007D01*
X164175051Y-105607816D01*
X164179793Y-105598508D01*
X164227763Y-105547711D01*
X164295583Y-105530911D01*
X164361719Y-105553445D01*
X164400763Y-105598500D01*
X164405377Y-105607555D01*
X164530272Y-105779459D01*
X164530276Y-105779464D01*
X164680535Y-105929723D01*
X164680540Y-105929727D01*
X164852442Y-106054620D01*
X165041782Y-106151095D01*
X165243871Y-106216757D01*
X165310000Y-106227231D01*
X165310000Y-105333012D01*
X165367007Y-105365925D01*
X165494174Y-105400000D01*
X165625826Y-105400000D01*
X165752993Y-105365925D01*
X165810000Y-105333012D01*
X165810000Y-106227230D01*
G37*
%TD.AperFunction*%
%TA.AperFunction,Conductor*%
G36*
X165710000Y-86627230D02*
G01*
X165776126Y-86616757D01*
X165776129Y-86616757D01*
X165978217Y-86551095D01*
X166167557Y-86454620D01*
X166339458Y-86329728D01*
X166453133Y-86216053D01*
X166514456Y-86182568D01*
X166584148Y-86187552D01*
X166640082Y-86229423D01*
X166656997Y-86260401D01*
X166706202Y-86392328D01*
X166706206Y-86392335D01*
X166792452Y-86507544D01*
X166792455Y-86507547D01*
X166907664Y-86593793D01*
X166907671Y-86593797D01*
X166952618Y-86610561D01*
X167042517Y-86644091D01*
X167102127Y-86650500D01*
X167125497Y-86650499D01*
X167192536Y-86670181D01*
X167238292Y-86722983D01*
X167249500Y-86774499D01*
X167249500Y-103433023D01*
X167229815Y-103500062D01*
X167177011Y-103545817D01*
X167149865Y-103553266D01*
X167150068Y-103554124D01*
X167142520Y-103555907D01*
X167007671Y-103606202D01*
X167007664Y-103606206D01*
X166892455Y-103692452D01*
X166892452Y-103692455D01*
X166806206Y-103807664D01*
X166806202Y-103807671D01*
X166756997Y-103939598D01*
X166715126Y-103995532D01*
X166649661Y-104019949D01*
X166581388Y-104005097D01*
X166553134Y-103983946D01*
X166439464Y-103870276D01*
X166439459Y-103870272D01*
X166267557Y-103745379D01*
X166078215Y-103648903D01*
X165876124Y-103583241D01*
X165810000Y-103572768D01*
X165810000Y-104466988D01*
X165752993Y-104434075D01*
X165625826Y-104400000D01*
X165494174Y-104400000D01*
X165367007Y-104434075D01*
X165310000Y-104466988D01*
X165310000Y-103572768D01*
X165309999Y-103572768D01*
X165243875Y-103583241D01*
X165041784Y-103648903D01*
X164852442Y-103745379D01*
X164680540Y-103870272D01*
X164680535Y-103870276D01*
X164530276Y-104020535D01*
X164530272Y-104020540D01*
X164405378Y-104192443D01*
X164400762Y-104201502D01*
X164352784Y-104252295D01*
X164284963Y-104269087D01*
X164218829Y-104246546D01*
X164179794Y-104201493D01*
X164175051Y-104192184D01*
X164175049Y-104192181D01*
X164175048Y-104192179D01*
X164050109Y-104020213D01*
X163899786Y-103869890D01*
X163723875Y-103742085D01*
X163724851Y-103740740D01*
X163682834Y-103694295D01*
X163670500Y-103640382D01*
X163670500Y-86487220D01*
X163690185Y-86420181D01*
X163721614Y-86386902D01*
X163799792Y-86330104D01*
X163950104Y-86179792D01*
X163950106Y-86179788D01*
X163950109Y-86179786D01*
X164017515Y-86087007D01*
X164075051Y-86007816D01*
X164079793Y-85998508D01*
X164127763Y-85947711D01*
X164195583Y-85930911D01*
X164261719Y-85953445D01*
X164300763Y-85998500D01*
X164305377Y-86007555D01*
X164430272Y-86179459D01*
X164430276Y-86179464D01*
X164580535Y-86329723D01*
X164580540Y-86329727D01*
X164752442Y-86454620D01*
X164941782Y-86551095D01*
X165143871Y-86616757D01*
X165210000Y-86627231D01*
X165210000Y-85733012D01*
X165267007Y-85765925D01*
X165394174Y-85800000D01*
X165525826Y-85800000D01*
X165652993Y-85765925D01*
X165710000Y-85733012D01*
X165710000Y-86627230D01*
G37*
%TD.AperFunction*%
%TA.AperFunction,Conductor*%
G36*
X167270832Y-63252200D02*
G01*
X167613181Y-63594549D01*
X167646666Y-63655872D01*
X167649500Y-63682230D01*
X167649500Y-83825500D01*
X167629815Y-83892539D01*
X167577011Y-83938294D01*
X167525500Y-83949500D01*
X167102129Y-83949500D01*
X167102123Y-83949501D01*
X167042516Y-83955908D01*
X166907671Y-84006202D01*
X166907664Y-84006206D01*
X166792455Y-84092452D01*
X166792452Y-84092455D01*
X166706206Y-84207664D01*
X166706202Y-84207671D01*
X166656997Y-84339598D01*
X166615126Y-84395532D01*
X166549661Y-84419949D01*
X166481388Y-84405097D01*
X166453134Y-84383946D01*
X166339464Y-84270276D01*
X166339459Y-84270272D01*
X166167557Y-84145379D01*
X165978215Y-84048903D01*
X165776124Y-83983241D01*
X165710000Y-83972768D01*
X165710000Y-84866988D01*
X165652993Y-84834075D01*
X165525826Y-84800000D01*
X165394174Y-84800000D01*
X165267007Y-84834075D01*
X165210000Y-84866988D01*
X165210000Y-83972768D01*
X165209999Y-83972768D01*
X165143875Y-83983241D01*
X164941784Y-84048903D01*
X164752442Y-84145379D01*
X164580540Y-84270272D01*
X164580535Y-84270276D01*
X164430276Y-84420535D01*
X164430272Y-84420540D01*
X164305378Y-84592443D01*
X164300762Y-84601502D01*
X164252784Y-84652295D01*
X164184963Y-84669087D01*
X164118829Y-84646546D01*
X164079794Y-84601493D01*
X164075051Y-84592184D01*
X164075049Y-84592181D01*
X164075048Y-84592179D01*
X163950109Y-84420213D01*
X163799794Y-84269898D01*
X163799788Y-84269893D01*
X163721615Y-84213097D01*
X163678949Y-84157767D01*
X163670500Y-84112779D01*
X163670500Y-81146079D01*
X163641659Y-81001092D01*
X163641658Y-81001091D01*
X163641658Y-81001087D01*
X163587790Y-80871037D01*
X163585087Y-80864511D01*
X163585080Y-80864498D01*
X163502952Y-80741585D01*
X163502951Y-80741584D01*
X163398416Y-80637049D01*
X163060396Y-80299029D01*
X161978421Y-79217052D01*
X161978414Y-79217046D01*
X161904729Y-79167812D01*
X161904729Y-79167813D01*
X161855491Y-79134913D01*
X161718917Y-79078343D01*
X161718907Y-79078340D01*
X161573920Y-79049500D01*
X161573918Y-79049500D01*
X155973918Y-79049500D01*
X155826082Y-79049500D01*
X155826080Y-79049500D01*
X155681092Y-79078340D01*
X155681082Y-79078343D01*
X155544511Y-79134912D01*
X155544498Y-79134919D01*
X155421584Y-79217048D01*
X155421580Y-79217051D01*
X155317051Y-79321580D01*
X155317048Y-79321584D01*
X155234919Y-79444498D01*
X155234912Y-79444511D01*
X155178343Y-79581082D01*
X155178340Y-79581092D01*
X155149500Y-79726079D01*
X155149500Y-92637770D01*
X155129815Y-92704809D01*
X155113181Y-92725451D01*
X149680651Y-98157981D01*
X149619328Y-98191466D01*
X149592970Y-98194300D01*
X147978559Y-98194300D01*
X147911520Y-98174615D01*
X147878241Y-98143185D01*
X147866884Y-98127554D01*
X147866880Y-98127549D01*
X147727246Y-97987915D01*
X147567505Y-97871858D01*
X147561119Y-97868604D01*
X147397593Y-97785282D01*
X147346800Y-97737310D01*
X147330005Y-97669489D01*
X147352542Y-97603354D01*
X147397593Y-97564317D01*
X147567501Y-97477744D01*
X147587912Y-97462914D01*
X147727246Y-97361684D01*
X147727248Y-97361681D01*
X147727252Y-97361679D01*
X147866879Y-97222052D01*
X147866881Y-97222048D01*
X147866884Y-97222046D01*
X147917779Y-97151992D01*
X147982944Y-97062301D01*
X148072591Y-96886361D01*
X148133610Y-96698563D01*
X148164500Y-96503536D01*
X148164500Y-96306063D01*
X148133610Y-96111036D01*
X148113270Y-96048437D01*
X148072591Y-95923239D01*
X147982944Y-95747299D01*
X147975486Y-95737034D01*
X147866884Y-95587553D01*
X147727246Y-95447915D01*
X147567505Y-95331858D01*
X147561119Y-95328604D01*
X147397593Y-95245282D01*
X147346800Y-95197310D01*
X147330005Y-95129489D01*
X147352542Y-95063354D01*
X147397593Y-95024317D01*
X147567501Y-94937744D01*
X147587912Y-94922914D01*
X147727246Y-94821684D01*
X147727248Y-94821681D01*
X147727252Y-94821679D01*
X147866879Y-94682052D01*
X147867710Y-94680908D01*
X147878241Y-94666415D01*
X147933571Y-94623749D01*
X147978559Y-94615300D01*
X151209120Y-94615300D01*
X151306662Y-94595896D01*
X151354113Y-94586458D01*
X151490695Y-94529884D01*
X151539929Y-94496986D01*
X151613616Y-94447752D01*
X152082951Y-93978416D01*
X152117299Y-93927011D01*
X152124501Y-93916233D01*
X152124501Y-93916232D01*
X152131944Y-93905093D01*
X152165084Y-93855495D01*
X152221658Y-93718913D01*
X152241917Y-93617067D01*
X152250500Y-93573920D01*
X152250500Y-76462229D01*
X152270185Y-76395190D01*
X152286819Y-76374548D01*
X156574548Y-72086819D01*
X156635871Y-72053334D01*
X156662229Y-72050500D01*
X164353920Y-72050500D01*
X164451462Y-72031096D01*
X164498913Y-72021658D01*
X164635495Y-71965084D01*
X164684729Y-71932186D01*
X164758416Y-71882952D01*
X165491193Y-71150172D01*
X165552514Y-71116689D01*
X165598265Y-71115382D01*
X165693713Y-71130500D01*
X165693715Y-71130500D01*
X165906286Y-71130500D01*
X165906287Y-71130500D01*
X166116243Y-71097246D01*
X166318412Y-71031557D01*
X166507816Y-70935051D01*
X166529789Y-70919086D01*
X166679786Y-70810109D01*
X166679788Y-70810106D01*
X166679792Y-70810104D01*
X166830104Y-70659792D01*
X166830106Y-70659788D01*
X166830109Y-70659786D01*
X166955048Y-70487820D01*
X166955047Y-70487820D01*
X166955051Y-70487816D01*
X167051557Y-70298412D01*
X167117246Y-70096243D01*
X167150500Y-69886287D01*
X167150500Y-69673713D01*
X167117246Y-69463757D01*
X167051557Y-69261588D01*
X166955051Y-69072184D01*
X166955049Y-69072181D01*
X166955048Y-69072179D01*
X166830109Y-68900213D01*
X166679786Y-68749890D01*
X166507820Y-68624951D01*
X166507115Y-68624591D01*
X166499054Y-68620485D01*
X166448259Y-68572512D01*
X166431463Y-68504692D01*
X166453999Y-68438556D01*
X166499054Y-68399515D01*
X166507816Y-68395051D01*
X166631459Y-68305220D01*
X166679786Y-68270109D01*
X166679788Y-68270106D01*
X166679792Y-68270104D01*
X166830104Y-68119792D01*
X166830106Y-68119788D01*
X166830109Y-68119786D01*
X166955048Y-67947820D01*
X166955047Y-67947820D01*
X166955051Y-67947816D01*
X167051557Y-67758412D01*
X167117246Y-67556243D01*
X167150500Y-67346287D01*
X167150500Y-67133713D01*
X167117246Y-66923757D01*
X167051557Y-66721588D01*
X166955051Y-66532184D01*
X166955049Y-66532181D01*
X166955048Y-66532179D01*
X166830109Y-66360213D01*
X166679786Y-66209890D01*
X166507817Y-66084949D01*
X166498504Y-66080204D01*
X166447707Y-66032230D01*
X166430912Y-65964409D01*
X166453449Y-65898274D01*
X166498507Y-65859232D01*
X166507558Y-65854620D01*
X166679459Y-65729727D01*
X166679464Y-65729723D01*
X166829723Y-65579464D01*
X166829727Y-65579459D01*
X166954620Y-65407557D01*
X167051095Y-65218217D01*
X167116757Y-65016129D01*
X167116757Y-65016126D01*
X167127231Y-64950000D01*
X166233012Y-64950000D01*
X166265925Y-64892993D01*
X166300000Y-64765826D01*
X166300000Y-64634174D01*
X166265925Y-64507007D01*
X166233012Y-64450000D01*
X167127231Y-64450000D01*
X167116757Y-64383873D01*
X167116757Y-64383870D01*
X167051095Y-64181782D01*
X166954620Y-63992442D01*
X166829727Y-63820540D01*
X166829723Y-63820535D01*
X166716053Y-63706865D01*
X166682568Y-63645542D01*
X166687552Y-63575850D01*
X166729424Y-63519917D01*
X166760400Y-63503002D01*
X166892331Y-63453796D01*
X167007546Y-63367546D01*
X167083886Y-63265567D01*
X167139818Y-63223699D01*
X167209509Y-63218715D01*
X167270832Y-63252200D01*
G37*
%TD.AperFunction*%
%TA.AperFunction,Conductor*%
G36*
X154501460Y-68074551D02*
G01*
X154505545Y-68076158D01*
X154577334Y-68105895D01*
X154678808Y-68126079D01*
X154751303Y-68140499D01*
X154751307Y-68140500D01*
X154751308Y-68140500D01*
X154751309Y-68140500D01*
X164739242Y-68140500D01*
X164806281Y-68160185D01*
X164826923Y-68176819D01*
X164920213Y-68270109D01*
X165092182Y-68395050D01*
X165100946Y-68399516D01*
X165151742Y-68447491D01*
X165168536Y-68515312D01*
X165145998Y-68581447D01*
X165100946Y-68620484D01*
X165092182Y-68624949D01*
X164920213Y-68749890D01*
X164769890Y-68900213D01*
X164644951Y-69072179D01*
X164548444Y-69261585D01*
X164482753Y-69463760D01*
X164449500Y-69673713D01*
X164449500Y-69886292D01*
X164464616Y-69981728D01*
X164455662Y-70051021D01*
X164429824Y-70088807D01*
X164005451Y-70513181D01*
X163944128Y-70546666D01*
X163917770Y-70549500D01*
X156226080Y-70549500D01*
X156081092Y-70578340D01*
X156081082Y-70578343D01*
X155944509Y-70634913D01*
X155944507Y-70634914D01*
X155897039Y-70666632D01*
X155897038Y-70666633D01*
X155821581Y-70717050D01*
X155821580Y-70717051D01*
X150917050Y-75621580D01*
X150917044Y-75621588D01*
X150867812Y-75695268D01*
X150867813Y-75695269D01*
X150834921Y-75744496D01*
X150834914Y-75744508D01*
X150778342Y-75881086D01*
X150778340Y-75881092D01*
X150749500Y-76026079D01*
X150749500Y-92990300D01*
X150729815Y-93057339D01*
X150677011Y-93103094D01*
X150625500Y-93114300D01*
X147978559Y-93114300D01*
X147911520Y-93094615D01*
X147878241Y-93063185D01*
X147866884Y-93047554D01*
X147866880Y-93047549D01*
X147727246Y-92907915D01*
X147567505Y-92791858D01*
X147561119Y-92788604D01*
X147397593Y-92705282D01*
X147346800Y-92657310D01*
X147330005Y-92589489D01*
X147352542Y-92523354D01*
X147397593Y-92484317D01*
X147567501Y-92397744D01*
X147649197Y-92338389D01*
X147727246Y-92281684D01*
X147727248Y-92281681D01*
X147727252Y-92281679D01*
X147866879Y-92142052D01*
X147866881Y-92142048D01*
X147866884Y-92142046D01*
X147951912Y-92025013D01*
X147982944Y-91982301D01*
X148072591Y-91806361D01*
X148133610Y-91618563D01*
X148138833Y-91585584D01*
X148164500Y-91423536D01*
X148164500Y-91226063D01*
X148133610Y-91031036D01*
X148113270Y-90968437D01*
X148072591Y-90843239D01*
X147982944Y-90667299D01*
X147975486Y-90657034D01*
X147866884Y-90507553D01*
X147727246Y-90367915D01*
X147567505Y-90251858D01*
X147562334Y-90249223D01*
X147397043Y-90165002D01*
X147346250Y-90117030D01*
X147329455Y-90049209D01*
X147351992Y-89983075D01*
X147397046Y-89944035D01*
X147567241Y-89857316D01*
X147602988Y-89831343D01*
X147602988Y-89831341D01*
X147039410Y-89267762D01*
X147102993Y-89250725D01*
X147217007Y-89184899D01*
X147310099Y-89091807D01*
X147375925Y-88977793D01*
X147392962Y-88914209D01*
X147956541Y-89477788D01*
X147956543Y-89477788D01*
X147982516Y-89442041D01*
X148072126Y-89266173D01*
X148133123Y-89078446D01*
X148164000Y-88883497D01*
X148164000Y-88686102D01*
X148133123Y-88491153D01*
X148072126Y-88303426D01*
X147982520Y-88127568D01*
X147982512Y-88127555D01*
X147956542Y-88091810D01*
X147956541Y-88091809D01*
X147392962Y-88655389D01*
X147375925Y-88591807D01*
X147310099Y-88477793D01*
X147217007Y-88384701D01*
X147102993Y-88318875D01*
X147039409Y-88301837D01*
X147602989Y-87738257D01*
X147567236Y-87712281D01*
X147397045Y-87625563D01*
X147346250Y-87577589D01*
X147329455Y-87509768D01*
X147351993Y-87443633D01*
X147397042Y-87404598D01*
X147567501Y-87317744D01*
X147615283Y-87283028D01*
X147727246Y-87201684D01*
X147727248Y-87201681D01*
X147727252Y-87201679D01*
X147866879Y-87062052D01*
X147866881Y-87062048D01*
X147866884Y-87062046D01*
X147952456Y-86944264D01*
X147982944Y-86902301D01*
X148072591Y-86726361D01*
X148133610Y-86538563D01*
X148164500Y-86343536D01*
X148164500Y-86146063D01*
X148133610Y-85951036D01*
X148090518Y-85818414D01*
X148072591Y-85763239D01*
X147982944Y-85587299D01*
X147973998Y-85574986D01*
X147866884Y-85427553D01*
X147727246Y-85287915D01*
X147567505Y-85171858D01*
X147561119Y-85168604D01*
X147397593Y-85085282D01*
X147346800Y-85037310D01*
X147330005Y-84969489D01*
X147352542Y-84903354D01*
X147397593Y-84864317D01*
X147567501Y-84777744D01*
X147653915Y-84714961D01*
X147727246Y-84661684D01*
X147727248Y-84661681D01*
X147727252Y-84661679D01*
X147866879Y-84522052D01*
X147866881Y-84522048D01*
X147866884Y-84522046D01*
X147940872Y-84420208D01*
X147982944Y-84362301D01*
X148072591Y-84186361D01*
X148133610Y-83998563D01*
X148145738Y-83921991D01*
X148164500Y-83803536D01*
X148164500Y-83606063D01*
X148133610Y-83411036D01*
X148113270Y-83348437D01*
X148072591Y-83223239D01*
X147982944Y-83047299D01*
X147975486Y-83037034D01*
X147866884Y-82887553D01*
X147727246Y-82747915D01*
X147567505Y-82631858D01*
X147561119Y-82628604D01*
X147397593Y-82545282D01*
X147346800Y-82497310D01*
X147330005Y-82429489D01*
X147352542Y-82363354D01*
X147397593Y-82324317D01*
X147567501Y-82237744D01*
X147695832Y-82144507D01*
X147727246Y-82121684D01*
X147727248Y-82121681D01*
X147727252Y-82121679D01*
X147866879Y-81982052D01*
X147866881Y-81982048D01*
X147866884Y-81982046D01*
X147917779Y-81911992D01*
X147982944Y-81822301D01*
X148072591Y-81646361D01*
X148133610Y-81458563D01*
X148140901Y-81412532D01*
X148164500Y-81263536D01*
X148164500Y-81066063D01*
X148133610Y-80871036D01*
X148107794Y-80791582D01*
X148072591Y-80683239D01*
X147982944Y-80507299D01*
X147975486Y-80497034D01*
X147866884Y-80347553D01*
X147727246Y-80207915D01*
X147567504Y-80091858D01*
X147567503Y-80091857D01*
X147567501Y-80091856D01*
X147391561Y-80002209D01*
X147391558Y-80002208D01*
X147203763Y-79941189D01*
X147008736Y-79910300D01*
X147008731Y-79910300D01*
X146811269Y-79910300D01*
X146811264Y-79910300D01*
X146616236Y-79941189D01*
X146428441Y-80002208D01*
X146252495Y-80091858D01*
X146092753Y-80207915D01*
X145953115Y-80347553D01*
X145837058Y-80507295D01*
X145747408Y-80683241D01*
X145686389Y-80871036D01*
X145655500Y-81066063D01*
X145655500Y-81263536D01*
X145686389Y-81458563D01*
X145718007Y-81555871D01*
X145747409Y-81646361D01*
X145837056Y-81822301D01*
X145837058Y-81822304D01*
X145953115Y-81982046D01*
X146092753Y-82121684D01*
X146242234Y-82230286D01*
X146252499Y-82237744D01*
X146422404Y-82324316D01*
X146473199Y-82372290D01*
X146489994Y-82440111D01*
X146467456Y-82506246D01*
X146422404Y-82545283D01*
X146265321Y-82625322D01*
X146252495Y-82631858D01*
X146092753Y-82747915D01*
X145953115Y-82887553D01*
X145837058Y-83047295D01*
X145747408Y-83223241D01*
X145686389Y-83411036D01*
X145655500Y-83606063D01*
X145655500Y-83803536D01*
X145686389Y-83998563D01*
X145745283Y-84179818D01*
X145747409Y-84186361D01*
X145837056Y-84362301D01*
X145837058Y-84362304D01*
X145953115Y-84522046D01*
X146092753Y-84661684D01*
X146221545Y-84755255D01*
X146252499Y-84777744D01*
X146422404Y-84864316D01*
X146473199Y-84912290D01*
X146489994Y-84980111D01*
X146467456Y-85046246D01*
X146422404Y-85085283D01*
X146379771Y-85107007D01*
X146252495Y-85171858D01*
X146092753Y-85287915D01*
X146092749Y-85287919D01*
X146072688Y-85307981D01*
X146011365Y-85341466D01*
X145985007Y-85344300D01*
X144069162Y-85344300D01*
X144002123Y-85324615D01*
X143981481Y-85307981D01*
X142536819Y-83863319D01*
X142503334Y-83801996D01*
X142500500Y-83775638D01*
X142500500Y-80024360D01*
X142520185Y-79957321D01*
X142536814Y-79936684D01*
X154370447Y-68103050D01*
X154431768Y-68069567D01*
X154501460Y-68074551D01*
G37*
%TD.AperFunction*%
%TA.AperFunction,Conductor*%
G36*
X173842539Y-39820185D02*
G01*
X173888294Y-39872989D01*
X173899500Y-39924500D01*
X173899500Y-138875500D01*
X173879815Y-138942539D01*
X173827011Y-138988294D01*
X173775500Y-138999500D01*
X106430203Y-138999500D01*
X106363164Y-138979815D01*
X106317409Y-138927011D01*
X106307465Y-138857853D01*
X106336490Y-138794297D01*
X106376401Y-138763780D01*
X106523025Y-138693169D01*
X106653686Y-138630246D01*
X106939039Y-138450946D01*
X107202523Y-138240825D01*
X107440825Y-138002523D01*
X107650946Y-137739039D01*
X107830246Y-137453686D01*
X107976469Y-137150051D01*
X108087776Y-136831954D01*
X108162767Y-136503394D01*
X108200500Y-136168504D01*
X108200500Y-135831496D01*
X108162767Y-135496606D01*
X108087776Y-135168046D01*
X107976469Y-134849949D01*
X107830246Y-134546314D01*
X107650946Y-134260961D01*
X107627445Y-134231491D01*
X164899500Y-134231491D01*
X164899500Y-134568508D01*
X164937231Y-134903381D01*
X164937233Y-134903397D01*
X165012223Y-135231953D01*
X165012227Y-135231965D01*
X165123532Y-135550054D01*
X165269752Y-135853683D01*
X165269754Y-135853686D01*
X165449054Y-136139039D01*
X165659175Y-136402523D01*
X165897477Y-136640825D01*
X166160961Y-136850946D01*
X166446314Y-137030246D01*
X166749949Y-137176469D01*
X166988848Y-137260063D01*
X167068034Y-137287772D01*
X167068046Y-137287776D01*
X167396606Y-137362767D01*
X167731492Y-137400499D01*
X167731493Y-137400500D01*
X167731496Y-137400500D01*
X168068507Y-137400500D01*
X168068507Y-137400499D01*
X168403394Y-137362767D01*
X168731954Y-137287776D01*
X169050051Y-137176469D01*
X169353686Y-137030246D01*
X169639039Y-136850946D01*
X169902523Y-136640825D01*
X170140825Y-136402523D01*
X170350946Y-136139039D01*
X170530246Y-135853686D01*
X170676469Y-135550051D01*
X170787776Y-135231954D01*
X170862767Y-134903394D01*
X170900500Y-134568504D01*
X170900500Y-134231496D01*
X170862767Y-133896606D01*
X170787776Y-133568046D01*
X170781130Y-133549054D01*
X170760063Y-133488848D01*
X170676469Y-133249949D01*
X170530246Y-132946314D01*
X170350946Y-132660961D01*
X170140825Y-132397477D01*
X169902523Y-132159175D01*
X169639039Y-131949054D01*
X169353686Y-131769754D01*
X169353683Y-131769752D01*
X169050054Y-131623532D01*
X168731965Y-131512227D01*
X168731953Y-131512223D01*
X168403397Y-131437233D01*
X168403381Y-131437231D01*
X168068508Y-131399500D01*
X168068504Y-131399500D01*
X167731496Y-131399500D01*
X167731491Y-131399500D01*
X167396618Y-131437231D01*
X167396602Y-131437233D01*
X167068046Y-131512223D01*
X167068034Y-131512227D01*
X166749945Y-131623532D01*
X166446316Y-131769752D01*
X166160962Y-131949053D01*
X165897477Y-132159174D01*
X165659174Y-132397477D01*
X165449053Y-132660962D01*
X165269752Y-132946316D01*
X165123532Y-133249945D01*
X165012227Y-133568034D01*
X165012223Y-133568046D01*
X164937233Y-133896602D01*
X164937231Y-133896618D01*
X164899500Y-134231491D01*
X107627445Y-134231491D01*
X107440825Y-133997477D01*
X107202523Y-133759175D01*
X106939039Y-133549054D01*
X106653686Y-133369754D01*
X106653683Y-133369752D01*
X106350054Y-133223532D01*
X106031965Y-133112227D01*
X106031953Y-133112223D01*
X105703397Y-133037233D01*
X105703381Y-133037231D01*
X105368508Y-132999500D01*
X105368504Y-132999500D01*
X105031496Y-132999500D01*
X105031491Y-132999500D01*
X104696618Y-133037231D01*
X104696602Y-133037233D01*
X104368046Y-133112223D01*
X104368034Y-133112227D01*
X104049945Y-133223532D01*
X103746316Y-133369752D01*
X103460962Y-133549053D01*
X103197477Y-133759174D01*
X102959174Y-133997477D01*
X102749053Y-134260962D01*
X102569752Y-134546316D01*
X102423532Y-134849945D01*
X102312227Y-135168034D01*
X102312223Y-135168046D01*
X102237233Y-135496602D01*
X102237231Y-135496618D01*
X102199500Y-135831491D01*
X102199500Y-136168508D01*
X102237231Y-136503381D01*
X102237233Y-136503397D01*
X102312223Y-136831953D01*
X102312227Y-136831965D01*
X102423532Y-137150054D01*
X102569752Y-137453683D01*
X102569754Y-137453686D01*
X102749054Y-137739039D01*
X102959175Y-138002523D01*
X103197477Y-138240825D01*
X103460961Y-138450946D01*
X103746314Y-138630246D01*
X103746316Y-138630247D01*
X104023599Y-138763780D01*
X104075458Y-138810602D01*
X104093771Y-138878030D01*
X104072723Y-138944653D01*
X104018997Y-138989322D01*
X103969797Y-138999500D01*
X101224500Y-138999500D01*
X101157461Y-138979815D01*
X101111706Y-138927011D01*
X101100500Y-138875500D01*
X101100500Y-118173713D01*
X125149500Y-118173713D01*
X125149500Y-118386286D01*
X125182753Y-118596239D01*
X125248444Y-118798414D01*
X125344951Y-118987820D01*
X125469890Y-119159786D01*
X125620213Y-119310109D01*
X125792179Y-119435048D01*
X125792181Y-119435049D01*
X125792184Y-119435051D01*
X125981588Y-119531557D01*
X126183757Y-119597246D01*
X126393713Y-119630500D01*
X126393714Y-119630500D01*
X126606286Y-119630500D01*
X126606287Y-119630500D01*
X126816243Y-119597246D01*
X127018412Y-119531557D01*
X127207816Y-119435051D01*
X127229789Y-119419086D01*
X127379786Y-119310109D01*
X127379788Y-119310106D01*
X127379792Y-119310104D01*
X127530104Y-119159792D01*
X127530106Y-119159788D01*
X127530109Y-119159786D01*
X127655048Y-118987820D01*
X127655047Y-118987820D01*
X127655051Y-118987816D01*
X127751557Y-118798412D01*
X127817246Y-118596243D01*
X127850500Y-118386287D01*
X127850500Y-118173713D01*
X145649500Y-118173713D01*
X145649500Y-118386286D01*
X145682753Y-118596239D01*
X145748444Y-118798414D01*
X145844951Y-118987820D01*
X145969890Y-119159786D01*
X146120213Y-119310109D01*
X146292179Y-119435048D01*
X146292181Y-119435049D01*
X146292184Y-119435051D01*
X146481588Y-119531557D01*
X146683757Y-119597246D01*
X146893713Y-119630500D01*
X146893714Y-119630500D01*
X147106286Y-119630500D01*
X147106287Y-119630500D01*
X147316243Y-119597246D01*
X147518412Y-119531557D01*
X147707816Y-119435051D01*
X147729789Y-119419086D01*
X147879786Y-119310109D01*
X147879788Y-119310106D01*
X147879792Y-119310104D01*
X148030104Y-119159792D01*
X148030106Y-119159788D01*
X148030109Y-119159786D01*
X148155048Y-118987820D01*
X148155047Y-118987820D01*
X148155051Y-118987816D01*
X148251557Y-118798412D01*
X148317246Y-118596243D01*
X148350500Y-118386287D01*
X148350500Y-118173713D01*
X148317246Y-117963757D01*
X148251557Y-117761588D01*
X148155051Y-117572184D01*
X148155049Y-117572181D01*
X148155048Y-117572179D01*
X148030109Y-117400213D01*
X147879786Y-117249890D01*
X147707820Y-117124951D01*
X147518414Y-117028444D01*
X147518413Y-117028443D01*
X147518412Y-117028443D01*
X147316243Y-116962754D01*
X147316241Y-116962753D01*
X147316240Y-116962753D01*
X147154957Y-116937208D01*
X147106287Y-116929500D01*
X146893713Y-116929500D01*
X146845042Y-116937208D01*
X146683760Y-116962753D01*
X146683757Y-116962754D01*
X146519173Y-117016231D01*
X146481585Y-117028444D01*
X146292179Y-117124951D01*
X146120213Y-117249890D01*
X145969890Y-117400213D01*
X145844951Y-117572179D01*
X145748444Y-117761585D01*
X145682753Y-117963760D01*
X145649500Y-118173713D01*
X127850500Y-118173713D01*
X127817246Y-117963757D01*
X127751557Y-117761588D01*
X127655051Y-117572184D01*
X127655049Y-117572181D01*
X127655048Y-117572179D01*
X127530109Y-117400213D01*
X127379786Y-117249890D01*
X127207820Y-117124951D01*
X127018414Y-117028444D01*
X127018413Y-117028443D01*
X127018412Y-117028443D01*
X126816243Y-116962754D01*
X126816241Y-116962753D01*
X126816240Y-116962753D01*
X126654957Y-116937208D01*
X126606287Y-116929500D01*
X126393713Y-116929500D01*
X126345042Y-116937208D01*
X126183760Y-116962753D01*
X126183757Y-116962754D01*
X126019173Y-117016231D01*
X125981585Y-117028444D01*
X125792179Y-117124951D01*
X125620213Y-117249890D01*
X125469890Y-117400213D01*
X125344951Y-117572179D01*
X125248444Y-117761585D01*
X125182753Y-117963760D01*
X125149500Y-118173713D01*
X101100500Y-118173713D01*
X101100500Y-77873920D01*
X108049499Y-77873920D01*
X108078340Y-78018907D01*
X108078343Y-78018917D01*
X108134914Y-78155492D01*
X108167812Y-78204727D01*
X108167813Y-78204730D01*
X108217046Y-78278414D01*
X108217052Y-78278421D01*
X112713181Y-82774549D01*
X112746666Y-82835872D01*
X112749500Y-82862230D01*
X112749500Y-83767796D01*
X112740854Y-83797240D01*
X112734331Y-83827224D01*
X112730577Y-83832237D01*
X112729815Y-83834835D01*
X112713181Y-83855477D01*
X112713180Y-83855478D01*
X112675165Y-83893492D01*
X112613842Y-83926977D01*
X112544150Y-83921991D01*
X112488217Y-83880119D01*
X112481946Y-83870906D01*
X112442317Y-83806656D01*
X112318345Y-83682684D01*
X112169124Y-83590643D01*
X112169119Y-83590641D01*
X112002697Y-83535494D01*
X112002690Y-83535493D01*
X111899986Y-83525000D01*
X111750000Y-83525000D01*
X111750000Y-84619670D01*
X111730255Y-84599925D01*
X111644745Y-84550556D01*
X111549370Y-84525000D01*
X111450630Y-84525000D01*
X111355255Y-84550556D01*
X111269745Y-84599925D01*
X111250000Y-84619670D01*
X111250000Y-83525000D01*
X111100027Y-83525000D01*
X111100012Y-83525001D01*
X110997302Y-83535494D01*
X110830880Y-83590641D01*
X110830875Y-83590643D01*
X110681654Y-83682684D01*
X110557684Y-83806654D01*
X110465643Y-83955875D01*
X110465641Y-83955880D01*
X110410494Y-84122302D01*
X110410493Y-84122309D01*
X110400000Y-84225013D01*
X110400000Y-84650000D01*
X111219670Y-84650000D01*
X111199925Y-84669745D01*
X111150556Y-84755255D01*
X111125000Y-84850630D01*
X111125000Y-84949370D01*
X111150556Y-85044745D01*
X111199925Y-85130255D01*
X111219670Y-85150000D01*
X110400001Y-85150000D01*
X110400001Y-85574986D01*
X110410494Y-85677697D01*
X110465641Y-85844119D01*
X110465643Y-85844124D01*
X110557684Y-85993345D01*
X110681654Y-86117315D01*
X110830875Y-86209356D01*
X110830880Y-86209358D01*
X110997302Y-86264505D01*
X110997309Y-86264506D01*
X111100019Y-86274999D01*
X111249999Y-86274999D01*
X111250000Y-86274998D01*
X111250000Y-85180330D01*
X111269745Y-85200075D01*
X111355255Y-85249444D01*
X111450630Y-85275000D01*
X111549370Y-85275000D01*
X111644745Y-85249444D01*
X111730255Y-85200075D01*
X111750000Y-85180330D01*
X111750000Y-86274999D01*
X111899972Y-86274999D01*
X111899986Y-86274998D01*
X112002697Y-86264505D01*
X112169119Y-86209358D01*
X112169124Y-86209356D01*
X112318345Y-86117315D01*
X112442315Y-85993345D01*
X112481945Y-85929094D01*
X112499237Y-85913539D01*
X112513175Y-85894922D01*
X112524725Y-85890613D01*
X112533893Y-85882368D01*
X112556850Y-85878631D01*
X112578639Y-85870505D01*
X112590685Y-85873125D01*
X112602855Y-85871145D01*
X112624186Y-85880413D01*
X112646912Y-85885357D01*
X112662608Y-85897107D01*
X112666937Y-85898988D01*
X112675166Y-85906508D01*
X112713181Y-85944523D01*
X112746666Y-86005846D01*
X112749500Y-86032204D01*
X112749500Y-91474142D01*
X112729815Y-91541181D01*
X112698387Y-91574459D01*
X112683074Y-91585584D01*
X112575166Y-91693492D01*
X112513843Y-91726976D01*
X112444151Y-91721992D01*
X112388218Y-91680120D01*
X112381946Y-91670906D01*
X112342317Y-91606656D01*
X112218345Y-91482684D01*
X112069124Y-91390643D01*
X112069119Y-91390641D01*
X111902697Y-91335494D01*
X111902690Y-91335493D01*
X111799986Y-91325000D01*
X111650000Y-91325000D01*
X111650000Y-92419670D01*
X111630255Y-92399925D01*
X111544745Y-92350556D01*
X111449370Y-92325000D01*
X111350630Y-92325000D01*
X111255255Y-92350556D01*
X111169745Y-92399925D01*
X111150000Y-92419670D01*
X111150000Y-91325000D01*
X111000027Y-91325000D01*
X111000012Y-91325001D01*
X110897302Y-91335494D01*
X110730880Y-91390641D01*
X110730875Y-91390643D01*
X110581654Y-91482684D01*
X110457684Y-91606654D01*
X110365643Y-91755875D01*
X110365641Y-91755880D01*
X110310494Y-91922302D01*
X110310493Y-91922309D01*
X110300000Y-92025013D01*
X110300000Y-92450000D01*
X111119670Y-92450000D01*
X111099925Y-92469745D01*
X111050556Y-92555255D01*
X111025000Y-92650630D01*
X111025000Y-92749370D01*
X111050556Y-92844745D01*
X111099925Y-92930255D01*
X111119670Y-92950000D01*
X110300001Y-92950000D01*
X110300001Y-93374986D01*
X110310494Y-93477697D01*
X110365641Y-93644119D01*
X110365643Y-93644124D01*
X110457684Y-93793345D01*
X110581654Y-93917315D01*
X110730875Y-94009356D01*
X110730880Y-94009358D01*
X110897302Y-94064505D01*
X110897309Y-94064506D01*
X111000019Y-94074999D01*
X111149999Y-94074999D01*
X111150000Y-94074998D01*
X111150000Y-92980330D01*
X111169745Y-93000075D01*
X111255255Y-93049444D01*
X111350630Y-93075000D01*
X111449370Y-93075000D01*
X111544745Y-93049444D01*
X111630255Y-93000075D01*
X111650000Y-92980330D01*
X111650000Y-94074999D01*
X111799972Y-94074999D01*
X111799986Y-94074998D01*
X111902697Y-94064505D01*
X112069119Y-94009358D01*
X112069124Y-94009356D01*
X112218345Y-93917315D01*
X112342315Y-93793345D01*
X112381945Y-93729094D01*
X112399237Y-93713539D01*
X112413175Y-93694922D01*
X112424725Y-93690613D01*
X112433893Y-93682368D01*
X112456850Y-93678631D01*
X112478639Y-93670505D01*
X112490685Y-93673125D01*
X112502855Y-93671145D01*
X112524186Y-93680413D01*
X112546912Y-93685357D01*
X112562608Y-93697107D01*
X112566937Y-93698988D01*
X112575166Y-93706508D01*
X112613181Y-93744523D01*
X112646666Y-93805846D01*
X112649500Y-93832204D01*
X112649500Y-99067796D01*
X112629815Y-99134835D01*
X112613180Y-99155478D01*
X112575165Y-99193492D01*
X112513842Y-99226977D01*
X112444150Y-99221991D01*
X112388217Y-99180119D01*
X112381946Y-99170906D01*
X112342317Y-99106656D01*
X112218345Y-98982684D01*
X112069124Y-98890643D01*
X112069119Y-98890641D01*
X111902697Y-98835494D01*
X111902690Y-98835493D01*
X111799986Y-98825000D01*
X111650000Y-98825000D01*
X111650000Y-99919670D01*
X111630255Y-99899925D01*
X111544745Y-99850556D01*
X111449370Y-99825000D01*
X111350630Y-99825000D01*
X111255255Y-99850556D01*
X111169745Y-99899925D01*
X111150000Y-99919670D01*
X111150000Y-98825000D01*
X111000027Y-98825000D01*
X111000012Y-98825001D01*
X110897302Y-98835494D01*
X110730880Y-98890641D01*
X110730875Y-98890643D01*
X110581654Y-98982684D01*
X110457684Y-99106654D01*
X110365643Y-99255875D01*
X110365641Y-99255880D01*
X110310494Y-99422302D01*
X110310493Y-99422309D01*
X110300000Y-99525013D01*
X110300000Y-99950000D01*
X111119670Y-99950000D01*
X111099925Y-99969745D01*
X111050556Y-100055255D01*
X111025000Y-100150630D01*
X111025000Y-100249370D01*
X111050556Y-100344745D01*
X111099925Y-100430255D01*
X111119670Y-100450000D01*
X110300001Y-100450000D01*
X110300001Y-100874986D01*
X110310494Y-100977697D01*
X110365641Y-101144119D01*
X110365643Y-101144124D01*
X110457684Y-101293345D01*
X110581654Y-101417315D01*
X110730875Y-101509356D01*
X110730880Y-101509358D01*
X110897302Y-101564505D01*
X110897309Y-101564506D01*
X111000019Y-101574999D01*
X111149999Y-101574999D01*
X111150000Y-101574998D01*
X111150000Y-100480330D01*
X111169745Y-100500075D01*
X111255255Y-100549444D01*
X111350630Y-100575000D01*
X111449370Y-100575000D01*
X111544745Y-100549444D01*
X111630255Y-100500075D01*
X111650000Y-100480330D01*
X111650000Y-101574999D01*
X111799972Y-101574999D01*
X111799986Y-101574998D01*
X111902697Y-101564505D01*
X112069119Y-101509358D01*
X112069124Y-101509356D01*
X112218345Y-101417315D01*
X112342315Y-101293345D01*
X112381945Y-101229094D01*
X112399237Y-101213539D01*
X112413175Y-101194922D01*
X112424725Y-101190613D01*
X112433893Y-101182368D01*
X112456850Y-101178631D01*
X112478639Y-101170505D01*
X112490685Y-101173125D01*
X112502855Y-101171145D01*
X112524186Y-101180413D01*
X112546912Y-101185357D01*
X112562608Y-101197107D01*
X112566937Y-101198988D01*
X112575166Y-101206508D01*
X112613181Y-101244523D01*
X112646666Y-101305846D01*
X112649500Y-101332204D01*
X112649500Y-106574142D01*
X112629815Y-106641181D01*
X112598387Y-106674459D01*
X112583074Y-106685584D01*
X112475166Y-106793492D01*
X112413843Y-106826976D01*
X112344151Y-106821992D01*
X112288218Y-106780120D01*
X112281946Y-106770906D01*
X112242317Y-106706656D01*
X112118345Y-106582684D01*
X111969124Y-106490643D01*
X111969119Y-106490641D01*
X111802697Y-106435494D01*
X111802690Y-106435493D01*
X111699986Y-106425000D01*
X111550000Y-106425000D01*
X111550000Y-107519670D01*
X111530255Y-107499925D01*
X111444745Y-107450556D01*
X111349370Y-107425000D01*
X111250630Y-107425000D01*
X111155255Y-107450556D01*
X111069745Y-107499925D01*
X111050000Y-107519670D01*
X111050000Y-106425000D01*
X110900027Y-106425000D01*
X110900012Y-106425001D01*
X110797302Y-106435494D01*
X110630880Y-106490641D01*
X110630875Y-106490643D01*
X110481654Y-106582684D01*
X110357684Y-106706654D01*
X110265643Y-106855875D01*
X110265641Y-106855880D01*
X110210494Y-107022302D01*
X110210493Y-107022309D01*
X110200000Y-107125013D01*
X110200000Y-107550000D01*
X111019670Y-107550000D01*
X110999925Y-107569745D01*
X110950556Y-107655255D01*
X110925000Y-107750630D01*
X110925000Y-107849370D01*
X110950556Y-107944745D01*
X110999925Y-108030255D01*
X111019670Y-108050000D01*
X110200001Y-108050000D01*
X110200001Y-108474986D01*
X110210494Y-108577697D01*
X110265641Y-108744119D01*
X110265643Y-108744124D01*
X110357684Y-108893345D01*
X110481654Y-109017315D01*
X110630875Y-109109356D01*
X110630880Y-109109358D01*
X110797302Y-109164505D01*
X110797309Y-109164506D01*
X110900019Y-109174999D01*
X111049999Y-109174999D01*
X111050000Y-109174998D01*
X111050000Y-108080330D01*
X111069745Y-108100075D01*
X111155255Y-108149444D01*
X111250630Y-108175000D01*
X111349370Y-108175000D01*
X111444745Y-108149444D01*
X111530255Y-108100075D01*
X111550000Y-108080330D01*
X111550000Y-109174999D01*
X111699972Y-109174999D01*
X111699986Y-109174998D01*
X111802697Y-109164505D01*
X111969119Y-109109358D01*
X111969124Y-109109356D01*
X112118345Y-109017315D01*
X112242315Y-108893345D01*
X112281945Y-108829094D01*
X112299237Y-108813539D01*
X112313175Y-108794922D01*
X112324725Y-108790613D01*
X112333893Y-108782368D01*
X112356850Y-108778631D01*
X112378639Y-108770505D01*
X112390685Y-108773125D01*
X112402855Y-108771145D01*
X112424186Y-108780413D01*
X112446912Y-108785357D01*
X112462608Y-108797107D01*
X112466937Y-108798988D01*
X112475166Y-108806508D01*
X112513181Y-108844523D01*
X112546666Y-108905846D01*
X112549500Y-108932204D01*
X112549500Y-114614477D01*
X112529815Y-114681516D01*
X112477011Y-114727271D01*
X112407853Y-114737215D01*
X112344297Y-114708190D01*
X112337819Y-114702158D01*
X112218345Y-114582684D01*
X112069124Y-114490643D01*
X112069119Y-114490641D01*
X111902697Y-114435494D01*
X111902690Y-114435493D01*
X111799986Y-114425000D01*
X111650000Y-114425000D01*
X111650000Y-115519670D01*
X111630255Y-115499925D01*
X111544745Y-115450556D01*
X111449370Y-115425000D01*
X111350630Y-115425000D01*
X111255255Y-115450556D01*
X111169745Y-115499925D01*
X111150000Y-115519670D01*
X111150000Y-114425000D01*
X111000027Y-114425000D01*
X111000012Y-114425001D01*
X110897302Y-114435494D01*
X110730880Y-114490641D01*
X110730875Y-114490643D01*
X110581654Y-114582684D01*
X110457684Y-114706654D01*
X110365643Y-114855875D01*
X110365641Y-114855880D01*
X110310494Y-115022302D01*
X110310493Y-115022309D01*
X110300000Y-115125013D01*
X110300000Y-115550000D01*
X111119670Y-115550000D01*
X111099925Y-115569745D01*
X111050556Y-115655255D01*
X111025000Y-115750630D01*
X111025000Y-115849370D01*
X111050556Y-115944745D01*
X111099925Y-116030255D01*
X111119670Y-116050000D01*
X110300001Y-116050000D01*
X110300001Y-116474986D01*
X110310494Y-116577697D01*
X110365641Y-116744119D01*
X110365643Y-116744124D01*
X110457684Y-116893345D01*
X110581654Y-117017315D01*
X110730875Y-117109356D01*
X110730880Y-117109358D01*
X110897302Y-117164505D01*
X110897309Y-117164506D01*
X111000019Y-117174999D01*
X111149999Y-117174999D01*
X111150000Y-117174998D01*
X111150000Y-116080330D01*
X111169745Y-116100075D01*
X111255255Y-116149444D01*
X111350630Y-116175000D01*
X111449370Y-116175000D01*
X111544745Y-116149444D01*
X111630255Y-116100075D01*
X111650000Y-116080330D01*
X111650000Y-117174999D01*
X111799972Y-117174999D01*
X111799986Y-117174998D01*
X111902697Y-117164505D01*
X112069119Y-117109358D01*
X112069124Y-117109356D01*
X112218345Y-117017315D01*
X112342315Y-116893345D01*
X112381945Y-116829094D01*
X112433893Y-116782368D01*
X112502855Y-116771145D01*
X112566937Y-116798988D01*
X112575166Y-116806508D01*
X112683072Y-116914414D01*
X112823212Y-117016232D01*
X112977555Y-117094873D01*
X113142299Y-117148402D01*
X113313389Y-117175500D01*
X113313390Y-117175500D01*
X113486610Y-117175500D01*
X113486611Y-117175500D01*
X113657701Y-117148402D01*
X113822445Y-117094873D01*
X113976788Y-117016232D01*
X114116928Y-116914414D01*
X114239414Y-116791928D01*
X114299682Y-116708975D01*
X114355012Y-116666311D01*
X114424626Y-116660332D01*
X114486421Y-116692938D01*
X114500315Y-116708973D01*
X114560586Y-116791928D01*
X114683072Y-116914414D01*
X114823212Y-117016232D01*
X114977555Y-117094873D01*
X115142299Y-117148402D01*
X115313389Y-117175500D01*
X115313390Y-117175500D01*
X115486610Y-117175500D01*
X115486611Y-117175500D01*
X115657701Y-117148402D01*
X115822445Y-117094873D01*
X115976788Y-117016232D01*
X116116928Y-116914414D01*
X116239414Y-116791928D01*
X116299682Y-116708975D01*
X116355012Y-116666311D01*
X116424626Y-116660332D01*
X116486421Y-116692938D01*
X116500315Y-116708973D01*
X116560586Y-116791928D01*
X116683072Y-116914414D01*
X116823212Y-117016232D01*
X116977555Y-117094873D01*
X117142299Y-117148402D01*
X117313389Y-117175500D01*
X117313390Y-117175500D01*
X117486610Y-117175500D01*
X117486611Y-117175500D01*
X117657701Y-117148402D01*
X117822445Y-117094873D01*
X117976788Y-117016232D01*
X118116928Y-116914414D01*
X118239414Y-116791928D01*
X118341232Y-116651788D01*
X118358343Y-116618204D01*
X118406315Y-116567410D01*
X118468827Y-116550500D01*
X125048720Y-116550500D01*
X125146262Y-116531096D01*
X125193713Y-116521658D01*
X125284767Y-116483942D01*
X125330293Y-116465085D01*
X125330293Y-116465084D01*
X125330295Y-116465084D01*
X125395287Y-116421658D01*
X125395287Y-116421657D01*
X125395289Y-116421657D01*
X125424251Y-116402305D01*
X125453216Y-116382952D01*
X126365100Y-115471066D01*
X126426421Y-115437583D01*
X126472177Y-115436276D01*
X126491269Y-115439300D01*
X126491270Y-115439300D01*
X126688736Y-115439300D01*
X126883763Y-115408410D01*
X127071561Y-115347391D01*
X127247501Y-115257744D01*
X127337192Y-115192579D01*
X127407246Y-115141684D01*
X127407248Y-115141681D01*
X127407252Y-115141679D01*
X127546879Y-115002052D01*
X127546881Y-115002048D01*
X127546884Y-115002046D01*
X127615893Y-114907061D01*
X127662944Y-114842301D01*
X127752591Y-114666361D01*
X127813610Y-114478563D01*
X127817881Y-114451597D01*
X127844500Y-114283536D01*
X127844500Y-114086063D01*
X127813610Y-113891036D01*
X127793270Y-113828437D01*
X127752591Y-113703239D01*
X127662944Y-113527299D01*
X127655486Y-113517034D01*
X127546884Y-113367553D01*
X127407246Y-113227915D01*
X127247505Y-113111858D01*
X127241119Y-113108604D01*
X127077593Y-113025282D01*
X127026800Y-112977310D01*
X127010005Y-112909489D01*
X127032542Y-112843354D01*
X127077593Y-112804317D01*
X127247501Y-112717744D01*
X127267912Y-112702914D01*
X127407246Y-112601684D01*
X127407248Y-112601681D01*
X127407252Y-112601679D01*
X127546879Y-112462052D01*
X127546881Y-112462048D01*
X127546884Y-112462046D01*
X127597779Y-112391992D01*
X127662944Y-112302301D01*
X127752591Y-112126361D01*
X127813610Y-111938563D01*
X127844500Y-111743536D01*
X127844500Y-111546063D01*
X127813610Y-111351036D01*
X127793270Y-111288437D01*
X127752591Y-111163239D01*
X127662944Y-110987299D01*
X127655486Y-110977034D01*
X127546884Y-110827553D01*
X127407246Y-110687915D01*
X127247505Y-110571858D01*
X127241119Y-110568604D01*
X127077593Y-110485282D01*
X127026800Y-110437310D01*
X127010005Y-110369489D01*
X127032542Y-110303354D01*
X127077593Y-110264317D01*
X127247501Y-110177744D01*
X127267912Y-110162914D01*
X127407246Y-110061684D01*
X127407248Y-110061681D01*
X127407252Y-110061679D01*
X127546879Y-109922052D01*
X127546881Y-109922048D01*
X127546884Y-109922046D01*
X127597779Y-109851992D01*
X127662944Y-109762301D01*
X127752591Y-109586361D01*
X127813610Y-109398563D01*
X127844500Y-109203536D01*
X127844500Y-109006063D01*
X127813610Y-108811036D01*
X127781697Y-108712818D01*
X127752591Y-108623239D01*
X127662944Y-108447299D01*
X127655486Y-108437034D01*
X127546884Y-108287553D01*
X127407246Y-108147915D01*
X127247505Y-108031858D01*
X127241119Y-108028604D01*
X127077593Y-107945282D01*
X127026800Y-107897310D01*
X127010005Y-107829489D01*
X127032542Y-107763354D01*
X127077593Y-107724317D01*
X127247501Y-107637744D01*
X127267912Y-107622914D01*
X127407246Y-107521684D01*
X127407248Y-107521681D01*
X127407252Y-107521679D01*
X127546879Y-107382052D01*
X127546881Y-107382048D01*
X127546884Y-107382046D01*
X127630251Y-107267299D01*
X127662944Y-107222301D01*
X127752591Y-107046361D01*
X127813610Y-106858563D01*
X127821607Y-106808072D01*
X127844500Y-106663536D01*
X127844500Y-106466063D01*
X127813610Y-106271036D01*
X127788512Y-106193793D01*
X127752591Y-106083239D01*
X127662944Y-105907299D01*
X127626750Y-105857482D01*
X127546884Y-105747553D01*
X127407246Y-105607915D01*
X127247505Y-105491858D01*
X127241119Y-105488604D01*
X127077593Y-105405282D01*
X127026800Y-105357310D01*
X127010005Y-105289489D01*
X127032542Y-105223354D01*
X127077593Y-105184317D01*
X127247501Y-105097744D01*
X127373382Y-105006287D01*
X127407246Y-104981684D01*
X127407248Y-104981681D01*
X127407252Y-104981679D01*
X127546879Y-104842052D01*
X127546881Y-104842048D01*
X127546884Y-104842046D01*
X127644994Y-104707007D01*
X127662944Y-104682301D01*
X127752591Y-104506361D01*
X127813610Y-104318563D01*
X127821446Y-104269087D01*
X127844500Y-104123536D01*
X127844500Y-103926063D01*
X127813610Y-103731036D01*
X127786923Y-103648903D01*
X127752591Y-103543239D01*
X127662944Y-103367299D01*
X127655486Y-103357034D01*
X127546884Y-103207553D01*
X127407246Y-103067915D01*
X127247505Y-102951858D01*
X127241119Y-102948604D01*
X127077593Y-102865282D01*
X127026800Y-102817310D01*
X127010005Y-102749489D01*
X127032542Y-102683354D01*
X127077593Y-102644317D01*
X127247501Y-102557744D01*
X127267912Y-102542914D01*
X127407246Y-102441684D01*
X127407248Y-102441681D01*
X127407252Y-102441679D01*
X127546879Y-102302052D01*
X127546881Y-102302048D01*
X127546884Y-102302046D01*
X127597779Y-102231992D01*
X127662944Y-102142301D01*
X127752591Y-101966361D01*
X127813610Y-101778563D01*
X127818055Y-101750500D01*
X127844500Y-101583536D01*
X127844500Y-101386063D01*
X127813610Y-101191036D01*
X127773084Y-101066311D01*
X127752591Y-101003239D01*
X127662944Y-100827299D01*
X127655486Y-100817034D01*
X127546884Y-100667553D01*
X127407246Y-100527915D01*
X127247505Y-100411858D01*
X127241119Y-100408604D01*
X127077593Y-100325282D01*
X127026800Y-100277310D01*
X127010005Y-100209489D01*
X127032542Y-100143354D01*
X127077593Y-100104317D01*
X127247501Y-100017744D01*
X127267912Y-100002914D01*
X127407246Y-99901684D01*
X127407248Y-99901681D01*
X127407252Y-99901679D01*
X127546879Y-99762052D01*
X127546881Y-99762048D01*
X127546884Y-99762046D01*
X127597779Y-99691992D01*
X127662944Y-99602301D01*
X127752591Y-99426361D01*
X127813610Y-99238563D01*
X127824326Y-99170906D01*
X127844500Y-99043536D01*
X127844500Y-98846063D01*
X127813610Y-98651036D01*
X127793270Y-98588437D01*
X127752591Y-98463239D01*
X127662944Y-98287299D01*
X127655486Y-98277034D01*
X127546884Y-98127553D01*
X127407246Y-97987915D01*
X127247505Y-97871858D01*
X127241119Y-97868604D01*
X127077593Y-97785282D01*
X127026800Y-97737310D01*
X127010005Y-97669489D01*
X127032542Y-97603354D01*
X127077593Y-97564317D01*
X127247501Y-97477744D01*
X127267912Y-97462914D01*
X127407246Y-97361684D01*
X127407248Y-97361681D01*
X127407252Y-97361679D01*
X127546879Y-97222052D01*
X127546881Y-97222048D01*
X127546884Y-97222046D01*
X127597779Y-97151992D01*
X127662944Y-97062301D01*
X127752591Y-96886361D01*
X127813610Y-96698563D01*
X127844500Y-96503536D01*
X127844500Y-96306063D01*
X127813610Y-96111036D01*
X127793270Y-96048437D01*
X127752591Y-95923239D01*
X127662944Y-95747299D01*
X127655486Y-95737034D01*
X127546884Y-95587553D01*
X127407246Y-95447915D01*
X127247505Y-95331858D01*
X127241119Y-95328604D01*
X127077593Y-95245282D01*
X127026800Y-95197310D01*
X127010005Y-95129489D01*
X127032542Y-95063354D01*
X127077593Y-95024317D01*
X127247501Y-94937744D01*
X127267912Y-94922914D01*
X127407246Y-94821684D01*
X127407248Y-94821681D01*
X127407252Y-94821679D01*
X127546879Y-94682052D01*
X127546881Y-94682048D01*
X127546884Y-94682046D01*
X127616331Y-94586459D01*
X127662944Y-94522301D01*
X127752591Y-94346361D01*
X127813610Y-94158563D01*
X127826766Y-94075500D01*
X127844500Y-93963536D01*
X127844500Y-93766063D01*
X127813610Y-93571036D01*
X127783282Y-93477697D01*
X127752591Y-93383239D01*
X127662944Y-93207299D01*
X127655486Y-93197034D01*
X127546884Y-93047553D01*
X127407246Y-92907915D01*
X127247505Y-92791858D01*
X127241119Y-92788604D01*
X127077593Y-92705282D01*
X127026800Y-92657310D01*
X127010005Y-92589489D01*
X127032542Y-92523354D01*
X127077593Y-92484317D01*
X127247501Y-92397744D01*
X127329197Y-92338389D01*
X127407246Y-92281684D01*
X127407248Y-92281681D01*
X127407252Y-92281679D01*
X127546879Y-92142052D01*
X127546881Y-92142048D01*
X127546884Y-92142046D01*
X127631912Y-92025013D01*
X127662944Y-91982301D01*
X127752591Y-91806361D01*
X127813610Y-91618563D01*
X127818833Y-91585584D01*
X127844500Y-91423536D01*
X127844500Y-91226063D01*
X127813610Y-91031036D01*
X127793270Y-90968437D01*
X127752591Y-90843239D01*
X127662944Y-90667299D01*
X127655486Y-90657034D01*
X127546884Y-90507553D01*
X127407246Y-90367915D01*
X127247505Y-90251858D01*
X127241119Y-90248604D01*
X127077593Y-90165282D01*
X127026800Y-90117310D01*
X127010005Y-90049489D01*
X127032542Y-89983354D01*
X127077593Y-89944317D01*
X127247501Y-89857744D01*
X127283842Y-89831341D01*
X127407246Y-89741684D01*
X127407248Y-89741681D01*
X127407252Y-89741679D01*
X127546879Y-89602052D01*
X127546881Y-89602048D01*
X127546884Y-89602046D01*
X127597779Y-89531992D01*
X127662944Y-89442301D01*
X127752591Y-89266361D01*
X127813610Y-89078563D01*
X127813629Y-89078446D01*
X127844500Y-88883536D01*
X127844500Y-88686063D01*
X127813610Y-88491036D01*
X127757671Y-88318875D01*
X127752591Y-88303239D01*
X127662944Y-88127299D01*
X127637159Y-88091809D01*
X127546884Y-87967553D01*
X127407246Y-87827915D01*
X127247505Y-87711858D01*
X127241119Y-87708604D01*
X127077593Y-87625282D01*
X127026800Y-87577310D01*
X127010005Y-87509489D01*
X127032542Y-87443354D01*
X127077593Y-87404317D01*
X127247501Y-87317744D01*
X127267912Y-87302914D01*
X127407246Y-87201684D01*
X127407248Y-87201681D01*
X127407252Y-87201679D01*
X127546879Y-87062052D01*
X127546881Y-87062048D01*
X127546884Y-87062046D01*
X127632456Y-86944264D01*
X127662944Y-86902301D01*
X127752591Y-86726361D01*
X127813610Y-86538563D01*
X127844500Y-86343536D01*
X127844500Y-86146063D01*
X127813610Y-85951036D01*
X127770518Y-85818414D01*
X127752591Y-85763239D01*
X127662944Y-85587299D01*
X127653998Y-85574986D01*
X127546884Y-85427553D01*
X127407246Y-85287915D01*
X127247505Y-85171858D01*
X127241119Y-85168604D01*
X127077593Y-85085282D01*
X127026800Y-85037310D01*
X127010005Y-84969489D01*
X127032542Y-84903354D01*
X127077593Y-84864317D01*
X127247501Y-84777744D01*
X127333915Y-84714961D01*
X127407246Y-84661684D01*
X127407248Y-84661681D01*
X127407252Y-84661679D01*
X127546879Y-84522052D01*
X127546881Y-84522048D01*
X127546884Y-84522046D01*
X127620872Y-84420208D01*
X127662944Y-84362301D01*
X127752591Y-84186361D01*
X127813610Y-83998563D01*
X127825738Y-83921991D01*
X127844500Y-83803536D01*
X127844500Y-83606063D01*
X127813610Y-83411036D01*
X127793270Y-83348437D01*
X127752591Y-83223239D01*
X127662944Y-83047299D01*
X127655486Y-83037034D01*
X127546884Y-82887553D01*
X127407246Y-82747915D01*
X127247505Y-82631858D01*
X127241119Y-82628604D01*
X127077593Y-82545282D01*
X127026800Y-82497310D01*
X127010005Y-82429489D01*
X127032542Y-82363354D01*
X127077593Y-82324317D01*
X127247501Y-82237744D01*
X127375832Y-82144507D01*
X127407246Y-82121684D01*
X127407248Y-82121681D01*
X127407252Y-82121679D01*
X127546879Y-81982052D01*
X127546881Y-81982048D01*
X127546884Y-81982046D01*
X127597779Y-81911992D01*
X127662944Y-81822301D01*
X127752591Y-81646361D01*
X127813610Y-81458563D01*
X127820901Y-81412532D01*
X127844500Y-81263536D01*
X127844500Y-81066063D01*
X127813610Y-80871036D01*
X127787794Y-80791582D01*
X127752591Y-80683239D01*
X127662944Y-80507299D01*
X127655486Y-80497034D01*
X127546884Y-80347553D01*
X127407246Y-80207915D01*
X127247504Y-80091858D01*
X127247503Y-80091857D01*
X127247501Y-80091856D01*
X127071561Y-80002209D01*
X127071558Y-80002208D01*
X126883763Y-79941189D01*
X126688736Y-79910300D01*
X126688731Y-79910300D01*
X126491269Y-79910300D01*
X126491264Y-79910300D01*
X126296236Y-79941189D01*
X126108441Y-80002208D01*
X125932495Y-80091858D01*
X125772753Y-80207915D01*
X125633115Y-80347553D01*
X125517058Y-80507295D01*
X125427408Y-80683241D01*
X125366389Y-80871036D01*
X125335500Y-81066063D01*
X125335500Y-81089570D01*
X125315815Y-81156609D01*
X125263011Y-81202364D01*
X125193853Y-81212308D01*
X125130297Y-81183283D01*
X125123819Y-81177251D01*
X122986819Y-79040251D01*
X122953334Y-78978928D01*
X122950500Y-78952570D01*
X122950500Y-68126079D01*
X122921659Y-67981092D01*
X122921658Y-67981091D01*
X122921658Y-67981087D01*
X122921656Y-67981082D01*
X122865086Y-67844508D01*
X122807559Y-67758412D01*
X122807559Y-67758411D01*
X122807557Y-67758410D01*
X122782952Y-67721584D01*
X122195081Y-67133713D01*
X121578421Y-66517052D01*
X121578414Y-66517046D01*
X121497417Y-66462926D01*
X121497318Y-66462861D01*
X121455495Y-66434916D01*
X121455494Y-66434915D01*
X121455492Y-66434914D01*
X121318917Y-66378343D01*
X121318907Y-66378340D01*
X121173920Y-66349500D01*
X121173918Y-66349500D01*
X114725418Y-66349500D01*
X114658379Y-66329815D01*
X114625100Y-66298385D01*
X114591971Y-66252787D01*
X114591967Y-66252782D01*
X114447217Y-66108032D01*
X114447212Y-66108028D01*
X114401615Y-66074900D01*
X114358949Y-66019571D01*
X114350500Y-65974582D01*
X114350500Y-65125416D01*
X114370185Y-65058377D01*
X114401613Y-65025099D01*
X114447219Y-64991966D01*
X114591966Y-64847219D01*
X114591968Y-64847215D01*
X114591971Y-64847213D01*
X114651101Y-64765826D01*
X114712287Y-64681610D01*
X114805220Y-64499219D01*
X114868477Y-64304534D01*
X114900500Y-64102352D01*
X114900500Y-63897648D01*
X114888286Y-63820535D01*
X114868477Y-63695465D01*
X114819546Y-63544873D01*
X114805220Y-63500781D01*
X114805218Y-63500778D01*
X114805218Y-63500776D01*
X114737334Y-63367548D01*
X114712287Y-63318390D01*
X114704556Y-63307749D01*
X114591971Y-63152786D01*
X114447213Y-63008028D01*
X114281613Y-62887715D01*
X114281612Y-62887714D01*
X114281610Y-62887713D01*
X114191077Y-62841584D01*
X114099223Y-62794781D01*
X113904534Y-62731522D01*
X113729995Y-62703878D01*
X113702352Y-62699500D01*
X113497648Y-62699500D01*
X113473329Y-62703351D01*
X113295465Y-62731522D01*
X113100776Y-62794781D01*
X112918386Y-62887715D01*
X112752786Y-63008028D01*
X112608028Y-63152786D01*
X112487715Y-63318386D01*
X112394781Y-63500776D01*
X112331522Y-63695465D01*
X112299500Y-63897648D01*
X112299500Y-64102351D01*
X112331522Y-64304534D01*
X112394781Y-64499223D01*
X112487715Y-64681613D01*
X112608028Y-64847213D01*
X112608034Y-64847219D01*
X112752781Y-64991966D01*
X112798384Y-65025098D01*
X112841050Y-65080425D01*
X112849500Y-65125416D01*
X112849500Y-65974582D01*
X112829815Y-66041621D01*
X112798385Y-66074900D01*
X112752787Y-66108028D01*
X112752782Y-66108032D01*
X112608028Y-66252786D01*
X112487715Y-66418386D01*
X112394781Y-66600776D01*
X112331522Y-66795465D01*
X112299500Y-66997648D01*
X112299500Y-67202351D01*
X112331522Y-67404534D01*
X112394781Y-67599223D01*
X112457128Y-67721584D01*
X112475891Y-67758409D01*
X112487715Y-67781613D01*
X112608028Y-67947213D01*
X112752786Y-68091971D01*
X112869572Y-68176819D01*
X112918390Y-68212287D01*
X113031862Y-68270104D01*
X113100776Y-68305218D01*
X113100778Y-68305218D01*
X113100781Y-68305220D01*
X113205137Y-68339127D01*
X113295465Y-68368477D01*
X113396557Y-68384488D01*
X113497648Y-68400500D01*
X113497649Y-68400500D01*
X113702351Y-68400500D01*
X113702352Y-68400500D01*
X113904534Y-68368477D01*
X114099219Y-68305220D01*
X114281610Y-68212287D01*
X114400266Y-68126079D01*
X114447213Y-68091971D01*
X114447215Y-68091968D01*
X114447219Y-68091966D01*
X114591966Y-67947219D01*
X114594650Y-67943524D01*
X114625100Y-67901615D01*
X114680429Y-67858949D01*
X114725418Y-67850500D01*
X120737770Y-67850500D01*
X120804809Y-67870185D01*
X120825451Y-67886819D01*
X121413181Y-68474549D01*
X121446666Y-68535872D01*
X121449500Y-68562230D01*
X121449500Y-79388718D01*
X121449500Y-79388720D01*
X121449499Y-79388720D01*
X121478340Y-79533707D01*
X121478343Y-79533717D01*
X121534914Y-79670292D01*
X121567812Y-79719527D01*
X121567813Y-79719530D01*
X121617046Y-79793214D01*
X121617052Y-79793221D01*
X125303731Y-83479898D01*
X125337216Y-83541221D01*
X125338523Y-83586976D01*
X125335500Y-83606063D01*
X125335500Y-83803536D01*
X125367152Y-84003375D01*
X125365551Y-84003628D01*
X125362422Y-84066323D01*
X125321764Y-84123145D01*
X125256840Y-84148965D01*
X125245334Y-84149500D01*
X118568827Y-84149500D01*
X118501788Y-84129815D01*
X118458343Y-84081795D01*
X118441232Y-84048212D01*
X118441230Y-84048209D01*
X118441229Y-84048207D01*
X118404460Y-83997600D01*
X118339414Y-83908072D01*
X118216928Y-83785586D01*
X118076788Y-83683768D01*
X117922445Y-83605127D01*
X117757701Y-83551598D01*
X117757699Y-83551597D01*
X117757698Y-83551597D01*
X117626271Y-83530781D01*
X117586611Y-83524500D01*
X117413389Y-83524500D01*
X117373728Y-83530781D01*
X117242302Y-83551597D01*
X117077552Y-83605128D01*
X116923211Y-83683768D01*
X116843256Y-83741859D01*
X116783072Y-83785586D01*
X116783070Y-83785588D01*
X116783069Y-83785588D01*
X116660588Y-83908069D01*
X116660581Y-83908078D01*
X116600317Y-83991023D01*
X116544987Y-84033689D01*
X116475374Y-84039667D01*
X116413579Y-84007061D01*
X116399683Y-83991023D01*
X116339418Y-83908078D01*
X116339414Y-83908072D01*
X116216928Y-83785586D01*
X116076788Y-83683768D01*
X115922445Y-83605127D01*
X115757701Y-83551598D01*
X115757699Y-83551597D01*
X115757698Y-83551597D01*
X115626271Y-83530781D01*
X115586611Y-83524500D01*
X115413389Y-83524500D01*
X115373728Y-83530781D01*
X115242302Y-83551597D01*
X115077552Y-83605128D01*
X114923211Y-83683768D01*
X114843256Y-83741859D01*
X114783072Y-83785586D01*
X114783070Y-83785588D01*
X114783069Y-83785588D01*
X114660588Y-83908069D01*
X114660581Y-83908078D01*
X114600317Y-83991023D01*
X114581227Y-84005743D01*
X114565107Y-84023669D01*
X114554059Y-84026693D01*
X114544987Y-84033689D01*
X114520966Y-84035751D01*
X114497717Y-84042116D01*
X114486787Y-84038686D01*
X114475374Y-84039667D01*
X114454051Y-84028416D01*
X114431051Y-84021200D01*
X114419724Y-84010303D01*
X114413579Y-84007061D01*
X114404808Y-83997600D01*
X114402124Y-83994385D01*
X114339414Y-83908072D01*
X114282879Y-83851537D01*
X114279308Y-83847259D01*
X114267514Y-83820122D01*
X114253334Y-83794154D01*
X114252382Y-83785308D01*
X114251458Y-83783180D01*
X114251877Y-83780603D01*
X114250500Y-83767796D01*
X114250500Y-82426079D01*
X114239800Y-82372290D01*
X114230869Y-82327391D01*
X114221659Y-82281088D01*
X114188518Y-82201080D01*
X114186768Y-82196855D01*
X114186766Y-82196849D01*
X114165085Y-82144507D01*
X114149836Y-82121684D01*
X114102895Y-82051432D01*
X114102894Y-82051429D01*
X114082956Y-82021589D01*
X114082950Y-82021582D01*
X113330497Y-81269129D01*
X113297012Y-81207806D01*
X113301996Y-81138114D01*
X113337647Y-81087157D01*
X113350000Y-81076606D01*
X113350000Y-80115686D01*
X113354394Y-80120080D01*
X113445606Y-80172741D01*
X113547339Y-80200000D01*
X113652661Y-80200000D01*
X113754394Y-80172741D01*
X113845606Y-80120080D01*
X113850000Y-80115686D01*
X113850000Y-81076606D01*
X113904421Y-81067988D01*
X114099031Y-81004754D01*
X114281349Y-80911859D01*
X114446894Y-80791582D01*
X114446895Y-80791582D01*
X114591582Y-80646895D01*
X114591582Y-80646894D01*
X114711859Y-80481349D01*
X114804755Y-80299029D01*
X114867990Y-80104413D01*
X114876609Y-80050000D01*
X113915686Y-80050000D01*
X113920080Y-80045606D01*
X113972741Y-79954394D01*
X114000000Y-79852661D01*
X114000000Y-79747339D01*
X113972741Y-79645606D01*
X113920080Y-79554394D01*
X113915686Y-79550000D01*
X114876609Y-79550000D01*
X114867990Y-79495586D01*
X114804755Y-79300970D01*
X114711859Y-79118650D01*
X114591582Y-78953105D01*
X114591582Y-78953104D01*
X114446895Y-78808417D01*
X114281349Y-78688140D01*
X114099029Y-78595244D01*
X113904413Y-78532009D01*
X113850000Y-78523390D01*
X113850000Y-79484314D01*
X113845606Y-79479920D01*
X113754394Y-79427259D01*
X113652661Y-79400000D01*
X113547339Y-79400000D01*
X113445606Y-79427259D01*
X113354394Y-79479920D01*
X113350000Y-79484314D01*
X113350000Y-78523390D01*
X113295586Y-78532009D01*
X113100970Y-78595244D01*
X112918650Y-78688140D01*
X112753105Y-78808417D01*
X112753104Y-78808417D01*
X112608417Y-78953104D01*
X112608417Y-78953105D01*
X112488140Y-79118650D01*
X112395244Y-79300970D01*
X112332009Y-79495586D01*
X112323391Y-79550000D01*
X113284314Y-79550000D01*
X113279920Y-79554394D01*
X113227259Y-79645606D01*
X113200000Y-79747339D01*
X113200000Y-79852661D01*
X113227259Y-79954394D01*
X113279920Y-80045606D01*
X113284314Y-80050000D01*
X112323390Y-80050000D01*
X112312839Y-80062353D01*
X112254332Y-80100545D01*
X112184464Y-80101043D01*
X112130869Y-80069501D01*
X109586819Y-77525451D01*
X109553334Y-77464128D01*
X109550500Y-77437770D01*
X109550500Y-61173713D01*
X125149500Y-61173713D01*
X125149500Y-61386286D01*
X125182753Y-61596239D01*
X125248444Y-61798414D01*
X125344951Y-61987820D01*
X125469890Y-62159786D01*
X125620213Y-62310109D01*
X125792179Y-62435048D01*
X125792181Y-62435049D01*
X125792184Y-62435051D01*
X125981588Y-62531557D01*
X126183757Y-62597246D01*
X126393713Y-62630500D01*
X126393714Y-62630500D01*
X126606286Y-62630500D01*
X126606287Y-62630500D01*
X126816243Y-62597246D01*
X127018412Y-62531557D01*
X127207816Y-62435051D01*
X127229789Y-62419086D01*
X127379786Y-62310109D01*
X127379788Y-62310106D01*
X127379792Y-62310104D01*
X127530104Y-62159792D01*
X127530106Y-62159788D01*
X127530109Y-62159786D01*
X127655048Y-61987820D01*
X127655047Y-61987820D01*
X127655051Y-61987816D01*
X127751557Y-61798412D01*
X127817246Y-61596243D01*
X127850500Y-61386287D01*
X127850500Y-61173713D01*
X145649500Y-61173713D01*
X145649500Y-61386286D01*
X145682753Y-61596239D01*
X145748444Y-61798414D01*
X145844951Y-61987820D01*
X145969890Y-62159786D01*
X146120213Y-62310109D01*
X146292179Y-62435048D01*
X146292181Y-62435049D01*
X146292184Y-62435051D01*
X146481588Y-62531557D01*
X146683757Y-62597246D01*
X146893713Y-62630500D01*
X146893714Y-62630500D01*
X147106286Y-62630500D01*
X147106287Y-62630500D01*
X147316243Y-62597246D01*
X147518412Y-62531557D01*
X147707816Y-62435051D01*
X147729789Y-62419086D01*
X147879786Y-62310109D01*
X147879788Y-62310106D01*
X147879792Y-62310104D01*
X148030104Y-62159792D01*
X148030106Y-62159788D01*
X148030109Y-62159786D01*
X148155048Y-61987820D01*
X148155047Y-61987820D01*
X148155051Y-61987816D01*
X148251557Y-61798412D01*
X148317246Y-61596243D01*
X148350500Y-61386287D01*
X148350500Y-61173713D01*
X148317246Y-60963757D01*
X148251557Y-60761588D01*
X148155051Y-60572184D01*
X148155049Y-60572181D01*
X148155048Y-60572179D01*
X148030109Y-60400213D01*
X147879786Y-60249890D01*
X147707820Y-60124951D01*
X147518414Y-60028444D01*
X147518413Y-60028443D01*
X147518412Y-60028443D01*
X147316243Y-59962754D01*
X147316241Y-59962753D01*
X147316240Y-59962753D01*
X147154957Y-59937208D01*
X147106287Y-59929500D01*
X146893713Y-59929500D01*
X146845042Y-59937208D01*
X146683760Y-59962753D01*
X146481585Y-60028444D01*
X146292179Y-60124951D01*
X146120213Y-60249890D01*
X145969890Y-60400213D01*
X145844951Y-60572179D01*
X145748444Y-60761585D01*
X145682753Y-60963760D01*
X145649500Y-61173713D01*
X127850500Y-61173713D01*
X127817246Y-60963757D01*
X127751557Y-60761588D01*
X127655051Y-60572184D01*
X127655049Y-60572181D01*
X127655048Y-60572179D01*
X127530109Y-60400213D01*
X127379786Y-60249890D01*
X127207820Y-60124951D01*
X127018414Y-60028444D01*
X127018413Y-60028443D01*
X127018412Y-60028443D01*
X126816243Y-59962754D01*
X126816241Y-59962753D01*
X126816240Y-59962753D01*
X126654957Y-59937208D01*
X126606287Y-59929500D01*
X126393713Y-59929500D01*
X126345042Y-59937208D01*
X126183760Y-59962753D01*
X125981585Y-60028444D01*
X125792179Y-60124951D01*
X125620213Y-60249890D01*
X125469890Y-60400213D01*
X125344951Y-60572179D01*
X125248444Y-60761585D01*
X125182753Y-60963760D01*
X125149500Y-61173713D01*
X109550500Y-61173713D01*
X109550500Y-51197648D01*
X112299500Y-51197648D01*
X112299500Y-51402351D01*
X112331522Y-51604534D01*
X112394781Y-51799223D01*
X112487715Y-51981613D01*
X112608028Y-52147213D01*
X112752786Y-52291971D01*
X112907749Y-52404556D01*
X112918390Y-52412287D01*
X113034607Y-52471503D01*
X113100776Y-52505218D01*
X113100778Y-52505218D01*
X113100781Y-52505220D01*
X113205137Y-52539127D01*
X113295465Y-52568477D01*
X113396557Y-52584488D01*
X113497648Y-52600500D01*
X113497649Y-52600500D01*
X113702351Y-52600500D01*
X113702352Y-52600500D01*
X113904534Y-52568477D01*
X114099219Y-52505220D01*
X114281610Y-52412287D01*
X114374590Y-52344732D01*
X114447213Y-52291971D01*
X114447215Y-52291968D01*
X114447219Y-52291966D01*
X114591966Y-52147219D01*
X114591968Y-52147215D01*
X114591971Y-52147213D01*
X114644732Y-52074590D01*
X114712287Y-51981610D01*
X114805220Y-51799219D01*
X114868477Y-51604534D01*
X114900500Y-51402352D01*
X114900500Y-51197648D01*
X114868477Y-50995466D01*
X114805220Y-50800781D01*
X114805218Y-50800778D01*
X114805218Y-50800776D01*
X114771503Y-50734607D01*
X114712287Y-50618390D01*
X114704556Y-50607749D01*
X114591971Y-50452786D01*
X114447217Y-50308032D01*
X114447212Y-50308028D01*
X114401615Y-50274900D01*
X114398274Y-50270568D01*
X114393297Y-50268295D01*
X114377166Y-50243195D01*
X114358949Y-50219571D01*
X114357695Y-50212897D01*
X114355523Y-50209517D01*
X114350500Y-50174582D01*
X114350500Y-50062229D01*
X114370185Y-49995190D01*
X114386819Y-49974548D01*
X115074548Y-49286819D01*
X115135871Y-49253334D01*
X115162229Y-49250500D01*
X136767796Y-49250500D01*
X136834835Y-49270185D01*
X136855477Y-49286819D01*
X136908072Y-49339414D01*
X136925257Y-49351899D01*
X136991023Y-49399683D01*
X137033689Y-49455013D01*
X137039667Y-49524626D01*
X137007061Y-49586421D01*
X136991023Y-49600317D01*
X136908078Y-49660581D01*
X136908069Y-49660588D01*
X136785588Y-49783069D01*
X136785588Y-49783070D01*
X136785586Y-49783072D01*
X136741859Y-49843256D01*
X136683768Y-49923211D01*
X136605128Y-50077552D01*
X136551597Y-50242302D01*
X136524500Y-50413389D01*
X136524500Y-50586611D01*
X136551598Y-50757701D01*
X136605127Y-50922445D01*
X136683768Y-51076788D01*
X136785586Y-51216928D01*
X136908072Y-51339414D01*
X136908078Y-51339418D01*
X136991023Y-51399683D01*
X137033689Y-51455013D01*
X137039667Y-51524626D01*
X137007061Y-51586421D01*
X136991023Y-51600317D01*
X136908078Y-51660581D01*
X136908069Y-51660588D01*
X136785588Y-51783069D01*
X136785588Y-51783070D01*
X136785586Y-51783072D01*
X136773852Y-51799223D01*
X136683768Y-51923211D01*
X136605128Y-52077552D01*
X136551597Y-52242302D01*
X136524675Y-52412284D01*
X136524500Y-52413389D01*
X136524500Y-52586611D01*
X136551598Y-52757701D01*
X136605127Y-52922445D01*
X136683768Y-53076788D01*
X136785586Y-53216928D01*
X136908072Y-53339414D01*
X137048212Y-53441232D01*
X137202555Y-53519873D01*
X137367299Y-53573402D01*
X137538389Y-53600500D01*
X137538390Y-53600500D01*
X138261610Y-53600500D01*
X138261611Y-53600500D01*
X138432701Y-53573402D01*
X138597445Y-53519873D01*
X138751788Y-53441232D01*
X138891928Y-53339414D01*
X139014414Y-53216928D01*
X139116232Y-53076788D01*
X139194873Y-52922445D01*
X139248402Y-52757701D01*
X139275500Y-52586611D01*
X139275500Y-52413389D01*
X139248402Y-52242299D01*
X139194873Y-52077555D01*
X139116232Y-51923212D01*
X139014414Y-51783072D01*
X138891928Y-51660586D01*
X138808975Y-51600317D01*
X138766311Y-51544988D01*
X138760332Y-51475374D01*
X138792938Y-51413579D01*
X138808976Y-51399682D01*
X138891928Y-51339414D01*
X139014414Y-51216928D01*
X139116232Y-51076788D01*
X139194873Y-50922445D01*
X139248402Y-50757701D01*
X139275500Y-50586611D01*
X139275500Y-50413389D01*
X139248402Y-50242299D01*
X139194873Y-50077555D01*
X139116232Y-49923212D01*
X139014414Y-49783072D01*
X138891928Y-49660586D01*
X138808975Y-49600317D01*
X138766311Y-49544988D01*
X138760332Y-49475374D01*
X138792938Y-49413579D01*
X138808976Y-49399682D01*
X138891928Y-49339414D01*
X139014414Y-49216928D01*
X139116232Y-49076788D01*
X139194873Y-48922445D01*
X139248402Y-48757701D01*
X139275500Y-48586611D01*
X139275500Y-48413389D01*
X139248402Y-48242299D01*
X139194873Y-48077555D01*
X139116232Y-47923212D01*
X139014414Y-47783072D01*
X138906507Y-47675165D01*
X138873023Y-47613843D01*
X138878007Y-47544151D01*
X138919879Y-47488218D01*
X138929094Y-47481945D01*
X138993345Y-47442315D01*
X139117315Y-47318345D01*
X139209356Y-47169124D01*
X139209358Y-47169119D01*
X139264505Y-47002697D01*
X139264506Y-47002690D01*
X139274999Y-46899986D01*
X139275000Y-46899973D01*
X139275000Y-46750000D01*
X138180330Y-46750000D01*
X138200075Y-46730255D01*
X138249444Y-46644745D01*
X138275000Y-46549370D01*
X138275000Y-46450630D01*
X138249444Y-46355255D01*
X138200075Y-46269745D01*
X138180330Y-46250000D01*
X139274999Y-46250000D01*
X139274999Y-46100028D01*
X139274998Y-46100013D01*
X139264505Y-45997302D01*
X139209358Y-45830880D01*
X139209356Y-45830875D01*
X139117315Y-45681654D01*
X138993345Y-45557684D01*
X138844124Y-45465643D01*
X138844119Y-45465641D01*
X138677697Y-45410494D01*
X138677690Y-45410493D01*
X138574986Y-45400000D01*
X138150000Y-45400000D01*
X138150000Y-46219670D01*
X138130255Y-46199925D01*
X138044745Y-46150556D01*
X137949370Y-46125000D01*
X137850630Y-46125000D01*
X137755255Y-46150556D01*
X137669745Y-46199925D01*
X137650000Y-46219670D01*
X137650000Y-45400000D01*
X137225028Y-45400000D01*
X137225012Y-45400001D01*
X137122302Y-45410494D01*
X136955880Y-45465641D01*
X136955875Y-45465643D01*
X136806654Y-45557684D01*
X136682684Y-45681654D01*
X136590643Y-45830875D01*
X136590641Y-45830880D01*
X136535494Y-45997302D01*
X136535493Y-45997309D01*
X136525000Y-46100013D01*
X136525000Y-46250000D01*
X137619670Y-46250000D01*
X137599925Y-46269745D01*
X137550556Y-46355255D01*
X137525000Y-46450630D01*
X137525000Y-46549370D01*
X137550556Y-46644745D01*
X137599925Y-46730255D01*
X137619670Y-46750000D01*
X136525001Y-46750000D01*
X136525001Y-46899986D01*
X136535494Y-47002697D01*
X136590641Y-47169119D01*
X136590643Y-47169124D01*
X136682684Y-47318345D01*
X136806656Y-47442317D01*
X136870906Y-47481946D01*
X136886458Y-47499236D01*
X136905076Y-47513173D01*
X136909385Y-47524725D01*
X136917631Y-47533893D01*
X136921366Y-47556847D01*
X136929494Y-47578637D01*
X136926873Y-47590684D01*
X136928854Y-47602856D01*
X136919585Y-47624187D01*
X136914643Y-47646910D01*
X136902893Y-47662606D01*
X136901011Y-47666938D01*
X136893492Y-47675165D01*
X136855478Y-47713180D01*
X136794156Y-47746666D01*
X136767796Y-47749500D01*
X114726080Y-47749500D01*
X114581092Y-47778340D01*
X114581082Y-47778343D01*
X114444511Y-47834912D01*
X114444498Y-47834919D01*
X114321584Y-47917048D01*
X114321580Y-47917051D01*
X113017052Y-49221578D01*
X113017049Y-49221581D01*
X112980783Y-49275857D01*
X112980784Y-49275858D01*
X112934914Y-49344508D01*
X112878343Y-49481082D01*
X112878340Y-49481092D01*
X112849500Y-49626079D01*
X112849500Y-50174582D01*
X112829815Y-50241621D01*
X112798385Y-50274900D01*
X112752787Y-50308028D01*
X112752782Y-50308032D01*
X112608028Y-50452786D01*
X112487715Y-50618386D01*
X112394781Y-50800776D01*
X112331522Y-50995465D01*
X112299500Y-51197648D01*
X109550500Y-51197648D01*
X109550500Y-47162229D01*
X109570185Y-47095190D01*
X109586819Y-47074548D01*
X114474548Y-42186819D01*
X114535871Y-42153334D01*
X114562229Y-42150500D01*
X158637770Y-42150500D01*
X158704809Y-42170185D01*
X158725451Y-42186819D01*
X165013181Y-48474548D01*
X165046666Y-48535871D01*
X165049500Y-48562229D01*
X165049500Y-60685500D01*
X165029815Y-60752539D01*
X164977011Y-60798294D01*
X164925505Y-60809500D01*
X164902132Y-60809500D01*
X164902123Y-60809501D01*
X164842516Y-60815908D01*
X164707671Y-60866202D01*
X164707664Y-60866206D01*
X164592455Y-60952452D01*
X164592452Y-60952455D01*
X164506206Y-61067664D01*
X164506202Y-61067671D01*
X164455908Y-61202517D01*
X164449501Y-61262116D01*
X164449501Y-61262123D01*
X164449500Y-61262135D01*
X164449500Y-63057870D01*
X164449501Y-63057876D01*
X164455908Y-63117483D01*
X164506202Y-63252328D01*
X164506206Y-63252335D01*
X164592452Y-63367544D01*
X164592455Y-63367547D01*
X164707664Y-63453793D01*
X164707671Y-63453797D01*
X164707674Y-63453798D01*
X164839598Y-63503002D01*
X164895531Y-63544873D01*
X164919949Y-63610337D01*
X164905098Y-63678610D01*
X164883947Y-63706865D01*
X164770271Y-63820541D01*
X164645379Y-63992442D01*
X164548904Y-64181782D01*
X164483242Y-64383870D01*
X164483242Y-64383873D01*
X164472769Y-64450000D01*
X165366988Y-64450000D01*
X165334075Y-64507007D01*
X165300000Y-64634174D01*
X165300000Y-64765826D01*
X165334075Y-64892993D01*
X165366988Y-64950000D01*
X164472769Y-64950000D01*
X164483242Y-65016126D01*
X164483242Y-65016129D01*
X164548904Y-65218217D01*
X164645379Y-65407557D01*
X164770272Y-65579459D01*
X164770276Y-65579464D01*
X164920535Y-65729723D01*
X164920540Y-65729727D01*
X165092444Y-65854622D01*
X165101495Y-65859234D01*
X165152292Y-65907208D01*
X165169087Y-65975029D01*
X165146550Y-66041164D01*
X165101499Y-66080202D01*
X165092182Y-66084949D01*
X164920213Y-66209890D01*
X164920209Y-66209894D01*
X164826923Y-66303181D01*
X164765600Y-66336666D01*
X164739242Y-66339500D01*
X155264362Y-66339500D01*
X155197323Y-66319815D01*
X155176681Y-66303181D01*
X154974041Y-66100540D01*
X154974037Y-66100537D01*
X154974036Y-66100536D01*
X154950708Y-66084949D01*
X154950706Y-66084947D01*
X154826553Y-66001990D01*
X154826544Y-66001985D01*
X154662666Y-65934105D01*
X154662658Y-65934103D01*
X154488696Y-65899500D01*
X154488692Y-65899500D01*
X154311308Y-65899500D01*
X154311303Y-65899500D01*
X154137341Y-65934103D01*
X154137333Y-65934105D01*
X153973452Y-66001987D01*
X153864331Y-66074900D01*
X153825964Y-66100536D01*
X153700536Y-66225964D01*
X153700534Y-66225966D01*
X140900538Y-79025960D01*
X140900537Y-79025961D01*
X140863889Y-79080809D01*
X140863883Y-79080818D01*
X140861063Y-79085040D01*
X140801987Y-79173453D01*
X140774057Y-79240883D01*
X140771344Y-79247431D01*
X140771342Y-79247436D01*
X140734105Y-79337333D01*
X140734103Y-79337341D01*
X140712787Y-79444503D01*
X140712788Y-79444504D01*
X140712788Y-79444505D01*
X140702628Y-79495586D01*
X140699500Y-79511310D01*
X140699500Y-84288696D01*
X140734103Y-84462658D01*
X140734105Y-84462666D01*
X140758704Y-84522053D01*
X140801985Y-84626544D01*
X140861063Y-84714960D01*
X140861064Y-84714961D01*
X140900534Y-84774034D01*
X140900535Y-84774035D01*
X143070760Y-86944261D01*
X143070764Y-86944264D01*
X143218246Y-87042809D01*
X143218252Y-87042812D01*
X143218253Y-87042813D01*
X143382134Y-87110695D01*
X143556103Y-87145299D01*
X143556107Y-87145300D01*
X143556108Y-87145300D01*
X143556109Y-87145300D01*
X145985007Y-87145300D01*
X146052046Y-87164985D01*
X146072688Y-87181619D01*
X146092753Y-87201684D01*
X146252494Y-87317741D01*
X146252496Y-87317742D01*
X146252499Y-87317744D01*
X146422956Y-87404597D01*
X146473749Y-87452568D01*
X146490544Y-87520389D01*
X146468007Y-87586524D01*
X146422954Y-87625563D01*
X146252767Y-87712279D01*
X146252760Y-87712283D01*
X146217010Y-87738256D01*
X146217010Y-87738257D01*
X146780591Y-88301837D01*
X146717007Y-88318875D01*
X146602993Y-88384701D01*
X146509901Y-88477793D01*
X146444075Y-88591807D01*
X146427037Y-88655390D01*
X145863457Y-88091810D01*
X145863456Y-88091810D01*
X145837483Y-88127560D01*
X145837482Y-88127562D01*
X145747873Y-88303426D01*
X145686876Y-88491153D01*
X145656000Y-88686102D01*
X145656000Y-88883497D01*
X145686876Y-89078446D01*
X145747873Y-89266173D01*
X145837483Y-89442039D01*
X145863457Y-89477788D01*
X145863457Y-89477789D01*
X146427037Y-88914209D01*
X146444075Y-88977793D01*
X146509901Y-89091807D01*
X146602993Y-89184899D01*
X146717007Y-89250725D01*
X146780590Y-89267762D01*
X146217009Y-89831341D01*
X146217010Y-89831342D01*
X146252755Y-89857312D01*
X146252768Y-89857320D01*
X146422953Y-89944035D01*
X146473749Y-89992010D01*
X146490544Y-90059831D01*
X146468006Y-90125966D01*
X146422954Y-90165003D01*
X146261189Y-90247427D01*
X146252495Y-90251858D01*
X146092753Y-90367915D01*
X145953115Y-90507553D01*
X145837058Y-90667295D01*
X145747408Y-90843241D01*
X145686389Y-91031036D01*
X145655500Y-91226063D01*
X145655500Y-91423536D01*
X145686389Y-91618563D01*
X145742425Y-91791023D01*
X145747409Y-91806361D01*
X145837056Y-91982301D01*
X145837058Y-91982304D01*
X145953115Y-92142046D01*
X146092753Y-92281684D01*
X146242234Y-92390286D01*
X146252499Y-92397744D01*
X146422404Y-92484316D01*
X146473199Y-92532290D01*
X146489994Y-92600111D01*
X146467456Y-92666246D01*
X146422404Y-92705283D01*
X146265321Y-92785322D01*
X146252495Y-92791858D01*
X146092753Y-92907915D01*
X145953115Y-93047553D01*
X145837058Y-93207295D01*
X145747408Y-93383241D01*
X145686389Y-93571036D01*
X145655500Y-93766063D01*
X145655500Y-93963536D01*
X145686389Y-94158563D01*
X145747408Y-94346358D01*
X145747409Y-94346361D01*
X145824158Y-94496987D01*
X145837058Y-94522304D01*
X145953115Y-94682046D01*
X146092753Y-94821684D01*
X146242234Y-94930286D01*
X146252499Y-94937744D01*
X146422404Y-95024316D01*
X146473199Y-95072290D01*
X146489994Y-95140111D01*
X146467456Y-95206246D01*
X146422404Y-95245283D01*
X146265321Y-95325322D01*
X146252495Y-95331858D01*
X146092753Y-95447915D01*
X145953115Y-95587553D01*
X145837058Y-95747295D01*
X145747408Y-95923241D01*
X145686389Y-96111036D01*
X145655500Y-96306063D01*
X145655500Y-96503536D01*
X145686389Y-96698563D01*
X145747408Y-96886358D01*
X145747409Y-96886361D01*
X145837056Y-97062301D01*
X145837058Y-97062304D01*
X145953115Y-97222046D01*
X146092753Y-97361684D01*
X146242234Y-97470286D01*
X146252499Y-97477744D01*
X146422404Y-97564316D01*
X146473199Y-97612290D01*
X146489994Y-97680111D01*
X146467456Y-97746246D01*
X146422404Y-97785283D01*
X146265321Y-97865322D01*
X146252495Y-97871858D01*
X146092753Y-97987915D01*
X145953115Y-98127553D01*
X145837058Y-98287295D01*
X145747408Y-98463241D01*
X145686389Y-98651036D01*
X145655500Y-98846063D01*
X145655500Y-99043536D01*
X145686389Y-99238563D01*
X145720036Y-99342116D01*
X145747409Y-99426361D01*
X145824158Y-99576987D01*
X145837058Y-99602304D01*
X145953115Y-99762046D01*
X146092753Y-99901684D01*
X146242234Y-100010286D01*
X146252499Y-100017744D01*
X146422404Y-100104316D01*
X146473199Y-100152290D01*
X146489994Y-100220111D01*
X146467456Y-100286246D01*
X146422404Y-100325283D01*
X146265321Y-100405322D01*
X146252495Y-100411858D01*
X146092753Y-100527915D01*
X145953115Y-100667553D01*
X145837058Y-100827295D01*
X145747408Y-101003241D01*
X145686389Y-101191036D01*
X145655500Y-101386063D01*
X145655500Y-101583536D01*
X145686389Y-101778563D01*
X145747408Y-101966358D01*
X145747409Y-101966361D01*
X145837056Y-102142301D01*
X145837058Y-102142304D01*
X145953115Y-102302046D01*
X146092753Y-102441684D01*
X146242234Y-102550286D01*
X146252499Y-102557744D01*
X146422404Y-102644316D01*
X146473199Y-102692290D01*
X146489994Y-102760111D01*
X146467456Y-102826246D01*
X146422404Y-102865283D01*
X146265321Y-102945322D01*
X146252495Y-102951858D01*
X146092753Y-103067915D01*
X145953115Y-103207553D01*
X145837058Y-103367295D01*
X145747408Y-103543241D01*
X145686389Y-103731036D01*
X145655500Y-103926063D01*
X145655500Y-104123536D01*
X145686389Y-104318563D01*
X145745310Y-104499901D01*
X145747409Y-104506361D01*
X145791551Y-104592993D01*
X145837058Y-104682304D01*
X145953115Y-104842046D01*
X146092753Y-104981684D01*
X146242234Y-105090286D01*
X146252499Y-105097744D01*
X146422404Y-105184316D01*
X146473199Y-105232290D01*
X146489994Y-105300111D01*
X146467456Y-105366246D01*
X146422404Y-105405283D01*
X146265321Y-105485322D01*
X146252495Y-105491858D01*
X146092753Y-105607915D01*
X145953115Y-105747553D01*
X145837058Y-105907295D01*
X145747408Y-106083241D01*
X145686389Y-106271036D01*
X145655500Y-106466063D01*
X145655500Y-106663536D01*
X145686389Y-106858563D01*
X145736628Y-107013181D01*
X145747409Y-107046361D01*
X145756168Y-107063551D01*
X145837058Y-107222304D01*
X145953115Y-107382046D01*
X146092753Y-107521684D01*
X146242234Y-107630286D01*
X146252499Y-107637744D01*
X146422404Y-107724316D01*
X146473199Y-107772290D01*
X146489994Y-107840111D01*
X146467456Y-107906246D01*
X146422404Y-107945283D01*
X146265321Y-108025322D01*
X146252495Y-108031858D01*
X146092753Y-108147915D01*
X145953115Y-108287553D01*
X145837058Y-108447295D01*
X145747408Y-108623241D01*
X145686389Y-108811036D01*
X145655500Y-109006063D01*
X145655500Y-109203536D01*
X145686389Y-109398563D01*
X145747408Y-109586358D01*
X145747409Y-109586361D01*
X145837056Y-109762301D01*
X145837058Y-109762304D01*
X145953115Y-109922046D01*
X146092753Y-110061684D01*
X146242234Y-110170286D01*
X146252499Y-110177744D01*
X146422404Y-110264316D01*
X146473199Y-110312290D01*
X146489994Y-110380111D01*
X146467456Y-110446246D01*
X146422404Y-110485283D01*
X146265321Y-110565322D01*
X146252495Y-110571858D01*
X146092753Y-110687915D01*
X145953115Y-110827553D01*
X145837058Y-110987295D01*
X145747408Y-111163241D01*
X145686389Y-111351036D01*
X145655500Y-111546063D01*
X145655500Y-111743536D01*
X145686389Y-111938563D01*
X145747408Y-112126358D01*
X145747409Y-112126361D01*
X145837056Y-112302301D01*
X145837058Y-112302304D01*
X145953115Y-112462046D01*
X146092753Y-112601684D01*
X146242234Y-112710286D01*
X146252499Y-112717744D01*
X146422404Y-112804316D01*
X146473199Y-112852290D01*
X146489994Y-112920111D01*
X146467456Y-112986246D01*
X146422404Y-113025283D01*
X146265321Y-113105322D01*
X146252495Y-113111858D01*
X146092753Y-113227915D01*
X145953115Y-113367553D01*
X145837058Y-113527295D01*
X145747408Y-113703241D01*
X145686389Y-113891036D01*
X145655500Y-114086063D01*
X145655500Y-114283536D01*
X145686389Y-114478563D01*
X145720573Y-114583768D01*
X145747409Y-114666361D01*
X145827390Y-114823330D01*
X145837058Y-114842304D01*
X145953115Y-115002046D01*
X146092753Y-115141684D01*
X146242234Y-115250286D01*
X146252499Y-115257744D01*
X146428439Y-115347391D01*
X146553637Y-115388070D01*
X146616236Y-115408410D01*
X146811264Y-115439300D01*
X146811269Y-115439300D01*
X147008736Y-115439300D01*
X147203763Y-115408410D01*
X147391561Y-115347391D01*
X147567501Y-115257744D01*
X147657192Y-115192579D01*
X147727246Y-115141684D01*
X147727248Y-115141681D01*
X147727252Y-115141679D01*
X147866879Y-115002052D01*
X147866881Y-115002048D01*
X147866884Y-115002046D01*
X147935893Y-114907061D01*
X147982944Y-114842301D01*
X148072591Y-114666361D01*
X148133610Y-114478563D01*
X148137881Y-114451597D01*
X148164500Y-114283536D01*
X148164500Y-114086063D01*
X148133610Y-113891036D01*
X148113270Y-113828437D01*
X148072591Y-113703239D01*
X147982944Y-113527299D01*
X147975486Y-113517034D01*
X147866884Y-113367553D01*
X147727246Y-113227915D01*
X147567505Y-113111858D01*
X147561119Y-113108604D01*
X147397593Y-113025282D01*
X147346800Y-112977310D01*
X147330005Y-112909489D01*
X147352542Y-112843354D01*
X147397593Y-112804317D01*
X147567501Y-112717744D01*
X147587912Y-112702914D01*
X147727246Y-112601684D01*
X147727248Y-112601681D01*
X147727252Y-112601679D01*
X147866879Y-112462052D01*
X147866881Y-112462048D01*
X147866884Y-112462046D01*
X147917779Y-112391992D01*
X147982944Y-112302301D01*
X148072591Y-112126361D01*
X148133610Y-111938563D01*
X148164500Y-111743536D01*
X148164500Y-111546063D01*
X148133610Y-111351036D01*
X148113270Y-111288437D01*
X148072591Y-111163239D01*
X147982944Y-110987299D01*
X147975486Y-110977034D01*
X147866884Y-110827553D01*
X147727246Y-110687915D01*
X147567505Y-110571858D01*
X147561119Y-110568604D01*
X147397593Y-110485282D01*
X147346800Y-110437310D01*
X147330005Y-110369489D01*
X147352542Y-110303354D01*
X147397593Y-110264317D01*
X147567501Y-110177744D01*
X147587912Y-110162914D01*
X147727246Y-110061684D01*
X147727248Y-110061681D01*
X147727252Y-110061679D01*
X147866879Y-109922052D01*
X147866881Y-109922048D01*
X147866884Y-109922046D01*
X147917779Y-109851992D01*
X147982944Y-109762301D01*
X148072591Y-109586361D01*
X148133610Y-109398563D01*
X148164500Y-109203536D01*
X148164500Y-109006063D01*
X148133610Y-108811036D01*
X148101697Y-108712818D01*
X148072591Y-108623239D01*
X147982944Y-108447299D01*
X147975486Y-108437034D01*
X147866884Y-108287553D01*
X147727246Y-108147915D01*
X147567505Y-108031858D01*
X147561119Y-108028604D01*
X147397593Y-107945282D01*
X147346800Y-107897310D01*
X147330005Y-107829489D01*
X147352542Y-107763354D01*
X147397593Y-107724317D01*
X147567501Y-107637744D01*
X147587912Y-107622914D01*
X147727246Y-107521684D01*
X147727248Y-107521681D01*
X147727252Y-107521679D01*
X147866879Y-107382052D01*
X147866881Y-107382048D01*
X147866884Y-107382046D01*
X147950251Y-107267299D01*
X147982944Y-107222301D01*
X148072591Y-107046361D01*
X148133610Y-106858563D01*
X148141607Y-106808072D01*
X148164500Y-106663536D01*
X148164500Y-106466063D01*
X148133610Y-106271036D01*
X148108512Y-106193793D01*
X148072591Y-106083239D01*
X147982944Y-105907299D01*
X147946750Y-105857482D01*
X147866884Y-105747553D01*
X147727246Y-105607915D01*
X147567505Y-105491858D01*
X147561119Y-105488604D01*
X147397593Y-105405282D01*
X147346800Y-105357310D01*
X147330005Y-105289489D01*
X147352542Y-105223354D01*
X147397593Y-105184317D01*
X147567501Y-105097744D01*
X147693382Y-105006287D01*
X147727246Y-104981684D01*
X147727248Y-104981681D01*
X147727252Y-104981679D01*
X147866879Y-104842052D01*
X147866881Y-104842048D01*
X147866884Y-104842046D01*
X147964994Y-104707007D01*
X147982944Y-104682301D01*
X148072591Y-104506361D01*
X148133610Y-104318563D01*
X148141446Y-104269087D01*
X148164500Y-104123536D01*
X148164500Y-103926063D01*
X148133610Y-103731036D01*
X148106923Y-103648903D01*
X148072591Y-103543239D01*
X147982944Y-103367299D01*
X147975486Y-103357034D01*
X147866884Y-103207553D01*
X147727246Y-103067915D01*
X147567505Y-102951858D01*
X147561119Y-102948604D01*
X147397593Y-102865282D01*
X147346800Y-102817310D01*
X147330005Y-102749489D01*
X147352542Y-102683354D01*
X147397593Y-102644317D01*
X147567501Y-102557744D01*
X147587912Y-102542914D01*
X147727246Y-102441684D01*
X147727248Y-102441681D01*
X147727252Y-102441679D01*
X147866879Y-102302052D01*
X147866881Y-102302048D01*
X147866884Y-102302046D01*
X147917779Y-102231992D01*
X147982944Y-102142301D01*
X148072591Y-101966361D01*
X148114889Y-101836180D01*
X148154325Y-101778507D01*
X148218684Y-101751308D01*
X148232819Y-101750500D01*
X159605500Y-101750500D01*
X159672539Y-101770185D01*
X159718294Y-101822989D01*
X159729500Y-101874500D01*
X159729500Y-103712779D01*
X159709815Y-103779818D01*
X159678385Y-103813097D01*
X159600211Y-103869893D01*
X159600205Y-103869898D01*
X159449890Y-104020213D01*
X159324951Y-104192179D01*
X159228444Y-104381585D01*
X159162753Y-104583760D01*
X159143233Y-104707007D01*
X159129500Y-104793713D01*
X159129500Y-105006287D01*
X159162754Y-105216243D01*
X159223178Y-105402209D01*
X159228444Y-105418414D01*
X159324951Y-105607820D01*
X159449890Y-105779786D01*
X159449896Y-105779792D01*
X159600208Y-105930104D01*
X159678384Y-105986902D01*
X159721051Y-106042231D01*
X159729500Y-106087220D01*
X159729500Y-121189242D01*
X159709815Y-121256281D01*
X159693181Y-121276923D01*
X159649894Y-121320209D01*
X159649890Y-121320213D01*
X159524949Y-121492182D01*
X159520484Y-121500946D01*
X159472509Y-121551742D01*
X159404688Y-121568536D01*
X159338553Y-121545998D01*
X159299516Y-121500946D01*
X159295050Y-121492182D01*
X159170109Y-121320213D01*
X159019786Y-121169890D01*
X158847820Y-121044951D01*
X158658414Y-120948444D01*
X158658413Y-120948443D01*
X158658412Y-120948443D01*
X158456243Y-120882754D01*
X158456241Y-120882753D01*
X158456240Y-120882753D01*
X158294957Y-120857208D01*
X158246287Y-120849500D01*
X158033713Y-120849500D01*
X157985042Y-120857208D01*
X157823760Y-120882753D01*
X157621585Y-120948444D01*
X157432179Y-121044951D01*
X157260213Y-121169890D01*
X157109890Y-121320213D01*
X156984949Y-121492182D01*
X156980484Y-121500946D01*
X156932509Y-121551742D01*
X156864688Y-121568536D01*
X156798553Y-121545998D01*
X156759516Y-121500946D01*
X156755050Y-121492182D01*
X156630109Y-121320213D01*
X156479786Y-121169890D01*
X156307820Y-121044951D01*
X156118414Y-120948444D01*
X156118413Y-120948443D01*
X156118412Y-120948443D01*
X155916243Y-120882754D01*
X155916241Y-120882753D01*
X155916240Y-120882753D01*
X155754957Y-120857208D01*
X155706287Y-120849500D01*
X155493713Y-120849500D01*
X155445042Y-120857208D01*
X155283760Y-120882753D01*
X155081585Y-120948444D01*
X154892179Y-121044951D01*
X154720213Y-121169890D01*
X154569890Y-121320213D01*
X154444951Y-121492179D01*
X154348444Y-121681585D01*
X154282753Y-121883760D01*
X154249500Y-122093713D01*
X154249500Y-122306286D01*
X154282753Y-122516239D01*
X154348444Y-122718414D01*
X154444951Y-122907820D01*
X154569890Y-123079786D01*
X154720213Y-123230109D01*
X154892179Y-123355048D01*
X154892181Y-123355049D01*
X154892184Y-123355051D01*
X155081588Y-123451557D01*
X155283757Y-123517246D01*
X155493713Y-123550500D01*
X155493714Y-123550500D01*
X155706286Y-123550500D01*
X155706287Y-123550500D01*
X155916243Y-123517246D01*
X156118412Y-123451557D01*
X156307816Y-123355051D01*
X156394138Y-123292335D01*
X156479786Y-123230109D01*
X156479788Y-123230106D01*
X156479792Y-123230104D01*
X156630104Y-123079792D01*
X156630106Y-123079788D01*
X156630109Y-123079786D01*
X156755048Y-122907820D01*
X156755047Y-122907820D01*
X156755051Y-122907816D01*
X156759514Y-122899054D01*
X156807488Y-122848259D01*
X156875308Y-122831463D01*
X156941444Y-122853999D01*
X156980486Y-122899056D01*
X156984951Y-122907820D01*
X157109890Y-123079786D01*
X157260213Y-123230109D01*
X157432179Y-123355048D01*
X157432181Y-123355049D01*
X157432184Y-123355051D01*
X157621588Y-123451557D01*
X157823757Y-123517246D01*
X158033713Y-123550500D01*
X158033714Y-123550500D01*
X158246286Y-123550500D01*
X158246287Y-123550500D01*
X158456243Y-123517246D01*
X158658412Y-123451557D01*
X158847816Y-123355051D01*
X158934138Y-123292335D01*
X159019786Y-123230109D01*
X159019788Y-123230106D01*
X159019792Y-123230104D01*
X159170104Y-123079792D01*
X159170106Y-123079788D01*
X159170109Y-123079786D01*
X159295048Y-122907820D01*
X159295047Y-122907820D01*
X159295051Y-122907816D01*
X159299514Y-122899054D01*
X159347488Y-122848259D01*
X159415308Y-122831463D01*
X159481444Y-122853999D01*
X159520486Y-122899056D01*
X159524951Y-122907820D01*
X159649890Y-123079786D01*
X159800213Y-123230109D01*
X159972179Y-123355048D01*
X159972181Y-123355049D01*
X159972184Y-123355051D01*
X160161588Y-123451557D01*
X160363757Y-123517246D01*
X160573713Y-123550500D01*
X160573714Y-123550500D01*
X160786286Y-123550500D01*
X160786287Y-123550500D01*
X160996243Y-123517246D01*
X161198412Y-123451557D01*
X161387816Y-123355051D01*
X161474138Y-123292335D01*
X161559786Y-123230109D01*
X161559788Y-123230106D01*
X161559792Y-123230104D01*
X161710104Y-123079792D01*
X161710106Y-123079788D01*
X161710109Y-123079786D01*
X161835048Y-122907820D01*
X161835047Y-122907820D01*
X161835051Y-122907816D01*
X161839514Y-122899054D01*
X161887488Y-122848259D01*
X161955308Y-122831463D01*
X162021444Y-122853999D01*
X162060486Y-122899056D01*
X162064951Y-122907820D01*
X162189890Y-123079786D01*
X162340213Y-123230109D01*
X162512179Y-123355048D01*
X162512181Y-123355049D01*
X162512184Y-123355051D01*
X162701588Y-123451557D01*
X162903757Y-123517246D01*
X163113713Y-123550500D01*
X163113714Y-123550500D01*
X163326286Y-123550500D01*
X163326287Y-123550500D01*
X163536243Y-123517246D01*
X163738412Y-123451557D01*
X163927816Y-123355051D01*
X164014138Y-123292335D01*
X164099786Y-123230109D01*
X164099788Y-123230106D01*
X164099792Y-123230104D01*
X164250104Y-123079792D01*
X164250106Y-123079788D01*
X164250109Y-123079786D01*
X164375048Y-122907820D01*
X164375051Y-122907816D01*
X164379793Y-122898508D01*
X164427763Y-122847711D01*
X164495583Y-122830911D01*
X164561719Y-122853445D01*
X164600763Y-122898500D01*
X164605377Y-122907555D01*
X164730272Y-123079459D01*
X164730276Y-123079464D01*
X164880535Y-123229723D01*
X164880540Y-123229727D01*
X165052442Y-123354620D01*
X165241782Y-123451095D01*
X165443871Y-123516757D01*
X165510000Y-123527231D01*
X165510000Y-122633012D01*
X165567007Y-122665925D01*
X165694174Y-122700000D01*
X165825826Y-122700000D01*
X165952993Y-122665925D01*
X166010000Y-122633012D01*
X166010000Y-123527230D01*
X166076126Y-123516757D01*
X166076129Y-123516757D01*
X166278217Y-123451095D01*
X166467557Y-123354620D01*
X166639458Y-123229728D01*
X166753133Y-123116053D01*
X166814456Y-123082568D01*
X166884148Y-123087552D01*
X166940082Y-123129423D01*
X166956997Y-123160401D01*
X167006202Y-123292328D01*
X167006206Y-123292335D01*
X167092452Y-123407544D01*
X167092455Y-123407547D01*
X167207664Y-123493793D01*
X167207671Y-123493797D01*
X167342517Y-123544091D01*
X167342516Y-123544091D01*
X167349444Y-123544835D01*
X167402127Y-123550500D01*
X169197872Y-123550499D01*
X169257483Y-123544091D01*
X169392331Y-123493796D01*
X169507546Y-123407546D01*
X169593796Y-123292331D01*
X169644091Y-123157483D01*
X169650500Y-123097873D01*
X169650499Y-121302128D01*
X169644091Y-121242517D01*
X169643377Y-121240604D01*
X169593797Y-121107671D01*
X169593793Y-121107664D01*
X169507547Y-120992455D01*
X169507544Y-120992452D01*
X169392335Y-120906206D01*
X169392328Y-120906202D01*
X169257482Y-120855908D01*
X169257483Y-120855908D01*
X169197883Y-120849501D01*
X169197881Y-120849500D01*
X169197873Y-120849500D01*
X169197865Y-120849500D01*
X168974500Y-120849500D01*
X168907461Y-120829815D01*
X168861706Y-120777011D01*
X168850500Y-120725500D01*
X168850500Y-106374499D01*
X168870185Y-106307460D01*
X168922989Y-106261705D01*
X168974500Y-106250499D01*
X168997871Y-106250499D01*
X168997872Y-106250499D01*
X169057483Y-106244091D01*
X169192331Y-106193796D01*
X169307546Y-106107546D01*
X169393796Y-105992331D01*
X169444091Y-105857483D01*
X169450500Y-105797873D01*
X169450499Y-104002128D01*
X169444091Y-103942517D01*
X169443002Y-103939598D01*
X169393797Y-103807671D01*
X169393793Y-103807664D01*
X169307547Y-103692455D01*
X169307544Y-103692452D01*
X169192335Y-103606206D01*
X169192328Y-103606202D01*
X169057482Y-103555908D01*
X169057483Y-103555908D01*
X168997883Y-103549501D01*
X168997881Y-103549500D01*
X168997873Y-103549500D01*
X168997865Y-103549500D01*
X168874500Y-103549500D01*
X168807461Y-103529815D01*
X168761706Y-103477011D01*
X168750500Y-103425500D01*
X168750500Y-86774499D01*
X168770185Y-86707460D01*
X168822989Y-86661705D01*
X168874500Y-86650499D01*
X168897871Y-86650499D01*
X168897872Y-86650499D01*
X168957483Y-86644091D01*
X169092331Y-86593796D01*
X169207546Y-86507546D01*
X169293796Y-86392331D01*
X169344091Y-86257483D01*
X169350500Y-86197873D01*
X169350499Y-84402128D01*
X169344091Y-84342517D01*
X169343002Y-84339598D01*
X169293797Y-84207671D01*
X169293793Y-84207664D01*
X169207548Y-84092457D01*
X169207546Y-84092454D01*
X169207542Y-84092451D01*
X169207540Y-84092449D01*
X169200187Y-84086944D01*
X169158317Y-84031009D01*
X169150500Y-83987679D01*
X169150500Y-63246081D01*
X169150499Y-63246080D01*
X169141729Y-63201987D01*
X169121659Y-63101088D01*
X169065084Y-62964506D01*
X169065084Y-62964505D01*
X169028999Y-62910500D01*
X169013774Y-62887713D01*
X168982956Y-62841589D01*
X168982952Y-62841584D01*
X167718413Y-61577045D01*
X167669179Y-61544150D01*
X167636355Y-61522218D01*
X167595495Y-61494916D01*
X167595494Y-61494915D01*
X167595492Y-61494914D01*
X167595490Y-61494913D01*
X167458917Y-61438343D01*
X167458907Y-61438340D01*
X167313920Y-61409500D01*
X167313918Y-61409500D01*
X167274499Y-61409500D01*
X167207460Y-61389815D01*
X167161705Y-61337011D01*
X167150499Y-61285500D01*
X167150499Y-61262129D01*
X167150498Y-61262123D01*
X167150497Y-61262116D01*
X167144091Y-61202517D01*
X167093796Y-61067669D01*
X167093795Y-61067668D01*
X167093793Y-61067664D01*
X167007547Y-60952455D01*
X167007544Y-60952452D01*
X166892335Y-60866206D01*
X166892328Y-60866202D01*
X166757482Y-60815908D01*
X166757483Y-60815908D01*
X166697883Y-60809501D01*
X166697881Y-60809500D01*
X166697873Y-60809500D01*
X166697865Y-60809500D01*
X166674500Y-60809500D01*
X166607461Y-60789815D01*
X166561706Y-60737011D01*
X166550500Y-60685500D01*
X166550500Y-48126079D01*
X166521659Y-47981092D01*
X166521658Y-47981091D01*
X166521658Y-47981087D01*
X166521656Y-47981082D01*
X166465087Y-47844511D01*
X166465080Y-47844498D01*
X166382952Y-47721585D01*
X166336532Y-47675165D01*
X166278416Y-47617049D01*
X164492242Y-45830875D01*
X162577066Y-43915698D01*
X162492859Y-43831491D01*
X164499500Y-43831491D01*
X164499500Y-44168508D01*
X164537231Y-44503381D01*
X164537233Y-44503397D01*
X164612223Y-44831953D01*
X164612227Y-44831965D01*
X164723532Y-45150054D01*
X164869752Y-45453683D01*
X164869754Y-45453686D01*
X165049054Y-45739039D01*
X165259175Y-46002523D01*
X165497477Y-46240825D01*
X165760961Y-46450946D01*
X166046314Y-46630246D01*
X166349949Y-46776469D01*
X166588848Y-46860063D01*
X166668034Y-46887772D01*
X166668046Y-46887776D01*
X166996606Y-46962767D01*
X167331492Y-47000499D01*
X167331493Y-47000500D01*
X167331496Y-47000500D01*
X167668507Y-47000500D01*
X167668507Y-47000499D01*
X168003394Y-46962767D01*
X168331954Y-46887776D01*
X168650051Y-46776469D01*
X168953686Y-46630246D01*
X169239039Y-46450946D01*
X169502523Y-46240825D01*
X169740825Y-46002523D01*
X169950946Y-45739039D01*
X170130246Y-45453686D01*
X170276469Y-45150051D01*
X170387776Y-44831954D01*
X170462767Y-44503394D01*
X170500500Y-44168504D01*
X170500500Y-43831496D01*
X170462767Y-43496606D01*
X170387776Y-43168046D01*
X170276469Y-42849949D01*
X170130246Y-42546314D01*
X169950946Y-42260961D01*
X169740825Y-41997477D01*
X169502523Y-41759175D01*
X169239039Y-41549054D01*
X168953686Y-41369754D01*
X168953683Y-41369752D01*
X168650054Y-41223532D01*
X168331965Y-41112227D01*
X168331953Y-41112223D01*
X168003397Y-41037233D01*
X168003381Y-41037231D01*
X167668508Y-40999500D01*
X167668504Y-40999500D01*
X167331496Y-40999500D01*
X167331491Y-40999500D01*
X166996618Y-41037231D01*
X166996602Y-41037233D01*
X166668046Y-41112223D01*
X166668034Y-41112227D01*
X166349945Y-41223532D01*
X166046316Y-41369752D01*
X165760962Y-41549053D01*
X165497477Y-41759174D01*
X165259174Y-41997477D01*
X165049053Y-42260962D01*
X164869752Y-42546316D01*
X164723532Y-42849945D01*
X164612227Y-43168034D01*
X164612223Y-43168046D01*
X164537233Y-43496602D01*
X164537231Y-43496618D01*
X164499500Y-43831491D01*
X162492859Y-43831491D01*
X159478421Y-40817052D01*
X159478414Y-40817046D01*
X159404729Y-40767812D01*
X159404729Y-40767813D01*
X159355491Y-40734913D01*
X159218917Y-40678343D01*
X159218907Y-40678340D01*
X159073920Y-40649500D01*
X159073918Y-40649500D01*
X114273917Y-40649500D01*
X114126082Y-40649500D01*
X114126080Y-40649500D01*
X113981092Y-40678340D01*
X113981082Y-40678343D01*
X113844511Y-40734912D01*
X113844498Y-40734919D01*
X113721584Y-40817048D01*
X113721580Y-40817051D01*
X108217050Y-46321580D01*
X108217044Y-46321588D01*
X108167812Y-46395268D01*
X108167813Y-46395269D01*
X108134921Y-46444496D01*
X108134914Y-46444508D01*
X108078342Y-46581086D01*
X108078340Y-46581092D01*
X108049500Y-46726079D01*
X108049500Y-46726082D01*
X108049500Y-77873918D01*
X108049500Y-77873920D01*
X108049499Y-77873920D01*
X101100500Y-77873920D01*
X101100500Y-44331491D01*
X101599500Y-44331491D01*
X101599500Y-44668508D01*
X101637231Y-45003381D01*
X101637233Y-45003397D01*
X101712223Y-45331953D01*
X101712227Y-45331965D01*
X101823532Y-45650054D01*
X101969752Y-45953683D01*
X101969754Y-45953686D01*
X102149054Y-46239039D01*
X102359175Y-46502523D01*
X102597477Y-46740825D01*
X102860961Y-46950946D01*
X103146314Y-47130246D01*
X103449949Y-47276469D01*
X103688848Y-47360063D01*
X103768034Y-47387772D01*
X103768046Y-47387776D01*
X104096606Y-47462767D01*
X104431492Y-47500499D01*
X104431493Y-47500500D01*
X104431496Y-47500500D01*
X104768507Y-47500500D01*
X104768507Y-47500499D01*
X105103394Y-47462767D01*
X105431954Y-47387776D01*
X105750051Y-47276469D01*
X106053686Y-47130246D01*
X106339039Y-46950946D01*
X106602523Y-46740825D01*
X106840825Y-46502523D01*
X107050946Y-46239039D01*
X107230246Y-45953686D01*
X107376469Y-45650051D01*
X107487776Y-45331954D01*
X107562767Y-45003394D01*
X107600500Y-44668504D01*
X107600500Y-44331496D01*
X107562767Y-43996606D01*
X107487776Y-43668046D01*
X107376469Y-43349949D01*
X107230246Y-43046314D01*
X107050946Y-42760961D01*
X106840825Y-42497477D01*
X106602523Y-42259175D01*
X106339039Y-42049054D01*
X106053686Y-41869754D01*
X106053683Y-41869752D01*
X105750054Y-41723532D01*
X105431965Y-41612227D01*
X105431953Y-41612223D01*
X105103397Y-41537233D01*
X105103381Y-41537231D01*
X104768508Y-41499500D01*
X104768504Y-41499500D01*
X104431496Y-41499500D01*
X104431491Y-41499500D01*
X104096618Y-41537231D01*
X104096602Y-41537233D01*
X103768046Y-41612223D01*
X103768034Y-41612227D01*
X103449945Y-41723532D01*
X103146316Y-41869752D01*
X102860962Y-42049053D01*
X102597477Y-42259174D01*
X102359174Y-42497477D01*
X102149053Y-42760962D01*
X101969752Y-43046316D01*
X101823532Y-43349945D01*
X101712227Y-43668034D01*
X101712223Y-43668046D01*
X101637233Y-43996602D01*
X101637231Y-43996618D01*
X101599500Y-44331491D01*
X101100500Y-44331491D01*
X101100500Y-39924500D01*
X101120185Y-39857461D01*
X101172989Y-39811706D01*
X101224500Y-39800500D01*
X173775500Y-39800500D01*
X173842539Y-39820185D01*
G37*
%TD.AperFunction*%
%TD*%
M02*
